G04*
G04 #@! TF.GenerationSoftware,Altium Limited,Altium Designer,23.4.1 (23)*
G04*
G04 Layer_Physical_Order=1*
G04 Layer_Color=255*
%FSLAX44Y44*%
%MOMM*%
G71*
G04*
G04 #@! TF.SameCoordinates,68BC9408-1245-4EE3-B557-EFF58EF5A4C6*
G04*
G04*
G04 #@! TF.FilePolarity,Positive*
G04*
G01*
G75*
%ADD10C,0.2000*%
G04:AMPARAMS|DCode=30|XSize=0.9mm|YSize=0.8mm|CornerRadius=0.06mm|HoleSize=0mm|Usage=FLASHONLY|Rotation=270.000|XOffset=0mm|YOffset=0mm|HoleType=Round|Shape=RoundedRectangle|*
%AMROUNDEDRECTD30*
21,1,0.9000,0.6800,0,0,270.0*
21,1,0.7800,0.8000,0,0,270.0*
1,1,0.1200,-0.3400,-0.3900*
1,1,0.1200,-0.3400,0.3900*
1,1,0.1200,0.3400,0.3900*
1,1,0.1200,0.3400,-0.3900*
%
%ADD30ROUNDEDRECTD30*%
G04:AMPARAMS|DCode=31|XSize=1.5mm|YSize=2mm|CornerRadius=0.1875mm|HoleSize=0mm|Usage=FLASHONLY|Rotation=0.000|XOffset=0mm|YOffset=0mm|HoleType=Round|Shape=RoundedRectangle|*
%AMROUNDEDRECTD31*
21,1,1.5000,1.6250,0,0,0.0*
21,1,1.1250,2.0000,0,0,0.0*
1,1,0.3750,0.5625,-0.8125*
1,1,0.3750,-0.5625,-0.8125*
1,1,0.3750,-0.5625,0.8125*
1,1,0.3750,0.5625,0.8125*
%
%ADD31ROUNDEDRECTD31*%
G04:AMPARAMS|DCode=32|XSize=3.8mm|YSize=2mm|CornerRadius=0.05mm|HoleSize=0mm|Usage=FLASHONLY|Rotation=0.000|XOffset=0mm|YOffset=0mm|HoleType=Round|Shape=RoundedRectangle|*
%AMROUNDEDRECTD32*
21,1,3.8000,1.9000,0,0,0.0*
21,1,3.7000,2.0000,0,0,0.0*
1,1,0.1000,1.8500,-0.9500*
1,1,0.1000,-1.8500,-0.9500*
1,1,0.1000,-1.8500,0.9500*
1,1,0.1000,1.8500,0.9500*
%
%ADD32ROUNDEDRECTD32*%
G04:AMPARAMS|DCode=33|XSize=0.9mm|YSize=1.4mm|CornerRadius=0.0675mm|HoleSize=0mm|Usage=FLASHONLY|Rotation=0.000|XOffset=0mm|YOffset=0mm|HoleType=Round|Shape=RoundedRectangle|*
%AMROUNDEDRECTD33*
21,1,0.9000,1.2650,0,0,0.0*
21,1,0.7650,1.4000,0,0,0.0*
1,1,0.1350,0.3825,-0.6325*
1,1,0.1350,-0.3825,-0.6325*
1,1,0.1350,-0.3825,0.6325*
1,1,0.1350,0.3825,0.6325*
%
%ADD33ROUNDEDRECTD33*%
%ADD34R,0.8000X0.9000*%
G04:AMPARAMS|DCode=35|XSize=0.5mm|YSize=0.6mm|CornerRadius=0.0375mm|HoleSize=0mm|Usage=FLASHONLY|Rotation=270.000|XOffset=0mm|YOffset=0mm|HoleType=Round|Shape=RoundedRectangle|*
%AMROUNDEDRECTD35*
21,1,0.5000,0.5250,0,0,270.0*
21,1,0.4250,0.6000,0,0,270.0*
1,1,0.0750,-0.2625,-0.2125*
1,1,0.0750,-0.2625,0.2125*
1,1,0.0750,0.2625,0.2125*
1,1,0.0750,0.2625,-0.2125*
%
%ADD35ROUNDEDRECTD35*%
G04:AMPARAMS|DCode=36|XSize=0.81mm|YSize=0.22mm|CornerRadius=0.0275mm|HoleSize=0mm|Usage=FLASHONLY|Rotation=90.000|XOffset=0mm|YOffset=0mm|HoleType=Round|Shape=RoundedRectangle|*
%AMROUNDEDRECTD36*
21,1,0.8100,0.1650,0,0,90.0*
21,1,0.7550,0.2200,0,0,90.0*
1,1,0.0550,0.0825,0.3775*
1,1,0.0550,0.0825,-0.3775*
1,1,0.0550,-0.0825,-0.3775*
1,1,0.0550,-0.0825,0.3775*
%
%ADD36ROUNDEDRECTD36*%
G04:AMPARAMS|DCode=37|XSize=0.22mm|YSize=0.81mm|CornerRadius=0.0275mm|HoleSize=0mm|Usage=FLASHONLY|Rotation=90.000|XOffset=0mm|YOffset=0mm|HoleType=Round|Shape=RoundedRectangle|*
%AMROUNDEDRECTD37*
21,1,0.2200,0.7550,0,0,90.0*
21,1,0.1650,0.8100,0,0,90.0*
1,1,0.0550,0.3775,0.0825*
1,1,0.0550,0.3775,-0.0825*
1,1,0.0550,-0.3775,-0.0825*
1,1,0.0550,-0.3775,0.0825*
%
%ADD37ROUNDEDRECTD37*%
%ADD38R,0.9906X0.7112*%
%ADD39R,1.0000X1.5000*%
G04:AMPARAMS|DCode=40|XSize=0.9mm|YSize=0.8mm|CornerRadius=0.06mm|HoleSize=0mm|Usage=FLASHONLY|Rotation=180.000|XOffset=0mm|YOffset=0mm|HoleType=Round|Shape=RoundedRectangle|*
%AMROUNDEDRECTD40*
21,1,0.9000,0.6800,0,0,180.0*
21,1,0.7800,0.8000,0,0,180.0*
1,1,0.1200,-0.3900,0.3400*
1,1,0.1200,0.3900,0.3400*
1,1,0.1200,0.3900,-0.3400*
1,1,0.1200,-0.3900,-0.3400*
%
%ADD40ROUNDEDRECTD40*%
G04:AMPARAMS|DCode=41|XSize=0.5mm|YSize=0.6mm|CornerRadius=0.0375mm|HoleSize=0mm|Usage=FLASHONLY|Rotation=0.000|XOffset=0mm|YOffset=0mm|HoleType=Round|Shape=RoundedRectangle|*
%AMROUNDEDRECTD41*
21,1,0.5000,0.5250,0,0,0.0*
21,1,0.4250,0.6000,0,0,0.0*
1,1,0.0750,0.2125,-0.2625*
1,1,0.0750,-0.2125,-0.2625*
1,1,0.0750,-0.2125,0.2625*
1,1,0.0750,0.2125,0.2625*
%
%ADD41ROUNDEDRECTD41*%
%ADD65C,0.5000*%
%ADD66R,4.0000X4.0000*%
%ADD67R,1.0000X0.9000*%
%ADD68C,1.0000*%
%ADD69C,0.3000*%
%ADD70C,0.1850*%
%ADD71C,1.5000*%
%ADD72R,1.5000X1.5000*%
%ADD73R,1.6500X1.6500*%
%ADD74C,1.6500*%
%ADD75O,3.0000X6.0000*%
%ADD76R,1.5000X1.5000*%
%ADD77C,6.0000*%
%ADD78C,0.5000*%
%ADD79C,0.8000*%
G36*
X644779Y588765D02*
X642945Y587831D01*
X638802Y584820D01*
X635180Y581198D01*
X632169Y577055D01*
X629844Y572491D01*
X628261Y567620D01*
X627460Y562561D01*
Y561270D01*
X660000D01*
Y560000D01*
X661270D01*
Y527460D01*
X662561D01*
X667620Y528261D01*
X672491Y529844D01*
X677055Y532169D01*
X681198Y535180D01*
X684820Y538802D01*
X687831Y542945D01*
X688765Y544779D01*
X690000Y544483D01*
Y510000D01*
Y25517D01*
X688765Y25221D01*
X687831Y27055D01*
X684820Y31198D01*
X681198Y34820D01*
X677055Y37831D01*
X672491Y40156D01*
X667620Y41739D01*
X662561Y42540D01*
X661270D01*
Y10000D01*
X660000D01*
Y8730D01*
X627460D01*
Y7439D01*
X628261Y2380D01*
X629844Y-2491D01*
X632169Y-7055D01*
X635180Y-11198D01*
X638802Y-14820D01*
X642945Y-17831D01*
X644779Y-18765D01*
X644483Y-20000D01*
X-44483D01*
X-44779Y-18765D01*
X-42945Y-17831D01*
X-38802Y-14820D01*
X-35180Y-11198D01*
X-32169Y-7055D01*
X-29844Y-2491D01*
X-28261Y2380D01*
X-27460Y7439D01*
Y8730D01*
X-60000D01*
Y10000D01*
X-61270D01*
Y42540D01*
X-62561D01*
X-67620Y41739D01*
X-72491Y40156D01*
X-77055Y37831D01*
X-81198Y34820D01*
X-84820Y31198D01*
X-87831Y27055D01*
X-88765Y25221D01*
X-90000Y25517D01*
Y544480D01*
X-88765Y544777D01*
X-87832Y542945D01*
X-84821Y538801D01*
X-81200Y535179D01*
X-77056Y532169D01*
X-72492Y529844D01*
X-67621Y528261D01*
X-62562Y527459D01*
X-61271D01*
Y560000D01*
X-60001D01*
Y561269D01*
X-27461D01*
Y562561D01*
X-28262Y567619D01*
X-29845Y572491D01*
X-32170Y577054D01*
X-35181Y581198D01*
X-38803Y584820D01*
X-42946Y587830D01*
X-44781Y588765D01*
X-44485Y590000D01*
X644483D01*
X644779Y588765D01*
D02*
G37*
%LPC*%
G36*
X250522Y580040D02*
X250470D01*
Y571270D01*
X259240D01*
Y571322D01*
X258556Y573875D01*
X257234Y576165D01*
X255365Y578034D01*
X253075Y579356D01*
X250522Y580040D01*
D02*
G37*
G36*
X247930D02*
X247878D01*
X245325Y579356D01*
X243035Y578034D01*
X241166Y576165D01*
X239844Y573875D01*
X239160Y571322D01*
Y571270D01*
X247930D01*
Y580040D01*
D02*
G37*
G36*
X3222Y580040D02*
X3170D01*
Y571270D01*
X11940D01*
Y571322D01*
X11256Y573875D01*
X9934Y576165D01*
X8065Y578034D01*
X5776Y579356D01*
X3222Y580040D01*
D02*
G37*
G36*
X523222D02*
X523170D01*
Y571270D01*
X531940D01*
Y571322D01*
X531256Y573875D01*
X529934Y576165D01*
X528065Y578034D01*
X525776Y579356D01*
X523222Y580040D01*
D02*
G37*
G36*
X520630D02*
X520579D01*
X518025Y579356D01*
X515736Y578034D01*
X513866Y576165D01*
X512545Y573875D01*
X511860Y571322D01*
Y571270D01*
X520630D01*
Y580040D01*
D02*
G37*
G36*
X630D02*
X579D01*
X-1975Y579356D01*
X-4264Y578034D01*
X-6134Y576165D01*
X-7455Y573875D01*
X-8140Y571322D01*
Y571270D01*
X630D01*
Y580040D01*
D02*
G37*
G36*
X359549Y578750D02*
X342049D01*
Y561250D01*
X359549D01*
Y578750D01*
D02*
G37*
G36*
X606850Y578750D02*
X589350D01*
Y561250D01*
X606850D01*
Y578750D01*
D02*
G37*
G36*
X573852D02*
X571548D01*
X569322Y578154D01*
X567327Y577002D01*
X565698Y575373D01*
X564546Y573378D01*
X563950Y571152D01*
Y568848D01*
X564546Y566623D01*
X565652Y564708D01*
X554694Y553750D01*
X554254D01*
X552876Y553179D01*
X551821Y552124D01*
X551250Y550746D01*
Y549254D01*
X551821Y547876D01*
X552876Y546821D01*
X554254Y546250D01*
X555746D01*
X557124Y546821D01*
X558179Y547876D01*
X558750Y549254D01*
Y550746D01*
X558583Y551150D01*
X569295Y561862D01*
X569322Y561847D01*
X571548Y561250D01*
X573852D01*
X576077Y561847D01*
X578072Y562998D01*
X579701Y564627D01*
X580853Y566623D01*
X581450Y568848D01*
Y571152D01*
X580853Y573378D01*
X579701Y575373D01*
X578072Y577002D01*
X576077Y578154D01*
X573852Y578750D01*
D02*
G37*
G36*
X86850D02*
X69350D01*
Y561250D01*
X86850D01*
Y578750D01*
D02*
G37*
G36*
X548452Y578750D02*
X546148D01*
X543923Y578153D01*
X541928Y577002D01*
X540299Y575373D01*
X539147Y573377D01*
X538550Y571152D01*
Y568848D01*
X539147Y566622D01*
X540299Y564627D01*
X541928Y562998D01*
X543923Y561846D01*
X546148Y561250D01*
X548452D01*
X550678Y561846D01*
X552673Y562998D01*
X554302Y564627D01*
X555454Y566622D01*
X556050Y568848D01*
Y571152D01*
X555454Y573377D01*
X554302Y575373D01*
X552673Y577002D01*
X550678Y578153D01*
X548452Y578750D01*
D02*
G37*
G36*
X259240Y568730D02*
X250470D01*
Y559960D01*
X250522D01*
X253075Y560644D01*
X255365Y561966D01*
X257234Y563835D01*
X258556Y566125D01*
X259240Y568678D01*
Y568730D01*
D02*
G37*
G36*
X247930D02*
X239160D01*
Y568678D01*
X239844Y566125D01*
X241166Y563835D01*
X243035Y561966D01*
X245325Y560644D01*
X247878Y559960D01*
X247930D01*
Y568730D01*
D02*
G37*
G36*
X531940Y568730D02*
X523170D01*
Y559960D01*
X523222D01*
X525776Y560644D01*
X528065Y561966D01*
X529934Y563835D01*
X531256Y566124D01*
X531940Y568678D01*
Y568730D01*
D02*
G37*
G36*
X520630D02*
X511860D01*
Y568678D01*
X512545Y566124D01*
X513866Y563835D01*
X515736Y561966D01*
X518025Y560644D01*
X520579Y559960D01*
X520630D01*
Y568730D01*
D02*
G37*
G36*
X11940D02*
X3170D01*
Y559960D01*
X3222D01*
X5776Y560644D01*
X8065Y561966D01*
X9934Y563835D01*
X11256Y566124D01*
X11940Y568678D01*
Y568730D01*
D02*
G37*
G36*
X630D02*
X-8140D01*
Y568678D01*
X-7455Y566124D01*
X-6134Y563835D01*
X-4264Y561966D01*
X-1975Y560644D01*
X579Y559960D01*
X630D01*
Y568730D01*
D02*
G37*
G36*
X658730Y558730D02*
X627460D01*
Y557439D01*
X628261Y552380D01*
X629844Y547509D01*
X632169Y542945D01*
X635180Y538802D01*
X638802Y535180D01*
X642945Y532169D01*
X647509Y529844D01*
X652380Y528261D01*
X657439Y527460D01*
X658730D01*
Y558730D01*
D02*
G37*
G36*
X-27461Y558730D02*
X-58731D01*
Y527459D01*
X-57440D01*
X-52381Y528261D01*
X-47510Y529844D01*
X-42946Y532169D01*
X-38803Y535179D01*
X-35181Y538801D01*
X-32170Y542945D01*
X-29845Y547509D01*
X-28262Y552380D01*
X-27461Y557439D01*
Y558730D01*
D02*
G37*
G36*
X485790Y520790D02*
X476270D01*
Y511270D01*
X485790D01*
Y520790D01*
D02*
G37*
G36*
X473730D02*
X464210D01*
Y511270D01*
X473730D01*
Y520790D01*
D02*
G37*
G36*
X85790D02*
X76270D01*
Y511270D01*
X85790D01*
Y520790D01*
D02*
G37*
G36*
X73730D02*
X64210D01*
Y511270D01*
X73730D01*
Y520790D01*
D02*
G37*
G36*
X485790Y508730D02*
X476270D01*
Y499210D01*
X485790D01*
Y508730D01*
D02*
G37*
G36*
X473730D02*
X464210D01*
Y499210D01*
X473730D01*
Y508730D01*
D02*
G37*
G36*
X85790D02*
X76270D01*
Y499210D01*
X85790D01*
Y508730D01*
D02*
G37*
G36*
X73730D02*
X64210D01*
Y499210D01*
X73730D01*
Y508730D01*
D02*
G37*
G36*
X513746Y474750D02*
X512254D01*
X510876Y474179D01*
X509821Y473124D01*
X509250Y471746D01*
Y470254D01*
X509821Y468876D01*
X510876Y467821D01*
X512254Y467250D01*
X513746D01*
X515124Y467821D01*
X516179Y468876D01*
X516750Y470254D01*
Y471746D01*
X516179Y473124D01*
X515124Y474179D01*
X513746Y474750D01*
D02*
G37*
G36*
X113746D02*
X112254D01*
X110876Y474179D01*
X109821Y473124D01*
X109250Y471746D01*
Y470254D01*
X109821Y468876D01*
X110876Y467821D01*
X112254Y467250D01*
X113746D01*
X115124Y467821D01*
X116179Y468876D01*
X116750Y470254D01*
Y471746D01*
X116179Y473124D01*
X115124Y474179D01*
X113746Y474750D01*
D02*
G37*
G36*
X633540Y474540D02*
X627270D01*
Y465770D01*
X633540D01*
Y474540D01*
D02*
G37*
G36*
X624730D02*
X618460D01*
Y465770D01*
X624730D01*
Y474540D01*
D02*
G37*
G36*
X233540D02*
X227270D01*
Y465770D01*
X233540D01*
Y474540D01*
D02*
G37*
G36*
X224730D02*
X218460D01*
Y465770D01*
X224730D01*
Y474540D01*
D02*
G37*
G36*
X588000Y534294D02*
X380000D01*
X379122Y534119D01*
X378378Y533622D01*
X372378Y527622D01*
X371881Y526878D01*
X371706Y526000D01*
Y473250D01*
X367750D01*
Y455750D01*
X380250D01*
Y473250D01*
X376294D01*
Y525050D01*
X380950Y529706D01*
X587050D01*
X591706Y525050D01*
Y473250D01*
X587750D01*
Y455750D01*
X600250D01*
Y473250D01*
X596294D01*
Y526000D01*
X596119Y526878D01*
X595622Y527622D01*
X589622Y533622D01*
X588878Y534119D01*
X588000Y534294D01*
D02*
G37*
G36*
X406000Y478824D02*
X405631Y478750D01*
X405254D01*
X404906Y478606D01*
X404537Y478532D01*
X404224Y478323D01*
X403876Y478179D01*
X403610Y477913D01*
X403296Y477704D01*
X403087Y477390D01*
X402821Y477124D01*
X402677Y476776D01*
X402468Y476463D01*
X402394Y476094D01*
X402250Y475746D01*
Y475369D01*
X402177Y475000D01*
Y473250D01*
X399750D01*
Y455750D01*
X412250D01*
Y473250D01*
X409823D01*
Y475000D01*
X409750Y475369D01*
Y475746D01*
X409606Y476094D01*
X409532Y476463D01*
X409323Y476776D01*
X409179Y477124D01*
X408913Y477390D01*
X408704Y477704D01*
X408390Y477913D01*
X408124Y478179D01*
X407776Y478323D01*
X407463Y478532D01*
X407094Y478606D01*
X406746Y478750D01*
X406369D01*
X406000Y478824D01*
D02*
G37*
G36*
X168000Y528294D02*
X33000D01*
X32122Y528119D01*
X31378Y527622D01*
X-22994Y473250D01*
X-32250D01*
Y455750D01*
X-19750D01*
Y470006D01*
X33950Y523706D01*
X167050D01*
X191706Y499050D01*
Y473250D01*
X187750D01*
Y455750D01*
X200250D01*
Y473250D01*
X196294D01*
Y500000D01*
X196119Y500878D01*
X195622Y501622D01*
X169622Y527622D01*
X168878Y528119D01*
X168000Y528294D01*
D02*
G37*
G36*
X633540Y463230D02*
X627270D01*
Y454460D01*
X633540D01*
Y463230D01*
D02*
G37*
G36*
X624730D02*
X618460D01*
Y454460D01*
X624730D01*
Y463230D01*
D02*
G37*
G36*
X233540D02*
X227270D01*
Y454460D01*
X233540D01*
Y463230D01*
D02*
G37*
G36*
X224730D02*
X218460D01*
Y454460D01*
X224730D01*
Y463230D01*
D02*
G37*
G36*
X12250Y473250D02*
X-250D01*
Y455750D01*
X2176D01*
Y454000D01*
X2250Y453631D01*
Y453254D01*
X2394Y452906D01*
X2468Y452537D01*
X2677Y452224D01*
X2821Y451876D01*
X3087Y451609D01*
X3296Y451296D01*
X3609Y451087D01*
X3876Y450821D01*
X4224Y450677D01*
X4537Y450468D01*
X4906Y450394D01*
X5254Y450250D01*
X5631D01*
X6000Y450177D01*
X6369Y450250D01*
X6746D01*
X7094Y450394D01*
X7463Y450468D01*
X7776Y450677D01*
X8124Y450821D01*
X8390Y451087D01*
X8704Y451296D01*
X8913Y451609D01*
X9179Y451876D01*
X9323Y452224D01*
X9532Y452537D01*
X9606Y452906D01*
X9750Y453254D01*
Y453631D01*
X9823Y454000D01*
Y455750D01*
X12250D01*
Y473250D01*
D02*
G37*
G36*
X158270Y472500D02*
Y441270D01*
X174625D01*
Y455000D01*
X174286Y458438D01*
X173283Y461745D01*
X171654Y464792D01*
X169463Y467463D01*
X166792Y469655D01*
X163745Y471283D01*
X160438Y472286D01*
X158270Y472500D01*
D02*
G37*
G36*
X44270D02*
Y441270D01*
X60625D01*
Y455000D01*
X60286Y458438D01*
X59283Y461745D01*
X57655Y464792D01*
X55463Y467463D01*
X52792Y469655D01*
X49745Y471283D01*
X46438Y472286D01*
X44270Y472500D01*
D02*
G37*
G36*
X155730D02*
X153561Y472286D01*
X150255Y471283D01*
X147208Y469655D01*
X144537Y467463D01*
X142346Y464792D01*
X140717Y461745D01*
X139714Y458438D01*
X139375Y455000D01*
Y441270D01*
X155730D01*
Y472500D01*
D02*
G37*
G36*
X41730D02*
X39562Y472286D01*
X36255Y471283D01*
X33208Y469655D01*
X30537Y467463D01*
X28345Y464792D01*
X26717Y461745D01*
X25714Y458438D01*
X25375Y455000D01*
Y441270D01*
X41730D01*
Y472500D01*
D02*
G37*
G36*
X558270D02*
Y441270D01*
X574625D01*
Y455000D01*
X574286Y458438D01*
X573283Y461745D01*
X571655Y464792D01*
X569463Y467463D01*
X566792Y469655D01*
X563745Y471283D01*
X560438Y472286D01*
X558270Y472500D01*
D02*
G37*
G36*
X444270D02*
Y441270D01*
X460625D01*
Y455000D01*
X460286Y458438D01*
X459283Y461745D01*
X457654Y464792D01*
X455463Y467463D01*
X452792Y469655D01*
X449745Y471283D01*
X446438Y472286D01*
X444270Y472500D01*
D02*
G37*
G36*
X555730Y472500D02*
X553562Y472286D01*
X550255Y471283D01*
X547208Y469655D01*
X544537Y467463D01*
X542345Y464792D01*
X540717Y461745D01*
X539714Y458438D01*
X539375Y455000D01*
Y441270D01*
X555730D01*
Y472500D01*
D02*
G37*
G36*
X441730D02*
X439562Y472286D01*
X436255Y471283D01*
X433208Y469655D01*
X430537Y467463D01*
X428345Y464792D01*
X426717Y461745D01*
X425714Y458438D01*
X425375Y455000D01*
Y441270D01*
X441730D01*
Y472500D01*
D02*
G37*
G36*
X381540Y425540D02*
X375270D01*
Y416770D01*
X381540D01*
Y425540D01*
D02*
G37*
G36*
X-18460D02*
X-24730D01*
Y416770D01*
X-18460D01*
Y425540D01*
D02*
G37*
G36*
X372730D02*
X366460D01*
Y416770D01*
X372730D01*
Y425540D01*
D02*
G37*
G36*
X-27270D02*
X-33540D01*
Y416770D01*
X-27270D01*
Y425540D01*
D02*
G37*
G36*
X574625Y438730D02*
X558270D01*
Y407500D01*
X560438Y407714D01*
X563745Y408717D01*
X566792Y410345D01*
X569463Y412537D01*
X571655Y415208D01*
X573283Y418255D01*
X574286Y421562D01*
X574625Y425000D01*
Y438730D01*
D02*
G37*
G36*
X460625D02*
X444270D01*
Y407500D01*
X446438Y407714D01*
X449745Y408717D01*
X452792Y410345D01*
X455463Y412537D01*
X457654Y415208D01*
X459283Y418255D01*
X460286Y421562D01*
X460625Y425000D01*
Y438730D01*
D02*
G37*
G36*
X174625Y438730D02*
X158270D01*
Y407500D01*
X160438Y407714D01*
X163745Y408717D01*
X166792Y410345D01*
X169463Y412537D01*
X171654Y415208D01*
X173283Y418255D01*
X174286Y421562D01*
X174625Y425000D01*
Y438730D01*
D02*
G37*
G36*
X60625D02*
X44270D01*
Y407500D01*
X46438Y407714D01*
X49745Y408717D01*
X52792Y410345D01*
X55463Y412537D01*
X57655Y415208D01*
X59283Y418255D01*
X60286Y421562D01*
X60625Y425000D01*
Y438730D01*
D02*
G37*
G36*
X41730D02*
X25375D01*
Y425000D01*
X25714Y421562D01*
X26717Y418255D01*
X28345Y415208D01*
X30537Y412537D01*
X33208Y410345D01*
X36255Y408717D01*
X39562Y407714D01*
X41730Y407500D01*
Y438730D01*
D02*
G37*
G36*
X155730D02*
X139375D01*
Y425000D01*
X139714Y421562D01*
X140717Y418255D01*
X142346Y415208D01*
X144537Y412537D01*
X147208Y410345D01*
X150255Y408717D01*
X153561Y407714D01*
X155730Y407500D01*
Y438730D01*
D02*
G37*
G36*
X555730Y438730D02*
X539375D01*
Y425000D01*
X539714Y421562D01*
X540717Y418255D01*
X542345Y415208D01*
X544537Y412537D01*
X547208Y410345D01*
X550255Y408717D01*
X553562Y407714D01*
X555730Y407500D01*
Y438730D01*
D02*
G37*
G36*
X441730D02*
X425375D01*
Y425000D01*
X425714Y421562D01*
X426717Y418255D01*
X428345Y415208D01*
X430537Y412537D01*
X433208Y410345D01*
X436255Y408717D01*
X439562Y407714D01*
X441730Y407500D01*
Y438730D01*
D02*
G37*
G36*
X594000Y429823D02*
X593631Y429750D01*
X593254D01*
X592906Y429606D01*
X592537Y429532D01*
X592224Y429323D01*
X591876Y429179D01*
X591610Y428913D01*
X591296Y428704D01*
X591087Y428390D01*
X590821Y428124D01*
X590677Y427776D01*
X590468Y427463D01*
X590394Y427094D01*
X590250Y426746D01*
Y426369D01*
X590177Y426000D01*
Y424250D01*
X587750D01*
Y406750D01*
X600250D01*
Y424250D01*
X597823D01*
Y426000D01*
X597750Y426369D01*
Y426746D01*
X597606Y427094D01*
X597532Y427463D01*
X597323Y427776D01*
X597179Y428124D01*
X596913Y428390D01*
X596704Y428704D01*
X596390Y428913D01*
X596124Y429179D01*
X595776Y429323D01*
X595463Y429532D01*
X595094Y429606D01*
X594746Y429750D01*
X594369D01*
X594000Y429823D01*
D02*
G37*
G36*
X194000D02*
X193631Y429750D01*
X193254D01*
X192906Y429606D01*
X192537Y429532D01*
X192224Y429323D01*
X191876Y429179D01*
X191610Y428913D01*
X191296Y428704D01*
X191087Y428390D01*
X190821Y428124D01*
X190677Y427776D01*
X190468Y427463D01*
X190394Y427094D01*
X190250Y426746D01*
Y426369D01*
X190177Y426000D01*
Y424250D01*
X187750D01*
Y406750D01*
X200250D01*
Y424250D01*
X197824D01*
Y426000D01*
X197750Y426369D01*
Y426746D01*
X197606Y427094D01*
X197532Y427463D01*
X197323Y427776D01*
X197179Y428124D01*
X196913Y428390D01*
X196704Y428704D01*
X196390Y428913D01*
X196124Y429179D01*
X195776Y429323D01*
X195463Y429532D01*
X195094Y429606D01*
X194746Y429750D01*
X194369D01*
X194000Y429823D01*
D02*
G37*
G36*
X381540Y414230D02*
X375270D01*
Y405460D01*
X381540D01*
Y414230D01*
D02*
G37*
G36*
X372730D02*
X366460D01*
Y405460D01*
X372730D01*
Y414230D01*
D02*
G37*
G36*
X-18460D02*
X-24730D01*
Y405460D01*
X-18460D01*
Y414230D01*
D02*
G37*
G36*
X-27270D02*
X-33540D01*
Y405460D01*
X-27270D01*
Y414230D01*
D02*
G37*
G36*
X513746Y411750D02*
X512254D01*
X510876Y411179D01*
X509821Y410124D01*
X509250Y408746D01*
Y407254D01*
X509821Y405876D01*
X510876Y404821D01*
X512254Y404250D01*
X513746D01*
X515124Y404821D01*
X516179Y405876D01*
X516750Y407254D01*
Y408746D01*
X516179Y410124D01*
X515124Y411179D01*
X513746Y411750D01*
D02*
G37*
G36*
X487746D02*
X486254D01*
X484876Y411179D01*
X483821Y410124D01*
X483250Y408746D01*
Y407254D01*
X483821Y405876D01*
X484876Y404821D01*
X486254Y404250D01*
X487746D01*
X489124Y404821D01*
X490179Y405876D01*
X490750Y407254D01*
Y408746D01*
X490179Y410124D01*
X489124Y411179D01*
X487746Y411750D01*
D02*
G37*
G36*
X113746D02*
X112254D01*
X110876Y411179D01*
X109821Y410124D01*
X109250Y408746D01*
Y407254D01*
X109821Y405876D01*
X110876Y404821D01*
X112254Y404250D01*
X113746D01*
X115124Y404821D01*
X116179Y405876D01*
X116750Y407254D01*
Y408746D01*
X116179Y410124D01*
X115124Y411179D01*
X113746Y411750D01*
D02*
G37*
G36*
X87746D02*
X86254D01*
X84876Y411179D01*
X83821Y410124D01*
X83250Y408746D01*
Y407254D01*
X83821Y405876D01*
X84876Y404821D01*
X86254Y404250D01*
X87746D01*
X89124Y404821D01*
X90179Y405876D01*
X90750Y407254D01*
Y408746D01*
X90179Y410124D01*
X89124Y411179D01*
X87746Y411750D01*
D02*
G37*
G36*
X412250Y424250D02*
X399750D01*
Y406750D01*
X402651D01*
X403177Y405480D01*
X402821Y405124D01*
X402250Y403746D01*
Y402254D01*
X402821Y400876D01*
X403876Y399821D01*
X405254Y399250D01*
X406746D01*
X408124Y399821D01*
X409179Y400876D01*
X409750Y402254D01*
Y403746D01*
X409179Y405124D01*
X408823Y405480D01*
X409349Y406750D01*
X412250D01*
Y424250D01*
D02*
G37*
G36*
X232250D02*
X219750D01*
Y406750D01*
X222651D01*
X223177Y405480D01*
X222821Y405124D01*
X222250Y403746D01*
Y402254D01*
X222821Y400876D01*
X223876Y399821D01*
X225254Y399250D01*
X226746D01*
X228124Y399821D01*
X229179Y400876D01*
X229750Y402254D01*
Y403746D01*
X229179Y405124D01*
X228823Y405480D01*
X229349Y406750D01*
X232250D01*
Y424250D01*
D02*
G37*
G36*
X-49960Y378140D02*
X-58730D01*
Y369370D01*
X-49960D01*
Y378140D01*
D02*
G37*
G36*
X-61270D02*
X-70040D01*
Y369370D01*
X-61270D01*
Y378140D01*
D02*
G37*
G36*
X501421Y375790D02*
X501270D01*
Y366270D01*
X510790D01*
Y366421D01*
X510055Y369165D01*
X508634Y371625D01*
X506625Y373634D01*
X504165Y375055D01*
X501421Y375790D01*
D02*
G37*
G36*
X498730D02*
X498579D01*
X495835Y375055D01*
X493375Y373634D01*
X491366Y371625D01*
X489945Y369165D01*
X489210Y366421D01*
Y366270D01*
X498730D01*
Y375790D01*
D02*
G37*
G36*
X101420D02*
X101270D01*
Y366270D01*
X110790D01*
Y366421D01*
X110055Y369165D01*
X108634Y371625D01*
X106625Y373634D01*
X104165Y375055D01*
X101420Y375790D01*
D02*
G37*
G36*
X98730D02*
X98580D01*
X95835Y375055D01*
X93375Y373634D01*
X91366Y371625D01*
X89945Y369165D01*
X89210Y366421D01*
Y366270D01*
X98730D01*
Y375790D01*
D02*
G37*
G36*
X-49960Y366830D02*
X-58730D01*
Y358060D01*
X-49960D01*
Y366830D01*
D02*
G37*
G36*
X-61270D02*
X-70040D01*
Y358060D01*
X-61270D01*
Y366830D01*
D02*
G37*
G36*
X510790Y363730D02*
X501270D01*
Y354210D01*
X501421D01*
X504165Y354945D01*
X506625Y356366D01*
X508634Y358375D01*
X510055Y360835D01*
X510790Y363579D01*
Y363730D01*
D02*
G37*
G36*
X498730D02*
X489210D01*
Y363579D01*
X489945Y360835D01*
X491366Y358375D01*
X493375Y356366D01*
X495835Y354945D01*
X498579Y354210D01*
X498730D01*
Y363730D01*
D02*
G37*
G36*
X110790D02*
X101270D01*
Y354210D01*
X101420D01*
X104165Y354945D01*
X106625Y356366D01*
X108634Y358375D01*
X110055Y360835D01*
X110790Y363579D01*
Y363730D01*
D02*
G37*
G36*
X98730D02*
X89210D01*
Y363579D01*
X89945Y360835D01*
X91366Y358375D01*
X93375Y356366D01*
X95835Y354945D01*
X98580Y354210D01*
X98730D01*
Y363730D01*
D02*
G37*
G36*
X347400Y351601D02*
X344770D01*
Y346270D01*
X350602D01*
Y348400D01*
X350358Y349625D01*
X349664Y350664D01*
X348625Y351358D01*
X347400Y351601D01*
D02*
G37*
G36*
X350602Y343730D02*
X344770D01*
Y338399D01*
X347400D01*
X348625Y338642D01*
X349664Y339336D01*
X350358Y340375D01*
X350602Y341600D01*
Y343730D01*
D02*
G37*
G36*
X53852Y578750D02*
X51548D01*
X49322Y578154D01*
X47327Y577002D01*
X45698Y575373D01*
X44546Y573378D01*
X43950Y571152D01*
Y568848D01*
X44546Y566623D01*
X45698Y564627D01*
X47327Y562998D01*
X49322Y561847D01*
X50706Y561476D01*
Y553000D01*
X50880Y552122D01*
X51378Y551378D01*
X58378Y544378D01*
X59122Y543881D01*
X60000Y543706D01*
X228050D01*
X259706Y512050D01*
Y368000D01*
X259881Y367122D01*
X260378Y366378D01*
X287706Y339050D01*
Y331334D01*
X286436Y330808D01*
X251294Y365950D01*
Y503000D01*
X251119Y503878D01*
X250622Y504622D01*
X219622Y535622D01*
X218878Y536119D01*
X218000Y536294D01*
X40950D01*
X29595Y547650D01*
Y561556D01*
X30678Y561846D01*
X32673Y562998D01*
X34302Y564627D01*
X35454Y566622D01*
X36050Y568848D01*
Y571152D01*
X35454Y573377D01*
X34302Y575373D01*
X32673Y577002D01*
X30678Y578153D01*
X28452Y578750D01*
X26148D01*
X23923Y578153D01*
X21928Y577002D01*
X20299Y575373D01*
X19147Y573377D01*
X18550Y571152D01*
Y568848D01*
X19147Y566622D01*
X20299Y564627D01*
X21928Y562998D01*
X23923Y561846D01*
X25006Y561556D01*
Y546700D01*
X25181Y545822D01*
X25678Y545078D01*
X38378Y532378D01*
X39122Y531880D01*
X40000Y531706D01*
X217050D01*
X246706Y502050D01*
Y365000D01*
X246881Y364122D01*
X247378Y363378D01*
X283248Y327508D01*
X283157Y326883D01*
X281808Y326436D01*
X245624Y362620D01*
X244880Y363117D01*
X244002Y363292D01*
X165952D01*
X127294Y401950D01*
Y500780D01*
X128667Y501147D01*
X130833Y502398D01*
X132602Y504167D01*
X133853Y506333D01*
X134500Y508749D01*
Y511251D01*
X133853Y513667D01*
X132602Y515833D01*
X130833Y517602D01*
X128667Y518853D01*
X126251Y519500D01*
X123749D01*
X121333Y518853D01*
X119167Y517602D01*
X117398Y515833D01*
X116147Y513667D01*
X115500Y511251D01*
Y508749D01*
X116147Y506333D01*
X117398Y504167D01*
X119167Y502398D01*
X121333Y501147D01*
X122706Y500780D01*
Y401000D01*
X122881Y400122D01*
X123378Y399378D01*
X163380Y359376D01*
X164124Y358879D01*
X165002Y358704D01*
X243052D01*
X279706Y322050D01*
Y317459D01*
X278436Y316933D01*
X266746Y328622D01*
X266002Y329119D01*
X265124Y329294D01*
X139058D01*
X127294Y341058D01*
Y355780D01*
X128667Y356147D01*
X130833Y357398D01*
X132602Y359167D01*
X133853Y361333D01*
X134500Y363749D01*
Y366251D01*
X133853Y368667D01*
X132602Y370833D01*
X130833Y372602D01*
X128667Y373853D01*
X126251Y374500D01*
X123749D01*
X121333Y373853D01*
X119167Y372602D01*
X117398Y370833D01*
X116147Y368667D01*
X115500Y366251D01*
Y363749D01*
X116147Y361333D01*
X117398Y359167D01*
X119167Y357398D01*
X121333Y356147D01*
X122706Y355780D01*
Y340108D01*
X122881Y339230D01*
X123378Y338485D01*
X136486Y325378D01*
X137230Y324881D01*
X138108Y324706D01*
X264174D01*
X275706Y313174D01*
Y310464D01*
X274825Y309876D01*
X273175D01*
X272008Y309392D01*
X271524Y308225D01*
Y306744D01*
X246168D01*
X245290Y306569D01*
X245252Y306544D01*
X242748D01*
X242710Y306569D01*
X241833Y306744D01*
X90228D01*
X76294Y320678D01*
Y355512D01*
X78667Y356147D01*
X80833Y357398D01*
X82602Y359167D01*
X83853Y361333D01*
X84500Y363749D01*
Y366251D01*
X83853Y368667D01*
X82602Y370833D01*
X80833Y372602D01*
X78667Y373853D01*
X76251Y374500D01*
X73749D01*
X71333Y373853D01*
X69167Y372602D01*
X67398Y370833D01*
X66147Y368667D01*
X65500Y366251D01*
Y363749D01*
X66147Y361333D01*
X67398Y359167D01*
X69167Y357398D01*
X71333Y356147D01*
X71706Y356048D01*
Y319727D01*
X71881Y318850D01*
X72378Y318105D01*
X87655Y302828D01*
X88400Y302330D01*
X89277Y302156D01*
X241117D01*
X241155Y302131D01*
X242033Y301956D01*
X245968D01*
X246845Y302131D01*
X246883Y302156D01*
X271524D01*
Y300675D01*
X272008Y299508D01*
X273175Y299024D01*
X274825D01*
X275992Y299508D01*
X276008Y299508D01*
X277175Y299024D01*
X278825D01*
X279992Y299508D01*
X280008Y299508D01*
X281175Y299024D01*
X282825D01*
X283992Y299508D01*
X284008Y299508D01*
X285175Y299024D01*
X286825D01*
X287992Y299508D01*
X288008Y299508D01*
X289175Y299024D01*
X290825D01*
X291992Y299508D01*
X292008Y299508D01*
X293175Y299024D01*
X294825D01*
X295992Y299508D01*
X296008Y299508D01*
X297175Y299024D01*
X298825D01*
X299992Y299508D01*
X300008Y299508D01*
X301175Y299024D01*
X302825D01*
X303992Y299508D01*
X304008Y299508D01*
X305175Y299024D01*
X306825D01*
X307992Y299508D01*
X308008Y299508D01*
X309175Y299024D01*
X310825D01*
X311992Y299508D01*
X312008Y299508D01*
X313175Y299024D01*
X314825D01*
X315992Y299508D01*
X316008Y299508D01*
X317175Y299024D01*
X318825D01*
X319992Y299508D01*
X320008Y299508D01*
X321175Y299024D01*
X322825D01*
X323992Y299508D01*
X324008Y299508D01*
X325175Y299024D01*
X326825D01*
X327992Y299508D01*
X328476Y300675D01*
Y308225D01*
X328294Y308663D01*
Y310991D01*
X328391Y311087D01*
X328704Y311296D01*
X328913Y311610D01*
X329179Y311876D01*
X329323Y312224D01*
X329532Y312537D01*
X329606Y312906D01*
X329750Y313254D01*
Y313631D01*
X329823Y314000D01*
Y323714D01*
X330400D01*
X331122Y323857D01*
X331734Y324266D01*
X332143Y324878D01*
X332286Y325600D01*
Y326026D01*
X333000Y327000D01*
X333556Y327000D01*
X336399D01*
Y325600D01*
X336642Y324375D01*
X337336Y323336D01*
X338375Y322642D01*
X339600Y322398D01*
X342230D01*
Y329000D01*
Y335602D01*
X339600D01*
X338375Y335358D01*
X337336Y334664D01*
X336642Y333625D01*
X336399Y332400D01*
Y331898D01*
X335500Y331000D01*
X333000Y331000D01*
X332286Y331974D01*
Y332400D01*
X332143Y333122D01*
X331734Y333734D01*
X331122Y334143D01*
X330400Y334286D01*
X329823D01*
Y339714D01*
X330400D01*
X331122Y339857D01*
X331734Y340266D01*
X332143Y340878D01*
X332286Y341600D01*
Y342026D01*
X333000Y343000D01*
X333556Y343000D01*
X336399D01*
Y341600D01*
X336642Y340375D01*
X337336Y339336D01*
X338375Y338642D01*
X339600Y338399D01*
X342230D01*
Y345000D01*
Y351601D01*
X339600D01*
X338375Y351358D01*
X337336Y350664D01*
X336642Y349625D01*
X336399Y348400D01*
Y347898D01*
X335500Y347000D01*
X333000Y347000D01*
X332286Y347974D01*
Y348400D01*
X332143Y349122D01*
X331734Y349734D01*
X331122Y350143D01*
X330400Y350286D01*
X322600D01*
X321878Y350143D01*
X321266Y349734D01*
X320857Y349122D01*
X320714Y348400D01*
Y341600D01*
X320857Y340878D01*
X321266Y340266D01*
X321878Y339857D01*
X322177Y339798D01*
Y334202D01*
X321878Y334143D01*
X321266Y333734D01*
X320857Y333122D01*
X320714Y332400D01*
Y325600D01*
X320857Y324878D01*
X321266Y324266D01*
X321878Y323857D01*
X322177Y323798D01*
Y314000D01*
X322250Y313631D01*
Y313254D01*
X322394Y312906D01*
X322468Y312537D01*
X322677Y312224D01*
X322821Y311876D01*
X323087Y311610D01*
X323296Y311296D01*
X323024Y310014D01*
X323019Y310005D01*
X322825Y309876D01*
X321175D01*
X320008Y309392D01*
X319992Y309392D01*
X318825Y309876D01*
X317175D01*
X316008Y309392D01*
X315992Y309392D01*
X314825Y309876D01*
X313175D01*
X312008Y309392D01*
X311992Y309392D01*
X310825Y309876D01*
X309175D01*
X308008Y309392D01*
X307992Y309392D01*
X306825Y309876D01*
X305175D01*
X304008Y309392D01*
X303992Y309392D01*
X302825Y309876D01*
X301175D01*
X300008Y309392D01*
X299992Y309392D01*
X298825Y309876D01*
X297175D01*
X296008Y309392D01*
X295992Y309392D01*
X294825Y309876D01*
X293175D01*
X292294Y310464D01*
Y340000D01*
X292120Y340878D01*
X291622Y341622D01*
X264294Y368950D01*
Y513000D01*
X264119Y513878D01*
X263622Y514622D01*
X230622Y547622D01*
X229878Y548120D01*
X229000Y548294D01*
X60950D01*
X55294Y553950D01*
Y561637D01*
X56077Y561847D01*
X58072Y562998D01*
X59701Y564627D01*
X60853Y566623D01*
X61450Y568848D01*
Y571152D01*
X60853Y573378D01*
X59701Y575373D01*
X58072Y577002D01*
X56077Y578154D01*
X53852Y578750D01*
D02*
G37*
G36*
X347400Y335602D02*
X344770D01*
Y330270D01*
X350602D01*
Y332400D01*
X350358Y333625D01*
X349664Y334664D01*
X348625Y335358D01*
X347400Y335602D01*
D02*
G37*
G36*
X350602Y327730D02*
X344770D01*
Y322398D01*
X347400D01*
X348625Y322642D01*
X349664Y323336D01*
X350358Y324375D01*
X350602Y325600D01*
Y327730D01*
D02*
G37*
G36*
X12250Y424250D02*
X-250D01*
Y406750D01*
X3706D01*
Y316347D01*
X3880Y315469D01*
X4378Y314725D01*
X24725Y294378D01*
X25470Y293881D01*
X26347Y293706D01*
X259536D01*
X260124Y292825D01*
Y291175D01*
X260608Y290008D01*
X260608Y289992D01*
X260124Y288825D01*
Y287175D01*
X259536Y286294D01*
X258009D01*
X257124Y287179D01*
X255746Y287750D01*
X254254D01*
X252876Y287179D01*
X251821Y286124D01*
X251250Y284746D01*
Y283254D01*
X251821Y281876D01*
X252876Y280821D01*
X254254Y280250D01*
X255746D01*
X257124Y280821D01*
X258009Y281706D01*
X259536D01*
X260124Y280825D01*
Y279175D01*
X260608Y278008D01*
X260608Y277992D01*
X260124Y276825D01*
Y275175D01*
X259536Y274294D01*
X243950D01*
X235622Y282622D01*
X234878Y283119D01*
X234000Y283294D01*
X2650D01*
X-52407Y338351D01*
X-51846Y339322D01*
X-51250Y341548D01*
Y343852D01*
X-51846Y346077D01*
X-52998Y348072D01*
X-54628Y349701D01*
X-56623Y350853D01*
X-58848Y351450D01*
X-61152D01*
X-63378Y350853D01*
X-65373Y349701D01*
X-67002Y348072D01*
X-68154Y346077D01*
X-68750Y343852D01*
Y341548D01*
X-68154Y339322D01*
X-67002Y337327D01*
X-65373Y335698D01*
X-63378Y334546D01*
X-61152Y333950D01*
X-58848D01*
X-56623Y334546D01*
X-55651Y335107D01*
X77Y279378D01*
X821Y278881D01*
X1699Y278706D01*
X233050D01*
X240192Y271564D01*
X239666Y270294D01*
X-50D01*
X-47878Y318122D01*
X-48622Y318619D01*
X-49500Y318794D01*
X-51341D01*
X-51846Y320678D01*
X-52998Y322673D01*
X-54627Y324302D01*
X-56622Y325454D01*
X-58848Y326050D01*
X-61152D01*
X-63377Y325454D01*
X-65373Y324302D01*
X-67002Y322673D01*
X-68154Y320678D01*
X-68750Y318452D01*
Y316148D01*
X-68154Y313923D01*
X-67002Y311928D01*
X-65373Y310299D01*
X-63377Y309147D01*
X-61152Y308550D01*
X-58848D01*
X-56622Y309147D01*
X-54627Y310299D01*
X-52998Y311928D01*
X-51846Y313923D01*
X-51770Y314206D01*
X-50450D01*
X-2622Y266378D01*
X-1878Y265881D01*
X-1000Y265706D01*
X259536D01*
X260124Y264825D01*
Y263175D01*
X260608Y262008D01*
X260608Y261992D01*
X260124Y260825D01*
Y259916D01*
X258854Y259390D01*
X258622Y259622D01*
X257878Y260119D01*
X257000Y260294D01*
X209000D01*
X208122Y260119D01*
X207378Y259622D01*
X205378Y257622D01*
X204881Y256878D01*
X204706Y256000D01*
Y253750D01*
X201750D01*
Y249823D01*
X195000D01*
X194791Y249782D01*
X192375D01*
X191741Y249656D01*
X191203Y249297D01*
X190844Y248759D01*
X190718Y248125D01*
Y243875D01*
X190844Y243241D01*
X191203Y242703D01*
X191741Y242344D01*
X191938Y242305D01*
X191938Y241010D01*
X191238Y240871D01*
X190273Y240227D01*
X189629Y239262D01*
X189403Y238125D01*
Y237270D01*
X195000D01*
Y236000D01*
X196270D01*
Y230903D01*
X197625D01*
X198762Y231129D01*
X199190Y231415D01*
X200460Y230759D01*
Y226960D01*
X205730D01*
Y234000D01*
X208270D01*
Y226960D01*
X213540D01*
Y228250D01*
X223250D01*
Y232176D01*
X241000D01*
X241209Y232218D01*
X243625D01*
X244259Y232344D01*
X244797Y232703D01*
X245156Y233241D01*
X245282Y233875D01*
Y237078D01*
X245353Y237250D01*
Y238750D01*
X245300Y238879D01*
X245327Y239015D01*
X245169Y239250D01*
X245165Y239259D01*
X245085Y239525D01*
X245016Y240072D01*
X245126Y240749D01*
X245202Y241136D01*
X245353Y241500D01*
Y245750D01*
X245282Y245922D01*
Y248125D01*
X245220Y248436D01*
X245763Y249402D01*
X246050Y249706D01*
X253607D01*
X254133Y248436D01*
X253821Y248124D01*
X253250Y246746D01*
Y245254D01*
X253821Y243876D01*
X254216Y243480D01*
X254871Y242813D01*
X254216Y241821D01*
X253983Y241588D01*
X253412Y240209D01*
Y238717D01*
X253983Y237339D01*
X255038Y236284D01*
X256416Y235713D01*
X257908D01*
X259286Y236284D01*
X260341Y237339D01*
X260912Y238717D01*
Y240209D01*
X260795Y240492D01*
X261827Y241524D01*
X269325D01*
X270492Y242008D01*
X270976Y243175D01*
Y244825D01*
X270492Y245992D01*
X270492Y246008D01*
X270976Y247175D01*
Y248825D01*
X270492Y249992D01*
X270492Y250008D01*
X270976Y251175D01*
Y252825D01*
X270973Y252832D01*
X270495Y254000D01*
X270973Y255168D01*
X270976Y255175D01*
Y256825D01*
X270973Y256832D01*
X270495Y258000D01*
X270973Y259168D01*
X270976Y259175D01*
Y260825D01*
X270492Y261992D01*
X270492Y262008D01*
X270976Y263175D01*
Y264825D01*
X270973Y264832D01*
X270495Y266000D01*
X270973Y267168D01*
X270976Y267175D01*
Y268825D01*
X270973Y268832D01*
X270495Y270000D01*
X270973Y271168D01*
X270976Y271175D01*
Y272825D01*
X270973Y272832D01*
X270495Y274000D01*
X270973Y275168D01*
X270976Y275175D01*
Y276825D01*
X270492Y277992D01*
X270492Y278008D01*
X270976Y279175D01*
Y280825D01*
X270973Y280832D01*
X270495Y282000D01*
X270973Y283168D01*
X270976Y283175D01*
Y284825D01*
X270973Y284832D01*
X270495Y286000D01*
X270973Y287168D01*
X270976Y287175D01*
Y288825D01*
X270492Y289992D01*
X270492Y290008D01*
X270976Y291175D01*
Y292825D01*
X270973Y292832D01*
X270495Y294000D01*
X270973Y295168D01*
X270976Y295175D01*
Y296825D01*
X270492Y297992D01*
X269325Y298476D01*
X261775D01*
X261337Y298294D01*
X27298D01*
X8294Y317298D01*
Y406750D01*
X12250D01*
Y424250D01*
D02*
G37*
G36*
X-58848Y300650D02*
X-61152D01*
X-63377Y300054D01*
X-65373Y298902D01*
X-67002Y297273D01*
X-68154Y295278D01*
X-68750Y293052D01*
Y290748D01*
X-68154Y288523D01*
X-67002Y286528D01*
X-65373Y284899D01*
X-63377Y283747D01*
X-61152Y283150D01*
X-58848D01*
X-56622Y283747D01*
X-54627Y284899D01*
X-52998Y286528D01*
X-51846Y288523D01*
X-51250Y290748D01*
Y293052D01*
X-51846Y295278D01*
X-52998Y297273D01*
X-54627Y298902D01*
X-56622Y300054D01*
X-58848Y300650D01*
D02*
G37*
G36*
X322540Y292540D02*
X301270D01*
Y271270D01*
X322540D01*
Y292540D01*
D02*
G37*
G36*
X298730D02*
X277460D01*
Y271270D01*
X298730D01*
Y292540D01*
D02*
G37*
G36*
X326551Y578750D02*
X324247D01*
X322022Y578154D01*
X320027Y577002D01*
X318398Y575373D01*
X317246Y573378D01*
X316649Y571152D01*
Y568848D01*
X317246Y566623D01*
X318398Y564628D01*
X320027Y562999D01*
X322022Y561847D01*
X323105Y561556D01*
Y541249D01*
X318751D01*
Y532251D01*
X318647Y532000D01*
Y527000D01*
X318791Y526653D01*
X318853Y526283D01*
X318853D01*
X318983Y525547D01*
X318957Y525336D01*
X318829Y524767D01*
X318819Y524747D01*
X318682Y524554D01*
X318708Y524397D01*
X318647Y524250D01*
Y522000D01*
X318751Y521749D01*
Y512749D01*
X322707D01*
Y431619D01*
X322881Y430741D01*
X323379Y429997D01*
X418804Y334571D01*
Y265357D01*
X417484Y264036D01*
X416471Y264486D01*
X416294Y264642D01*
Y332914D01*
X416119Y333792D01*
X415622Y334536D01*
X302294Y447864D01*
Y512250D01*
X306250D01*
Y521254D01*
X306352Y521501D01*
Y523751D01*
X306291Y523898D01*
X306318Y524055D01*
X306172Y524259D01*
X306042Y524837D01*
X306016Y525048D01*
X306147Y525784D01*
X306147D01*
X306208Y526154D01*
X306352Y526501D01*
Y531501D01*
X306250Y531748D01*
Y540750D01*
X302294D01*
Y561556D01*
X303377Y561846D01*
X305373Y562998D01*
X307002Y564627D01*
X308154Y566623D01*
X308750Y568848D01*
Y571152D01*
X308154Y573377D01*
X307002Y575373D01*
X305373Y577002D01*
X303377Y578154D01*
X301152Y578750D01*
X298848D01*
X296623Y578154D01*
X294627Y577002D01*
X292998Y575373D01*
X291846Y573377D01*
X291250Y571152D01*
Y568848D01*
X291846Y566623D01*
X292998Y564627D01*
X294627Y562998D01*
X296623Y561846D01*
X297706Y561556D01*
Y540750D01*
X293750D01*
Y531751D01*
X293646Y531501D01*
Y526501D01*
X293790Y526154D01*
X293852Y525784D01*
X293852D01*
X293982Y525048D01*
X293957Y524837D01*
X293828Y524268D01*
X293818Y524248D01*
X293681Y524055D01*
X293707Y523898D01*
X293646Y523751D01*
Y521501D01*
X293750Y521250D01*
Y512250D01*
X297706D01*
Y446914D01*
X297881Y446036D01*
X298378Y445292D01*
X411706Y331964D01*
Y266392D01*
X411522Y266282D01*
X410252Y267002D01*
Y328730D01*
X410078Y329608D01*
X409580Y330353D01*
X276894Y463039D01*
Y561556D01*
X277977Y561846D01*
X279973Y562998D01*
X281602Y564627D01*
X282754Y566623D01*
X283350Y568848D01*
Y571152D01*
X282754Y573377D01*
X281602Y575373D01*
X279973Y577002D01*
X277977Y578154D01*
X275752Y578750D01*
X273448D01*
X271223Y578154D01*
X269227Y577002D01*
X267598Y575373D01*
X266446Y573377D01*
X265850Y571152D01*
Y568848D01*
X266446Y566623D01*
X267598Y564627D01*
X269227Y562998D01*
X271223Y561846D01*
X272306Y561556D01*
Y462088D01*
X272481Y461211D01*
X272978Y460466D01*
X405664Y327780D01*
Y267141D01*
X396817Y258294D01*
X340464D01*
X339876Y259175D01*
Y260825D01*
X340005Y261019D01*
X341549Y261147D01*
X341876Y260821D01*
X343254Y260250D01*
X344746D01*
X346124Y260821D01*
X347179Y261876D01*
X347750Y263254D01*
Y264746D01*
X347179Y266124D01*
X346124Y267179D01*
X344746Y267750D01*
X343254D01*
X341876Y267179D01*
X341549Y266853D01*
X340005Y266981D01*
X339876Y267175D01*
Y268825D01*
X339873Y268832D01*
X339395Y270000D01*
X339873Y271168D01*
X339876Y271175D01*
Y272825D01*
X339873Y272832D01*
X339395Y274000D01*
X339873Y275168D01*
X339876Y275175D01*
Y276825D01*
X339392Y277992D01*
X339392Y278008D01*
X339876Y279175D01*
Y280825D01*
X340464Y281706D01*
X359964D01*
X361784Y279885D01*
X362528Y279388D01*
X363218Y279251D01*
Y277375D01*
X363344Y276741D01*
X363703Y276203D01*
X364241Y275844D01*
X364875Y275718D01*
X368078D01*
X368250Y275647D01*
X369750D01*
X369879Y275700D01*
X370015Y275673D01*
X370250Y275831D01*
X370260Y275835D01*
X370525Y275915D01*
X371072Y275984D01*
X371749Y275874D01*
X372136Y275798D01*
X372500Y275647D01*
X376750D01*
X376922Y275718D01*
X379125D01*
X379759Y275844D01*
X380297Y276203D01*
X380656Y276741D01*
X380782Y277375D01*
Y280537D01*
X381950Y281706D01*
X386251D01*
X386812Y280352D01*
X387867Y279297D01*
X389245Y278726D01*
X390737D01*
X392115Y279297D01*
X393170Y280352D01*
X393741Y281730D01*
Y283222D01*
X393170Y284600D01*
X392162Y285609D01*
X393179Y286626D01*
X393750Y288004D01*
Y289496D01*
X393179Y290874D01*
X392124Y291929D01*
X390746Y292500D01*
X389254D01*
X387876Y291929D01*
X386821Y290874D01*
X386270Y289544D01*
X380782D01*
Y292625D01*
X380656Y293259D01*
X380297Y293797D01*
X379759Y294156D01*
X379125Y294282D01*
X376922D01*
X376750Y294353D01*
X372500D01*
X372136Y294202D01*
X371749Y294126D01*
X371072Y294016D01*
X370525Y294085D01*
X370255Y294166D01*
X370015Y294327D01*
X369879Y294300D01*
X369750Y294353D01*
X368250D01*
X368078Y294282D01*
X364875D01*
X364241Y294156D01*
X363703Y293797D01*
X363344Y293259D01*
X363218Y292625D01*
Y292218D01*
X362741D01*
X361892Y292049D01*
X361172Y291568D01*
X359822Y290218D01*
X340515D01*
X339876Y291175D01*
Y292825D01*
X339873Y292832D01*
X339395Y294000D01*
X339873Y295168D01*
X339876Y295175D01*
Y296825D01*
X339392Y297992D01*
X338225Y298476D01*
X330675D01*
X329508Y297992D01*
X329024Y296825D01*
Y295175D01*
X329027Y295168D01*
X329505Y294000D01*
X329027Y292832D01*
X329024Y292825D01*
Y291175D01*
X329508Y290008D01*
X329508Y289992D01*
X329024Y288825D01*
Y287175D01*
X329027Y287168D01*
X329505Y286000D01*
X329027Y284832D01*
X329024Y284825D01*
Y283175D01*
X329508Y282008D01*
X329508Y281992D01*
X329024Y280825D01*
Y279175D01*
X329508Y278008D01*
X329508Y277992D01*
X329024Y276825D01*
Y275175D01*
X329027Y275168D01*
X329505Y274000D01*
X329027Y272832D01*
X329024Y272825D01*
Y271175D01*
X329027Y271168D01*
X329505Y270000D01*
X329027Y268832D01*
X329024Y268825D01*
Y267175D01*
X329027Y267168D01*
X329505Y266000D01*
X329027Y264832D01*
X329024Y264825D01*
Y263175D01*
X329508Y262008D01*
X329508Y261992D01*
X329024Y260825D01*
Y259175D01*
X329027Y259168D01*
X329505Y258000D01*
X329027Y256832D01*
X329024Y256825D01*
Y255175D01*
X329027Y255168D01*
X329505Y254000D01*
X329027Y252832D01*
X329024Y252825D01*
Y251175D01*
X329508Y250008D01*
X329508Y249992D01*
X329024Y248825D01*
Y247175D01*
X329027Y247168D01*
X329505Y246000D01*
X329027Y244832D01*
X329024Y244825D01*
Y243175D01*
X329508Y242008D01*
X330675Y241524D01*
X338225D01*
X338663Y241706D01*
X465618D01*
X466496Y241880D01*
X467240Y242378D01*
X475622Y250760D01*
X476119Y251504D01*
X476294Y252382D01*
Y355512D01*
X478667Y356147D01*
X480833Y357398D01*
X482602Y359167D01*
X483853Y361333D01*
X484500Y363749D01*
Y366251D01*
X483853Y368667D01*
X482602Y370833D01*
X480833Y372602D01*
X478667Y373853D01*
X476251Y374500D01*
X473749D01*
X471333Y373853D01*
X469167Y372602D01*
X467398Y370833D01*
X466147Y368667D01*
X465500Y366251D01*
Y363749D01*
X466147Y361333D01*
X467398Y359167D01*
X469167Y357398D01*
X471333Y356147D01*
X471706Y356048D01*
Y253332D01*
X464668Y246294D01*
X408027D01*
X407501Y247564D01*
X422721Y262784D01*
X423218Y263528D01*
X423392Y264406D01*
Y335522D01*
X423218Y336399D01*
X422721Y337144D01*
X327295Y432570D01*
Y512749D01*
X331251D01*
Y521753D01*
X331353Y522000D01*
Y524250D01*
X331292Y524397D01*
X331318Y524554D01*
X331173Y524758D01*
X331043Y525336D01*
X331017Y525547D01*
X331147Y526283D01*
X331147D01*
X331209Y526653D01*
X331353Y527000D01*
Y532000D01*
X331251Y532247D01*
Y541249D01*
X327693D01*
Y561556D01*
X328777Y561847D01*
X330772Y562999D01*
X332401Y564628D01*
X333553Y566623D01*
X334149Y568848D01*
Y571152D01*
X333553Y573378D01*
X332401Y575373D01*
X330772Y577002D01*
X328777Y578154D01*
X326551Y578750D01*
D02*
G37*
G36*
X322540Y268730D02*
X301270D01*
Y247460D01*
X322540D01*
Y268730D01*
D02*
G37*
G36*
X298730D02*
X277460D01*
Y247460D01*
X298730D01*
Y268730D01*
D02*
G37*
G36*
X-19008Y240850D02*
X-25231D01*
Y236024D01*
X-19008D01*
Y240850D01*
D02*
G37*
G36*
X-27771D02*
X-33994D01*
Y236024D01*
X-27771D01*
Y240850D01*
D02*
G37*
G36*
X-6600Y239601D02*
X-8730D01*
Y233770D01*
X-3399D01*
Y236400D01*
X-3642Y237625D01*
X-4336Y238664D01*
X-5375Y239358D01*
X-6600Y239601D01*
D02*
G37*
G36*
X-11270D02*
X-13400D01*
X-14625Y239358D01*
X-15664Y238664D01*
X-16358Y237625D01*
X-16602Y236400D01*
Y233770D01*
X-11270D01*
Y239601D01*
D02*
G37*
G36*
X602625Y242626D02*
X598270D01*
Y231270D01*
X607127D01*
Y238125D01*
X606784Y239848D01*
X605808Y241308D01*
X604348Y242284D01*
X602625Y242626D01*
D02*
G37*
G36*
X595730D02*
X591375D01*
X589652Y242284D01*
X588192Y241308D01*
X587216Y239848D01*
X586874Y238125D01*
Y231270D01*
X595730D01*
Y242626D01*
D02*
G37*
G36*
X193730Y234730D02*
X189403D01*
Y233875D01*
X189629Y232738D01*
X190273Y231773D01*
X191238Y231129D01*
X192375Y230903D01*
X193730D01*
Y234730D01*
D02*
G37*
G36*
X-65298Y239560D02*
X-77704D01*
Y229948D01*
X-65298D01*
Y239560D01*
D02*
G37*
G36*
X-19008Y233484D02*
X-25231D01*
Y228658D01*
X-19008D01*
Y233484D01*
D02*
G37*
G36*
X-27771D02*
X-33994D01*
Y228658D01*
X-27771D01*
Y233484D01*
D02*
G37*
G36*
X526251Y519500D02*
X523749D01*
X521333Y518853D01*
X519167Y517602D01*
X517398Y515833D01*
X516147Y513667D01*
X515500Y511251D01*
Y508749D01*
X516147Y506333D01*
X517398Y504167D01*
X519167Y502398D01*
X521333Y501147D01*
X522706Y500780D01*
Y401000D01*
X522881Y400122D01*
X523378Y399378D01*
X548706Y374050D01*
Y231950D01*
X538050Y221294D01*
X327344D01*
X324294Y224344D01*
Y225564D01*
X325564Y226090D01*
X328276Y223378D01*
X329021Y222881D01*
X329898Y222706D01*
X519650D01*
X520528Y222881D01*
X521272Y223378D01*
X526622Y228728D01*
X527119Y229472D01*
X527294Y230350D01*
Y355780D01*
X528667Y356147D01*
X530833Y357398D01*
X532602Y359167D01*
X533853Y361333D01*
X534500Y363749D01*
Y366251D01*
X533853Y368667D01*
X532602Y370833D01*
X530833Y372602D01*
X528667Y373853D01*
X526251Y374500D01*
X523749D01*
X521333Y373853D01*
X519167Y372602D01*
X517398Y370833D01*
X516147Y368667D01*
X515500Y366251D01*
Y363749D01*
X516147Y361333D01*
X517398Y359167D01*
X519167Y357398D01*
X521333Y356147D01*
X522706Y355780D01*
Y231301D01*
X518699Y227294D01*
X330849D01*
X328294Y229849D01*
Y231337D01*
X328476Y231775D01*
Y239325D01*
X327992Y240492D01*
X326825Y240976D01*
X325175D01*
X324008Y240492D01*
X323992Y240492D01*
X322825Y240976D01*
X321175D01*
X320008Y240492D01*
X319992Y240492D01*
X318825Y240976D01*
X317175D01*
X316008Y240492D01*
X315992Y240492D01*
X314825Y240976D01*
X313175D01*
X312008Y240492D01*
X311992Y240492D01*
X310825Y240976D01*
X309175D01*
X308008Y240492D01*
X307992Y240492D01*
X306825Y240976D01*
X305175D01*
X304008Y240492D01*
X303992Y240492D01*
X302825Y240976D01*
X301175D01*
X300008Y240492D01*
X299992Y240492D01*
X298825Y240976D01*
X297175D01*
X296008Y240492D01*
X295992Y240492D01*
X294825Y240976D01*
X293175D01*
X292008Y240492D01*
X291992Y240492D01*
X290825Y240976D01*
X289175D01*
X288008Y240492D01*
X287992Y240492D01*
X286825Y240976D01*
X285175D01*
X284008Y240492D01*
X283992Y240492D01*
X282825Y240976D01*
X281175D01*
X280008Y240492D01*
X279992Y240492D01*
X278825Y240976D01*
X277175D01*
X276008Y240492D01*
X275992Y240492D01*
X274825Y240976D01*
X273175D01*
X272008Y240492D01*
X271524Y239325D01*
Y231775D01*
X272008Y230608D01*
X273175Y230124D01*
X274543D01*
X275062Y229309D01*
X275166Y228951D01*
X273797Y227583D01*
X272546D01*
X271167Y227012D01*
X270112Y225957D01*
X269541Y224579D01*
Y223087D01*
X270112Y221709D01*
X271167Y220654D01*
X272546Y220083D01*
X274037D01*
X275416Y220654D01*
X275900Y221138D01*
X276556Y221664D01*
X277559Y221138D01*
X277876Y220821D01*
X279254Y220250D01*
X280746D01*
X282124Y220821D01*
X282436Y221133D01*
X283706Y220607D01*
Y219381D01*
X280371Y216046D01*
X15286D01*
Y219400D01*
X15143Y220122D01*
X14734Y220734D01*
X14122Y221143D01*
X13353Y221999D01*
Y225998D01*
X14122Y226857D01*
X14734Y227266D01*
X15143Y227878D01*
X15286Y228600D01*
Y229177D01*
X17000D01*
X17369Y229250D01*
X17746D01*
X18094Y229394D01*
X18463Y229468D01*
X18776Y229677D01*
X19124Y229821D01*
X19390Y230087D01*
X19704Y230296D01*
X19913Y230609D01*
X20179Y230876D01*
X20323Y231224D01*
X20532Y231537D01*
X20606Y231906D01*
X20750Y232254D01*
Y232631D01*
X20824Y233000D01*
X20750Y233369D01*
Y233746D01*
X20606Y234094D01*
X20532Y234463D01*
X20323Y234776D01*
X20179Y235124D01*
X19913Y235390D01*
X19704Y235704D01*
X19390Y235913D01*
X19124Y236179D01*
X18776Y236323D01*
X18463Y236532D01*
X18094Y236606D01*
X17746Y236750D01*
X17369D01*
X17000Y236824D01*
X15202D01*
X15143Y237122D01*
X14734Y237734D01*
X14122Y238143D01*
X13400Y238286D01*
X6600D01*
X5878Y238143D01*
X5266Y237734D01*
X4857Y237122D01*
X4714Y236400D01*
Y228600D01*
X4857Y227878D01*
X5266Y227266D01*
X5878Y226857D01*
X6647Y225998D01*
Y221999D01*
X5878Y221143D01*
X5266Y220734D01*
X4857Y220122D01*
X4714Y219400D01*
Y216046D01*
X-4714D01*
Y219400D01*
X-4857Y220122D01*
X-5266Y220734D01*
X-5878Y221143D01*
X-6600Y221286D01*
X-7026D01*
X-8000Y222000D01*
X-8000Y222556D01*
Y225399D01*
X-6600D01*
X-5375Y225642D01*
X-4336Y226336D01*
X-3642Y227375D01*
X-3399Y228600D01*
Y231230D01*
X-10000D01*
X-16602D01*
Y228600D01*
X-16358Y227375D01*
X-15664Y226336D01*
X-14625Y225642D01*
X-13400Y225399D01*
X-12898D01*
X-12000Y224500D01*
X-12000Y222000D01*
X-12974Y221286D01*
X-13400D01*
X-14122Y221143D01*
X-14734Y220734D01*
X-15143Y220122D01*
X-15286Y219400D01*
Y216046D01*
X-20298D01*
Y218060D01*
X-32704D01*
Y208448D01*
X-20298D01*
Y211458D01*
X-15258D01*
X-15143Y210878D01*
X-14734Y210266D01*
X-14122Y209857D01*
X-13400Y209714D01*
X-6600D01*
X-5878Y209857D01*
X-5266Y210266D01*
X-4857Y210878D01*
X-4742Y211458D01*
X4742D01*
X4857Y210878D01*
X5266Y210266D01*
X5878Y209857D01*
X6600Y209714D01*
X13400D01*
X14122Y209857D01*
X14734Y210266D01*
X15143Y210878D01*
X15258Y211458D01*
X66418D01*
X66944Y210188D01*
X20550Y163794D01*
X15286D01*
Y165400D01*
X15143Y166122D01*
X14734Y166734D01*
X14122Y167143D01*
X13353Y168000D01*
Y172000D01*
X14122Y172857D01*
X14734Y173266D01*
X15143Y173878D01*
X15286Y174600D01*
Y174926D01*
X16750D01*
X17119Y175000D01*
X17496D01*
X17844Y175144D01*
X18213Y175218D01*
X18526Y175427D01*
X18874Y175571D01*
X19140Y175837D01*
X19454Y176046D01*
X19663Y176360D01*
X19929Y176626D01*
X20073Y176974D01*
X20282Y177287D01*
X20356Y177656D01*
X20500Y178004D01*
Y178381D01*
X20573Y178750D01*
X20500Y179119D01*
Y179496D01*
X20356Y179844D01*
X20282Y180213D01*
X20073Y180526D01*
X19929Y180874D01*
X19663Y181140D01*
X19454Y181454D01*
X19140Y181663D01*
X18874Y181929D01*
X18526Y182073D01*
X18213Y182282D01*
X17844Y182356D01*
X17496Y182500D01*
X17119D01*
X16750Y182573D01*
X15252D01*
X15143Y183122D01*
X14734Y183734D01*
X14122Y184143D01*
X13400Y184286D01*
X6600D01*
X5878Y184143D01*
X5266Y183734D01*
X4857Y183122D01*
X4714Y182400D01*
Y174600D01*
X4857Y173878D01*
X5266Y173266D01*
X5878Y172857D01*
X6647Y172000D01*
Y168000D01*
X5878Y167143D01*
X5266Y166734D01*
X4857Y166122D01*
X4714Y165400D01*
Y164304D01*
X-4714D01*
Y165400D01*
X-4857Y166122D01*
X-5266Y166734D01*
X-5878Y167143D01*
X-6600Y167286D01*
X-7026D01*
X-8000Y168000D01*
X-8000Y168556D01*
Y171399D01*
X-6600D01*
X-5375Y171642D01*
X-4336Y172336D01*
X-3642Y173375D01*
X-3399Y174600D01*
Y177230D01*
X-10000D01*
X-16602D01*
Y174600D01*
X-16358Y173375D01*
X-15664Y172336D01*
X-14625Y171642D01*
X-13400Y171399D01*
X-12898D01*
X-12000Y170500D01*
X-12000Y168000D01*
X-12974Y167286D01*
X-13400D01*
X-14122Y167143D01*
X-14734Y166734D01*
X-15143Y166122D01*
X-15286Y165400D01*
Y163181D01*
X-20298D01*
Y164061D01*
X-32704D01*
Y154448D01*
X-20298D01*
Y157573D01*
X-15281D01*
X-15143Y156878D01*
X-14734Y156266D01*
X-14122Y155857D01*
X-13400Y155714D01*
X-6600D01*
X-5878Y155857D01*
X-5266Y156266D01*
X-4857Y156878D01*
X-4714Y157600D01*
Y158696D01*
X4714D01*
Y157600D01*
X4857Y156878D01*
X5266Y156266D01*
X5878Y155857D01*
X6600Y155714D01*
X13400D01*
X14122Y155857D01*
X14734Y156266D01*
X15143Y156878D01*
X15286Y157600D01*
Y159206D01*
X21500D01*
X22378Y159381D01*
X23122Y159878D01*
X70334Y207090D01*
X82300D01*
X82685Y205820D01*
X82389Y205622D01*
X73378Y196611D01*
X72881Y195867D01*
X72706Y194989D01*
Y174220D01*
X71333Y173853D01*
X69167Y172602D01*
X67398Y170833D01*
X66147Y168667D01*
X65500Y166251D01*
Y163749D01*
X66147Y161333D01*
X67398Y159167D01*
X69167Y157398D01*
X71333Y156147D01*
X73749Y155500D01*
X76251D01*
X78667Y156147D01*
X80833Y157398D01*
X82602Y159167D01*
X83853Y161333D01*
X84500Y163749D01*
Y166251D01*
X83853Y168667D01*
X82602Y170833D01*
X80833Y172602D01*
X78667Y173853D01*
X77294Y174220D01*
Y194039D01*
X84962Y201706D01*
X289000D01*
X289196Y201745D01*
X289822Y200574D01*
X281797Y192550D01*
X126172D01*
X125294Y192375D01*
X124549Y191878D01*
X123378Y190706D01*
X122881Y189962D01*
X122706Y189084D01*
Y174220D01*
X121333Y173853D01*
X119167Y172602D01*
X117398Y170833D01*
X116147Y168667D01*
X115500Y166251D01*
Y163749D01*
X116147Y161333D01*
X117398Y159167D01*
X119167Y157398D01*
X121333Y156147D01*
X123749Y155500D01*
X126251D01*
X128667Y156147D01*
X130833Y157398D01*
X132602Y159167D01*
X133853Y161333D01*
X134500Y163749D01*
Y166251D01*
X133853Y168667D01*
X132602Y170833D01*
X130833Y172602D01*
X128667Y173853D01*
X127294Y174220D01*
Y187962D01*
X282747D01*
X283625Y188136D01*
X284370Y188633D01*
X299622Y203886D01*
X300119Y204631D01*
X300294Y205508D01*
Y229536D01*
X301175Y230124D01*
X302825D01*
X303706Y229536D01*
Y182950D01*
X286050Y165294D01*
X169000D01*
X168122Y165119D01*
X167378Y164622D01*
X73378Y70622D01*
X72881Y69878D01*
X72706Y69000D01*
Y29220D01*
X71333Y28853D01*
X69167Y27602D01*
X67398Y25833D01*
X66147Y23667D01*
X65500Y21251D01*
Y18749D01*
X66147Y16333D01*
X67398Y14167D01*
X69167Y12398D01*
X71333Y11147D01*
X73749Y10500D01*
X76251D01*
X78667Y11147D01*
X80833Y12398D01*
X82602Y14167D01*
X83853Y16333D01*
X84500Y18749D01*
Y21251D01*
X83853Y23667D01*
X82602Y25833D01*
X80833Y27602D01*
X78667Y28853D01*
X77294Y29220D01*
Y68050D01*
X169950Y160706D01*
X287000D01*
X287878Y160881D01*
X288622Y161378D01*
X306436Y179192D01*
X307706Y178666D01*
Y139009D01*
X306821Y138124D01*
X306250Y136746D01*
Y135254D01*
X306821Y133876D01*
X307876Y132821D01*
X309254Y132250D01*
X310746D01*
X312124Y132821D01*
X313179Y133876D01*
X313750Y135254D01*
Y136746D01*
X313179Y138124D01*
X312294Y139009D01*
Y201091D01*
X313564Y201617D01*
X338276Y176906D01*
X339020Y176408D01*
X339898Y176234D01*
X460522D01*
X466858Y169898D01*
X466147Y168667D01*
X465500Y166251D01*
Y163749D01*
X466147Y161333D01*
X467398Y159167D01*
X469167Y157398D01*
X471333Y156147D01*
X473749Y155500D01*
X476251D01*
X478667Y156147D01*
X480833Y157398D01*
X482602Y159167D01*
X483853Y161333D01*
X484500Y163749D01*
Y166251D01*
X483853Y168667D01*
X482602Y170833D01*
X480833Y172602D01*
X478667Y173853D01*
X476251Y174500D01*
X473749D01*
X471333Y173853D01*
X470102Y173142D01*
X463094Y180150D01*
X462350Y180647D01*
X461472Y180822D01*
X340848D01*
X339593Y182077D01*
X340403Y183063D01*
X340676Y182881D01*
X341554Y182706D01*
X504050D01*
X516858Y169898D01*
X516147Y168667D01*
X515500Y166251D01*
Y163749D01*
X516147Y161333D01*
X517398Y159167D01*
X519167Y157398D01*
X521333Y156147D01*
X523749Y155500D01*
X526251D01*
X528667Y156147D01*
X530833Y157398D01*
X532602Y159167D01*
X533853Y161333D01*
X534500Y163749D01*
Y166251D01*
X533853Y168667D01*
X532602Y170833D01*
X530833Y172602D01*
X528667Y173853D01*
X526251Y174500D01*
X523749D01*
X521333Y173853D01*
X520102Y173142D01*
X506622Y186622D01*
X505878Y187120D01*
X505000Y187294D01*
X342504D01*
X320294Y209504D01*
Y220059D01*
X321564Y220585D01*
X324772Y217378D01*
X325516Y216880D01*
X326394Y216706D01*
X539000D01*
X539878Y216880D01*
X540622Y217378D01*
X552622Y229378D01*
X553119Y230122D01*
X553294Y231000D01*
Y375000D01*
X553119Y375878D01*
X552622Y376622D01*
X527294Y401950D01*
Y500780D01*
X528667Y501147D01*
X530833Y502398D01*
X532602Y504167D01*
X533853Y506333D01*
X534500Y508749D01*
Y511251D01*
X533853Y513667D01*
X532602Y515833D01*
X530833Y517602D01*
X528667Y518853D01*
X526251Y519500D01*
D02*
G37*
G36*
X607127Y228730D02*
X598270D01*
Y217374D01*
X602625D01*
X604348Y217716D01*
X605808Y218692D01*
X606784Y220152D01*
X607127Y221875D01*
Y228730D01*
D02*
G37*
G36*
X595730D02*
X586874D01*
Y221875D01*
X587216Y220152D01*
X588192Y218692D01*
X589652Y217716D01*
X591375Y217374D01*
X595730D01*
Y228730D01*
D02*
G37*
G36*
X-65298Y218060D02*
X-77704D01*
Y208448D01*
X-65298D01*
Y218060D01*
D02*
G37*
G36*
X603325Y199603D02*
X600770D01*
Y191270D01*
X606603D01*
Y196325D01*
X606353Y197579D01*
X605643Y198643D01*
X604579Y199354D01*
X603325Y199603D01*
D02*
G37*
G36*
X598230D02*
X595675D01*
X594421Y199354D01*
X593357Y198643D01*
X592646Y197579D01*
X592397Y196325D01*
Y191270D01*
X598230D01*
Y199603D01*
D02*
G37*
G36*
X664325Y199603D02*
X661770D01*
Y191270D01*
X667603D01*
Y196325D01*
X667354Y197579D01*
X666643Y198643D01*
X665579Y199353D01*
X664325Y199603D01*
D02*
G37*
G36*
X659230D02*
X656675D01*
X655421Y199353D01*
X654357Y198643D01*
X653646Y197579D01*
X653397Y196325D01*
Y191270D01*
X659230D01*
Y199603D01*
D02*
G37*
G36*
X-19008Y186850D02*
X-25231D01*
Y182024D01*
X-19008D01*
Y186850D01*
D02*
G37*
G36*
X-27771D02*
X-33994D01*
Y182024D01*
X-27771D01*
Y186850D01*
D02*
G37*
G36*
X638500Y303284D02*
X601500D01*
X600817Y303148D01*
X600238Y302762D01*
X599851Y302183D01*
X599716Y301500D01*
Y282500D01*
X599851Y281817D01*
X600238Y281238D01*
X600817Y280851D01*
X601500Y280716D01*
X616176D01*
Y241311D01*
X614375D01*
X613156Y241069D01*
X612122Y240378D01*
X611431Y239344D01*
X611189Y238125D01*
Y221875D01*
X611431Y220656D01*
X612122Y219622D01*
X613156Y218931D01*
X614375Y218689D01*
X616427D01*
Y215172D01*
X616250Y214746D01*
Y213254D01*
X616427Y212828D01*
Y204172D01*
X616250Y203746D01*
Y202254D01*
X616427Y201828D01*
Y198238D01*
X615924Y198138D01*
X615287Y197713D01*
X614862Y197076D01*
X614712Y196325D01*
Y183675D01*
X614862Y182924D01*
X615287Y182287D01*
X615924Y181862D01*
X616675Y181712D01*
X624325D01*
X625076Y181862D01*
X625713Y182287D01*
X626138Y182924D01*
X626288Y183675D01*
Y196325D01*
X626138Y197076D01*
X625713Y197713D01*
X625076Y198138D01*
X624325Y198288D01*
X624073D01*
Y218689D01*
X625625D01*
X626844Y218931D01*
X627878Y219622D01*
X628569Y220656D01*
X628811Y221875D01*
Y238125D01*
X628569Y239344D01*
X627878Y240378D01*
X626844Y241069D01*
X625625Y241311D01*
X623824D01*
Y280716D01*
X638500D01*
X639183Y280851D01*
X639762Y281238D01*
X640148Y281817D01*
X640284Y282500D01*
Y301500D01*
X640148Y302183D01*
X639762Y302762D01*
X639183Y303148D01*
X638500Y303284D01*
D02*
G37*
G36*
X648625Y241311D02*
X637375D01*
X636156Y241069D01*
X635122Y240378D01*
X634431Y239344D01*
X634189Y238125D01*
Y221875D01*
X634431Y220656D01*
X635122Y219622D01*
X636156Y218931D01*
X636628Y218838D01*
Y211000D01*
X636922Y209518D01*
X636796Y209392D01*
X635968Y208151D01*
X635676Y206688D01*
Y198288D01*
X635675D01*
X634924Y198138D01*
X634287Y197713D01*
X633862Y197076D01*
X633712Y196325D01*
Y183675D01*
X633862Y182924D01*
X634287Y182287D01*
X634924Y181862D01*
X635675Y181712D01*
X643325D01*
X644076Y181862D01*
X644713Y182287D01*
X645138Y182924D01*
X645288Y183675D01*
Y196325D01*
X645138Y197076D01*
X644713Y197713D01*
X644076Y198138D01*
X643325Y198288D01*
X643324D01*
Y204692D01*
X645439Y205113D01*
X647506Y206494D01*
X648887Y208561D01*
X649372Y211000D01*
Y218838D01*
X649844Y218931D01*
X650878Y219622D01*
X651569Y220656D01*
X651811Y221875D01*
Y238125D01*
X651569Y239344D01*
X650878Y240378D01*
X649844Y241069D01*
X648625Y241311D01*
D02*
G37*
G36*
X606603Y188730D02*
X600770D01*
Y180397D01*
X603325D01*
X604579Y180647D01*
X605643Y181357D01*
X606353Y182421D01*
X606603Y183675D01*
Y188730D01*
D02*
G37*
G36*
X598230D02*
X592397D01*
Y183675D01*
X592646Y182421D01*
X593357Y181357D01*
X594421Y180647D01*
X595675Y180397D01*
X598230D01*
Y188730D01*
D02*
G37*
G36*
X667603Y188730D02*
X661770D01*
Y180397D01*
X664325D01*
X665579Y180646D01*
X666643Y181357D01*
X667354Y182421D01*
X667603Y183675D01*
Y188730D01*
D02*
G37*
G36*
X659230D02*
X653397D01*
Y183675D01*
X653646Y182421D01*
X654357Y181357D01*
X655421Y180646D01*
X656675Y180397D01*
X659230D01*
Y188730D01*
D02*
G37*
G36*
X-6600Y185602D02*
X-8730D01*
Y179770D01*
X-3399D01*
Y182400D01*
X-3642Y183625D01*
X-4336Y184664D01*
X-5375Y185358D01*
X-6600Y185602D01*
D02*
G37*
G36*
X-11270D02*
X-13400D01*
X-14625Y185358D01*
X-15664Y184664D01*
X-16358Y183625D01*
X-16602Y182400D01*
Y179770D01*
X-11270D01*
Y185602D01*
D02*
G37*
G36*
X240746Y185250D02*
X239254D01*
X237876Y184679D01*
X236821Y183624D01*
X236250Y182246D01*
Y180754D01*
X236821Y179376D01*
X237876Y178321D01*
X239254Y177750D01*
X240746D01*
X242124Y178321D01*
X243179Y179376D01*
X243750Y180754D01*
Y182246D01*
X243179Y183624D01*
X242124Y184679D01*
X240746Y185250D01*
D02*
G37*
G36*
X220746D02*
X219254D01*
X217876Y184679D01*
X216821Y183624D01*
X216250Y182246D01*
Y180754D01*
X216821Y179376D01*
X217876Y178321D01*
X219254Y177750D01*
X220746D01*
X222124Y178321D01*
X223179Y179376D01*
X223750Y180754D01*
Y182246D01*
X223179Y183624D01*
X222124Y184679D01*
X220746Y185250D01*
D02*
G37*
G36*
X200746D02*
X199254D01*
X197876Y184679D01*
X196821Y183624D01*
X196250Y182246D01*
Y180754D01*
X196821Y179376D01*
X197876Y178321D01*
X199254Y177750D01*
X200746D01*
X202124Y178321D01*
X203179Y179376D01*
X203750Y180754D01*
Y182246D01*
X203179Y183624D01*
X202124Y184679D01*
X200746Y185250D01*
D02*
G37*
G36*
X-65298Y185560D02*
X-77704D01*
Y175949D01*
X-65298D01*
Y185560D01*
D02*
G37*
G36*
X-19008Y179485D02*
X-25231D01*
Y174659D01*
X-19008D01*
Y179485D01*
D02*
G37*
G36*
X-27771D02*
X-33994D01*
Y174659D01*
X-27771D01*
Y179485D01*
D02*
G37*
G36*
X101420Y175790D02*
X101270D01*
Y166270D01*
X110790D01*
Y166420D01*
X110055Y169165D01*
X108634Y171625D01*
X106625Y173634D01*
X104165Y175055D01*
X101420Y175790D01*
D02*
G37*
G36*
X501421D02*
X501270D01*
Y166270D01*
X510790D01*
Y166420D01*
X510055Y169165D01*
X508634Y171625D01*
X506625Y173634D01*
X504165Y175055D01*
X501421Y175790D01*
D02*
G37*
G36*
X498730D02*
X498579D01*
X495835Y175055D01*
X493375Y173634D01*
X491366Y171625D01*
X489945Y169165D01*
X489210Y166420D01*
Y166270D01*
X498730D01*
Y175790D01*
D02*
G37*
G36*
X98730D02*
X98580D01*
X95835Y175055D01*
X93375Y173634D01*
X91366Y171625D01*
X89945Y169165D01*
X89210Y166420D01*
Y166270D01*
X98730D01*
Y175790D01*
D02*
G37*
G36*
X-65298Y164061D02*
X-77704D01*
Y154448D01*
X-65298D01*
Y164061D01*
D02*
G37*
G36*
X510790Y163730D02*
X501270D01*
Y154210D01*
X501421D01*
X504165Y154945D01*
X506625Y156366D01*
X508634Y158375D01*
X510055Y160835D01*
X510790Y163580D01*
Y163730D01*
D02*
G37*
G36*
X498730D02*
X489210D01*
Y163580D01*
X489945Y160835D01*
X491366Y158375D01*
X493375Y156366D01*
X495835Y154945D01*
X498579Y154210D01*
X498730D01*
Y163730D01*
D02*
G37*
G36*
X110790D02*
X101270D01*
Y154210D01*
X101420D01*
X104165Y154945D01*
X106625Y156366D01*
X108634Y158375D01*
X110055Y160835D01*
X110790Y163580D01*
Y163730D01*
D02*
G37*
G36*
X98730D02*
X89210D01*
Y163580D01*
X89945Y160835D01*
X91366Y158375D01*
X93375Y156366D01*
X95835Y154945D01*
X98580Y154210D01*
X98730D01*
Y163730D01*
D02*
G37*
G36*
X513746Y124750D02*
X512254D01*
X510876Y124179D01*
X509821Y123124D01*
X509250Y121746D01*
Y120254D01*
X509821Y118876D01*
X510876Y117821D01*
X512254Y117250D01*
X513746D01*
X515124Y117821D01*
X516179Y118876D01*
X516750Y120254D01*
Y121746D01*
X516179Y123124D01*
X515124Y124179D01*
X513746Y124750D01*
D02*
G37*
G36*
X487746D02*
X486254D01*
X484876Y124179D01*
X483821Y123124D01*
X483250Y121746D01*
Y120254D01*
X483821Y118876D01*
X484876Y117821D01*
X486254Y117250D01*
X487746D01*
X489124Y117821D01*
X490179Y118876D01*
X490750Y120254D01*
Y121746D01*
X490179Y123124D01*
X489124Y124179D01*
X487746Y124750D01*
D02*
G37*
G36*
X113746D02*
X112254D01*
X110876Y124179D01*
X109821Y123124D01*
X109250Y121746D01*
Y120254D01*
X109821Y118876D01*
X110876Y117821D01*
X112254Y117250D01*
X113746D01*
X115124Y117821D01*
X116179Y118876D01*
X116750Y120254D01*
Y121746D01*
X116179Y123124D01*
X115124Y124179D01*
X113746Y124750D01*
D02*
G37*
G36*
X87746D02*
X86254D01*
X84876Y124179D01*
X83821Y123124D01*
X83250Y121746D01*
Y120254D01*
X83821Y118876D01*
X84876Y117821D01*
X86254Y117250D01*
X87746D01*
X89124Y117821D01*
X90179Y118876D01*
X90750Y120254D01*
Y121746D01*
X90179Y123124D01*
X89124Y124179D01*
X87746Y124750D01*
D02*
G37*
G36*
X578000Y135294D02*
X544000D01*
X543122Y135119D01*
X542378Y134622D01*
X455050Y47294D01*
X424950D01*
X412250Y59994D01*
Y74250D01*
X399750D01*
Y56750D01*
X409006D01*
X422378Y43378D01*
X423122Y42881D01*
X424000Y42706D01*
X456000D01*
X456878Y42881D01*
X457622Y43378D01*
X544950Y130706D01*
X577050D01*
X587750Y120006D01*
Y105750D01*
X600250D01*
Y123250D01*
X590994D01*
X579622Y134622D01*
X578878Y135119D01*
X578000Y135294D01*
D02*
G37*
G36*
X380250Y123250D02*
X367750D01*
Y116794D01*
X319500D01*
X318622Y116620D01*
X317878Y116122D01*
X269550Y67794D01*
X232250D01*
Y74250D01*
X219750D01*
Y56750D01*
X232250D01*
Y63206D01*
X270500D01*
X271378Y63380D01*
X272122Y63878D01*
X320450Y112206D01*
X367750D01*
Y105750D01*
X380250D01*
Y123250D01*
D02*
G37*
G36*
X-19750D02*
X-32250D01*
Y105750D01*
X-19750D01*
Y123250D01*
D02*
G37*
G36*
X632250D02*
X619750D01*
Y105750D01*
X622177D01*
Y104000D01*
X622250Y103631D01*
Y103254D01*
X622394Y102906D01*
X622468Y102537D01*
X622677Y102224D01*
X622821Y101876D01*
X623087Y101610D01*
X623296Y101296D01*
X623610Y101087D01*
X623876Y100821D01*
X624224Y100677D01*
X624537Y100468D01*
X624906Y100394D01*
X625254Y100250D01*
X625631D01*
X626000Y100176D01*
X626369Y100250D01*
X626746D01*
X627094Y100394D01*
X627463Y100468D01*
X627776Y100677D01*
X628124Y100821D01*
X628390Y101087D01*
X628704Y101296D01*
X628913Y101610D01*
X629179Y101876D01*
X629323Y102224D01*
X629532Y102537D01*
X629606Y102906D01*
X629750Y103254D01*
Y103631D01*
X629823Y104000D01*
Y105750D01*
X632250D01*
Y123250D01*
D02*
G37*
G36*
X412250D02*
X399750D01*
Y105750D01*
X402177D01*
Y104000D01*
X402250Y103631D01*
Y103254D01*
X402394Y102906D01*
X402468Y102537D01*
X402677Y102224D01*
X402821Y101876D01*
X403087Y101610D01*
X403296Y101296D01*
X403610Y101087D01*
X403876Y100821D01*
X404224Y100677D01*
X404537Y100468D01*
X404906Y100394D01*
X405254Y100250D01*
X405631D01*
X406000Y100176D01*
X406369Y100250D01*
X406746D01*
X407094Y100394D01*
X407463Y100468D01*
X407776Y100677D01*
X408124Y100821D01*
X408390Y101087D01*
X408704Y101296D01*
X408913Y101610D01*
X409179Y101876D01*
X409323Y102224D01*
X409532Y102537D01*
X409606Y102906D01*
X409750Y103254D01*
Y103631D01*
X409823Y104000D01*
Y105750D01*
X412250D01*
Y123250D01*
D02*
G37*
G36*
X232250D02*
X219750D01*
Y105750D01*
X222176D01*
Y104000D01*
X222250Y103631D01*
Y103254D01*
X222394Y102906D01*
X222468Y102537D01*
X222677Y102224D01*
X222821Y101876D01*
X223087Y101610D01*
X223296Y101296D01*
X223610Y101087D01*
X223876Y100821D01*
X224224Y100677D01*
X224537Y100468D01*
X224906Y100394D01*
X225254Y100250D01*
X225631D01*
X226000Y100176D01*
X226369Y100250D01*
X226746D01*
X227094Y100394D01*
X227463Y100468D01*
X227776Y100677D01*
X228124Y100821D01*
X228390Y101087D01*
X228704Y101296D01*
X228913Y101610D01*
X229179Y101876D01*
X229323Y102224D01*
X229532Y102537D01*
X229606Y102906D01*
X229750Y103254D01*
Y103631D01*
X229823Y104000D01*
Y105750D01*
X232250D01*
Y123250D01*
D02*
G37*
G36*
X12250D02*
X-250D01*
Y105750D01*
X2176D01*
Y104000D01*
X2250Y103631D01*
Y103254D01*
X2394Y102906D01*
X2468Y102537D01*
X2677Y102224D01*
X2821Y101876D01*
X3087Y101610D01*
X3296Y101296D01*
X3609Y101087D01*
X3876Y100821D01*
X4224Y100677D01*
X4537Y100468D01*
X4906Y100394D01*
X5254Y100250D01*
X5631D01*
X6000Y100176D01*
X6369Y100250D01*
X6746D01*
X7094Y100394D01*
X7463Y100468D01*
X7776Y100677D01*
X8124Y100821D01*
X8390Y101087D01*
X8704Y101296D01*
X8913Y101610D01*
X9179Y101876D01*
X9323Y102224D01*
X9532Y102537D01*
X9606Y102906D01*
X9750Y103254D01*
Y103631D01*
X9823Y104000D01*
Y105750D01*
X12250D01*
Y123250D01*
D02*
G37*
G36*
X558270Y122500D02*
Y91270D01*
X574625D01*
Y105000D01*
X574286Y108438D01*
X573283Y111745D01*
X571655Y114792D01*
X569463Y117463D01*
X566792Y119655D01*
X563745Y121283D01*
X560438Y122286D01*
X558270Y122500D01*
D02*
G37*
G36*
X444270D02*
Y91270D01*
X460625D01*
Y105000D01*
X460286Y108438D01*
X459283Y111745D01*
X457654Y114792D01*
X455463Y117463D01*
X452792Y119655D01*
X449745Y121283D01*
X446438Y122286D01*
X444270Y122500D01*
D02*
G37*
G36*
X555730Y122500D02*
X553562Y122286D01*
X550255Y121283D01*
X547208Y119655D01*
X544537Y117463D01*
X542345Y114792D01*
X540717Y111745D01*
X539714Y108438D01*
X539375Y105000D01*
Y91270D01*
X555730D01*
Y122500D01*
D02*
G37*
G36*
X441730D02*
X439562Y122286D01*
X436255Y121283D01*
X433208Y119655D01*
X430537Y117463D01*
X428345Y114792D01*
X426717Y111745D01*
X425714Y108438D01*
X425375Y105000D01*
Y91270D01*
X441730D01*
Y122500D01*
D02*
G37*
G36*
X158270Y122500D02*
Y91270D01*
X174625D01*
Y105000D01*
X174286Y108438D01*
X173283Y111745D01*
X171654Y114792D01*
X169463Y117463D01*
X166792Y119655D01*
X163745Y121283D01*
X160438Y122286D01*
X158270Y122500D01*
D02*
G37*
G36*
X44270D02*
Y91270D01*
X60625D01*
Y105000D01*
X60286Y108438D01*
X59283Y111745D01*
X57655Y114792D01*
X55463Y117463D01*
X52792Y119655D01*
X49745Y121283D01*
X46438Y122286D01*
X44270Y122500D01*
D02*
G37*
G36*
X155730D02*
X153561Y122286D01*
X150255Y121283D01*
X147208Y119655D01*
X144537Y117463D01*
X142346Y114792D01*
X140717Y111745D01*
X139714Y108438D01*
X139375Y105000D01*
Y91270D01*
X155730D01*
Y122500D01*
D02*
G37*
G36*
X41730D02*
X39562Y122286D01*
X36255Y121283D01*
X33208Y119655D01*
X30537Y117463D01*
X28345Y114792D01*
X26717Y111745D01*
X25714Y108438D01*
X25375Y105000D01*
Y91270D01*
X41730D01*
Y122500D01*
D02*
G37*
G36*
X632250Y424250D02*
X619750D01*
Y406750D01*
X632250D01*
Y413206D01*
X666550D01*
X672706Y407050D01*
Y73950D01*
X666550Y67794D01*
X632250D01*
Y74250D01*
X619750D01*
Y56750D01*
X632250D01*
Y63206D01*
X667500D01*
X668378Y63380D01*
X669122Y63878D01*
X676622Y71378D01*
X677119Y72122D01*
X677294Y73000D01*
Y408000D01*
X677119Y408878D01*
X676622Y409622D01*
X669122Y417122D01*
X668378Y417619D01*
X667500Y417794D01*
X632250D01*
Y424250D01*
D02*
G37*
G36*
X195270Y75540D02*
Y66770D01*
X201540D01*
Y75540D01*
X195270D01*
D02*
G37*
G36*
X-18460D02*
X-24730D01*
Y66770D01*
X-18460D01*
Y75540D01*
D02*
G37*
G36*
X381540D02*
X375270D01*
Y66770D01*
X381540D01*
Y75540D01*
D02*
G37*
G36*
X601540D02*
X595270D01*
Y66770D01*
X601540D01*
Y75540D01*
D02*
G37*
G36*
X592730D02*
X586460D01*
Y66770D01*
X592730D01*
Y75540D01*
D02*
G37*
G36*
X-27270D02*
X-33540D01*
Y66770D01*
X-27270D01*
Y75540D01*
D02*
G37*
G36*
X372730D02*
X366460D01*
Y66770D01*
X372730D01*
Y75540D01*
D02*
G37*
G36*
X574625Y88730D02*
X558270D01*
Y57500D01*
X560438Y57714D01*
X563745Y58717D01*
X566792Y60346D01*
X569463Y62537D01*
X571655Y65208D01*
X573283Y68255D01*
X574286Y71562D01*
X574625Y75000D01*
Y88730D01*
D02*
G37*
G36*
X460625D02*
X444270D01*
Y57500D01*
X446438Y57714D01*
X449745Y58717D01*
X452792Y60346D01*
X455463Y62537D01*
X457654Y65208D01*
X459283Y68255D01*
X460286Y71562D01*
X460625Y75000D01*
Y88730D01*
D02*
G37*
G36*
X174625Y88730D02*
X158270D01*
Y57500D01*
X160438Y57714D01*
X163745Y58717D01*
X166792Y60346D01*
X169463Y62537D01*
X171654Y65208D01*
X173283Y68255D01*
X174286Y71562D01*
X174625Y75000D01*
Y88730D01*
D02*
G37*
G36*
X60625D02*
X44270D01*
Y57500D01*
X46438Y57714D01*
X49745Y58717D01*
X52792Y60346D01*
X55463Y62537D01*
X57655Y65208D01*
X59283Y68255D01*
X60286Y71562D01*
X60625Y75000D01*
Y88730D01*
D02*
G37*
G36*
X155730D02*
X139375D01*
Y75000D01*
X139714Y71562D01*
X140717Y68255D01*
X142346Y65208D01*
X144537Y62537D01*
X147208Y60346D01*
X150255Y58717D01*
X153561Y57714D01*
X155730Y57500D01*
Y88730D01*
D02*
G37*
G36*
X41730D02*
X25375D01*
Y75000D01*
X25714Y71562D01*
X26717Y68255D01*
X28345Y65208D01*
X30537Y62537D01*
X33208Y60346D01*
X36255Y58717D01*
X39562Y57714D01*
X41730Y57500D01*
Y88730D01*
D02*
G37*
G36*
X555730Y88730D02*
X539375D01*
Y75000D01*
X539714Y71562D01*
X540717Y68255D01*
X542345Y65208D01*
X544537Y62537D01*
X547208Y60346D01*
X550255Y58717D01*
X553562Y57714D01*
X555730Y57500D01*
Y88730D01*
D02*
G37*
G36*
X441730D02*
X425375D01*
Y75000D01*
X425714Y71562D01*
X426717Y68255D01*
X428345Y65208D01*
X430537Y62537D01*
X433208Y60346D01*
X436255Y58717D01*
X439562Y57714D01*
X441730Y57500D01*
Y88730D01*
D02*
G37*
G36*
X601540Y64230D02*
X595270D01*
Y55460D01*
X601540D01*
Y64230D01*
D02*
G37*
G36*
X592730D02*
X586460D01*
Y55460D01*
X592730D01*
Y64230D01*
D02*
G37*
G36*
X381540D02*
X375270D01*
Y55460D01*
X381540D01*
Y64230D01*
D02*
G37*
G36*
X372730D02*
X366460D01*
Y55460D01*
X372730D01*
Y64230D01*
D02*
G37*
G36*
X201540D02*
X195270D01*
Y55460D01*
X201540D01*
Y64230D01*
D02*
G37*
G36*
X-18460D02*
X-24730D01*
Y55460D01*
X-18460D01*
Y64230D01*
D02*
G37*
G36*
X-27270D02*
X-33540D01*
Y55460D01*
X-27270D01*
Y64230D01*
D02*
G37*
G36*
X487746Y61750D02*
X486254D01*
X484876Y61179D01*
X483821Y60124D01*
X483250Y58746D01*
Y57254D01*
X483821Y55876D01*
X484876Y54821D01*
X486254Y54250D01*
X487746D01*
X489124Y54821D01*
X490179Y55876D01*
X490750Y57254D01*
Y58746D01*
X490179Y60124D01*
X489124Y61179D01*
X487746Y61750D01*
D02*
G37*
G36*
X87746D02*
X86254D01*
X84876Y61179D01*
X83821Y60124D01*
X83250Y58746D01*
Y57254D01*
X83821Y55876D01*
X84876Y54821D01*
X86254Y54250D01*
X87746D01*
X89124Y54821D01*
X90179Y55876D01*
X90750Y57254D01*
Y58746D01*
X90179Y60124D01*
X89124Y61179D01*
X87746Y61750D01*
D02*
G37*
G36*
X135790Y30790D02*
X126270D01*
Y21270D01*
X135790D01*
Y30790D01*
D02*
G37*
G36*
X535790D02*
X526270D01*
Y21270D01*
X535790D01*
Y30790D01*
D02*
G37*
G36*
X523730D02*
X514210D01*
Y21270D01*
X523730D01*
Y30790D01*
D02*
G37*
G36*
X123730D02*
X114210D01*
Y21270D01*
X123730D01*
Y30790D01*
D02*
G37*
G36*
X658730Y42540D02*
X657439D01*
X652380Y41739D01*
X647509Y40156D01*
X642945Y37831D01*
X638802Y34820D01*
X635180Y31198D01*
X632169Y27055D01*
X629844Y22491D01*
X628261Y17620D01*
X627460Y12561D01*
Y11270D01*
X658730D01*
Y42540D01*
D02*
G37*
G36*
X-57439D02*
X-58730D01*
Y11270D01*
X-27460D01*
Y12561D01*
X-28261Y17620D01*
X-29844Y22491D01*
X-32169Y27055D01*
X-35180Y31198D01*
X-38802Y34820D01*
X-42945Y37831D01*
X-47509Y40156D01*
X-52380Y41739D01*
X-57439Y42540D01*
D02*
G37*
G36*
X476251Y29500D02*
X473749D01*
X471333Y28853D01*
X469167Y27602D01*
X467398Y25833D01*
X466147Y23667D01*
X465500Y21251D01*
Y18749D01*
X466147Y16333D01*
X467398Y14167D01*
X469167Y12398D01*
X471333Y11147D01*
X473749Y10500D01*
X476251D01*
X478667Y11147D01*
X480833Y12398D01*
X482602Y14167D01*
X483853Y16333D01*
X484500Y18749D01*
Y21251D01*
X483853Y23667D01*
X482602Y25833D01*
X480833Y27602D01*
X478667Y28853D01*
X476251Y29500D01*
D02*
G37*
G36*
X535790Y18730D02*
X526270D01*
Y9210D01*
X535790D01*
Y18730D01*
D02*
G37*
G36*
X523730D02*
X514210D01*
Y9210D01*
X523730D01*
Y18730D01*
D02*
G37*
G36*
X135790D02*
X126270D01*
Y9210D01*
X135790D01*
Y18730D01*
D02*
G37*
G36*
X123730D02*
X114210D01*
Y9210D01*
X123730D01*
Y18730D01*
D02*
G37*
G36*
X200250Y123250D02*
X187750D01*
Y105750D01*
X191706D01*
Y100950D01*
X181378Y90622D01*
X180881Y89878D01*
X180706Y89000D01*
Y11950D01*
X168050Y-706D01*
X23950D01*
X8294Y14950D01*
Y56750D01*
X12250D01*
Y74250D01*
X-250D01*
Y56750D01*
X3706D01*
Y14000D01*
X3880Y13122D01*
X4378Y12378D01*
X21378Y-4622D01*
X22122Y-5119D01*
X23000Y-5294D01*
X169000D01*
X169878Y-5119D01*
X170622Y-4622D01*
X184622Y9378D01*
X185119Y10122D01*
X185294Y11000D01*
Y55209D01*
X186460Y55460D01*
X186564Y55460D01*
X192730D01*
Y65500D01*
Y75540D01*
X186564D01*
X186460Y75540D01*
X185294Y75791D01*
Y88050D01*
X195622Y98378D01*
X196119Y99122D01*
X196294Y100000D01*
Y105750D01*
X200250D01*
Y123250D01*
D02*
G37*
%LPD*%
G36*
X244000Y244750D02*
Y241500D01*
X241000Y243500D01*
X238000Y241500D01*
Y245750D01*
X244000D01*
Y244750D01*
D02*
G37*
G36*
Y238750D02*
Y237250D01*
X238000D01*
Y238750D01*
X241000Y240750D01*
X244000Y238750D01*
D02*
G37*
G36*
X330000Y527000D02*
X328000Y528250D01*
X325000Y530250D01*
X322000Y528250D01*
X320000Y527000D01*
Y532000D01*
X330000D01*
Y527000D01*
D02*
G37*
G36*
X304999Y526501D02*
X302999Y527751D01*
X299999Y529751D01*
X296999Y527751D01*
X294999Y526501D01*
Y531501D01*
X304999D01*
Y526501D01*
D02*
G37*
G36*
X328000Y525500D02*
X330000Y524250D01*
Y522000D01*
X320000D01*
Y524250D01*
X322000Y525500D01*
X325000Y527500D01*
X328000Y525500D01*
D02*
G37*
G36*
X302999Y525001D02*
X304999Y523751D01*
Y521501D01*
X294999D01*
Y523751D01*
X296999Y525001D01*
X299999Y527001D01*
X302999Y525001D01*
D02*
G37*
G36*
X376750Y287000D02*
X372500D01*
X374500Y290000D01*
X372500Y293000D01*
X376750D01*
Y287000D01*
D02*
G37*
G36*
X371750Y290000D02*
X369750Y287000D01*
X368250D01*
Y293000D01*
X369750D01*
X371750Y290000D01*
D02*
G37*
G36*
X376750Y277000D02*
X372500D01*
X374500Y280000D01*
X372500Y283000D01*
X376750D01*
Y277000D01*
D02*
G37*
G36*
X371750Y280000D02*
X369750Y277000D01*
X368250D01*
Y283000D01*
X369750D01*
X371750Y280000D01*
D02*
G37*
D10*
X273291Y223833D02*
X278000Y228541D01*
Y235550D01*
X257162Y240104D02*
X260958Y243900D01*
X257162Y239463D02*
Y240104D01*
X380000Y532000D02*
X588000D01*
X594000Y526000D01*
Y464500D02*
Y526000D01*
X374000Y464500D02*
Y526000D01*
X380000Y532000D01*
X406000Y403000D02*
Y415500D01*
X226000Y403000D02*
Y415500D01*
X-22250Y470750D02*
X-22250D01*
X33000Y526000D02*
X168000D01*
X-22250Y470750D02*
X33000Y526000D01*
X-26000Y467000D02*
X-22250Y470750D01*
X-26000Y464500D02*
Y467000D01*
X194000Y464500D02*
Y500000D01*
X168000Y526000D02*
X194000Y500000D01*
X6000Y14000D02*
Y65500D01*
Y14000D02*
X23000Y-3000D01*
X169000D01*
X183000Y11000D02*
Y89000D01*
X169000Y-3000D02*
X183000Y11000D01*
X194000Y100000D02*
Y114500D01*
X183000Y89000D02*
X194000Y100000D01*
X226000Y65500D02*
X270500D01*
X319500Y114500D01*
X374000D01*
X310000Y137000D02*
X310000Y137000D01*
X310000Y136000D02*
Y137000D01*
X310000Y137000D02*
Y235550D01*
X424000Y45000D02*
X456000D01*
X406000Y63000D02*
Y65500D01*
Y63000D02*
X410000Y59000D01*
X410000D01*
X424000Y45000D01*
X456000D02*
X544000Y133000D01*
X594000Y114500D02*
Y117000D01*
X578000Y133000D02*
X594000Y117000D01*
X544000Y133000D02*
X578000D01*
X667500Y65500D02*
X675000Y73000D01*
X626000Y65500D02*
X667500D01*
X675000Y73000D02*
Y408000D01*
X667500Y415500D02*
X675000Y408000D01*
X626000Y415500D02*
X667500D01*
X89277Y304450D02*
X241833D01*
X246168D02*
X274000D01*
X242033Y304250D02*
X245968D01*
X241833Y304450D02*
X242033Y304250D01*
X245968D02*
X246168Y304450D01*
X125000Y189084D02*
X126172Y190256D01*
X282747D02*
X298000Y205508D01*
X125000Y165000D02*
Y189084D01*
X126172Y190256D02*
X282747D01*
X169000Y163000D02*
X287000D01*
X306000Y182000D02*
Y235550D01*
X287000Y163000D02*
X306000Y182000D01*
X75000Y69000D02*
X169000Y163000D01*
X75000Y20000D02*
Y69000D01*
X505000Y185000D02*
X525000Y165000D01*
X318000Y208554D02*
X341554Y185000D01*
X505000D01*
X461472Y178528D02*
X475000Y165000D01*
X339898Y178528D02*
X461472D01*
X314000Y204426D02*
X339898Y178528D01*
X-10000Y213752D02*
X281321D01*
X10000Y161500D02*
X21500D01*
X69384Y209384D01*
X284384D01*
X572700Y568511D02*
Y570000D01*
X555000Y550812D02*
X572700Y568511D01*
X555000Y550000D02*
Y550812D01*
X265450Y243900D02*
X265550Y244000D01*
X260958Y243900D02*
X265450D01*
X265550Y244000D02*
Y248000D01*
X278000Y235550D02*
X282000D01*
Y226000D02*
Y235550D01*
X280000Y224000D02*
X282000Y226000D01*
X-26003Y213752D02*
X-10000D01*
X286000Y218431D02*
Y235550D01*
X281321Y213752D02*
X286000Y218431D01*
X-26501Y213254D02*
X-26003Y213752D01*
X284384Y209384D02*
X290000Y215000D01*
X-26501Y159255D02*
X-25247Y158000D01*
X290000Y215000D02*
Y235550D01*
X259000Y256000D02*
X265550D01*
X209000Y258000D02*
X257000D01*
X259000Y256000D01*
X218000Y234000D02*
X220000Y236000D01*
X207000Y248000D02*
Y256000D01*
X209000Y258000D01*
X242172Y252000D02*
X265550D01*
X241000Y246000D02*
Y250828D01*
X242172Y252000D01*
X259557Y248000D02*
X265550D01*
X257557Y246000D02*
X259557Y248000D01*
X257000Y246000D02*
X257557D01*
X334450Y264000D02*
X344000D01*
X326000Y304450D02*
Y314000D01*
X255000Y284000D02*
X265550D01*
X243000Y272000D02*
X265550D01*
X234000Y281000D02*
X243000Y272000D01*
X1699Y281000D02*
X234000D01*
X-60000Y342700D02*
X1699Y281000D01*
X-1000Y268000D02*
X265550D01*
X-49500Y316500D02*
X-1000Y268000D01*
X-60000Y317300D02*
X-59199Y316500D01*
X-49500D01*
X278000Y304450D02*
Y314124D01*
X138108Y327000D02*
X265124D01*
X278000Y314124D01*
X244002Y360998D02*
X282000Y323000D01*
X125000Y401000D02*
X165002Y360998D01*
X244002D01*
X125000Y340108D02*
Y365000D01*
Y340108D02*
X138108Y327000D01*
X26347Y296000D02*
X265550D01*
X6000Y316347D02*
Y415500D01*
Y316347D02*
X26347Y296000D01*
X74000Y319727D02*
Y364000D01*
Y319727D02*
X89277Y304450D01*
X290000D02*
Y340000D01*
X262000Y368000D02*
Y513000D01*
Y368000D02*
X290000Y340000D01*
X249000Y365000D02*
X286000Y328000D01*
X249000Y365000D02*
Y503000D01*
X286000Y304450D02*
Y328000D01*
X282000Y304450D02*
Y323000D01*
X125000Y401000D02*
Y510000D01*
X74000Y364000D02*
X75000Y365000D01*
X27300Y546700D02*
X40000Y534000D01*
X218000D02*
X249000Y503000D01*
X40000Y534000D02*
X218000D01*
X229000Y546000D02*
X262000Y513000D01*
X52700Y570000D02*
X53000Y569700D01*
Y553000D02*
Y569700D01*
Y553000D02*
X60000Y546000D01*
X229000D01*
X27300Y546700D02*
Y570000D01*
X407958Y266191D02*
Y328730D01*
X274600Y462088D02*
Y570000D01*
Y462088D02*
X407958Y328730D01*
X300000Y446914D02*
Y518000D01*
X414000Y264564D02*
Y332914D01*
X300000Y446914D02*
X414000Y332914D01*
X397767Y256000D02*
X407958Y266191D01*
X334450Y256000D02*
X397767D01*
X334450Y248000D02*
X404692D01*
X421099Y264406D02*
Y335522D01*
X404692Y248000D02*
X421099Y264406D01*
X334450Y252000D02*
X401436D01*
X414000Y264564D01*
X325001Y431619D02*
Y518499D01*
Y431619D02*
X421099Y335522D01*
X389524Y282476D02*
X389991D01*
X388000Y284000D02*
X389524Y282476D01*
X389500Y288750D02*
X390000D01*
X388000Y287250D02*
X389500Y288750D01*
X381000Y284000D02*
X388000D01*
X379750Y287250D02*
X388000D01*
X378500Y282000D02*
X379000D01*
X381000Y284000D01*
X377000Y280000D02*
Y280500D01*
X378500Y282000D01*
X377000Y289500D02*
Y290000D01*
Y289500D02*
X378500Y288000D01*
X379000D01*
X379750Y287250D01*
X367000Y280000D02*
Y280007D01*
X365500Y281507D02*
X367000Y280007D01*
X363406Y281507D02*
X365500D01*
X360914Y284000D02*
X363406Y281507D01*
X334450Y284000D02*
X360914D01*
X325399Y535601D02*
Y570000D01*
Y535601D02*
X326000Y535000D01*
X300000D02*
Y570000D01*
X326394Y219000D02*
X539000D01*
X322000Y223394D02*
Y235550D01*
Y223394D02*
X326394Y219000D01*
X329898Y225000D02*
X519650D01*
X326000Y228899D02*
Y235550D01*
Y228899D02*
X329898Y225000D01*
X525000Y230350D02*
Y365000D01*
X519650Y225000D02*
X525000Y230350D01*
X334450Y244000D02*
X465618D01*
X474000Y252382D02*
Y364000D01*
X465618Y244000D02*
X474000Y252382D01*
Y364000D02*
X475000Y365000D01*
X525000Y401000D02*
Y510000D01*
Y401000D02*
X551000Y375000D01*
Y231000D02*
Y375000D01*
X539000Y219000D02*
X551000Y231000D01*
X318000Y208554D02*
Y235550D01*
X314000Y204426D02*
Y235550D01*
X75000Y165000D02*
Y194989D01*
X84011Y204000D02*
X289000D01*
X75000Y194989D02*
X84011Y204000D01*
X298000Y205508D02*
Y235550D01*
X289000Y204000D02*
X294000Y209000D01*
Y235550D01*
D30*
X-10000Y178500D02*
D03*
Y161500D02*
D03*
X10000Y178500D02*
D03*
Y161500D02*
D03*
X-10000Y232500D02*
D03*
Y215500D02*
D03*
X10000Y232500D02*
D03*
Y215500D02*
D03*
D31*
X643000Y230000D02*
D03*
X597000D02*
D03*
X620000D02*
D03*
D32*
Y292000D02*
D03*
D33*
X599500Y190000D02*
D03*
X620500D02*
D03*
X660500Y190000D02*
D03*
X639500D02*
D03*
D34*
X218000Y248000D02*
D03*
Y234000D02*
D03*
X207000Y248000D02*
D03*
Y234000D02*
D03*
D35*
X230000Y246000D02*
D03*
Y236000D02*
D03*
X195000D02*
D03*
Y246000D02*
D03*
X241000Y236000D02*
D03*
Y246000D02*
D03*
D36*
X274000Y304450D02*
D03*
X278000D02*
D03*
X282000D02*
D03*
X286000D02*
D03*
X290000D02*
D03*
X294000D02*
D03*
X298000D02*
D03*
X302000D02*
D03*
X306000D02*
D03*
X310000D02*
D03*
X314000D02*
D03*
X318000D02*
D03*
X322000D02*
D03*
X326000D02*
D03*
Y235550D02*
D03*
X322000D02*
D03*
X318000D02*
D03*
X314000D02*
D03*
X310000D02*
D03*
X306000D02*
D03*
X302000D02*
D03*
X298000D02*
D03*
X294000D02*
D03*
X290000D02*
D03*
X286000D02*
D03*
X282000D02*
D03*
X278000D02*
D03*
X274000D02*
D03*
D37*
X265550Y244000D02*
D03*
Y248000D02*
D03*
Y252000D02*
D03*
Y256000D02*
D03*
Y260000D02*
D03*
Y264000D02*
D03*
Y268000D02*
D03*
Y272000D02*
D03*
Y276000D02*
D03*
Y280000D02*
D03*
Y284000D02*
D03*
Y288000D02*
D03*
Y292000D02*
D03*
Y296000D02*
D03*
X334450D02*
D03*
Y292000D02*
D03*
Y288000D02*
D03*
Y284000D02*
D03*
Y280000D02*
D03*
Y276000D02*
D03*
Y272000D02*
D03*
Y268000D02*
D03*
Y264000D02*
D03*
Y260000D02*
D03*
Y256000D02*
D03*
Y252000D02*
D03*
Y248000D02*
D03*
Y244000D02*
D03*
D38*
X-71501Y234754D02*
D03*
X-26501D02*
D03*
X-71501Y213254D02*
D03*
X-26501D02*
D03*
X-71501Y180755D02*
D03*
X-26501D02*
D03*
X-71501Y159255D02*
D03*
X-26501D02*
D03*
D39*
X6000Y114500D02*
D03*
Y65500D02*
D03*
X-26000Y114500D02*
D03*
Y65500D02*
D03*
X226000Y114500D02*
D03*
Y65500D02*
D03*
X194000Y114500D02*
D03*
Y65500D02*
D03*
X406000Y114500D02*
D03*
Y65500D02*
D03*
X374000Y114500D02*
D03*
Y65500D02*
D03*
X626000Y114500D02*
D03*
Y65500D02*
D03*
X594000Y114500D02*
D03*
Y65500D02*
D03*
Y415500D02*
D03*
Y464500D02*
D03*
X626000Y415500D02*
D03*
Y464500D02*
D03*
X406000D02*
D03*
Y415500D02*
D03*
X374000Y464500D02*
D03*
Y415500D02*
D03*
X194000D02*
D03*
Y464500D02*
D03*
X226000Y415500D02*
D03*
Y464500D02*
D03*
X6000D02*
D03*
Y415500D02*
D03*
X-26000Y464500D02*
D03*
Y415500D02*
D03*
D40*
X343500Y345000D02*
D03*
X326500D02*
D03*
X343500Y329000D02*
D03*
X326500D02*
D03*
D41*
X367000Y290000D02*
D03*
X377000D02*
D03*
X367000Y280000D02*
D03*
X377000D02*
D03*
D65*
X140000Y580000D02*
G03*
X150000Y570000I10000J0D01*
G01*
X467000Y583530D02*
X480530Y570000D01*
X521900D01*
X150000Y570000D02*
X249200D01*
X639500Y190000D02*
Y206688D01*
X643000Y210188D01*
Y211000D01*
X660500Y190000D02*
X661000Y189500D01*
Y178000D02*
Y189500D01*
X-9750Y178750D02*
X-3250D01*
X-10250Y178250D02*
X-9750Y178750D01*
X10250Y178750D02*
X16750D01*
X9750Y178250D02*
X10250Y178750D01*
X-9750Y232750D02*
X-3250D01*
X-10250Y232250D02*
X-9750Y232750D01*
X10000Y232500D02*
X10500Y233000D01*
X17000D01*
X343500Y329000D02*
Y345000D01*
X326000Y329250D02*
Y337000D01*
Y344500D01*
Y328500D02*
X326500Y329000D01*
X326000Y314000D02*
Y328500D01*
Y344500D02*
X326250Y344750D01*
X326000Y329250D02*
X326250Y329000D01*
X620250Y190250D02*
Y229750D01*
X620000Y230000D02*
Y292000D01*
X589500Y230000D02*
X597000D01*
X589500Y230000D02*
X589500Y230000D01*
X592000Y190000D02*
X592000Y190000D01*
X599500D01*
X620250Y190250D02*
X620500Y190000D01*
X620000Y230000D02*
X620250Y229750D01*
X219500Y246000D02*
X230000D01*
X218000Y247500D02*
X219500Y246000D01*
X218000Y247500D02*
Y248000D01*
X220000Y236000D02*
X230000D01*
X195000D02*
X205500D01*
X207000Y234500D01*
Y234000D02*
Y234500D01*
X195000Y246000D02*
X205500D01*
X207000Y247500D01*
Y248000D01*
X230000Y236000D02*
X241000D01*
X374000Y65500D02*
Y76000D01*
X594000Y65500D02*
Y76000D01*
X626000Y104000D02*
Y114500D01*
X406000Y104000D02*
Y114500D01*
X226000Y104000D02*
Y114500D01*
X6000Y104000D02*
Y114500D01*
X626000Y454000D02*
Y464500D01*
X594000Y415500D02*
Y426000D01*
X6000Y454000D02*
Y464500D01*
X226000Y454000D02*
Y464500D01*
X194000Y65500D02*
Y76000D01*
X406000Y464500D02*
Y475000D01*
X374000Y415500D02*
Y426000D01*
X194000Y415500D02*
Y426000D01*
X-26000Y65500D02*
Y76000D01*
Y415500D02*
Y426000D01*
D66*
X300000Y270000D02*
D03*
D67*
X325001Y535499D02*
D03*
Y518499D02*
D03*
X300000Y535000D02*
D03*
Y518000D02*
D03*
D68*
X643000Y211000D02*
Y230000D01*
D69*
X326250Y344750D02*
X326500Y345000D01*
X-26501Y159255D02*
X-25378Y160377D01*
X-11123D01*
X-10000Y161500D01*
X-10000Y161500D02*
X10000D01*
X-10000Y161500D02*
X-10000Y161500D01*
D70*
X334450Y288000D02*
X360741D01*
X362741Y290000D02*
X367000D01*
X360741Y288000D02*
X362741Y290000D01*
D71*
X52700Y570000D02*
D03*
X27300Y570000D02*
D03*
X1900D02*
D03*
X274600Y570000D02*
D03*
X300000D02*
D03*
X325399Y570000D02*
D03*
X249200Y570000D02*
D03*
X572700Y570000D02*
D03*
X547300Y570000D02*
D03*
X521900D02*
D03*
X-60000Y342700D02*
D03*
X-60000Y317300D02*
D03*
Y291900D02*
D03*
D72*
X78100Y570000D02*
D03*
X350799Y570000D02*
D03*
X598100Y570000D02*
D03*
D73*
X75000Y510000D02*
D03*
X475000D02*
D03*
X525000Y20000D02*
D03*
X125000D02*
D03*
D74*
Y510000D02*
D03*
X75000Y365000D02*
D03*
X100000D02*
D03*
X125000D02*
D03*
X525000Y510000D02*
D03*
X475000Y365000D02*
D03*
X500000D02*
D03*
X525000D02*
D03*
X475000Y20000D02*
D03*
X525000Y165000D02*
D03*
X500000D02*
D03*
X475000D02*
D03*
X75000Y20000D02*
D03*
X125000Y165000D02*
D03*
X100000D02*
D03*
X75000D02*
D03*
D75*
X43000Y440000D02*
D03*
X157000D02*
D03*
X443000D02*
D03*
X557000D02*
D03*
Y90000D02*
D03*
X443000D02*
D03*
X157000D02*
D03*
X43000D02*
D03*
D76*
X-60000Y368100D02*
D03*
D77*
X-60000Y10000D02*
D03*
X660000D02*
D03*
Y560000D02*
D03*
X-60001Y560000D02*
D03*
D78*
X273291Y223833D02*
D03*
X257162Y239463D02*
D03*
X406000Y403000D02*
D03*
X226000D02*
D03*
X310000Y136000D02*
D03*
X661000Y178000D02*
D03*
X96000Y539000D02*
D03*
X239000Y524000D02*
D03*
X256000Y386000D02*
D03*
X244000Y309000D02*
D03*
X220000Y199000D02*
D03*
X200000D02*
D03*
X238000D02*
D03*
X269569Y174431D02*
D03*
X240000Y181500D02*
D03*
X200000D02*
D03*
X220000D02*
D03*
X-3250Y178750D02*
D03*
X16750Y178750D02*
D03*
X-3250Y232750D02*
D03*
X17000Y233000D02*
D03*
X113000Y121000D02*
D03*
Y471000D02*
D03*
Y408000D02*
D03*
X87000D02*
D03*
Y58000D02*
D03*
Y121000D02*
D03*
X487000Y58000D02*
D03*
Y121000D02*
D03*
X513000D02*
D03*
Y471000D02*
D03*
Y408000D02*
D03*
X487000D02*
D03*
X343500Y337000D02*
D03*
X326000D02*
D03*
X555000Y550000D02*
D03*
X589500Y230000D02*
D03*
X592000Y190000D02*
D03*
X620000Y214000D02*
D03*
Y203000D02*
D03*
X280000Y224000D02*
D03*
X200250Y236000D02*
D03*
X224750Y246000D02*
D03*
X257000D02*
D03*
X344000Y264000D02*
D03*
X326000Y314000D02*
D03*
X255000Y284000D02*
D03*
X389991Y282476D02*
D03*
X390000Y288750D02*
D03*
X374000Y76000D02*
D03*
X594000D02*
D03*
X626000Y104000D02*
D03*
X406000D02*
D03*
X226000D02*
D03*
X6000D02*
D03*
X626000Y454000D02*
D03*
X594000Y426000D02*
D03*
X6000Y454000D02*
D03*
X226000D02*
D03*
X194000Y76000D02*
D03*
X406000Y475000D02*
D03*
X374000Y426000D02*
D03*
X194000D02*
D03*
X-26000Y76000D02*
D03*
Y426000D02*
D03*
D79*
X643000Y211000D02*
D03*
M02*
