G04*
G04 #@! TF.GenerationSoftware,Altium Limited,Altium Designer,23.4.1 (23)*
G04*
G04 Layer_Color=16711935*
%FSLAX44Y44*%
%MOMM*%
G71*
G04*
G04 #@! TF.SameCoordinates,68BC9408-1245-4EE3-B557-EFF58EF5A4C6*
G04*
G04*
G04 #@! TF.FilePolarity,Negative*
G04*
G01*
G75*
G04:AMPARAMS|DCode=44|XSize=1.1032mm|YSize=1.0032mm|CornerRadius=0.1616mm|HoleSize=0mm|Usage=FLASHONLY|Rotation=270.000|XOffset=0mm|YOffset=0mm|HoleType=Round|Shape=RoundedRectangle|*
%AMROUNDEDRECTD44*
21,1,1.1032,0.6800,0,0,270.0*
21,1,0.7800,1.0032,0,0,270.0*
1,1,0.3232,-0.3400,-0.3900*
1,1,0.3232,-0.3400,0.3900*
1,1,0.3232,0.3400,0.3900*
1,1,0.3232,0.3400,-0.3900*
%
%ADD44ROUNDEDRECTD44*%
%ADD58C,1.7032*%
%ADD59R,1.7032X1.7032*%
%ADD60R,1.8532X1.8532*%
%ADD61C,1.8532*%
%ADD62O,3.2032X6.2032*%
%ADD63R,1.7032X1.7032*%
%ADD64C,6.2032*%
D44*
X80000Y58500D02*
D03*
Y41500D02*
D03*
Y121500D02*
D03*
Y138500D02*
D03*
X120000Y121500D02*
D03*
Y138500D02*
D03*
X480000Y408500D02*
D03*
Y391500D02*
D03*
X520000Y408500D02*
D03*
Y391500D02*
D03*
Y471500D02*
D03*
Y488500D02*
D03*
X480000Y58500D02*
D03*
Y41500D02*
D03*
X520000Y121500D02*
D03*
Y138500D02*
D03*
X480000Y121500D02*
D03*
Y138500D02*
D03*
X357000Y244500D02*
D03*
Y261500D02*
D03*
X190000Y198500D02*
D03*
Y181500D02*
D03*
X210000Y198500D02*
D03*
Y181500D02*
D03*
X230000Y198500D02*
D03*
Y181500D02*
D03*
X250000Y198500D02*
D03*
Y181500D02*
D03*
X270000Y181500D02*
D03*
Y198500D02*
D03*
X80000Y408500D02*
D03*
Y391500D02*
D03*
X120000Y408500D02*
D03*
Y391500D02*
D03*
Y471500D02*
D03*
Y488500D02*
D03*
X244000Y300500D02*
D03*
Y283500D02*
D03*
X250000Y213500D02*
D03*
Y230500D02*
D03*
X230000Y213500D02*
D03*
Y230500D02*
D03*
D58*
X52700Y570000D02*
D03*
X27300Y570000D02*
D03*
X1900D02*
D03*
X274600Y570000D02*
D03*
X300000D02*
D03*
X325399Y570000D02*
D03*
X249200Y570000D02*
D03*
X572700Y570000D02*
D03*
X547300Y570000D02*
D03*
X521900D02*
D03*
X-60000Y342700D02*
D03*
X-60000Y317300D02*
D03*
Y291900D02*
D03*
D59*
X78100Y570000D02*
D03*
X350799Y570000D02*
D03*
X598100Y570000D02*
D03*
D60*
X75000Y510000D02*
D03*
X475000D02*
D03*
X525000Y20000D02*
D03*
X125000D02*
D03*
D61*
Y510000D02*
D03*
X75000Y365000D02*
D03*
X100000D02*
D03*
X125000D02*
D03*
X525000Y510000D02*
D03*
X475000Y365000D02*
D03*
X500000D02*
D03*
X525000D02*
D03*
X475000Y20000D02*
D03*
X525000Y165000D02*
D03*
X500000D02*
D03*
X475000D02*
D03*
X75000Y20000D02*
D03*
X125000Y165000D02*
D03*
X100000D02*
D03*
X75000D02*
D03*
D62*
X43000Y440000D02*
D03*
X157000D02*
D03*
X443000D02*
D03*
X557000D02*
D03*
Y90000D02*
D03*
X443000D02*
D03*
X157000D02*
D03*
X43000D02*
D03*
D63*
X-60000Y368100D02*
D03*
D64*
X-60000Y10000D02*
D03*
X660000D02*
D03*
Y560000D02*
D03*
X-60001Y560000D02*
D03*
M02*
