G04*
G04 #@! TF.GenerationSoftware,Altium Limited,Altium Designer,23.4.1 (23)*
G04*
G04 Layer_Physical_Order=3*
G04 Layer_Color=16440176*
%FSLAX44Y44*%
%MOMM*%
G71*
G04*
G04 #@! TF.SameCoordinates,68BC9408-1245-4EE3-B557-EFF58EF5A4C6*
G04*
G04*
G04 #@! TF.FilePolarity,Positive*
G04*
G01*
G75*
%ADD68C,1.0000*%
%ADD71C,1.5000*%
%ADD72R,1.5000X1.5000*%
%ADD78C,0.5000*%
%ADD79C,0.8000*%
G36*
X647552Y588730D02*
X643621Y586727D01*
X639642Y583836D01*
X636164Y580358D01*
X633273Y576379D01*
X631040Y571996D01*
X629520Y567318D01*
X628750Y562459D01*
Y557541D01*
X629520Y552682D01*
X631040Y548004D01*
X633273Y543621D01*
X636164Y539642D01*
X639642Y536164D01*
X643621Y533273D01*
X648004Y531040D01*
X652682Y529520D01*
X657541Y528750D01*
X662459D01*
X667318Y529520D01*
X671996Y531040D01*
X676379Y533273D01*
X680358Y536164D01*
X683836Y539642D01*
X686727Y543621D01*
X688730Y547552D01*
X690000Y547247D01*
Y500000D01*
Y22753D01*
X688730Y22448D01*
X686727Y26379D01*
X683836Y30358D01*
X680358Y33836D01*
X676379Y36727D01*
X671996Y38960D01*
X667318Y40480D01*
X662459Y41250D01*
X657541D01*
X652682Y40480D01*
X648004Y38960D01*
X643621Y36727D01*
X639642Y33836D01*
X636164Y30358D01*
X633273Y26379D01*
X631040Y21996D01*
X629520Y17318D01*
X628750Y12459D01*
Y7541D01*
X629520Y2682D01*
X631040Y-1996D01*
X633273Y-6378D01*
X636164Y-10358D01*
X639642Y-13836D01*
X643621Y-16727D01*
X647552Y-18730D01*
X647247Y-20000D01*
X-47247D01*
X-47552Y-18730D01*
X-43622Y-16727D01*
X-39642Y-13836D01*
X-36164Y-10358D01*
X-33273Y-6378D01*
X-31040Y-1996D01*
X-29520Y2682D01*
X-28750Y7541D01*
Y12459D01*
X-29520Y17318D01*
X-31040Y21996D01*
X-33273Y26379D01*
X-36164Y30358D01*
X-39642Y33836D01*
X-43622Y36727D01*
X-48004Y38960D01*
X-52682Y40480D01*
X-57541Y41250D01*
X-62459D01*
X-67318Y40480D01*
X-71996Y38960D01*
X-76379Y36727D01*
X-80358Y33836D01*
X-83836Y30358D01*
X-86727Y26379D01*
X-88730Y22448D01*
X-90000Y22753D01*
Y547244D01*
X-88730Y547549D01*
X-86728Y543621D01*
X-83837Y539641D01*
X-80359Y536163D01*
X-76380Y533272D01*
X-71997Y531039D01*
X-67319Y529519D01*
X-62460Y528750D01*
X-57542D01*
X-52683Y529519D01*
X-48005Y531039D01*
X-43622Y533272D01*
X-39643Y536163D01*
X-36165Y539641D01*
X-33274Y543621D01*
X-31041Y548004D01*
X-29521Y552682D01*
X-28751Y557540D01*
Y562459D01*
X-29521Y567317D01*
X-31041Y571995D01*
X-33274Y576378D01*
X-36165Y580358D01*
X-39643Y583836D01*
X-43622Y586727D01*
X-47554Y588730D01*
X-47249Y590000D01*
X647247D01*
X647552Y588730D01*
D02*
G37*
%LPC*%
G36*
X360839Y580040D02*
X352069D01*
Y571270D01*
X360839D01*
Y580040D01*
D02*
G37*
G36*
X349529D02*
X340759D01*
Y571270D01*
X349529D01*
Y580040D01*
D02*
G37*
G36*
X326551Y578750D02*
X324247D01*
X322022Y578154D01*
X320027Y577002D01*
X318398Y575373D01*
X317246Y573378D01*
X316649Y571152D01*
Y568848D01*
X317246Y566623D01*
X318398Y564628D01*
X320027Y562999D01*
X322022Y561847D01*
X324247Y561250D01*
X326551D01*
X328777Y561847D01*
X330772Y562999D01*
X332401Y564628D01*
X333553Y566623D01*
X334149Y568848D01*
Y571152D01*
X333553Y573378D01*
X332401Y575373D01*
X330772Y577002D01*
X328777Y578154D01*
X326551Y578750D01*
D02*
G37*
G36*
X573852Y578750D02*
X571548D01*
X569322Y578154D01*
X567327Y577002D01*
X565698Y575373D01*
X564546Y573378D01*
X563950Y571152D01*
Y568848D01*
X564546Y566623D01*
X565698Y564627D01*
X567327Y562998D01*
X569322Y561847D01*
X571548Y561250D01*
X573852D01*
X576077Y561847D01*
X578072Y562998D01*
X579701Y564627D01*
X580853Y566623D01*
X581450Y568848D01*
Y571152D01*
X580853Y573378D01*
X579701Y575373D01*
X578072Y577002D01*
X576077Y578154D01*
X573852Y578750D01*
D02*
G37*
G36*
X53852D02*
X51548D01*
X49322Y578154D01*
X47327Y577002D01*
X45698Y575373D01*
X44546Y573378D01*
X43950Y571152D01*
Y568848D01*
X44546Y566623D01*
X45698Y564627D01*
X47327Y562998D01*
X49322Y561847D01*
X51548Y561250D01*
X53852D01*
X56077Y561847D01*
X58072Y562998D01*
X59701Y564627D01*
X60853Y566623D01*
X61450Y568848D01*
Y571152D01*
X60853Y573378D01*
X59701Y575373D01*
X58072Y577002D01*
X56077Y578154D01*
X53852Y578750D01*
D02*
G37*
G36*
X301152Y578750D02*
X298848D01*
X296623Y578154D01*
X294627Y577002D01*
X292998Y575373D01*
X291846Y573377D01*
X291250Y571152D01*
Y568848D01*
X291846Y566623D01*
X292998Y564627D01*
X294627Y562998D01*
X296623Y561846D01*
X298848Y561250D01*
X301152D01*
X303377Y561846D01*
X305373Y562998D01*
X307002Y564627D01*
X308154Y566623D01*
X308750Y568848D01*
Y571152D01*
X308154Y573377D01*
X307002Y575373D01*
X305373Y577002D01*
X303377Y578154D01*
X301152Y578750D01*
D02*
G37*
G36*
X275752D02*
X273448D01*
X271223Y578154D01*
X269227Y577002D01*
X267598Y575373D01*
X266446Y573377D01*
X265850Y571152D01*
Y568848D01*
X266446Y566623D01*
X267598Y564627D01*
X269227Y562998D01*
X271223Y561846D01*
X273448Y561250D01*
X275752D01*
X277977Y561846D01*
X279973Y562998D01*
X281602Y564627D01*
X282754Y566623D01*
X283350Y568848D01*
Y571152D01*
X282754Y573377D01*
X281602Y575373D01*
X279973Y577002D01*
X277977Y578154D01*
X275752Y578750D01*
D02*
G37*
G36*
X250352D02*
X248048D01*
X245823Y578154D01*
X243827Y577002D01*
X242198Y575373D01*
X241046Y573377D01*
X240450Y571152D01*
Y568848D01*
X241046Y566623D01*
X242198Y564627D01*
X243827Y562998D01*
X245823Y561846D01*
X248048Y561250D01*
X250352D01*
X252577Y561846D01*
X254573Y562998D01*
X256202Y564627D01*
X257354Y566623D01*
X257950Y568848D01*
Y571152D01*
X257354Y573377D01*
X256202Y575373D01*
X254573Y577002D01*
X252577Y578154D01*
X250352Y578750D01*
D02*
G37*
G36*
X548452Y578750D02*
X546148D01*
X543923Y578153D01*
X541928Y577002D01*
X540299Y575373D01*
X539147Y573377D01*
X538550Y571152D01*
Y568848D01*
X539147Y566622D01*
X540299Y564627D01*
X541928Y562998D01*
X543923Y561846D01*
X546148Y561250D01*
X548452D01*
X550678Y561846D01*
X552673Y562998D01*
X554302Y564627D01*
X555454Y566622D01*
X556050Y568848D01*
Y571152D01*
X555454Y573377D01*
X554302Y575373D01*
X552673Y577002D01*
X550678Y578153D01*
X548452Y578750D01*
D02*
G37*
G36*
X523052D02*
X520748D01*
X518523Y578153D01*
X516528Y577002D01*
X514899Y575373D01*
X513747Y573377D01*
X513150Y571152D01*
Y568848D01*
X513747Y566622D01*
X514899Y564627D01*
X516528Y562998D01*
X518523Y561846D01*
X520748Y561250D01*
X523052D01*
X525278Y561846D01*
X527273Y562998D01*
X528902Y564627D01*
X530054Y566622D01*
X530650Y568848D01*
Y571152D01*
X530054Y573377D01*
X528902Y575373D01*
X527273Y577002D01*
X525278Y578153D01*
X523052Y578750D01*
D02*
G37*
G36*
X28452D02*
X26148D01*
X23923Y578153D01*
X21928Y577002D01*
X20299Y575373D01*
X19147Y573377D01*
X18550Y571152D01*
Y568848D01*
X19147Y566622D01*
X20299Y564627D01*
X21928Y562998D01*
X23923Y561846D01*
X26148Y561250D01*
X28452D01*
X30678Y561846D01*
X32673Y562998D01*
X34302Y564627D01*
X35454Y566622D01*
X36050Y568848D01*
Y571152D01*
X35454Y573377D01*
X34302Y575373D01*
X32673Y577002D01*
X30678Y578153D01*
X28452Y578750D01*
D02*
G37*
G36*
X3052D02*
X748D01*
X-1477Y578153D01*
X-3472Y577002D01*
X-5101Y575373D01*
X-6253Y573377D01*
X-6850Y571152D01*
Y568848D01*
X-6253Y566622D01*
X-5101Y564627D01*
X-3472Y562998D01*
X-1477Y561846D01*
X748Y561250D01*
X3052D01*
X5278Y561846D01*
X7273Y562998D01*
X8902Y564627D01*
X10054Y566622D01*
X10650Y568848D01*
Y571152D01*
X10054Y573377D01*
X8902Y575373D01*
X7273Y577002D01*
X5278Y578153D01*
X3052Y578750D01*
D02*
G37*
G36*
X360839Y568730D02*
X352069D01*
Y559960D01*
X360839D01*
Y568730D01*
D02*
G37*
G36*
X349529D02*
X340759D01*
Y559960D01*
X349529D01*
Y568730D01*
D02*
G37*
G36*
X555746Y553750D02*
X554254D01*
X552876Y553179D01*
X551821Y552124D01*
X551250Y550746D01*
Y549254D01*
X551821Y547876D01*
X552876Y546821D01*
X554254Y546250D01*
X555746D01*
X557124Y546821D01*
X558179Y547876D01*
X558750Y549254D01*
Y550746D01*
X558179Y552124D01*
X557124Y553179D01*
X555746Y553750D01*
D02*
G37*
G36*
X96746Y542750D02*
X95254D01*
X93876Y542179D01*
X92821Y541124D01*
X92250Y539746D01*
Y538254D01*
X92821Y536876D01*
X93876Y535821D01*
X95254Y535250D01*
X96746D01*
X98124Y535821D01*
X99179Y536876D01*
X99750Y538254D01*
Y539746D01*
X99179Y541124D01*
X98124Y542179D01*
X96746Y542750D01*
D02*
G37*
G36*
X239746Y527750D02*
X238254D01*
X236876Y527179D01*
X235821Y526124D01*
X235250Y524746D01*
Y523254D01*
X235821Y521876D01*
X236876Y520821D01*
X238254Y520250D01*
X239746D01*
X241124Y520821D01*
X242179Y521876D01*
X242750Y523254D01*
Y524746D01*
X242179Y526124D01*
X241124Y527179D01*
X239746Y527750D01*
D02*
G37*
G36*
X526251Y519500D02*
X523749D01*
X521333Y518853D01*
X519167Y517602D01*
X517398Y515833D01*
X516147Y513667D01*
X515500Y511251D01*
Y508749D01*
X516147Y506333D01*
X517398Y504167D01*
X519167Y502398D01*
X521333Y501147D01*
X523749Y500500D01*
X526251D01*
X528667Y501147D01*
X530833Y502398D01*
X532602Y504167D01*
X533853Y506333D01*
X534500Y508749D01*
Y511251D01*
X533853Y513667D01*
X532602Y515833D01*
X530833Y517602D01*
X528667Y518853D01*
X526251Y519500D01*
D02*
G37*
G36*
X484500D02*
X465500D01*
Y500500D01*
X484500D01*
Y519500D01*
D02*
G37*
G36*
X126251D02*
X123749D01*
X121333Y518853D01*
X119167Y517602D01*
X117398Y515833D01*
X116147Y513667D01*
X115500Y511251D01*
Y508749D01*
X116147Y506333D01*
X117398Y504167D01*
X119167Y502398D01*
X121333Y501147D01*
X123749Y500500D01*
X126251D01*
X128667Y501147D01*
X130833Y502398D01*
X132602Y504167D01*
X133853Y506333D01*
X134500Y508749D01*
Y511251D01*
X133853Y513667D01*
X132602Y515833D01*
X130833Y517602D01*
X128667Y518853D01*
X126251Y519500D01*
D02*
G37*
G36*
X84500D02*
X65500D01*
Y500500D01*
X84500D01*
Y519500D01*
D02*
G37*
G36*
X626746Y457750D02*
X625254D01*
X623876Y457179D01*
X622821Y456124D01*
X622250Y454746D01*
Y453254D01*
X622821Y451876D01*
X623876Y450821D01*
X625254Y450250D01*
X626746D01*
X628124Y450821D01*
X629179Y451876D01*
X629750Y453254D01*
Y454746D01*
X629179Y456124D01*
X628124Y457179D01*
X626746Y457750D01*
D02*
G37*
G36*
X226746D02*
X225254D01*
X223876Y457179D01*
X222821Y456124D01*
X222250Y454746D01*
Y453254D01*
X222821Y451876D01*
X223876Y450821D01*
X225254Y450250D01*
X226746D01*
X228124Y450821D01*
X229179Y451876D01*
X229750Y453254D01*
Y454746D01*
X229179Y456124D01*
X228124Y457179D01*
X226746Y457750D01*
D02*
G37*
G36*
X606850Y578750D02*
X589350D01*
Y561250D01*
X591727D01*
Y495497D01*
X589602Y493372D01*
X418000D01*
X415561Y492887D01*
X413494Y491506D01*
X354360Y432372D01*
X200373D01*
Y501000D01*
X199887Y503439D01*
X198506Y505506D01*
X129506Y574506D01*
X127438Y575888D01*
X125000Y576373D01*
X86850D01*
Y578750D01*
X69350D01*
Y570262D01*
X1494Y502407D01*
X113Y500339D01*
X-373Y497901D01*
Y454000D01*
X113Y451561D01*
X1494Y449494D01*
X3561Y448113D01*
X6000Y447627D01*
X8439Y448113D01*
X10506Y449494D01*
X11887Y451561D01*
X12372Y454000D01*
Y495261D01*
X78362Y561250D01*
X86850D01*
Y563628D01*
X122360D01*
X187628Y498360D01*
Y426000D01*
X188113Y423561D01*
X189494Y421494D01*
X191561Y420113D01*
X194000Y419627D01*
X357000D01*
X359439Y420113D01*
X361506Y421494D01*
X420640Y480628D01*
X587628D01*
Y426000D01*
Y319000D01*
X588113Y316561D01*
X589494Y314494D01*
X636628Y267360D01*
Y211000D01*
Y123640D01*
X626000Y113012D01*
X599506Y139506D01*
X597439Y140887D01*
X595000Y141372D01*
X437043D01*
X434604Y140887D01*
X432537Y139506D01*
X432537Y139506D01*
X403404Y110372D01*
X228640D01*
X199506Y139506D01*
X197439Y140887D01*
X195000Y141372D01*
X37043D01*
X34604Y140887D01*
X32537Y139506D01*
X32537Y139506D01*
X1537Y108506D01*
X156Y106439D01*
X-329Y104000D01*
X156Y101561D01*
X1537Y99494D01*
X3604Y98113D01*
X6043Y97627D01*
X8482Y98113D01*
X10549Y99494D01*
X39683Y128628D01*
X192360D01*
X221494Y99494D01*
X221494Y99494D01*
X223561Y98113D01*
X226000Y97627D01*
X406000D01*
X406021Y97632D01*
X406043Y97627D01*
X408482Y98113D01*
X410549Y99494D01*
X439683Y128628D01*
X592360D01*
X621494Y99494D01*
X621494Y99494D01*
X623561Y98113D01*
X626000Y97627D01*
X628439Y98113D01*
X630506Y99494D01*
X647506Y116494D01*
X648887Y118561D01*
X649372Y121000D01*
Y211000D01*
Y270000D01*
X648887Y272439D01*
X647506Y274506D01*
X647506Y274506D01*
X600373Y321640D01*
Y426000D01*
Y485242D01*
X600373Y485242D01*
X600227Y485973D01*
X602606Y488352D01*
X603987Y490419D01*
X604472Y492858D01*
Y561250D01*
X606850D01*
Y578750D01*
D02*
G37*
G36*
X374746Y429750D02*
X373254D01*
X371876Y429179D01*
X370821Y428124D01*
X370250Y426746D01*
Y425254D01*
X370821Y423876D01*
X371876Y422821D01*
X373254Y422250D01*
X374746D01*
X376124Y422821D01*
X377179Y423876D01*
X377750Y425254D01*
Y426746D01*
X377179Y428124D01*
X376124Y429179D01*
X374746Y429750D01*
D02*
G37*
G36*
X-25254D02*
X-26746D01*
X-28124Y429179D01*
X-29179Y428124D01*
X-29750Y426746D01*
Y425254D01*
X-29179Y423876D01*
X-28124Y422821D01*
X-26746Y422250D01*
X-25254D01*
X-23876Y422821D01*
X-22821Y423876D01*
X-22250Y425254D01*
Y426746D01*
X-22821Y428124D01*
X-23876Y429179D01*
X-25254Y429750D01*
D02*
G37*
G36*
X557000Y471329D02*
X553814Y471015D01*
X550751Y470086D01*
X547928Y468577D01*
X545454Y466546D01*
X543423Y464072D01*
X541914Y461249D01*
X540985Y458186D01*
X540671Y455000D01*
Y425000D01*
X540985Y421814D01*
X541914Y418751D01*
X543423Y415928D01*
X545454Y413454D01*
X547928Y411423D01*
X550751Y409914D01*
X553814Y408985D01*
X557000Y408671D01*
X560186Y408985D01*
X563249Y409914D01*
X566072Y411423D01*
X568546Y413454D01*
X570577Y415928D01*
X572086Y418751D01*
X573015Y421814D01*
X573329Y425000D01*
Y455000D01*
X573015Y458186D01*
X572086Y461249D01*
X570577Y464072D01*
X568546Y466546D01*
X566072Y468577D01*
X563249Y470086D01*
X560186Y471015D01*
X557000Y471329D01*
D02*
G37*
G36*
X443000D02*
X439814Y471015D01*
X436751Y470086D01*
X433928Y468577D01*
X431454Y466546D01*
X429423Y464072D01*
X427914Y461249D01*
X426985Y458186D01*
X426671Y455000D01*
Y425000D01*
X426985Y421814D01*
X427914Y418751D01*
X429423Y415928D01*
X431454Y413454D01*
X433928Y411423D01*
X436751Y409914D01*
X439814Y408985D01*
X443000Y408671D01*
X446186Y408985D01*
X449249Y409914D01*
X452072Y411423D01*
X454546Y413454D01*
X456577Y415928D01*
X458086Y418751D01*
X459015Y421814D01*
X459329Y425000D01*
Y455000D01*
X459015Y458186D01*
X458086Y461249D01*
X456577Y464072D01*
X454546Y466546D01*
X452072Y468577D01*
X449249Y470086D01*
X446186Y471015D01*
X443000Y471329D01*
D02*
G37*
G36*
X157000D02*
X153814Y471015D01*
X150751Y470086D01*
X147928Y468577D01*
X145454Y466546D01*
X143423Y464072D01*
X141914Y461249D01*
X140985Y458186D01*
X140671Y455000D01*
Y425000D01*
X140985Y421814D01*
X141914Y418751D01*
X143423Y415928D01*
X145454Y413454D01*
X147928Y411423D01*
X150751Y409914D01*
X153814Y408985D01*
X157000Y408671D01*
X160186Y408985D01*
X163249Y409914D01*
X166072Y411423D01*
X168546Y413454D01*
X170577Y415928D01*
X172086Y418751D01*
X173015Y421814D01*
X173329Y425000D01*
Y455000D01*
X173015Y458186D01*
X172086Y461249D01*
X170577Y464072D01*
X168546Y466546D01*
X166072Y468577D01*
X163249Y470086D01*
X160186Y471015D01*
X157000Y471329D01*
D02*
G37*
G36*
X43000D02*
X39814Y471015D01*
X36751Y470086D01*
X33928Y468577D01*
X31454Y466546D01*
X29423Y464072D01*
X27914Y461249D01*
X26985Y458186D01*
X26671Y455000D01*
Y425000D01*
X26985Y421814D01*
X27914Y418751D01*
X29423Y415928D01*
X31454Y413454D01*
X33928Y411423D01*
X36751Y409914D01*
X39814Y408985D01*
X43000Y408671D01*
X46186Y408985D01*
X49249Y409914D01*
X52072Y411423D01*
X54546Y413454D01*
X56577Y415928D01*
X58086Y418751D01*
X59015Y421814D01*
X59329Y425000D01*
Y455000D01*
X59015Y458186D01*
X58086Y461249D01*
X56577Y464072D01*
X54546Y466546D01*
X52072Y468577D01*
X49249Y470086D01*
X46186Y471015D01*
X43000Y471329D01*
D02*
G37*
G36*
X406746Y406750D02*
X405254D01*
X403876Y406179D01*
X402821Y405124D01*
X402250Y403746D01*
Y402254D01*
X402821Y400876D01*
X403876Y399821D01*
X405254Y399250D01*
X406746D01*
X408124Y399821D01*
X409179Y400876D01*
X409750Y402254D01*
Y403746D01*
X409179Y405124D01*
X408124Y406179D01*
X406746Y406750D01*
D02*
G37*
G36*
X226746D02*
X225254D01*
X223876Y406179D01*
X222821Y405124D01*
X222250Y403746D01*
Y402254D01*
X222821Y400876D01*
X223876Y399821D01*
X225254Y399250D01*
X226746D01*
X228124Y399821D01*
X229179Y400876D01*
X229750Y402254D01*
Y403746D01*
X229179Y405124D01*
X228124Y406179D01*
X226746Y406750D01*
D02*
G37*
G36*
X256746Y389750D02*
X255254D01*
X253876Y389179D01*
X252821Y388124D01*
X252250Y386746D01*
Y385254D01*
X252821Y383876D01*
X253876Y382821D01*
X255254Y382250D01*
X256746D01*
X258124Y382821D01*
X259179Y383876D01*
X259750Y385254D01*
Y386746D01*
X259179Y388124D01*
X258124Y389179D01*
X256746Y389750D01*
D02*
G37*
G36*
X-51250Y376850D02*
X-68750D01*
Y359350D01*
X-51250D01*
Y376850D01*
D02*
G37*
G36*
X526251Y374500D02*
X523749D01*
X521333Y373853D01*
X519167Y372602D01*
X517398Y370833D01*
X516147Y368667D01*
X515500Y366251D01*
Y363749D01*
X516147Y361333D01*
X517398Y359167D01*
X519167Y357398D01*
X521333Y356147D01*
X523749Y355500D01*
X526251D01*
X528667Y356147D01*
X530833Y357398D01*
X532602Y359167D01*
X533853Y361333D01*
X534500Y363749D01*
Y366251D01*
X533853Y368667D01*
X532602Y370833D01*
X530833Y372602D01*
X528667Y373853D01*
X526251Y374500D01*
D02*
G37*
G36*
X501251D02*
X498749D01*
X496333Y373853D01*
X494167Y372602D01*
X492398Y370833D01*
X491147Y368667D01*
X490500Y366251D01*
Y363749D01*
X491147Y361333D01*
X492398Y359167D01*
X494167Y357398D01*
X496333Y356147D01*
X498749Y355500D01*
X501251D01*
X503667Y356147D01*
X505833Y357398D01*
X507602Y359167D01*
X508853Y361333D01*
X509500Y363749D01*
Y366251D01*
X508853Y368667D01*
X507602Y370833D01*
X505833Y372602D01*
X503667Y373853D01*
X501251Y374500D01*
D02*
G37*
G36*
X476251D02*
X473749D01*
X471333Y373853D01*
X469167Y372602D01*
X467398Y370833D01*
X466147Y368667D01*
X465500Y366251D01*
Y363749D01*
X466147Y361333D01*
X467398Y359167D01*
X469167Y357398D01*
X471333Y356147D01*
X473749Y355500D01*
X476251D01*
X478667Y356147D01*
X480833Y357398D01*
X482602Y359167D01*
X483853Y361333D01*
X484500Y363749D01*
Y366251D01*
X483853Y368667D01*
X482602Y370833D01*
X480833Y372602D01*
X478667Y373853D01*
X476251Y374500D01*
D02*
G37*
G36*
X126251D02*
X123749D01*
X121333Y373853D01*
X119167Y372602D01*
X117398Y370833D01*
X116147Y368667D01*
X115500Y366251D01*
Y363749D01*
X116147Y361333D01*
X117398Y359167D01*
X119167Y357398D01*
X121333Y356147D01*
X123749Y355500D01*
X126251D01*
X128667Y356147D01*
X130833Y357398D01*
X132602Y359167D01*
X133853Y361333D01*
X134500Y363749D01*
Y366251D01*
X133853Y368667D01*
X132602Y370833D01*
X130833Y372602D01*
X128667Y373853D01*
X126251Y374500D01*
D02*
G37*
G36*
X101251D02*
X98749D01*
X96333Y373853D01*
X94167Y372602D01*
X92398Y370833D01*
X91147Y368667D01*
X90500Y366251D01*
Y363749D01*
X91147Y361333D01*
X92398Y359167D01*
X94167Y357398D01*
X96333Y356147D01*
X98749Y355500D01*
X101251D01*
X103667Y356147D01*
X105833Y357398D01*
X107602Y359167D01*
X108853Y361333D01*
X109500Y363749D01*
Y366251D01*
X108853Y368667D01*
X107602Y370833D01*
X105833Y372602D01*
X103667Y373853D01*
X101251Y374500D01*
D02*
G37*
G36*
X76251D02*
X73749D01*
X71333Y373853D01*
X69167Y372602D01*
X67398Y370833D01*
X66147Y368667D01*
X65500Y366251D01*
Y363749D01*
X66147Y361333D01*
X67398Y359167D01*
X69167Y357398D01*
X71333Y356147D01*
X73749Y355500D01*
X76251D01*
X78667Y356147D01*
X80833Y357398D01*
X82602Y359167D01*
X83853Y361333D01*
X84500Y363749D01*
Y366251D01*
X83853Y368667D01*
X82602Y370833D01*
X80833Y372602D01*
X78667Y373853D01*
X76251Y374500D01*
D02*
G37*
G36*
X-58848Y351450D02*
X-61152D01*
X-63378Y350853D01*
X-65373Y349701D01*
X-67002Y348072D01*
X-68154Y346077D01*
X-68750Y343852D01*
Y341548D01*
X-68154Y339322D01*
X-67002Y337327D01*
X-65373Y335698D01*
X-63378Y334546D01*
X-61152Y333950D01*
X-58848D01*
X-56623Y334546D01*
X-54628Y335698D01*
X-52998Y337327D01*
X-51846Y339322D01*
X-51250Y341548D01*
Y343852D01*
X-51846Y346077D01*
X-52998Y348072D01*
X-54628Y349701D01*
X-56623Y350853D01*
X-58848Y351450D01*
D02*
G37*
G36*
X344246Y340750D02*
X342754D01*
X341376Y340179D01*
X340321Y339124D01*
X339750Y337746D01*
Y336254D01*
X340321Y334876D01*
X341376Y333821D01*
X342754Y333250D01*
X344246D01*
X345624Y333821D01*
X346679Y334876D01*
X347250Y336254D01*
Y337746D01*
X346679Y339124D01*
X345624Y340179D01*
X344246Y340750D01*
D02*
G37*
G36*
X-58848Y326050D02*
X-61152D01*
X-63377Y325454D01*
X-65373Y324302D01*
X-67002Y322673D01*
X-68154Y320678D01*
X-68750Y318452D01*
Y316148D01*
X-68154Y313923D01*
X-67002Y311928D01*
X-65373Y310299D01*
X-63377Y309147D01*
X-61152Y308550D01*
X-58848D01*
X-56622Y309147D01*
X-54627Y310299D01*
X-52998Y311928D01*
X-51846Y313923D01*
X-51250Y316148D01*
Y318452D01*
X-51846Y320678D01*
X-52998Y322673D01*
X-54627Y324302D01*
X-56622Y325454D01*
X-58848Y326050D01*
D02*
G37*
G36*
X244746Y312750D02*
X243254D01*
X241876Y312179D01*
X240821Y311124D01*
X240250Y309746D01*
Y308254D01*
X240821Y306876D01*
X241876Y305821D01*
X243254Y305250D01*
X244746D01*
X246124Y305821D01*
X247179Y306876D01*
X247750Y308254D01*
Y309746D01*
X247179Y311124D01*
X246124Y312179D01*
X244746Y312750D01*
D02*
G37*
G36*
X-58678Y301940D02*
X-58730D01*
Y293170D01*
X-49960D01*
Y293222D01*
X-50644Y295776D01*
X-51966Y298065D01*
X-53835Y299934D01*
X-56125Y301256D01*
X-58678Y301940D01*
D02*
G37*
G36*
X-61270D02*
X-61322D01*
X-63875Y301256D01*
X-66164Y299934D01*
X-68034Y298065D01*
X-69356Y295776D01*
X-70040Y293222D01*
Y293170D01*
X-61270D01*
Y301940D01*
D02*
G37*
G36*
X-49960Y290630D02*
X-58730D01*
Y281860D01*
X-58678D01*
X-56125Y282545D01*
X-53835Y283866D01*
X-51966Y285736D01*
X-50644Y288025D01*
X-49960Y290579D01*
Y290630D01*
D02*
G37*
G36*
X-61270D02*
X-70040D01*
Y290579D01*
X-69356Y288025D01*
X-68034Y285736D01*
X-66164Y283866D01*
X-63875Y282545D01*
X-61322Y281860D01*
X-61270D01*
Y290630D01*
D02*
G37*
G36*
X390746Y292500D02*
X389254D01*
X387876Y291929D01*
X386821Y290874D01*
X386250Y289496D01*
Y288004D01*
X386821Y286626D01*
X387829Y285617D01*
X386812Y284600D01*
X386241Y283222D01*
Y281730D01*
X386812Y280352D01*
X387867Y279297D01*
X389245Y278726D01*
X390737D01*
X392115Y279297D01*
X393170Y280352D01*
X393741Y281730D01*
Y283222D01*
X393170Y284600D01*
X392162Y285609D01*
X393179Y286626D01*
X393750Y288004D01*
Y289496D01*
X393179Y290874D01*
X392124Y291929D01*
X390746Y292500D01*
D02*
G37*
G36*
X225496Y249750D02*
X224004D01*
X222626Y249179D01*
X221571Y248124D01*
X221000Y246746D01*
Y245254D01*
X221571Y243876D01*
X222626Y242821D01*
X224004Y242250D01*
X225496D01*
X226874Y242821D01*
X227929Y243876D01*
X228500Y245254D01*
Y246746D01*
X227929Y248124D01*
X226874Y249179D01*
X225496Y249750D01*
D02*
G37*
G36*
X200996Y239750D02*
X199504D01*
X198126Y239179D01*
X197071Y238124D01*
X196500Y236746D01*
Y235254D01*
X197071Y233876D01*
X198126Y232821D01*
X199504Y232250D01*
X200996D01*
X202374Y232821D01*
X203429Y233876D01*
X204000Y235254D01*
Y236746D01*
X203429Y238124D01*
X202374Y239179D01*
X200996Y239750D01*
D02*
G37*
G36*
X-2504Y236500D02*
X-3996D01*
X-5374Y235929D01*
X-6429Y234874D01*
X-7000Y233496D01*
Y232004D01*
X-6429Y230626D01*
X-5374Y229571D01*
X-3996Y229000D01*
X-2504D01*
X-1126Y229571D01*
X-71Y230626D01*
X500Y232004D01*
Y233496D01*
X-71Y234874D01*
X-1126Y235929D01*
X-2504Y236500D01*
D02*
G37*
G36*
X590246Y233750D02*
X588754D01*
X587376Y233179D01*
X586321Y232124D01*
X585750Y230746D01*
Y229254D01*
X586321Y227876D01*
X587376Y226821D01*
X588754Y226250D01*
X590246D01*
X591624Y226821D01*
X592679Y227876D01*
X593250Y229254D01*
Y230746D01*
X592679Y232124D01*
X591624Y233179D01*
X590246Y233750D01*
D02*
G37*
G36*
X280746Y227750D02*
X279254D01*
X277876Y227179D01*
X277392Y226695D01*
X276735Y226169D01*
X275732Y226695D01*
X275416Y227012D01*
X274037Y227583D01*
X272546D01*
X271167Y227012D01*
X270112Y225957D01*
X269541Y224579D01*
Y223087D01*
X270112Y221709D01*
X271167Y220654D01*
X272546Y220083D01*
X274037D01*
X275416Y220654D01*
X275900Y221138D01*
X276556Y221664D01*
X277559Y221138D01*
X277876Y220821D01*
X279254Y220250D01*
X280746D01*
X282124Y220821D01*
X283179Y221876D01*
X283750Y223254D01*
Y224746D01*
X283179Y226124D01*
X282124Y227179D01*
X280746Y227750D01*
D02*
G37*
G36*
X238746Y202750D02*
X237254D01*
X235876Y202179D01*
X234821Y201124D01*
X234250Y199746D01*
Y198254D01*
X234821Y196876D01*
X235876Y195821D01*
X237254Y195250D01*
X238746D01*
X240124Y195821D01*
X241179Y196876D01*
X241750Y198254D01*
Y199746D01*
X241179Y201124D01*
X240124Y202179D01*
X238746Y202750D01*
D02*
G37*
G36*
X220746D02*
X219254D01*
X217876Y202179D01*
X216821Y201124D01*
X216250Y199746D01*
Y198254D01*
X216821Y196876D01*
X217876Y195821D01*
X219254Y195250D01*
X220746D01*
X222124Y195821D01*
X223179Y196876D01*
X223750Y198254D01*
Y199746D01*
X223179Y201124D01*
X222124Y202179D01*
X220746Y202750D01*
D02*
G37*
G36*
X200746D02*
X199254D01*
X197876Y202179D01*
X196821Y201124D01*
X196250Y199746D01*
Y198254D01*
X196821Y196876D01*
X197876Y195821D01*
X199254Y195250D01*
X200746D01*
X202124Y195821D01*
X203179Y196876D01*
X203750Y198254D01*
Y199746D01*
X203179Y201124D01*
X202124Y202179D01*
X200746Y202750D01*
D02*
G37*
G36*
X592746Y193750D02*
X591254D01*
X589876Y193179D01*
X588821Y192124D01*
X588250Y190746D01*
Y189254D01*
X588821Y187876D01*
X589876Y186821D01*
X591254Y186250D01*
X592746D01*
X594124Y186821D01*
X595179Y187876D01*
X595750Y189254D01*
Y190746D01*
X595179Y192124D01*
X594124Y193179D01*
X592746Y193750D01*
D02*
G37*
G36*
X-2504Y182500D02*
X-3996D01*
X-5374Y181929D01*
X-6429Y180874D01*
X-7000Y179496D01*
Y178004D01*
X-6429Y176626D01*
X-5374Y175571D01*
X-3996Y175000D01*
X-2504D01*
X-1126Y175571D01*
X-71Y176626D01*
X500Y178004D01*
Y179496D01*
X-71Y180874D01*
X-1126Y181929D01*
X-2504Y182500D01*
D02*
G37*
G36*
X661746Y181750D02*
X660254D01*
X658876Y181179D01*
X657821Y180124D01*
X657250Y178746D01*
Y177254D01*
X657821Y175876D01*
X658876Y174821D01*
X660254Y174250D01*
X661746D01*
X663124Y174821D01*
X664179Y175876D01*
X664750Y177254D01*
Y178746D01*
X664179Y180124D01*
X663124Y181179D01*
X661746Y181750D01*
D02*
G37*
G36*
X270315Y178181D02*
X268823D01*
X267444Y177610D01*
X266390Y176556D01*
X265819Y175177D01*
Y173685D01*
X266390Y172307D01*
X267444Y171252D01*
X268823Y170681D01*
X270315D01*
X271693Y171252D01*
X272748Y172307D01*
X273319Y173685D01*
Y175177D01*
X272748Y176556D01*
X271693Y177610D01*
X270315Y178181D01*
D02*
G37*
G36*
X526251Y174500D02*
X523749D01*
X521333Y173853D01*
X519167Y172602D01*
X517398Y170833D01*
X516147Y168667D01*
X515500Y166251D01*
Y163749D01*
X516147Y161333D01*
X517398Y159167D01*
X519167Y157398D01*
X521333Y156147D01*
X523749Y155500D01*
X526251D01*
X528667Y156147D01*
X530833Y157398D01*
X532602Y159167D01*
X533853Y161333D01*
X534500Y163749D01*
Y166251D01*
X533853Y168667D01*
X532602Y170833D01*
X530833Y172602D01*
X528667Y173853D01*
X526251Y174500D01*
D02*
G37*
G36*
X501251D02*
X498749D01*
X496333Y173853D01*
X494167Y172602D01*
X492398Y170833D01*
X491147Y168667D01*
X490500Y166251D01*
Y163749D01*
X491147Y161333D01*
X492398Y159167D01*
X494167Y157398D01*
X496333Y156147D01*
X498749Y155500D01*
X501251D01*
X503667Y156147D01*
X505833Y157398D01*
X507602Y159167D01*
X508853Y161333D01*
X509500Y163749D01*
Y166251D01*
X508853Y168667D01*
X507602Y170833D01*
X505833Y172602D01*
X503667Y173853D01*
X501251Y174500D01*
D02*
G37*
G36*
X476251D02*
X473749D01*
X471333Y173853D01*
X469167Y172602D01*
X467398Y170833D01*
X466147Y168667D01*
X465500Y166251D01*
Y163749D01*
X466147Y161333D01*
X467398Y159167D01*
X469167Y157398D01*
X471333Y156147D01*
X473749Y155500D01*
X476251D01*
X478667Y156147D01*
X480833Y157398D01*
X482602Y159167D01*
X483853Y161333D01*
X484500Y163749D01*
Y166251D01*
X483853Y168667D01*
X482602Y170833D01*
X480833Y172602D01*
X478667Y173853D01*
X476251Y174500D01*
D02*
G37*
G36*
X126251D02*
X123749D01*
X121333Y173853D01*
X119167Y172602D01*
X117398Y170833D01*
X116147Y168667D01*
X115500Y166251D01*
Y163749D01*
X116147Y161333D01*
X117398Y159167D01*
X119167Y157398D01*
X121333Y156147D01*
X123749Y155500D01*
X126251D01*
X128667Y156147D01*
X130833Y157398D01*
X132602Y159167D01*
X133853Y161333D01*
X134500Y163749D01*
Y166251D01*
X133853Y168667D01*
X132602Y170833D01*
X130833Y172602D01*
X128667Y173853D01*
X126251Y174500D01*
D02*
G37*
G36*
X101251D02*
X98749D01*
X96333Y173853D01*
X94167Y172602D01*
X92398Y170833D01*
X91147Y168667D01*
X90500Y166251D01*
Y163749D01*
X91147Y161333D01*
X92398Y159167D01*
X94167Y157398D01*
X96333Y156147D01*
X98749Y155500D01*
X101251D01*
X103667Y156147D01*
X105833Y157398D01*
X107602Y159167D01*
X108853Y161333D01*
X109500Y163749D01*
Y166251D01*
X108853Y168667D01*
X107602Y170833D01*
X105833Y172602D01*
X103667Y173853D01*
X101251Y174500D01*
D02*
G37*
G36*
X76251D02*
X73749D01*
X71333Y173853D01*
X69167Y172602D01*
X67398Y170833D01*
X66147Y168667D01*
X65500Y166251D01*
Y163749D01*
X66147Y161333D01*
X67398Y159167D01*
X69167Y157398D01*
X71333Y156147D01*
X73749Y155500D01*
X76251D01*
X78667Y156147D01*
X80833Y157398D01*
X82602Y159167D01*
X83853Y161333D01*
X84500Y163749D01*
Y166251D01*
X83853Y168667D01*
X82602Y170833D01*
X80833Y172602D01*
X78667Y173853D01*
X76251Y174500D01*
D02*
G37*
G36*
X310746Y139750D02*
X309254D01*
X307876Y139179D01*
X306821Y138124D01*
X306250Y136746D01*
Y135254D01*
X306821Y133876D01*
X307876Y132821D01*
X309254Y132250D01*
X310746D01*
X312124Y132821D01*
X313179Y133876D01*
X313750Y135254D01*
Y136746D01*
X313179Y138124D01*
X312124Y139179D01*
X310746Y139750D01*
D02*
G37*
G36*
X594746Y79750D02*
X593254D01*
X591876Y79179D01*
X590821Y78124D01*
X590250Y76746D01*
Y75254D01*
X590821Y73876D01*
X591876Y72821D01*
X593254Y72250D01*
X594746D01*
X596124Y72821D01*
X597179Y73876D01*
X597750Y75254D01*
Y76746D01*
X597179Y78124D01*
X596124Y79179D01*
X594746Y79750D01*
D02*
G37*
G36*
X374746D02*
X373254D01*
X371876Y79179D01*
X370821Y78124D01*
X370250Y76746D01*
Y75254D01*
X370821Y73876D01*
X371876Y72821D01*
X373254Y72250D01*
X374746D01*
X376124Y72821D01*
X377179Y73876D01*
X377750Y75254D01*
Y76746D01*
X377179Y78124D01*
X376124Y79179D01*
X374746Y79750D01*
D02*
G37*
G36*
X194746D02*
X193254D01*
X191876Y79179D01*
X190821Y78124D01*
X190250Y76746D01*
Y75254D01*
X190821Y73876D01*
X191876Y72821D01*
X193254Y72250D01*
X194746D01*
X196124Y72821D01*
X197179Y73876D01*
X197750Y75254D01*
Y76746D01*
X197179Y78124D01*
X196124Y79179D01*
X194746Y79750D01*
D02*
G37*
G36*
X-25254D02*
X-26746D01*
X-28124Y79179D01*
X-29179Y78124D01*
X-29750Y76746D01*
Y75254D01*
X-29179Y73876D01*
X-28124Y72821D01*
X-26746Y72250D01*
X-25254D01*
X-23876Y72821D01*
X-22821Y73876D01*
X-22250Y75254D01*
Y76746D01*
X-22821Y78124D01*
X-23876Y79179D01*
X-25254Y79750D01*
D02*
G37*
G36*
X557000Y121329D02*
X553814Y121015D01*
X550751Y120086D01*
X547928Y118577D01*
X545454Y116546D01*
X543423Y114072D01*
X541914Y111249D01*
X540985Y108186D01*
X540671Y105000D01*
Y75000D01*
X540985Y71814D01*
X541914Y68751D01*
X543423Y65928D01*
X545454Y63454D01*
X547928Y61423D01*
X550751Y59914D01*
X553814Y58985D01*
X557000Y58671D01*
X560186Y58985D01*
X563249Y59914D01*
X566072Y61423D01*
X568546Y63454D01*
X570577Y65928D01*
X572086Y68751D01*
X573015Y71814D01*
X573329Y75000D01*
Y105000D01*
X573015Y108186D01*
X572086Y111249D01*
X570577Y114072D01*
X568546Y116546D01*
X566072Y118577D01*
X563249Y120086D01*
X560186Y121015D01*
X557000Y121329D01*
D02*
G37*
G36*
X443000D02*
X439814Y121015D01*
X436751Y120086D01*
X433928Y118577D01*
X431454Y116546D01*
X429423Y114072D01*
X427914Y111249D01*
X426985Y108186D01*
X426671Y105000D01*
Y75000D01*
X426985Y71814D01*
X427914Y68751D01*
X429423Y65928D01*
X431454Y63454D01*
X433928Y61423D01*
X436751Y59914D01*
X439814Y58985D01*
X443000Y58671D01*
X446186Y58985D01*
X449249Y59914D01*
X452072Y61423D01*
X454546Y63454D01*
X456577Y65928D01*
X458086Y68751D01*
X459015Y71814D01*
X459329Y75000D01*
Y105000D01*
X459015Y108186D01*
X458086Y111249D01*
X456577Y114072D01*
X454546Y116546D01*
X452072Y118577D01*
X449249Y120086D01*
X446186Y121015D01*
X443000Y121329D01*
D02*
G37*
G36*
X157000D02*
X153814Y121015D01*
X150751Y120086D01*
X147928Y118577D01*
X145454Y116546D01*
X143423Y114072D01*
X141914Y111249D01*
X140985Y108186D01*
X140671Y105000D01*
Y75000D01*
X140985Y71814D01*
X141914Y68751D01*
X143423Y65928D01*
X145454Y63454D01*
X147928Y61423D01*
X150751Y59914D01*
X153814Y58985D01*
X157000Y58671D01*
X160186Y58985D01*
X163249Y59914D01*
X166072Y61423D01*
X168546Y63454D01*
X170577Y65928D01*
X172086Y68751D01*
X173015Y71814D01*
X173329Y75000D01*
Y105000D01*
X173015Y108186D01*
X172086Y111249D01*
X170577Y114072D01*
X168546Y116546D01*
X166072Y118577D01*
X163249Y120086D01*
X160186Y121015D01*
X157000Y121329D01*
D02*
G37*
G36*
X43000D02*
X39814Y121015D01*
X36751Y120086D01*
X33928Y118577D01*
X31454Y116546D01*
X29423Y114072D01*
X27914Y111249D01*
X26985Y108186D01*
X26671Y105000D01*
Y75000D01*
X26985Y71814D01*
X27914Y68751D01*
X29423Y65928D01*
X31454Y63454D01*
X33928Y61423D01*
X36751Y59914D01*
X39814Y58985D01*
X43000Y58671D01*
X46186Y58985D01*
X49249Y59914D01*
X52072Y61423D01*
X54546Y63454D01*
X56577Y65928D01*
X58086Y68751D01*
X59015Y71814D01*
X59329Y75000D01*
Y105000D01*
X59015Y108186D01*
X58086Y111249D01*
X56577Y114072D01*
X54546Y116546D01*
X52072Y118577D01*
X49249Y120086D01*
X46186Y121015D01*
X43000Y121329D01*
D02*
G37*
G36*
X534500Y29500D02*
X515500D01*
Y10500D01*
X534500D01*
Y29500D01*
D02*
G37*
G36*
X476251D02*
X473749D01*
X471333Y28853D01*
X469167Y27602D01*
X467398Y25833D01*
X466147Y23667D01*
X465500Y21251D01*
Y18749D01*
X466147Y16333D01*
X467398Y14167D01*
X469167Y12398D01*
X471333Y11147D01*
X473749Y10500D01*
X476251D01*
X478667Y11147D01*
X480833Y12398D01*
X482602Y14167D01*
X483853Y16333D01*
X484500Y18749D01*
Y21251D01*
X483853Y23667D01*
X482602Y25833D01*
X480833Y27602D01*
X478667Y28853D01*
X476251Y29500D01*
D02*
G37*
G36*
X134500D02*
X115500D01*
Y10500D01*
X134500D01*
Y29500D01*
D02*
G37*
G36*
X76251D02*
X73749D01*
X71333Y28853D01*
X69167Y27602D01*
X67398Y25833D01*
X66147Y23667D01*
X65500Y21251D01*
Y18749D01*
X66147Y16333D01*
X67398Y14167D01*
X69167Y12398D01*
X71333Y11147D01*
X73749Y10500D01*
X76251D01*
X78667Y11147D01*
X80833Y12398D01*
X82602Y14167D01*
X83853Y16333D01*
X84500Y18749D01*
Y21251D01*
X83853Y23667D01*
X82602Y25833D01*
X80833Y27602D01*
X78667Y28853D01*
X76251Y29500D01*
D02*
G37*
%LPD*%
D68*
X437043Y135000D02*
X595000D01*
X626000Y104000D01*
X195000Y135000D02*
X226000Y104000D01*
X6043D02*
X37043Y135000D01*
X195000D01*
X226000Y104000D02*
X406000D01*
X406043D02*
X437043Y135000D01*
X643000Y121000D02*
Y211000D01*
X626000Y104000D02*
X643000Y121000D01*
Y211000D02*
Y270000D01*
X594000Y319000D02*
X643000Y270000D01*
X594000Y319000D02*
Y426000D01*
Y485242D01*
X592242Y487000D02*
X594000Y485242D01*
X418000Y487000D02*
X592242D01*
X357000Y426000D02*
X418000Y487000D01*
X598100Y492858D02*
Y570000D01*
X592242Y487000D02*
X598100Y492858D01*
X194000Y426000D02*
X357000D01*
X194000D02*
Y501000D01*
X78100Y570000D02*
X125000D01*
X194000Y501000D01*
X6000Y497901D02*
X78100Y570000D01*
X6000Y454000D02*
Y497901D01*
D71*
X-60000Y291900D02*
D03*
D72*
X78100Y570000D02*
D03*
X350799Y570000D02*
D03*
X598100Y570000D02*
D03*
D78*
X257162Y239463D02*
D03*
X240000Y181500D02*
D03*
X200000D02*
D03*
X220000D02*
D03*
X16750Y178750D02*
D03*
X17000Y233000D02*
D03*
X113000Y121000D02*
D03*
Y471000D02*
D03*
Y408000D02*
D03*
X87000D02*
D03*
Y58000D02*
D03*
Y121000D02*
D03*
X487000Y58000D02*
D03*
Y121000D02*
D03*
X513000D02*
D03*
Y471000D02*
D03*
Y408000D02*
D03*
X487000D02*
D03*
X326000Y337000D02*
D03*
X620000Y214000D02*
D03*
Y203000D02*
D03*
X257000Y246000D02*
D03*
X344000Y264000D02*
D03*
X326000Y314000D02*
D03*
X255000Y284000D02*
D03*
X626000Y104000D02*
D03*
X406000D02*
D03*
X226000D02*
D03*
X6000D02*
D03*
X594000Y426000D02*
D03*
X6000Y454000D02*
D03*
X406000Y475000D02*
D03*
X194000Y426000D02*
D03*
D79*
X643000Y211000D02*
D03*
M02*
