G04*
G04 #@! TF.GenerationSoftware,Altium Limited,Altium Designer,23.4.1 (23)*
G04*
G04 Layer_Color=8388736*
%FSLAX44Y44*%
%MOMM*%
G71*
G04*
G04 #@! TF.SameCoordinates,68BC9408-1245-4EE3-B557-EFF58EF5A4C6*
G04*
G04*
G04 #@! TF.FilePolarity,Negative*
G04*
G01*
G75*
%ADD42R,0.6000X0.6750*%
%ADD43R,0.6750X0.6000*%
G04:AMPARAMS|DCode=44|XSize=1.1032mm|YSize=1.0032mm|CornerRadius=0.1616mm|HoleSize=0mm|Usage=FLASHONLY|Rotation=270.000|XOffset=0mm|YOffset=0mm|HoleType=Round|Shape=RoundedRectangle|*
%AMROUNDEDRECTD44*
21,1,1.1032,0.6800,0,0,270.0*
21,1,0.7800,1.0032,0,0,270.0*
1,1,0.3232,-0.3400,-0.3900*
1,1,0.3232,-0.3400,0.3900*
1,1,0.3232,0.3400,0.3900*
1,1,0.3232,0.3400,-0.3900*
%
%ADD44ROUNDEDRECTD44*%
G04:AMPARAMS|DCode=45|XSize=1.7032mm|YSize=2.2032mm|CornerRadius=0.2891mm|HoleSize=0mm|Usage=FLASHONLY|Rotation=0.000|XOffset=0mm|YOffset=0mm|HoleType=Round|Shape=RoundedRectangle|*
%AMROUNDEDRECTD45*
21,1,1.7032,1.6250,0,0,0.0*
21,1,1.1250,2.2032,0,0,0.0*
1,1,0.5782,0.5625,-0.8125*
1,1,0.5782,-0.5625,-0.8125*
1,1,0.5782,-0.5625,0.8125*
1,1,0.5782,0.5625,0.8125*
%
%ADD45ROUNDEDRECTD45*%
G04:AMPARAMS|DCode=46|XSize=4.0032mm|YSize=2.2032mm|CornerRadius=0.1516mm|HoleSize=0mm|Usage=FLASHONLY|Rotation=0.000|XOffset=0mm|YOffset=0mm|HoleType=Round|Shape=RoundedRectangle|*
%AMROUNDEDRECTD46*
21,1,4.0032,1.9000,0,0,0.0*
21,1,3.7000,2.2032,0,0,0.0*
1,1,0.3032,1.8500,-0.9500*
1,1,0.3032,-1.8500,-0.9500*
1,1,0.3032,-1.8500,0.9500*
1,1,0.3032,1.8500,0.9500*
%
%ADD46ROUNDEDRECTD46*%
G04:AMPARAMS|DCode=47|XSize=1.1032mm|YSize=1.6032mm|CornerRadius=0.1691mm|HoleSize=0mm|Usage=FLASHONLY|Rotation=0.000|XOffset=0mm|YOffset=0mm|HoleType=Round|Shape=RoundedRectangle|*
%AMROUNDEDRECTD47*
21,1,1.1032,1.2650,0,0,0.0*
21,1,0.7650,1.6032,0,0,0.0*
1,1,0.3382,0.3825,-0.6325*
1,1,0.3382,-0.3825,-0.6325*
1,1,0.3382,-0.3825,0.6325*
1,1,0.3382,0.3825,0.6325*
%
%ADD47ROUNDEDRECTD47*%
%ADD48R,1.0032X1.1032*%
G04:AMPARAMS|DCode=49|XSize=0.7032mm|YSize=0.8032mm|CornerRadius=0.1391mm|HoleSize=0mm|Usage=FLASHONLY|Rotation=270.000|XOffset=0mm|YOffset=0mm|HoleType=Round|Shape=RoundedRectangle|*
%AMROUNDEDRECTD49*
21,1,0.7032,0.5250,0,0,270.0*
21,1,0.4250,0.8032,0,0,270.0*
1,1,0.2782,-0.2625,-0.2125*
1,1,0.2782,-0.2625,0.2125*
1,1,0.2782,0.2625,0.2125*
1,1,0.2782,0.2625,-0.2125*
%
%ADD49ROUNDEDRECTD49*%
%ADD50R,4.2032X4.2032*%
G04:AMPARAMS|DCode=51|XSize=1.0132mm|YSize=0.4232mm|CornerRadius=0.1291mm|HoleSize=0mm|Usage=FLASHONLY|Rotation=90.000|XOffset=0mm|YOffset=0mm|HoleType=Round|Shape=RoundedRectangle|*
%AMROUNDEDRECTD51*
21,1,1.0132,0.1650,0,0,90.0*
21,1,0.7550,0.4232,0,0,90.0*
1,1,0.2582,0.0825,0.3775*
1,1,0.2582,0.0825,-0.3775*
1,1,0.2582,-0.0825,-0.3775*
1,1,0.2582,-0.0825,0.3775*
%
%ADD51ROUNDEDRECTD51*%
G04:AMPARAMS|DCode=52|XSize=0.4232mm|YSize=1.0132mm|CornerRadius=0.1291mm|HoleSize=0mm|Usage=FLASHONLY|Rotation=90.000|XOffset=0mm|YOffset=0mm|HoleType=Round|Shape=RoundedRectangle|*
%AMROUNDEDRECTD52*
21,1,0.4232,0.7550,0,0,90.0*
21,1,0.1650,1.0132,0,0,90.0*
1,1,0.2582,0.3775,0.0825*
1,1,0.2582,0.3775,-0.0825*
1,1,0.2582,-0.3775,-0.0825*
1,1,0.2582,-0.3775,0.0825*
%
%ADD52ROUNDEDRECTD52*%
%ADD53R,1.1938X0.9144*%
%ADD54R,1.2032X1.7032*%
G04:AMPARAMS|DCode=55|XSize=1.1032mm|YSize=1.0032mm|CornerRadius=0.1616mm|HoleSize=0mm|Usage=FLASHONLY|Rotation=180.000|XOffset=0mm|YOffset=0mm|HoleType=Round|Shape=RoundedRectangle|*
%AMROUNDEDRECTD55*
21,1,1.1032,0.6800,0,0,180.0*
21,1,0.7800,1.0032,0,0,180.0*
1,1,0.3232,-0.3900,0.3400*
1,1,0.3232,0.3900,0.3400*
1,1,0.3232,0.3900,-0.3400*
1,1,0.3232,-0.3900,-0.3400*
%
%ADD55ROUNDEDRECTD55*%
%ADD56R,1.2032X1.1032*%
G04:AMPARAMS|DCode=57|XSize=0.7032mm|YSize=0.8032mm|CornerRadius=0.1391mm|HoleSize=0mm|Usage=FLASHONLY|Rotation=0.000|XOffset=0mm|YOffset=0mm|HoleType=Round|Shape=RoundedRectangle|*
%AMROUNDEDRECTD57*
21,1,0.7032,0.5250,0,0,0.0*
21,1,0.4250,0.8032,0,0,0.0*
1,1,0.2782,0.2125,-0.2625*
1,1,0.2782,-0.2125,-0.2625*
1,1,0.2782,-0.2125,0.2625*
1,1,0.2782,0.2125,0.2625*
%
%ADD57ROUNDEDRECTD57*%
%ADD58C,1.7032*%
%ADD59R,1.7032X1.7032*%
%ADD60R,1.8532X1.8532*%
%ADD61C,1.8532*%
%ADD62O,3.2032X6.2032*%
%ADD63R,1.7032X1.7032*%
%ADD64C,6.2032*%
G36*
X304999Y531501D02*
Y521501D01*
X294999D01*
Y531501D01*
X304999D01*
D02*
G37*
G36*
X330000Y532000D02*
Y522000D01*
X320000D01*
Y532000D01*
X330000D01*
D02*
G37*
D42*
X241000Y240621D02*
D03*
D43*
X371625Y290000D02*
D03*
X371625Y280000D02*
D03*
D44*
X-10000Y178500D02*
D03*
Y161500D02*
D03*
X10000Y178500D02*
D03*
Y161500D02*
D03*
X-10000Y232500D02*
D03*
Y215500D02*
D03*
X10000Y232500D02*
D03*
Y215500D02*
D03*
D45*
X643000Y230000D02*
D03*
X597000D02*
D03*
X620000D02*
D03*
D46*
Y292000D02*
D03*
D47*
X599500Y190000D02*
D03*
X620500D02*
D03*
X660500Y190000D02*
D03*
X639500D02*
D03*
D48*
X218000Y248000D02*
D03*
Y234000D02*
D03*
X207000Y248000D02*
D03*
Y234000D02*
D03*
D49*
X230000Y246000D02*
D03*
Y236000D02*
D03*
X195000D02*
D03*
Y246000D02*
D03*
X241000Y236000D02*
D03*
Y246000D02*
D03*
D50*
X300000Y270000D02*
D03*
D51*
X274000Y304450D02*
D03*
X278000D02*
D03*
X282000D02*
D03*
X286000D02*
D03*
X290000D02*
D03*
X294000D02*
D03*
X298000D02*
D03*
X302000D02*
D03*
X306000D02*
D03*
X310000D02*
D03*
X314000D02*
D03*
X318000D02*
D03*
X322000D02*
D03*
X326000D02*
D03*
Y235550D02*
D03*
X322000D02*
D03*
X318000D02*
D03*
X314000D02*
D03*
X310000D02*
D03*
X306000D02*
D03*
X302000D02*
D03*
X298000D02*
D03*
X294000D02*
D03*
X290000D02*
D03*
X286000D02*
D03*
X282000D02*
D03*
X278000D02*
D03*
X274000D02*
D03*
D52*
X265550Y244000D02*
D03*
Y248000D02*
D03*
Y252000D02*
D03*
Y256000D02*
D03*
Y260000D02*
D03*
Y264000D02*
D03*
Y268000D02*
D03*
Y272000D02*
D03*
Y276000D02*
D03*
Y280000D02*
D03*
Y284000D02*
D03*
Y288000D02*
D03*
Y292000D02*
D03*
Y296000D02*
D03*
X334450D02*
D03*
Y292000D02*
D03*
Y288000D02*
D03*
Y284000D02*
D03*
Y280000D02*
D03*
Y276000D02*
D03*
Y272000D02*
D03*
Y268000D02*
D03*
Y264000D02*
D03*
Y260000D02*
D03*
Y256000D02*
D03*
Y252000D02*
D03*
Y248000D02*
D03*
Y244000D02*
D03*
D53*
X-71501Y234754D02*
D03*
X-26501D02*
D03*
X-71501Y213254D02*
D03*
X-26501D02*
D03*
X-71501Y180755D02*
D03*
X-26501D02*
D03*
X-71501Y159255D02*
D03*
X-26501D02*
D03*
D54*
X6000Y114500D02*
D03*
Y65500D02*
D03*
X-26000Y114500D02*
D03*
Y65500D02*
D03*
X226000Y114500D02*
D03*
Y65500D02*
D03*
X194000Y114500D02*
D03*
Y65500D02*
D03*
X406000Y114500D02*
D03*
Y65500D02*
D03*
X374000Y114500D02*
D03*
Y65500D02*
D03*
X626000Y114500D02*
D03*
Y65500D02*
D03*
X594000Y114500D02*
D03*
Y65500D02*
D03*
Y415500D02*
D03*
Y464500D02*
D03*
X626000Y415500D02*
D03*
Y464500D02*
D03*
X406000D02*
D03*
Y415500D02*
D03*
X374000Y464500D02*
D03*
Y415500D02*
D03*
X194000D02*
D03*
Y464500D02*
D03*
X226000Y415500D02*
D03*
Y464500D02*
D03*
X6000D02*
D03*
Y415500D02*
D03*
X-26000Y464500D02*
D03*
Y415500D02*
D03*
D55*
X343500Y345000D02*
D03*
X326500D02*
D03*
X343500Y329000D02*
D03*
X326500D02*
D03*
D56*
X325001Y535499D02*
D03*
Y518499D02*
D03*
X300000Y535000D02*
D03*
Y518000D02*
D03*
D57*
X367000Y290000D02*
D03*
X377000D02*
D03*
X367000Y280000D02*
D03*
X377000D02*
D03*
D58*
X52700Y570000D02*
D03*
X27300Y570000D02*
D03*
X1900D02*
D03*
X274600Y570000D02*
D03*
X300000D02*
D03*
X325399Y570000D02*
D03*
X249200Y570000D02*
D03*
X572700Y570000D02*
D03*
X547300Y570000D02*
D03*
X521900D02*
D03*
X-60000Y342700D02*
D03*
X-60000Y317300D02*
D03*
Y291900D02*
D03*
D59*
X78100Y570000D02*
D03*
X350799Y570000D02*
D03*
X598100Y570000D02*
D03*
D60*
X75000Y510000D02*
D03*
X475000D02*
D03*
X525000Y20000D02*
D03*
X125000D02*
D03*
D61*
Y510000D02*
D03*
X75000Y365000D02*
D03*
X100000D02*
D03*
X125000D02*
D03*
X525000Y510000D02*
D03*
X475000Y365000D02*
D03*
X500000D02*
D03*
X525000D02*
D03*
X475000Y20000D02*
D03*
X525000Y165000D02*
D03*
X500000D02*
D03*
X475000D02*
D03*
X75000Y20000D02*
D03*
X125000Y165000D02*
D03*
X100000D02*
D03*
X75000D02*
D03*
D62*
X43000Y440000D02*
D03*
X157000D02*
D03*
X443000D02*
D03*
X557000D02*
D03*
Y90000D02*
D03*
X443000D02*
D03*
X157000D02*
D03*
X43000D02*
D03*
D63*
X-60000Y368100D02*
D03*
D64*
X-60000Y10000D02*
D03*
X660000D02*
D03*
Y560000D02*
D03*
X-60001Y560000D02*
D03*
M02*
