G04*
G04 #@! TF.GenerationSoftware,Altium Limited,Altium Designer,23.4.1 (23)*
G04*
G04 Layer_Physical_Order=2*
G04 Layer_Color=36540*
%FSLAX44Y44*%
%MOMM*%
G71*
G04*
G04 #@! TF.SameCoordinates,68BC9408-1245-4EE3-B557-EFF58EF5A4C6*
G04*
G04*
G04 #@! TF.FilePolarity,Positive*
G04*
G01*
G75*
%ADD71C,1.5000*%
%ADD73R,1.6500X1.6500*%
%ADD74C,1.6500*%
%ADD75O,3.0000X6.0000*%
%ADD76R,1.5000X1.5000*%
%ADD77C,6.0000*%
%ADD78C,0.5000*%
G36*
X644779Y588765D02*
X642945Y587831D01*
X638802Y584820D01*
X635180Y581198D01*
X632169Y577055D01*
X629844Y572491D01*
X628261Y567620D01*
X627460Y562561D01*
Y561270D01*
X660000D01*
Y560000D01*
X661270D01*
Y527460D01*
X662561D01*
X667620Y528261D01*
X672491Y529844D01*
X677055Y532169D01*
X681198Y535180D01*
X684820Y538802D01*
X687831Y542945D01*
X688765Y544779D01*
X690000Y544483D01*
Y25517D01*
X688765Y25221D01*
X687831Y27055D01*
X684820Y31198D01*
X681198Y34820D01*
X677055Y37831D01*
X672491Y40156D01*
X667620Y41739D01*
X662561Y42540D01*
X661270D01*
Y10000D01*
X660000D01*
Y8730D01*
X627460D01*
Y7439D01*
X628261Y2380D01*
X629844Y-2491D01*
X632169Y-7055D01*
X635180Y-11198D01*
X638802Y-14820D01*
X642945Y-17831D01*
X644779Y-18765D01*
X644483Y-20000D01*
X-44483D01*
X-44779Y-18765D01*
X-42945Y-17831D01*
X-38802Y-14820D01*
X-35180Y-11198D01*
X-32169Y-7055D01*
X-29844Y-2491D01*
X-28261Y2380D01*
X-27460Y7439D01*
Y8730D01*
X-60000D01*
Y10000D01*
X-61270D01*
Y42540D01*
X-62561D01*
X-67620Y41739D01*
X-72491Y40156D01*
X-77055Y37831D01*
X-81198Y34820D01*
X-84820Y31198D01*
X-87831Y27055D01*
X-88765Y25221D01*
X-90000Y25517D01*
Y544480D01*
X-88765Y544777D01*
X-87832Y542945D01*
X-84821Y538801D01*
X-81200Y535179D01*
X-77056Y532169D01*
X-72492Y529844D01*
X-67621Y528261D01*
X-62562Y527459D01*
X-61271D01*
Y560000D01*
X-60001D01*
Y561269D01*
X-27461D01*
Y562561D01*
X-28262Y567619D01*
X-29845Y572491D01*
X-32170Y577054D01*
X-35181Y581198D01*
X-38803Y584820D01*
X-42946Y587830D01*
X-44781Y588765D01*
X-44485Y590000D01*
X644483D01*
X644779Y588765D01*
D02*
G37*
%LPC*%
G36*
X250522Y580040D02*
X250470D01*
Y571270D01*
X259240D01*
Y571322D01*
X258556Y573875D01*
X257234Y576165D01*
X255365Y578034D01*
X253075Y579356D01*
X250522Y580040D01*
D02*
G37*
G36*
X247930D02*
X247878D01*
X245325Y579356D01*
X243035Y578034D01*
X241166Y576165D01*
X239844Y573875D01*
X239160Y571322D01*
Y571270D01*
X247930D01*
Y580040D01*
D02*
G37*
G36*
X3222Y580040D02*
X3170D01*
Y571270D01*
X11940D01*
Y571322D01*
X11256Y573875D01*
X9934Y576165D01*
X8065Y578034D01*
X5776Y579356D01*
X3222Y580040D01*
D02*
G37*
G36*
X523222D02*
X523170D01*
Y571270D01*
X531940D01*
Y571322D01*
X531256Y573875D01*
X529934Y576165D01*
X528065Y578034D01*
X525776Y579356D01*
X523222Y580040D01*
D02*
G37*
G36*
X520630D02*
X520579D01*
X518025Y579356D01*
X515736Y578034D01*
X513866Y576165D01*
X512545Y573875D01*
X511860Y571322D01*
Y571270D01*
X520630D01*
Y580040D01*
D02*
G37*
G36*
X630D02*
X579D01*
X-1975Y579356D01*
X-4264Y578034D01*
X-6134Y576165D01*
X-7455Y573875D01*
X-8140Y571322D01*
Y571270D01*
X630D01*
Y580040D01*
D02*
G37*
G36*
X359549Y578750D02*
X342049D01*
Y561250D01*
X359549D01*
Y578750D01*
D02*
G37*
G36*
X326551D02*
X324247D01*
X322022Y578154D01*
X320027Y577002D01*
X318398Y575373D01*
X317246Y573378D01*
X316649Y571152D01*
Y568848D01*
X317246Y566623D01*
X318398Y564628D01*
X320027Y562999D01*
X322022Y561847D01*
X324247Y561250D01*
X326551D01*
X328777Y561847D01*
X330772Y562999D01*
X332401Y564628D01*
X333553Y566623D01*
X334149Y568848D01*
Y571152D01*
X333553Y573378D01*
X332401Y575373D01*
X330772Y577002D01*
X328777Y578154D01*
X326551Y578750D01*
D02*
G37*
G36*
X606850Y578750D02*
X589350D01*
Y561250D01*
X606850D01*
Y578750D01*
D02*
G37*
G36*
X573852D02*
X571548D01*
X569322Y578154D01*
X567327Y577002D01*
X565698Y575373D01*
X564546Y573378D01*
X563950Y571152D01*
Y568848D01*
X564546Y566623D01*
X565698Y564627D01*
X567327Y562998D01*
X569322Y561847D01*
X571548Y561250D01*
X573852D01*
X576077Y561847D01*
X578072Y562998D01*
X579701Y564627D01*
X580853Y566623D01*
X581450Y568848D01*
Y571152D01*
X580853Y573378D01*
X579701Y575373D01*
X578072Y577002D01*
X576077Y578154D01*
X573852Y578750D01*
D02*
G37*
G36*
X86850D02*
X69350D01*
Y561250D01*
X86850D01*
Y578750D01*
D02*
G37*
G36*
X53852D02*
X51548D01*
X49322Y578154D01*
X47327Y577002D01*
X45698Y575373D01*
X44546Y573378D01*
X43950Y571152D01*
Y568848D01*
X44546Y566623D01*
X45698Y564627D01*
X47327Y562998D01*
X49322Y561847D01*
X51548Y561250D01*
X53852D01*
X56077Y561847D01*
X58072Y562998D01*
X59701Y564627D01*
X60853Y566623D01*
X61450Y568848D01*
Y571152D01*
X60853Y573378D01*
X59701Y575373D01*
X58072Y577002D01*
X56077Y578154D01*
X53852Y578750D01*
D02*
G37*
G36*
X301152Y578750D02*
X298848D01*
X296623Y578154D01*
X294627Y577002D01*
X292998Y575373D01*
X291846Y573377D01*
X291250Y571152D01*
Y568848D01*
X291846Y566623D01*
X292998Y564627D01*
X294627Y562998D01*
X296623Y561846D01*
X298848Y561250D01*
X301152D01*
X303377Y561846D01*
X305373Y562998D01*
X307002Y564627D01*
X308154Y566623D01*
X308750Y568848D01*
Y571152D01*
X308154Y573377D01*
X307002Y575373D01*
X305373Y577002D01*
X303377Y578154D01*
X301152Y578750D01*
D02*
G37*
G36*
X275752D02*
X273448D01*
X271223Y578154D01*
X269227Y577002D01*
X267598Y575373D01*
X266446Y573377D01*
X265850Y571152D01*
Y568848D01*
X266446Y566623D01*
X267598Y564627D01*
X269227Y562998D01*
X271223Y561846D01*
X273448Y561250D01*
X275752D01*
X277977Y561846D01*
X279973Y562998D01*
X281602Y564627D01*
X282754Y566623D01*
X283350Y568848D01*
Y571152D01*
X282754Y573377D01*
X281602Y575373D01*
X279973Y577002D01*
X277977Y578154D01*
X275752Y578750D01*
D02*
G37*
G36*
X548452Y578750D02*
X546148D01*
X543923Y578153D01*
X541928Y577002D01*
X540299Y575373D01*
X539147Y573377D01*
X538550Y571152D01*
Y568848D01*
X539147Y566622D01*
X540299Y564627D01*
X541928Y562998D01*
X543923Y561846D01*
X546148Y561250D01*
X548452D01*
X550678Y561846D01*
X552673Y562998D01*
X554302Y564627D01*
X555454Y566622D01*
X556050Y568848D01*
Y571152D01*
X555454Y573377D01*
X554302Y575373D01*
X552673Y577002D01*
X550678Y578153D01*
X548452Y578750D01*
D02*
G37*
G36*
X28452D02*
X26148D01*
X23923Y578153D01*
X21928Y577002D01*
X20299Y575373D01*
X19147Y573377D01*
X18550Y571152D01*
Y568848D01*
X19147Y566622D01*
X20299Y564627D01*
X21928Y562998D01*
X23923Y561846D01*
X26148Y561250D01*
X28452D01*
X30678Y561846D01*
X32673Y562998D01*
X34302Y564627D01*
X35454Y566622D01*
X36050Y568848D01*
Y571152D01*
X35454Y573377D01*
X34302Y575373D01*
X32673Y577002D01*
X30678Y578153D01*
X28452Y578750D01*
D02*
G37*
G36*
X259240Y568730D02*
X250470D01*
Y559960D01*
X250522D01*
X253075Y560644D01*
X255365Y561966D01*
X257234Y563835D01*
X258556Y566125D01*
X259240Y568678D01*
Y568730D01*
D02*
G37*
G36*
X247930D02*
X239160D01*
Y568678D01*
X239844Y566125D01*
X241166Y563835D01*
X243035Y561966D01*
X245325Y560644D01*
X247878Y559960D01*
X247930D01*
Y568730D01*
D02*
G37*
G36*
X531940Y568730D02*
X523170D01*
Y559960D01*
X523222D01*
X525776Y560644D01*
X528065Y561966D01*
X529934Y563835D01*
X531256Y566124D01*
X531940Y568678D01*
Y568730D01*
D02*
G37*
G36*
X520630D02*
X511860D01*
Y568678D01*
X512545Y566124D01*
X513866Y563835D01*
X515736Y561966D01*
X518025Y560644D01*
X520579Y559960D01*
X520630D01*
Y568730D01*
D02*
G37*
G36*
X11940D02*
X3170D01*
Y559960D01*
X3222D01*
X5776Y560644D01*
X8065Y561966D01*
X9934Y563835D01*
X11256Y566124D01*
X11940Y568678D01*
Y568730D01*
D02*
G37*
G36*
X630D02*
X-8140D01*
Y568678D01*
X-7455Y566124D01*
X-6134Y563835D01*
X-4264Y561966D01*
X-1975Y560644D01*
X579Y559960D01*
X630D01*
Y568730D01*
D02*
G37*
G36*
X555746Y553750D02*
X554254D01*
X552876Y553179D01*
X551821Y552124D01*
X551250Y550746D01*
Y549254D01*
X551821Y547876D01*
X552876Y546821D01*
X554254Y546250D01*
X555746D01*
X557124Y546821D01*
X558179Y547876D01*
X558750Y549254D01*
Y550746D01*
X558179Y552124D01*
X557124Y553179D01*
X555746Y553750D01*
D02*
G37*
G36*
X658730Y558730D02*
X627460D01*
Y557439D01*
X628261Y552380D01*
X629844Y547509D01*
X632169Y542945D01*
X635180Y538802D01*
X638802Y535180D01*
X642945Y532169D01*
X647509Y529844D01*
X652380Y528261D01*
X657439Y527460D01*
X658730D01*
Y558730D01*
D02*
G37*
G36*
X-27461Y558730D02*
X-58731D01*
Y527459D01*
X-57440D01*
X-52381Y528261D01*
X-47510Y529844D01*
X-42946Y532169D01*
X-38803Y535179D01*
X-35181Y538801D01*
X-32170Y542945D01*
X-29845Y547509D01*
X-28262Y552380D01*
X-27461Y557439D01*
Y558730D01*
D02*
G37*
G36*
X485790Y520790D02*
X476270D01*
Y511270D01*
X485790D01*
Y520790D01*
D02*
G37*
G36*
X473730D02*
X464210D01*
Y511270D01*
X473730D01*
Y520790D01*
D02*
G37*
G36*
X85790D02*
X76270D01*
Y511270D01*
X85790D01*
Y520790D01*
D02*
G37*
G36*
X73730D02*
X64210D01*
Y511270D01*
X73730D01*
Y520790D01*
D02*
G37*
G36*
X526251Y519500D02*
X523749D01*
X521333Y518853D01*
X519167Y517602D01*
X517398Y515833D01*
X516147Y513667D01*
X515500Y511251D01*
Y508749D01*
X516147Y506333D01*
X517398Y504167D01*
X519167Y502398D01*
X521333Y501147D01*
X523749Y500500D01*
X526251D01*
X528667Y501147D01*
X530833Y502398D01*
X532602Y504167D01*
X533853Y506333D01*
X534500Y508749D01*
Y511251D01*
X533853Y513667D01*
X532602Y515833D01*
X530833Y517602D01*
X528667Y518853D01*
X526251Y519500D01*
D02*
G37*
G36*
X126251D02*
X123749D01*
X121333Y518853D01*
X119167Y517602D01*
X117398Y515833D01*
X116147Y513667D01*
X115500Y511251D01*
Y508749D01*
X116147Y506333D01*
X117398Y504167D01*
X119167Y502398D01*
X121333Y501147D01*
X123749Y500500D01*
X126251D01*
X128667Y501147D01*
X130833Y502398D01*
X132602Y504167D01*
X133853Y506333D01*
X134500Y508749D01*
Y511251D01*
X133853Y513667D01*
X132602Y515833D01*
X130833Y517602D01*
X128667Y518853D01*
X126251Y519500D01*
D02*
G37*
G36*
X485790Y508730D02*
X476270D01*
Y499210D01*
X485790D01*
Y508730D01*
D02*
G37*
G36*
X473730D02*
X464210D01*
Y499210D01*
X473730D01*
Y508730D01*
D02*
G37*
G36*
X85790D02*
X76270D01*
Y499210D01*
X85790D01*
Y508730D01*
D02*
G37*
G36*
X73730D02*
X64210D01*
Y499210D01*
X73730D01*
Y508730D01*
D02*
G37*
G36*
X406746Y478750D02*
X405254D01*
X403876Y478179D01*
X402821Y477124D01*
X402250Y475746D01*
Y474254D01*
X402821Y472876D01*
X403876Y471821D01*
X405254Y471250D01*
X406746D01*
X408124Y471821D01*
X409179Y472876D01*
X409750Y474254D01*
Y475746D01*
X409179Y477124D01*
X408124Y478179D01*
X406746Y478750D01*
D02*
G37*
G36*
X513746Y474750D02*
X512254D01*
X510876Y474179D01*
X509821Y473124D01*
X509250Y471746D01*
Y470254D01*
X509821Y468876D01*
X510876Y467821D01*
X512254Y467250D01*
X513746D01*
X515124Y467821D01*
X516179Y468876D01*
X516750Y470254D01*
Y471746D01*
X516179Y473124D01*
X515124Y474179D01*
X513746Y474750D01*
D02*
G37*
G36*
X113746D02*
X112254D01*
X110876Y474179D01*
X109821Y473124D01*
X109250Y471746D01*
Y470254D01*
X109821Y468876D01*
X110876Y467821D01*
X112254Y467250D01*
X113746D01*
X115124Y467821D01*
X116179Y468876D01*
X116750Y470254D01*
Y471746D01*
X116179Y473124D01*
X115124Y474179D01*
X113746Y474750D01*
D02*
G37*
G36*
X6746Y457750D02*
X5254D01*
X3876Y457179D01*
X2821Y456124D01*
X2250Y454746D01*
Y453254D01*
X2821Y451876D01*
X3876Y450821D01*
X5254Y450250D01*
X6746D01*
X8124Y450821D01*
X9179Y451876D01*
X9750Y453254D01*
Y454746D01*
X9179Y456124D01*
X8124Y457179D01*
X6746Y457750D01*
D02*
G37*
G36*
X158270Y472500D02*
Y441270D01*
X174625D01*
Y455000D01*
X174286Y458438D01*
X173283Y461745D01*
X171654Y464792D01*
X169463Y467463D01*
X166792Y469655D01*
X163745Y471283D01*
X160438Y472286D01*
X158270Y472500D01*
D02*
G37*
G36*
X44270D02*
Y441270D01*
X60625D01*
Y455000D01*
X60286Y458438D01*
X59283Y461745D01*
X57655Y464792D01*
X55463Y467463D01*
X52792Y469655D01*
X49745Y471283D01*
X46438Y472286D01*
X44270Y472500D01*
D02*
G37*
G36*
X41730D02*
X39562Y472286D01*
X36255Y471283D01*
X33208Y469655D01*
X30537Y467463D01*
X28345Y464792D01*
X26717Y461745D01*
X25714Y458438D01*
X25375Y455000D01*
Y441270D01*
X41730D01*
Y472500D01*
D02*
G37*
G36*
X155730D02*
X153561Y472286D01*
X150255Y471283D01*
X147208Y469655D01*
X144537Y467463D01*
X142346Y464792D01*
X140717Y461745D01*
X139714Y458438D01*
X139375Y455000D01*
Y441270D01*
X155730D01*
Y472500D01*
D02*
G37*
G36*
X558270D02*
Y441270D01*
X574625D01*
Y455000D01*
X574286Y458438D01*
X573283Y461745D01*
X571655Y464792D01*
X569463Y467463D01*
X566792Y469655D01*
X563745Y471283D01*
X560438Y472286D01*
X558270Y472500D01*
D02*
G37*
G36*
X444270D02*
Y441270D01*
X460625D01*
Y455000D01*
X460286Y458438D01*
X459283Y461745D01*
X457654Y464792D01*
X455463Y467463D01*
X452792Y469655D01*
X449745Y471283D01*
X446438Y472286D01*
X444270Y472500D01*
D02*
G37*
G36*
X555730Y472500D02*
X553562Y472286D01*
X550255Y471283D01*
X547208Y469655D01*
X544537Y467463D01*
X542345Y464792D01*
X540717Y461745D01*
X539714Y458438D01*
X539375Y455000D01*
Y441270D01*
X555730D01*
Y472500D01*
D02*
G37*
G36*
X441730D02*
X439562Y472286D01*
X436255Y471283D01*
X433208Y469655D01*
X430537Y467463D01*
X428345Y464792D01*
X426717Y461745D01*
X425714Y458438D01*
X425375Y455000D01*
Y441270D01*
X441730D01*
Y472500D01*
D02*
G37*
G36*
X594746Y429750D02*
X593254D01*
X591876Y429179D01*
X590821Y428124D01*
X590250Y426746D01*
Y425254D01*
X590821Y423876D01*
X591876Y422821D01*
X593254Y422250D01*
X594746D01*
X596124Y422821D01*
X597179Y423876D01*
X597750Y425254D01*
Y426746D01*
X597179Y428124D01*
X596124Y429179D01*
X594746Y429750D01*
D02*
G37*
G36*
X194746D02*
X193254D01*
X191876Y429179D01*
X190821Y428124D01*
X190250Y426746D01*
Y425254D01*
X190821Y423876D01*
X191876Y422821D01*
X193254Y422250D01*
X194746D01*
X196124Y422821D01*
X197179Y423876D01*
X197750Y425254D01*
Y426746D01*
X197179Y428124D01*
X196124Y429179D01*
X194746Y429750D01*
D02*
G37*
G36*
X460625Y438730D02*
X444270D01*
Y407500D01*
X446438Y407714D01*
X449745Y408717D01*
X452792Y410345D01*
X455463Y412537D01*
X457654Y415208D01*
X459283Y418255D01*
X460286Y421562D01*
X460625Y425000D01*
Y438730D01*
D02*
G37*
G36*
X574625D02*
X558270D01*
Y407500D01*
X560438Y407714D01*
X563745Y408717D01*
X566792Y410345D01*
X569463Y412537D01*
X571655Y415208D01*
X573283Y418255D01*
X574286Y421562D01*
X574625Y425000D01*
Y438730D01*
D02*
G37*
G36*
X174625Y438730D02*
X158270D01*
Y407500D01*
X160438Y407714D01*
X163745Y408717D01*
X166792Y410345D01*
X169463Y412537D01*
X171654Y415208D01*
X173283Y418255D01*
X174286Y421562D01*
X174625Y425000D01*
Y438730D01*
D02*
G37*
G36*
X60625D02*
X44270D01*
Y407500D01*
X46438Y407714D01*
X49745Y408717D01*
X52792Y410345D01*
X55463Y412537D01*
X57655Y415208D01*
X59283Y418255D01*
X60286Y421562D01*
X60625Y425000D01*
Y438730D01*
D02*
G37*
G36*
X41730D02*
X25375D01*
Y425000D01*
X25714Y421562D01*
X26717Y418255D01*
X28345Y415208D01*
X30537Y412537D01*
X33208Y410345D01*
X36255Y408717D01*
X39562Y407714D01*
X41730Y407500D01*
Y438730D01*
D02*
G37*
G36*
X155730D02*
X139375D01*
Y425000D01*
X139714Y421562D01*
X140717Y418255D01*
X142346Y415208D01*
X144537Y412537D01*
X147208Y410345D01*
X150255Y408717D01*
X153561Y407714D01*
X155730Y407500D01*
Y438730D01*
D02*
G37*
G36*
X555730Y438730D02*
X539375D01*
Y425000D01*
X539714Y421562D01*
X540717Y418255D01*
X542345Y415208D01*
X544537Y412537D01*
X547208Y410345D01*
X550255Y408717D01*
X553562Y407714D01*
X555730Y407500D01*
Y438730D01*
D02*
G37*
G36*
X441730D02*
X425375D01*
Y425000D01*
X425714Y421562D01*
X426717Y418255D01*
X428345Y415208D01*
X430537Y412537D01*
X433208Y410345D01*
X436255Y408717D01*
X439562Y407714D01*
X441730Y407500D01*
Y438730D01*
D02*
G37*
G36*
X513746Y411750D02*
X512254D01*
X510876Y411179D01*
X509821Y410124D01*
X509250Y408746D01*
Y407254D01*
X509821Y405876D01*
X510876Y404821D01*
X512254Y404250D01*
X513746D01*
X515124Y404821D01*
X516179Y405876D01*
X516750Y407254D01*
Y408746D01*
X516179Y410124D01*
X515124Y411179D01*
X513746Y411750D01*
D02*
G37*
G36*
X487746D02*
X486254D01*
X484876Y411179D01*
X483821Y410124D01*
X483250Y408746D01*
Y407254D01*
X483821Y405876D01*
X484876Y404821D01*
X486254Y404250D01*
X487746D01*
X489124Y404821D01*
X490179Y405876D01*
X490750Y407254D01*
Y408746D01*
X490179Y410124D01*
X489124Y411179D01*
X487746Y411750D01*
D02*
G37*
G36*
X113746D02*
X112254D01*
X110876Y411179D01*
X109821Y410124D01*
X109250Y408746D01*
Y407254D01*
X109821Y405876D01*
X110876Y404821D01*
X112254Y404250D01*
X113746D01*
X115124Y404821D01*
X116179Y405876D01*
X116750Y407254D01*
Y408746D01*
X116179Y410124D01*
X115124Y411179D01*
X113746Y411750D01*
D02*
G37*
G36*
X87746D02*
X86254D01*
X84876Y411179D01*
X83821Y410124D01*
X83250Y408746D01*
Y407254D01*
X83821Y405876D01*
X84876Y404821D01*
X86254Y404250D01*
X87746D01*
X89124Y404821D01*
X90179Y405876D01*
X90750Y407254D01*
Y408746D01*
X90179Y410124D01*
X89124Y411179D01*
X87746Y411750D01*
D02*
G37*
G36*
X406746Y406750D02*
X405254D01*
X403876Y406179D01*
X402821Y405124D01*
X402250Y403746D01*
Y402254D01*
X402821Y400876D01*
X403876Y399821D01*
X405254Y399250D01*
X406746D01*
X408124Y399821D01*
X409179Y400876D01*
X409750Y402254D01*
Y403746D01*
X409179Y405124D01*
X408124Y406179D01*
X406746Y406750D01*
D02*
G37*
G36*
X226746D02*
X225254D01*
X223876Y406179D01*
X222821Y405124D01*
X222250Y403746D01*
Y402254D01*
X222821Y400876D01*
X223876Y399821D01*
X225254Y399250D01*
X226746D01*
X228124Y399821D01*
X229179Y400876D01*
X229750Y402254D01*
Y403746D01*
X229179Y405124D01*
X228124Y406179D01*
X226746Y406750D01*
D02*
G37*
G36*
X-49960Y378140D02*
X-58730D01*
Y369370D01*
X-49960D01*
Y378140D01*
D02*
G37*
G36*
X-61270D02*
X-70040D01*
Y369370D01*
X-61270D01*
Y378140D01*
D02*
G37*
G36*
X501421Y375790D02*
X501270D01*
Y366270D01*
X510790D01*
Y366421D01*
X510055Y369165D01*
X508634Y371625D01*
X506625Y373634D01*
X504165Y375055D01*
X501421Y375790D01*
D02*
G37*
G36*
X498730D02*
X498579D01*
X495835Y375055D01*
X493375Y373634D01*
X491366Y371625D01*
X489945Y369165D01*
X489210Y366421D01*
Y366270D01*
X498730D01*
Y375790D01*
D02*
G37*
G36*
X101420D02*
X101270D01*
Y366270D01*
X110790D01*
Y366421D01*
X110055Y369165D01*
X108634Y371625D01*
X106625Y373634D01*
X104165Y375055D01*
X101420Y375790D01*
D02*
G37*
G36*
X98730D02*
X98580D01*
X95835Y375055D01*
X93375Y373634D01*
X91366Y371625D01*
X89945Y369165D01*
X89210Y366421D01*
Y366270D01*
X98730D01*
Y375790D01*
D02*
G37*
G36*
X-49960Y366830D02*
X-58730D01*
Y358060D01*
X-49960D01*
Y366830D01*
D02*
G37*
G36*
X-61270D02*
X-70040D01*
Y358060D01*
X-61270D01*
Y366830D01*
D02*
G37*
G36*
X526251Y374500D02*
X523749D01*
X521333Y373853D01*
X519167Y372602D01*
X517398Y370833D01*
X516147Y368667D01*
X515500Y366251D01*
Y363749D01*
X516147Y361333D01*
X517398Y359167D01*
X519167Y357398D01*
X521333Y356147D01*
X523749Y355500D01*
X526251D01*
X528667Y356147D01*
X530833Y357398D01*
X532602Y359167D01*
X533853Y361333D01*
X534500Y363749D01*
Y366251D01*
X533853Y368667D01*
X532602Y370833D01*
X530833Y372602D01*
X528667Y373853D01*
X526251Y374500D01*
D02*
G37*
G36*
X476251D02*
X473749D01*
X471333Y373853D01*
X469167Y372602D01*
X467398Y370833D01*
X466147Y368667D01*
X465500Y366251D01*
Y363749D01*
X466147Y361333D01*
X467398Y359167D01*
X469167Y357398D01*
X471333Y356147D01*
X473749Y355500D01*
X476251D01*
X478667Y356147D01*
X480833Y357398D01*
X482602Y359167D01*
X483853Y361333D01*
X484500Y363749D01*
Y366251D01*
X483853Y368667D01*
X482602Y370833D01*
X480833Y372602D01*
X478667Y373853D01*
X476251Y374500D01*
D02*
G37*
G36*
X126251D02*
X123749D01*
X121333Y373853D01*
X119167Y372602D01*
X117398Y370833D01*
X116147Y368667D01*
X115500Y366251D01*
Y363749D01*
X116147Y361333D01*
X117398Y359167D01*
X119167Y357398D01*
X121333Y356147D01*
X123749Y355500D01*
X126251D01*
X128667Y356147D01*
X130833Y357398D01*
X132602Y359167D01*
X133853Y361333D01*
X134500Y363749D01*
Y366251D01*
X133853Y368667D01*
X132602Y370833D01*
X130833Y372602D01*
X128667Y373853D01*
X126251Y374500D01*
D02*
G37*
G36*
X76251D02*
X73749D01*
X71333Y373853D01*
X69167Y372602D01*
X67398Y370833D01*
X66147Y368667D01*
X65500Y366251D01*
Y363749D01*
X66147Y361333D01*
X67398Y359167D01*
X69167Y357398D01*
X71333Y356147D01*
X73749Y355500D01*
X76251D01*
X78667Y356147D01*
X80833Y357398D01*
X82602Y359167D01*
X83853Y361333D01*
X84500Y363749D01*
Y366251D01*
X83853Y368667D01*
X82602Y370833D01*
X80833Y372602D01*
X78667Y373853D01*
X76251Y374500D01*
D02*
G37*
G36*
X510790Y363730D02*
X501270D01*
Y354210D01*
X501421D01*
X504165Y354945D01*
X506625Y356366D01*
X508634Y358375D01*
X510055Y360835D01*
X510790Y363579D01*
Y363730D01*
D02*
G37*
G36*
X498730D02*
X489210D01*
Y363579D01*
X489945Y360835D01*
X491366Y358375D01*
X493375Y356366D01*
X495835Y354945D01*
X498579Y354210D01*
X498730D01*
Y363730D01*
D02*
G37*
G36*
X110790D02*
X101270D01*
Y354210D01*
X101420D01*
X104165Y354945D01*
X106625Y356366D01*
X108634Y358375D01*
X110055Y360835D01*
X110790Y363579D01*
Y363730D01*
D02*
G37*
G36*
X98730D02*
X89210D01*
Y363579D01*
X89945Y360835D01*
X91366Y358375D01*
X93375Y356366D01*
X95835Y354945D01*
X98580Y354210D01*
X98730D01*
Y363730D01*
D02*
G37*
G36*
X-58848Y351450D02*
X-61152D01*
X-63378Y350853D01*
X-65373Y349701D01*
X-67002Y348072D01*
X-68154Y346077D01*
X-68750Y343852D01*
Y341548D01*
X-68154Y339322D01*
X-67002Y337327D01*
X-65373Y335698D01*
X-63378Y334546D01*
X-61152Y333950D01*
X-58848D01*
X-56623Y334546D01*
X-54628Y335698D01*
X-52998Y337327D01*
X-51846Y339322D01*
X-51250Y341548D01*
Y343852D01*
X-51846Y346077D01*
X-52998Y348072D01*
X-54628Y349701D01*
X-56623Y350853D01*
X-58848Y351450D01*
D02*
G37*
G36*
X326746Y340750D02*
X325254D01*
X323876Y340179D01*
X322821Y339124D01*
X322250Y337746D01*
Y336254D01*
X322821Y334876D01*
X323876Y333821D01*
X325254Y333250D01*
X326746D01*
X328124Y333821D01*
X329179Y334876D01*
X329750Y336254D01*
Y337746D01*
X329179Y339124D01*
X328124Y340179D01*
X326746Y340750D01*
D02*
G37*
G36*
Y317750D02*
X325254D01*
X323876Y317179D01*
X322821Y316124D01*
X322250Y314746D01*
Y313254D01*
X322821Y311876D01*
X323876Y310821D01*
X325254Y310250D01*
X326746D01*
X328124Y310821D01*
X329179Y311876D01*
X329750Y313254D01*
Y314746D01*
X329179Y316124D01*
X328124Y317179D01*
X326746Y317750D01*
D02*
G37*
G36*
X-58848Y326050D02*
X-61152D01*
X-63377Y325454D01*
X-65373Y324302D01*
X-67002Y322673D01*
X-68154Y320678D01*
X-68750Y318452D01*
Y316148D01*
X-68154Y313923D01*
X-67002Y311928D01*
X-65373Y310299D01*
X-63377Y309147D01*
X-61152Y308550D01*
X-58848D01*
X-56622Y309147D01*
X-54627Y310299D01*
X-52998Y311928D01*
X-51846Y313923D01*
X-51250Y316148D01*
Y318452D01*
X-51846Y320678D01*
X-52998Y322673D01*
X-54627Y324302D01*
X-56622Y325454D01*
X-58848Y326050D01*
D02*
G37*
G36*
Y300650D02*
X-61152D01*
X-63377Y300054D01*
X-65373Y298902D01*
X-67002Y297273D01*
X-68154Y295278D01*
X-68750Y293052D01*
Y290748D01*
X-68154Y288523D01*
X-67002Y286528D01*
X-65373Y284899D01*
X-63377Y283747D01*
X-61152Y283150D01*
X-58848D01*
X-56622Y283747D01*
X-54627Y284899D01*
X-52998Y286528D01*
X-51846Y288523D01*
X-51250Y290748D01*
Y293052D01*
X-51846Y295278D01*
X-52998Y297273D01*
X-54627Y298902D01*
X-56622Y300054D01*
X-58848Y300650D01*
D02*
G37*
G36*
X255746Y287750D02*
X254254D01*
X252876Y287179D01*
X251821Y286124D01*
X251250Y284746D01*
Y283254D01*
X251821Y281876D01*
X252876Y280821D01*
X254254Y280250D01*
X255746D01*
X257124Y280821D01*
X258179Y281876D01*
X258750Y283254D01*
Y284746D01*
X258179Y286124D01*
X257124Y287179D01*
X255746Y287750D01*
D02*
G37*
G36*
X390746Y292500D02*
X389254D01*
X387876Y291929D01*
X386821Y290874D01*
X386250Y289496D01*
Y288004D01*
X386821Y286626D01*
X387829Y285617D01*
X386812Y284600D01*
X386241Y283222D01*
Y281730D01*
X386812Y280352D01*
X387867Y279297D01*
X389245Y278726D01*
X390737D01*
X392115Y279297D01*
X393170Y280352D01*
X393741Y281730D01*
Y283222D01*
X393170Y284600D01*
X392162Y285609D01*
X393179Y286626D01*
X393750Y288004D01*
Y289496D01*
X393179Y290874D01*
X392124Y291929D01*
X390746Y292500D01*
D02*
G37*
G36*
X344746Y267750D02*
X343254D01*
X341876Y267179D01*
X340821Y266124D01*
X340250Y264746D01*
Y263254D01*
X340821Y261876D01*
X341876Y260821D01*
X343254Y260250D01*
X344746D01*
X346124Y260821D01*
X347179Y261876D01*
X347750Y263254D01*
Y264746D01*
X347179Y266124D01*
X346124Y267179D01*
X344746Y267750D01*
D02*
G37*
G36*
X257746Y249750D02*
X256254D01*
X254876Y249179D01*
X253821Y248124D01*
X253250Y246746D01*
Y245254D01*
X253821Y243876D01*
X254216Y243480D01*
X254871Y242813D01*
X254216Y241821D01*
X253983Y241588D01*
X253412Y240209D01*
Y238717D01*
X253983Y237339D01*
X255038Y236284D01*
X256416Y235713D01*
X257908D01*
X259286Y236284D01*
X260341Y237339D01*
X260912Y238717D01*
Y240209D01*
X260341Y241588D01*
X259946Y241983D01*
X259292Y242650D01*
X259946Y243643D01*
X260179Y243876D01*
X260750Y245254D01*
Y246746D01*
X260179Y248124D01*
X259124Y249179D01*
X257746Y249750D01*
D02*
G37*
G36*
X17746Y236750D02*
X16254D01*
X14876Y236179D01*
X13821Y235124D01*
X13250Y233746D01*
Y232254D01*
X13821Y230876D01*
X14876Y229821D01*
X16254Y229250D01*
X17746D01*
X19124Y229821D01*
X20179Y230876D01*
X20750Y232254D01*
Y233746D01*
X20179Y235124D01*
X19124Y236179D01*
X17746Y236750D01*
D02*
G37*
G36*
X280746Y227750D02*
X279254D01*
X277876Y227179D01*
X277392Y226695D01*
X276735Y226169D01*
X275732Y226695D01*
X275416Y227012D01*
X274037Y227583D01*
X272546D01*
X271167Y227012D01*
X270112Y225957D01*
X269541Y224579D01*
Y223087D01*
X270112Y221709D01*
X271167Y220654D01*
X272546Y220083D01*
X274037D01*
X275416Y220654D01*
X275900Y221138D01*
X276556Y221664D01*
X277559Y221138D01*
X277876Y220821D01*
X279254Y220250D01*
X280746D01*
X282124Y220821D01*
X283179Y221876D01*
X283750Y223254D01*
Y224746D01*
X283179Y226124D01*
X282124Y227179D01*
X280746Y227750D01*
D02*
G37*
G36*
X620746Y217750D02*
X619254D01*
X617876Y217179D01*
X616821Y216124D01*
X616250Y214746D01*
Y213254D01*
X616821Y211876D01*
X617876Y210821D01*
X619254Y210250D01*
X620746D01*
X622124Y210821D01*
X623179Y211876D01*
X623750Y213254D01*
Y214746D01*
X623179Y216124D01*
X622124Y217179D01*
X620746Y217750D01*
D02*
G37*
G36*
X644044Y216250D02*
X641956D01*
X640026Y215451D01*
X638549Y213974D01*
X637750Y212044D01*
Y209956D01*
X638549Y208026D01*
X640026Y206549D01*
X641956Y205750D01*
X644044D01*
X645974Y206549D01*
X647451Y208026D01*
X648250Y209956D01*
Y212044D01*
X647451Y213974D01*
X645974Y215451D01*
X644044Y216250D01*
D02*
G37*
G36*
X620746Y206750D02*
X619254D01*
X617876Y206179D01*
X616821Y205124D01*
X616250Y203746D01*
Y202254D01*
X616821Y200876D01*
X617876Y199821D01*
X619254Y199250D01*
X620746D01*
X622124Y199821D01*
X623179Y200876D01*
X623750Y202254D01*
Y203746D01*
X623179Y205124D01*
X622124Y206179D01*
X620746Y206750D01*
D02*
G37*
G36*
X240746Y185250D02*
X239254D01*
X237876Y184679D01*
X236821Y183624D01*
X236250Y182246D01*
Y180754D01*
X236821Y179376D01*
X237876Y178321D01*
X239254Y177750D01*
X240746D01*
X242124Y178321D01*
X243179Y179376D01*
X243750Y180754D01*
Y182246D01*
X243179Y183624D01*
X242124Y184679D01*
X240746Y185250D01*
D02*
G37*
G36*
X220746D02*
X219254D01*
X217876Y184679D01*
X216821Y183624D01*
X216250Y182246D01*
Y180754D01*
X216821Y179376D01*
X217876Y178321D01*
X219254Y177750D01*
X220746D01*
X222124Y178321D01*
X223179Y179376D01*
X223750Y180754D01*
Y182246D01*
X223179Y183624D01*
X222124Y184679D01*
X220746Y185250D01*
D02*
G37*
G36*
X200746D02*
X199254D01*
X197876Y184679D01*
X196821Y183624D01*
X196250Y182246D01*
Y180754D01*
X196821Y179376D01*
X197876Y178321D01*
X199254Y177750D01*
X200746D01*
X202124Y178321D01*
X203179Y179376D01*
X203750Y180754D01*
Y182246D01*
X203179Y183624D01*
X202124Y184679D01*
X200746Y185250D01*
D02*
G37*
G36*
X17496Y182500D02*
X16004D01*
X14626Y181929D01*
X13571Y180874D01*
X13000Y179496D01*
Y178004D01*
X13571Y176626D01*
X14626Y175571D01*
X16004Y175000D01*
X17496D01*
X18874Y175571D01*
X19929Y176626D01*
X20500Y178004D01*
Y179496D01*
X19929Y180874D01*
X18874Y181929D01*
X17496Y182500D01*
D02*
G37*
G36*
X101420Y175790D02*
X101270D01*
Y166270D01*
X110790D01*
Y166420D01*
X110055Y169165D01*
X108634Y171625D01*
X106625Y173634D01*
X104165Y175055D01*
X101420Y175790D01*
D02*
G37*
G36*
X501421D02*
X501270D01*
Y166270D01*
X510790D01*
Y166420D01*
X510055Y169165D01*
X508634Y171625D01*
X506625Y173634D01*
X504165Y175055D01*
X501421Y175790D01*
D02*
G37*
G36*
X498730D02*
X498579D01*
X495835Y175055D01*
X493375Y173634D01*
X491366Y171625D01*
X489945Y169165D01*
X489210Y166420D01*
Y166270D01*
X498730D01*
Y175790D01*
D02*
G37*
G36*
X98730D02*
X98580D01*
X95835Y175055D01*
X93375Y173634D01*
X91366Y171625D01*
X89945Y169165D01*
X89210Y166420D01*
Y166270D01*
X98730D01*
Y175790D01*
D02*
G37*
G36*
X526251Y174500D02*
X523749D01*
X521333Y173853D01*
X519167Y172602D01*
X517398Y170833D01*
X516147Y168667D01*
X515500Y166251D01*
Y163749D01*
X516147Y161333D01*
X517398Y159167D01*
X519167Y157398D01*
X521333Y156147D01*
X523749Y155500D01*
X526251D01*
X528667Y156147D01*
X530833Y157398D01*
X532602Y159167D01*
X533853Y161333D01*
X534500Y163749D01*
Y166251D01*
X533853Y168667D01*
X532602Y170833D01*
X530833Y172602D01*
X528667Y173853D01*
X526251Y174500D01*
D02*
G37*
G36*
X476251D02*
X473749D01*
X471333Y173853D01*
X469167Y172602D01*
X467398Y170833D01*
X466147Y168667D01*
X465500Y166251D01*
Y163749D01*
X466147Y161333D01*
X467398Y159167D01*
X469167Y157398D01*
X471333Y156147D01*
X473749Y155500D01*
X476251D01*
X478667Y156147D01*
X480833Y157398D01*
X482602Y159167D01*
X483853Y161333D01*
X484500Y163749D01*
Y166251D01*
X483853Y168667D01*
X482602Y170833D01*
X480833Y172602D01*
X478667Y173853D01*
X476251Y174500D01*
D02*
G37*
G36*
X126251D02*
X123749D01*
X121333Y173853D01*
X119167Y172602D01*
X117398Y170833D01*
X116147Y168667D01*
X115500Y166251D01*
Y163749D01*
X116147Y161333D01*
X117398Y159167D01*
X119167Y157398D01*
X121333Y156147D01*
X123749Y155500D01*
X126251D01*
X128667Y156147D01*
X130833Y157398D01*
X132602Y159167D01*
X133853Y161333D01*
X134500Y163749D01*
Y166251D01*
X133853Y168667D01*
X132602Y170833D01*
X130833Y172602D01*
X128667Y173853D01*
X126251Y174500D01*
D02*
G37*
G36*
X76251D02*
X73749D01*
X71333Y173853D01*
X69167Y172602D01*
X67398Y170833D01*
X66147Y168667D01*
X65500Y166251D01*
Y163749D01*
X66147Y161333D01*
X67398Y159167D01*
X69167Y157398D01*
X71333Y156147D01*
X73749Y155500D01*
X76251D01*
X78667Y156147D01*
X80833Y157398D01*
X82602Y159167D01*
X83853Y161333D01*
X84500Y163749D01*
Y166251D01*
X83853Y168667D01*
X82602Y170833D01*
X80833Y172602D01*
X78667Y173853D01*
X76251Y174500D01*
D02*
G37*
G36*
X510790Y163730D02*
X501270D01*
Y154210D01*
X501421D01*
X504165Y154945D01*
X506625Y156366D01*
X508634Y158375D01*
X510055Y160835D01*
X510790Y163580D01*
Y163730D01*
D02*
G37*
G36*
X498730D02*
X489210D01*
Y163580D01*
X489945Y160835D01*
X491366Y158375D01*
X493375Y156366D01*
X495835Y154945D01*
X498579Y154210D01*
X498730D01*
Y163730D01*
D02*
G37*
G36*
X110790D02*
X101270D01*
Y154210D01*
X101420D01*
X104165Y154945D01*
X106625Y156366D01*
X108634Y158375D01*
X110055Y160835D01*
X110790Y163580D01*
Y163730D01*
D02*
G37*
G36*
X98730D02*
X89210D01*
Y163580D01*
X89945Y160835D01*
X91366Y158375D01*
X93375Y156366D01*
X95835Y154945D01*
X98580Y154210D01*
X98730D01*
Y163730D01*
D02*
G37*
G36*
X310746Y139750D02*
X309254D01*
X307876Y139179D01*
X306821Y138124D01*
X306250Y136746D01*
Y135254D01*
X306821Y133876D01*
X307876Y132821D01*
X309254Y132250D01*
X310746D01*
X312124Y132821D01*
X313179Y133876D01*
X313750Y135254D01*
Y136746D01*
X313179Y138124D01*
X312124Y139179D01*
X310746Y139750D01*
D02*
G37*
G36*
X513746Y124750D02*
X512254D01*
X510876Y124179D01*
X509821Y123124D01*
X509250Y121746D01*
Y120254D01*
X509821Y118876D01*
X510876Y117821D01*
X512254Y117250D01*
X513746D01*
X515124Y117821D01*
X516179Y118876D01*
X516750Y120254D01*
Y121746D01*
X516179Y123124D01*
X515124Y124179D01*
X513746Y124750D01*
D02*
G37*
G36*
X487746D02*
X486254D01*
X484876Y124179D01*
X483821Y123124D01*
X483250Y121746D01*
Y120254D01*
X483821Y118876D01*
X484876Y117821D01*
X486254Y117250D01*
X487746D01*
X489124Y117821D01*
X490179Y118876D01*
X490750Y120254D01*
Y121746D01*
X490179Y123124D01*
X489124Y124179D01*
X487746Y124750D01*
D02*
G37*
G36*
X113746D02*
X112254D01*
X110876Y124179D01*
X109821Y123124D01*
X109250Y121746D01*
Y120254D01*
X109821Y118876D01*
X110876Y117821D01*
X112254Y117250D01*
X113746D01*
X115124Y117821D01*
X116179Y118876D01*
X116750Y120254D01*
Y121746D01*
X116179Y123124D01*
X115124Y124179D01*
X113746Y124750D01*
D02*
G37*
G36*
X87746D02*
X86254D01*
X84876Y124179D01*
X83821Y123124D01*
X83250Y121746D01*
Y120254D01*
X83821Y118876D01*
X84876Y117821D01*
X86254Y117250D01*
X87746D01*
X89124Y117821D01*
X90179Y118876D01*
X90750Y120254D01*
Y121746D01*
X90179Y123124D01*
X89124Y124179D01*
X87746Y124750D01*
D02*
G37*
G36*
X626746Y107750D02*
X625254D01*
X623876Y107179D01*
X622821Y106124D01*
X622250Y104746D01*
Y103254D01*
X622821Y101876D01*
X623876Y100821D01*
X625254Y100250D01*
X626746D01*
X628124Y100821D01*
X629179Y101876D01*
X629750Y103254D01*
Y104746D01*
X629179Y106124D01*
X628124Y107179D01*
X626746Y107750D01*
D02*
G37*
G36*
X406746D02*
X405254D01*
X403876Y107179D01*
X402821Y106124D01*
X402250Y104746D01*
Y103254D01*
X402821Y101876D01*
X403876Y100821D01*
X405254Y100250D01*
X406746D01*
X408124Y100821D01*
X409179Y101876D01*
X409750Y103254D01*
Y104746D01*
X409179Y106124D01*
X408124Y107179D01*
X406746Y107750D01*
D02*
G37*
G36*
X226746D02*
X225254D01*
X223876Y107179D01*
X222821Y106124D01*
X222250Y104746D01*
Y103254D01*
X222821Y101876D01*
X223876Y100821D01*
X225254Y100250D01*
X226746D01*
X228124Y100821D01*
X229179Y101876D01*
X229750Y103254D01*
Y104746D01*
X229179Y106124D01*
X228124Y107179D01*
X226746Y107750D01*
D02*
G37*
G36*
X6746D02*
X5254D01*
X3876Y107179D01*
X2821Y106124D01*
X2250Y104746D01*
Y103254D01*
X2821Y101876D01*
X3876Y100821D01*
X5254Y100250D01*
X6746D01*
X8124Y100821D01*
X9179Y101876D01*
X9750Y103254D01*
Y104746D01*
X9179Y106124D01*
X8124Y107179D01*
X6746Y107750D01*
D02*
G37*
G36*
X558270Y122500D02*
Y91270D01*
X574625D01*
Y105000D01*
X574286Y108438D01*
X573283Y111745D01*
X571655Y114792D01*
X569463Y117463D01*
X566792Y119655D01*
X563745Y121283D01*
X560438Y122286D01*
X558270Y122500D01*
D02*
G37*
G36*
X444270D02*
Y91270D01*
X460625D01*
Y105000D01*
X460286Y108438D01*
X459283Y111745D01*
X457654Y114792D01*
X455463Y117463D01*
X452792Y119655D01*
X449745Y121283D01*
X446438Y122286D01*
X444270Y122500D01*
D02*
G37*
G36*
X555730Y122500D02*
X553562Y122286D01*
X550255Y121283D01*
X547208Y119655D01*
X544537Y117463D01*
X542345Y114792D01*
X540717Y111745D01*
X539714Y108438D01*
X539375Y105000D01*
Y91270D01*
X555730D01*
Y122500D01*
D02*
G37*
G36*
X441730D02*
X439562Y122286D01*
X436255Y121283D01*
X433208Y119655D01*
X430537Y117463D01*
X428345Y114792D01*
X426717Y111745D01*
X425714Y108438D01*
X425375Y105000D01*
Y91270D01*
X441730D01*
Y122500D01*
D02*
G37*
G36*
X158270Y122500D02*
Y91270D01*
X174625D01*
Y105000D01*
X174286Y108438D01*
X173283Y111745D01*
X171654Y114792D01*
X169463Y117463D01*
X166792Y119655D01*
X163745Y121283D01*
X160438Y122286D01*
X158270Y122500D01*
D02*
G37*
G36*
X44270D02*
Y91270D01*
X60625D01*
Y105000D01*
X60286Y108438D01*
X59283Y111745D01*
X57655Y114792D01*
X55463Y117463D01*
X52792Y119655D01*
X49745Y121283D01*
X46438Y122286D01*
X44270Y122500D01*
D02*
G37*
G36*
X155730D02*
X153561Y122286D01*
X150255Y121283D01*
X147208Y119655D01*
X144537Y117463D01*
X142346Y114792D01*
X140717Y111745D01*
X139714Y108438D01*
X139375Y105000D01*
Y91270D01*
X155730D01*
Y122500D01*
D02*
G37*
G36*
X41730D02*
X39562Y122286D01*
X36255Y121283D01*
X33208Y119655D01*
X30537Y117463D01*
X28345Y114792D01*
X26717Y111745D01*
X25714Y108438D01*
X25375Y105000D01*
Y91270D01*
X41730D01*
Y122500D01*
D02*
G37*
G36*
X574625Y88730D02*
X558270D01*
Y57500D01*
X560438Y57714D01*
X563745Y58717D01*
X566792Y60346D01*
X569463Y62537D01*
X571655Y65208D01*
X573283Y68255D01*
X574286Y71562D01*
X574625Y75000D01*
Y88730D01*
D02*
G37*
G36*
X460625D02*
X444270D01*
Y57500D01*
X446438Y57714D01*
X449745Y58717D01*
X452792Y60346D01*
X455463Y62537D01*
X457654Y65208D01*
X459283Y68255D01*
X460286Y71562D01*
X460625Y75000D01*
Y88730D01*
D02*
G37*
G36*
X174625Y88730D02*
X158270D01*
Y57500D01*
X160438Y57714D01*
X163745Y58717D01*
X166792Y60346D01*
X169463Y62537D01*
X171654Y65208D01*
X173283Y68255D01*
X174286Y71562D01*
X174625Y75000D01*
Y88730D01*
D02*
G37*
G36*
X60625D02*
X44270D01*
Y57500D01*
X46438Y57714D01*
X49745Y58717D01*
X52792Y60346D01*
X55463Y62537D01*
X57655Y65208D01*
X59283Y68255D01*
X60286Y71562D01*
X60625Y75000D01*
Y88730D01*
D02*
G37*
G36*
X155730D02*
X139375D01*
Y75000D01*
X139714Y71562D01*
X140717Y68255D01*
X142346Y65208D01*
X144537Y62537D01*
X147208Y60346D01*
X150255Y58717D01*
X153561Y57714D01*
X155730Y57500D01*
Y88730D01*
D02*
G37*
G36*
X41730D02*
X25375D01*
Y75000D01*
X25714Y71562D01*
X26717Y68255D01*
X28345Y65208D01*
X30537Y62537D01*
X33208Y60346D01*
X36255Y58717D01*
X39562Y57714D01*
X41730Y57500D01*
Y88730D01*
D02*
G37*
G36*
X555730Y88730D02*
X539375D01*
Y75000D01*
X539714Y71562D01*
X540717Y68255D01*
X542345Y65208D01*
X544537Y62537D01*
X547208Y60346D01*
X550255Y58717D01*
X553562Y57714D01*
X555730Y57500D01*
Y88730D01*
D02*
G37*
G36*
X441730D02*
X425375D01*
Y75000D01*
X425714Y71562D01*
X426717Y68255D01*
X428345Y65208D01*
X430537Y62537D01*
X433208Y60346D01*
X436255Y58717D01*
X439562Y57714D01*
X441730Y57500D01*
Y88730D01*
D02*
G37*
G36*
X487746Y61750D02*
X486254D01*
X484876Y61179D01*
X483821Y60124D01*
X483250Y58746D01*
Y57254D01*
X483821Y55876D01*
X484876Y54821D01*
X486254Y54250D01*
X487746D01*
X489124Y54821D01*
X490179Y55876D01*
X490750Y57254D01*
Y58746D01*
X490179Y60124D01*
X489124Y61179D01*
X487746Y61750D01*
D02*
G37*
G36*
X87746D02*
X86254D01*
X84876Y61179D01*
X83821Y60124D01*
X83250Y58746D01*
Y57254D01*
X83821Y55876D01*
X84876Y54821D01*
X86254Y54250D01*
X87746D01*
X89124Y54821D01*
X90179Y55876D01*
X90750Y57254D01*
Y58746D01*
X90179Y60124D01*
X89124Y61179D01*
X87746Y61750D01*
D02*
G37*
G36*
X135790Y30790D02*
X126270D01*
Y21270D01*
X135790D01*
Y30790D01*
D02*
G37*
G36*
X535790D02*
X526270D01*
Y21270D01*
X535790D01*
Y30790D01*
D02*
G37*
G36*
X523730D02*
X514210D01*
Y21270D01*
X523730D01*
Y30790D01*
D02*
G37*
G36*
X123730D02*
X114210D01*
Y21270D01*
X123730D01*
Y30790D01*
D02*
G37*
G36*
X658730Y42540D02*
X657439D01*
X652380Y41739D01*
X647509Y40156D01*
X642945Y37831D01*
X638802Y34820D01*
X635180Y31198D01*
X632169Y27055D01*
X629844Y22491D01*
X628261Y17620D01*
X627460Y12561D01*
Y11270D01*
X658730D01*
Y42540D01*
D02*
G37*
G36*
X-57439D02*
X-58730D01*
Y11270D01*
X-27460D01*
Y12561D01*
X-28261Y17620D01*
X-29844Y22491D01*
X-32169Y27055D01*
X-35180Y31198D01*
X-38802Y34820D01*
X-42945Y37831D01*
X-47509Y40156D01*
X-52380Y41739D01*
X-57439Y42540D01*
D02*
G37*
G36*
X476251Y29500D02*
X473749D01*
X471333Y28853D01*
X469167Y27602D01*
X467398Y25833D01*
X466147Y23667D01*
X465500Y21251D01*
Y18749D01*
X466147Y16333D01*
X467398Y14167D01*
X469167Y12398D01*
X471333Y11147D01*
X473749Y10500D01*
X476251D01*
X478667Y11147D01*
X480833Y12398D01*
X482602Y14167D01*
X483853Y16333D01*
X484500Y18749D01*
Y21251D01*
X483853Y23667D01*
X482602Y25833D01*
X480833Y27602D01*
X478667Y28853D01*
X476251Y29500D01*
D02*
G37*
G36*
X76251D02*
X73749D01*
X71333Y28853D01*
X69167Y27602D01*
X67398Y25833D01*
X66147Y23667D01*
X65500Y21251D01*
Y18749D01*
X66147Y16333D01*
X67398Y14167D01*
X69167Y12398D01*
X71333Y11147D01*
X73749Y10500D01*
X76251D01*
X78667Y11147D01*
X80833Y12398D01*
X82602Y14167D01*
X83853Y16333D01*
X84500Y18749D01*
Y21251D01*
X83853Y23667D01*
X82602Y25833D01*
X80833Y27602D01*
X78667Y28853D01*
X76251Y29500D01*
D02*
G37*
G36*
X535790Y18730D02*
X526270D01*
Y9210D01*
X535790D01*
Y18730D01*
D02*
G37*
G36*
X523730D02*
X514210D01*
Y9210D01*
X523730D01*
Y18730D01*
D02*
G37*
G36*
X135790D02*
X126270D01*
Y9210D01*
X135790D01*
Y18730D01*
D02*
G37*
G36*
X123730D02*
X114210D01*
Y9210D01*
X123730D01*
Y18730D01*
D02*
G37*
%LPD*%
D71*
X1900Y570000D02*
D03*
X249200Y570000D02*
D03*
X521900Y570000D02*
D03*
D73*
X75000Y510000D02*
D03*
X475000D02*
D03*
X525000Y20000D02*
D03*
X125000D02*
D03*
D74*
X100000Y365000D02*
D03*
X500000D02*
D03*
Y165000D02*
D03*
X100000D02*
D03*
D75*
X43000Y440000D02*
D03*
X157000D02*
D03*
X443000D02*
D03*
X557000D02*
D03*
Y90000D02*
D03*
X443000D02*
D03*
X157000D02*
D03*
X43000D02*
D03*
D76*
X-60000Y368100D02*
D03*
D77*
X-60000Y10000D02*
D03*
X660000D02*
D03*
Y560000D02*
D03*
X-60001Y560000D02*
D03*
D78*
X661000Y178000D02*
D03*
X96000Y539000D02*
D03*
X239000Y524000D02*
D03*
X256000Y386000D02*
D03*
X244000Y309000D02*
D03*
X220000Y199000D02*
D03*
X200000D02*
D03*
X238000D02*
D03*
X269569Y174431D02*
D03*
X-3250Y178750D02*
D03*
Y232750D02*
D03*
X343500Y337000D02*
D03*
X589500Y230000D02*
D03*
X592000Y190000D02*
D03*
X200250Y236000D02*
D03*
X224750Y246000D02*
D03*
X374000Y76000D02*
D03*
X594000D02*
D03*
X626000Y454000D02*
D03*
X226000D02*
D03*
X194000Y76000D02*
D03*
X374000Y426000D02*
D03*
X-26000Y76000D02*
D03*
Y426000D02*
D03*
M02*
