G04*
G04 #@! TF.GenerationSoftware,Altium Limited,Altium Designer,23.4.1 (23)*
G04*
G04 Layer_Color=128*
%FSLAX44Y44*%
%MOMM*%
G71*
G04*
G04 #@! TF.SameCoordinates,68BC9408-1245-4EE3-B557-EFF58EF5A4C6*
G04*
G04*
G04 #@! TF.FilePolarity,Positive*
G04*
G01*
G75*
G04:AMPARAMS|DCode=30|XSize=0.9mm|YSize=0.8mm|CornerRadius=0.06mm|HoleSize=0mm|Usage=FLASHONLY|Rotation=270.000|XOffset=0mm|YOffset=0mm|HoleType=Round|Shape=RoundedRectangle|*
%AMROUNDEDRECTD30*
21,1,0.9000,0.6800,0,0,270.0*
21,1,0.7800,0.8000,0,0,270.0*
1,1,0.1200,-0.3400,-0.3900*
1,1,0.1200,-0.3400,0.3900*
1,1,0.1200,0.3400,0.3900*
1,1,0.1200,0.3400,-0.3900*
%
%ADD30ROUNDEDRECTD30*%
D30*
X80000Y58500D02*
D03*
Y41500D02*
D03*
Y121500D02*
D03*
Y138500D02*
D03*
X120000Y121500D02*
D03*
Y138500D02*
D03*
X480000Y408500D02*
D03*
Y391500D02*
D03*
X520000Y408500D02*
D03*
Y391500D02*
D03*
Y471500D02*
D03*
Y488500D02*
D03*
X480000Y58500D02*
D03*
Y41500D02*
D03*
X520000Y121500D02*
D03*
Y138500D02*
D03*
X480000Y121500D02*
D03*
Y138500D02*
D03*
X357000Y244500D02*
D03*
Y261500D02*
D03*
X190000Y198500D02*
D03*
Y181500D02*
D03*
X210000Y198500D02*
D03*
Y181500D02*
D03*
X230000Y198500D02*
D03*
Y181500D02*
D03*
X250000Y198500D02*
D03*
Y181500D02*
D03*
X270000Y181500D02*
D03*
Y198500D02*
D03*
X80000Y408500D02*
D03*
Y391500D02*
D03*
X120000Y408500D02*
D03*
Y391500D02*
D03*
Y471500D02*
D03*
Y488500D02*
D03*
X244000Y300500D02*
D03*
Y283500D02*
D03*
X250000Y213500D02*
D03*
Y230500D02*
D03*
X230000Y213500D02*
D03*
Y230500D02*
D03*
M02*
