M48
;Layer_Color=9474304
;FILE_FORMAT=4:4
METRIC,TZ
;TYPE=PLATED
T1F00S00C0.3000
T2F00S00C0.5000
T3F00S00C1.0000
T4F00S00C1.1000
T6F00S00C3.4000
%
T01
X-26000Y76000
X6000Y104000
X87000Y121000
X113000
X87000Y58000
X194000Y76000
X226000Y104000
X310000Y136000
X374000Y76000
X406000Y104000
X487000Y121000
X513000
X487000Y58000
X594000Y76000
X626000Y104000
X620000Y203000
Y214000
X589500Y230000
X592000Y190000
X661000Y178000
X626000Y454000
X594000Y426000
X513000Y408000
X487000
X406000Y403000
X374000Y426000
X406000Y475000
X513000Y471000
X343500Y337000
X326000
Y314000
X344000Y264000
X389991Y282476
X390000Y288750
X255000Y284000
X244000Y309000
X257000Y246000
X257162Y239463
X273291Y223833
X280000Y224000
X269569Y174431
X240000Y181500
X238000Y199000
X220000
X220000Y181500
X200000
Y199000
X200250Y236000
X224750Y246000
X226000Y403000
X256000Y386000
X226000Y454000
X194000Y426000
X239000Y524000
X96000Y539000
X113000Y471000
Y408000
X87000
X6000Y454000
X-26000Y426000
X-3250Y232750
X17000Y233000
X16750Y178750
X-3250Y178750
X555000Y550000
T02
X643000Y211000
T03
X-60000Y291900
Y317300
X-60000Y342700
Y368100
X1900Y570000
X27300
X52700Y570000
X78100
X249200Y570000
X274600
X300000
X325399Y570000
X350799
X521900Y570000
X547300
X572700Y570000
X598100
T04
X75000Y20000
X125000
X475000
X525000
Y165000
X500000
X475000
Y365000
X500000
X525000
Y510000
X475000
X125000
X75000
Y365000
X100000
X125000
Y165000
X100000
X75000
T06
X-60000Y10000
X660000
X-60001Y560000
X660000Y560000
M30
