%TF.GenerationSoftware,Altium Limited,Altium Designer,23.4.1 (23)*%
G04 Layer_Physical_Order=3*
G04 Layer_Color=16440176*
%FSLAX45Y45*%
%MOMM*%
%TF.SameCoordinates,4D4D268D-8FD5-4AED-B812-6AB8C36004BB*%
%TF.FilePolarity,Positive*%
%TF.FileFunction,Copper,L3,Inr,Signal*%
%TF.Part,Single*%
G01*
G75*
%TA.AperFunction,Conductor*%
%ADD20C,0.50000*%
%TA.AperFunction,ComponentPad*%
%ADD25C,1.50000*%
%ADD26R,1.50000X1.50000*%
%ADD27C,2.50000*%
%ADD28C,0.64999*%
%ADD29O,1.00000X1.90000*%
%ADD30O,1.00000X2.10000*%
%ADD31C,4.00000*%
%TA.AperFunction,ViaPad*%
%ADD32C,0.50000*%
G36*
X7620089Y5290239D02*
X7666314Y5271092D01*
X7707915Y5243295D01*
X7743294Y5207915D01*
X7771092Y5166314D01*
X7790239Y5120089D01*
X7800000Y5071017D01*
Y5046000D01*
Y254000D01*
Y228983D01*
X7790239Y179911D01*
X7771092Y133686D01*
X7743294Y92084D01*
X7707915Y56705D01*
X7666314Y28908D01*
X7620089Y9761D01*
X7571017Y0D01*
X4935728D01*
X4930867Y11733D01*
X5009567Y90433D01*
X5013530Y100000D01*
Y1000000D01*
X5009567Y1009567D01*
X4909567Y1109567D01*
X4900000Y1113530D01*
X3012530D01*
X3002963Y1109567D01*
X2890433Y997036D01*
X2886470Y987468D01*
Y100000D01*
X2890433Y90433D01*
X2969132Y11733D01*
X2964272Y0D01*
X228983D01*
X179911Y9761D01*
X133686Y28908D01*
X92084Y56705D01*
X56705Y92084D01*
X28908Y133686D01*
X9761Y179911D01*
X0Y228983D01*
Y254000D01*
Y5046000D01*
Y5071017D01*
X9761Y5120089D01*
X28908Y5166314D01*
X56705Y5207915D01*
X92084Y5243295D01*
X133686Y5271092D01*
X179911Y5290239D01*
X228983Y5300000D01*
X7571017D01*
X7620089Y5290239D01*
D02*
G37*
G36*
X5000000Y1000000D02*
Y100000D01*
X4900000Y0D01*
X3000000D01*
X2900000Y100000D01*
Y987468D01*
X3012530Y1100000D01*
X4900000D01*
X5000000Y1000000D01*
D02*
G37*
%LPC*%
G36*
X4332511Y5256865D02*
X4308125Y5252014D01*
X4287451Y5238200D01*
X4273637Y5217527D01*
X4268787Y5193140D01*
Y5103140D01*
X4273637Y5078754D01*
X4287451Y5058080D01*
X4308125Y5044267D01*
X4332511Y5039416D01*
X4356898Y5044267D01*
X4377571Y5058080D01*
X4391385Y5078754D01*
X4396236Y5103140D01*
Y5193140D01*
X4391385Y5217527D01*
X4377571Y5238200D01*
X4356898Y5252014D01*
X4332511Y5256865D01*
D02*
G37*
G36*
X3467489D02*
X3443103Y5252014D01*
X3422429Y5238200D01*
X3408615Y5217527D01*
X3403764Y5193140D01*
Y5103140D01*
X3408615Y5078754D01*
X3422429Y5058080D01*
X3443103Y5044267D01*
X3467489Y5039416D01*
X3491875Y5044267D01*
X3512549Y5058080D01*
X3526363Y5078754D01*
X3531213Y5103140D01*
Y5193140D01*
X3526363Y5217527D01*
X3512549Y5238200D01*
X3491875Y5252014D01*
X3467489Y5256865D01*
D02*
G37*
G36*
X2957459Y4937500D02*
X2942541D01*
X2928758Y4931791D01*
X2918209Y4921242D01*
X2912500Y4907459D01*
Y4892541D01*
X2918209Y4878758D01*
X2928758Y4868209D01*
X2942541Y4862500D01*
X2957459D01*
X2971242Y4868209D01*
X2981791Y4878758D01*
X2987500Y4892541D01*
Y4907459D01*
X2981791Y4921242D01*
X2971242Y4931791D01*
X2957459Y4937500D01*
D02*
G37*
G36*
X2657459D02*
X2642541D01*
X2628758Y4931791D01*
X2618209Y4921242D01*
X2612500Y4907459D01*
Y4892541D01*
X2618209Y4878758D01*
X2628758Y4868209D01*
X2642541Y4862500D01*
X2657459D01*
X2671242Y4868209D01*
X2681791Y4878758D01*
X2687500Y4892541D01*
Y4907459D01*
X2681791Y4921242D01*
X2671242Y4931791D01*
X2657459Y4937500D01*
D02*
G37*
G36*
X2357459D02*
X2342541D01*
X2328758Y4931791D01*
X2318209Y4921242D01*
X2312500Y4907459D01*
Y4892541D01*
X2318209Y4878758D01*
X2328758Y4868209D01*
X2342541Y4862500D01*
X2357459D01*
X2371242Y4868209D01*
X2381791Y4878758D01*
X2387500Y4892541D01*
Y4907459D01*
X2381791Y4921242D01*
X2371242Y4931791D01*
X2357459Y4937500D01*
D02*
G37*
G36*
X5457459Y4932500D02*
X5442541D01*
X5428758Y4926791D01*
X5418209Y4916242D01*
X5412500Y4902459D01*
Y4887541D01*
X5418209Y4873758D01*
X5428758Y4863209D01*
X5442541Y4857500D01*
X5457459D01*
X5471242Y4863209D01*
X5481791Y4873758D01*
X5487500Y4887541D01*
Y4902459D01*
X5481791Y4916242D01*
X5471242Y4926791D01*
X5457459Y4932500D01*
D02*
G37*
G36*
X5157459D02*
X5142541D01*
X5128758Y4926791D01*
X5118209Y4916242D01*
X5112500Y4902459D01*
Y4887541D01*
X5118209Y4873758D01*
X5128758Y4863209D01*
X5142541Y4857500D01*
X5157459D01*
X5171242Y4863209D01*
X5181791Y4873758D01*
X5187500Y4887541D01*
Y4902459D01*
X5181791Y4916242D01*
X5171242Y4926791D01*
X5157459Y4932500D01*
D02*
G37*
G36*
X4857459D02*
X4842541D01*
X4828758Y4926791D01*
X4818209Y4916242D01*
X4812500Y4902459D01*
Y4887541D01*
X4818209Y4873758D01*
X4828758Y4863209D01*
X4842541Y4857500D01*
X4857459D01*
X4871242Y4863209D01*
X4881791Y4873758D01*
X4887500Y4887541D01*
Y4902459D01*
X4881791Y4916242D01*
X4871242Y4926791D01*
X4857459Y4932500D01*
D02*
G37*
G36*
X4197940Y4823130D02*
X4180038D01*
X4163498Y4816280D01*
X4150840Y4803621D01*
X4143989Y4787082D01*
Y4769180D01*
X4150840Y4752641D01*
X4163498Y4739982D01*
X4180038Y4733132D01*
X4197940D01*
X4214479Y4739982D01*
X4227137Y4752641D01*
X4233988Y4769180D01*
Y4787082D01*
X4227137Y4803621D01*
X4214479Y4816280D01*
X4197940Y4823130D01*
D02*
G37*
G36*
X3619937D02*
X3602035D01*
X3585496Y4816280D01*
X3572837Y4803621D01*
X3565987Y4787082D01*
Y4769180D01*
X3572837Y4752641D01*
X3585496Y4739982D01*
X3602035Y4733132D01*
X3619937D01*
X3636476Y4739982D01*
X3649135Y4752641D01*
X3655986Y4769180D01*
Y4787082D01*
X3649135Y4803621D01*
X3636476Y4816280D01*
X3619937Y4823130D01*
D02*
G37*
G36*
X6507459Y4697500D02*
X6492541D01*
X6478758Y4691791D01*
X6468209Y4681242D01*
X6462500Y4667459D01*
Y4652541D01*
X6468209Y4638758D01*
X6478758Y4628209D01*
X6492541Y4622500D01*
X6507459D01*
X6521242Y4628209D01*
X6531791Y4638758D01*
X6537500Y4652541D01*
Y4667459D01*
X6531791Y4681242D01*
X6521242Y4691791D01*
X6507459Y4697500D01*
D02*
G37*
G36*
X507459D02*
X492541D01*
X478758Y4691791D01*
X468209Y4681242D01*
X462500Y4667459D01*
Y4652541D01*
X468209Y4638758D01*
X478758Y4628209D01*
X492541Y4622500D01*
X507459D01*
X521242Y4628209D01*
X531791Y4638758D01*
X537500Y4652541D01*
Y4667459D01*
X531791Y4681242D01*
X521242Y4691791D01*
X507459Y4697500D01*
D02*
G37*
G36*
X6707459Y4697500D02*
X6692541D01*
X6678758Y4691791D01*
X6668209Y4681242D01*
X6662500Y4667459D01*
Y4652541D01*
X6668209Y4638758D01*
X6678758Y4628209D01*
X6692541Y4622500D01*
X6707459D01*
X6721242Y4628209D01*
X6731791Y4638758D01*
X6737500Y4652541D01*
Y4667459D01*
X6731791Y4681242D01*
X6721242Y4691791D01*
X6707459Y4697500D01*
D02*
G37*
G36*
X4707459D02*
X4692541D01*
X4678758Y4691791D01*
X4668209Y4681242D01*
X4662500Y4667459D01*
Y4652541D01*
X4668209Y4638758D01*
X4678758Y4628209D01*
X4692541Y4622500D01*
X4707459D01*
X4721242Y4628209D01*
X4731791Y4638758D01*
X4737500Y4652541D01*
Y4667459D01*
X4731791Y4681242D01*
X4721242Y4691791D01*
X4707459Y4697500D01*
D02*
G37*
G36*
X2707459D02*
X2692541D01*
X2678758Y4691791D01*
X2668209Y4681242D01*
X2662500Y4667459D01*
Y4652541D01*
X2668209Y4638758D01*
X2678758Y4628209D01*
X2692541Y4622500D01*
X2707459D01*
X2721242Y4628209D01*
X2731791Y4638758D01*
X2737500Y4652541D01*
Y4667459D01*
X2731791Y4681242D01*
X2721242Y4691791D01*
X2707459Y4697500D01*
D02*
G37*
G36*
X707459D02*
X692541D01*
X678758Y4691791D01*
X668209Y4681242D01*
X662500Y4667459D01*
Y4652541D01*
X668209Y4638758D01*
X678758Y4628209D01*
X692541Y4622500D01*
X707459D01*
X721242Y4628209D01*
X731791Y4638758D01*
X737500Y4652541D01*
Y4667459D01*
X731791Y4681242D01*
X721242Y4691791D01*
X707459Y4697500D01*
D02*
G37*
G36*
X4410000Y4988235D02*
X3350000D01*
X3335368Y4985324D01*
X3322964Y4977036D01*
X3174163Y4828235D01*
X2630000D01*
X2615368Y4825324D01*
X2602964Y4817036D01*
X2472964Y4687036D01*
X2470872Y4683905D01*
X2468209Y4681242D01*
X2466768Y4677764D01*
X2464676Y4674632D01*
X2463941Y4670938D01*
X2462500Y4667459D01*
Y4663693D01*
X2461765Y4660000D01*
X2462500Y4656307D01*
Y4652541D01*
X2463941Y4649062D01*
X2464676Y4645368D01*
X2466768Y4642237D01*
X2468209Y4638758D01*
X2470872Y4636096D01*
X2472964Y4632964D01*
X2476096Y4630872D01*
X2478758Y4628209D01*
X2482237Y4626768D01*
X2485368Y4624676D01*
X2489062Y4623941D01*
X2492541Y4622500D01*
X2496307D01*
X2500000Y4621765D01*
X2503693Y4622500D01*
X2507459D01*
X2510938Y4623941D01*
X2514632Y4624676D01*
X2517764Y4626768D01*
X2521242Y4628209D01*
X2523905Y4630872D01*
X2527036Y4632964D01*
X2645837Y4751765D01*
X3190000D01*
X3204632Y4754676D01*
X3217036Y4762964D01*
X3365837Y4911765D01*
X4394163D01*
X4461765Y4844163D01*
Y4660000D01*
X4462500Y4656307D01*
Y4652541D01*
X4463941Y4649062D01*
X4464676Y4645368D01*
X4466768Y4642237D01*
X4468209Y4638758D01*
X4470871Y4636096D01*
X4472964Y4632964D01*
X4476095Y4630872D01*
X4478758Y4628209D01*
X4482237Y4626768D01*
X4485368Y4624676D01*
X4489062Y4623941D01*
X4492541Y4622500D01*
X4496307D01*
X4500000Y4621765D01*
X4503693Y4622500D01*
X4507459D01*
X4510938Y4623941D01*
X4514632Y4624676D01*
X4517763Y4626768D01*
X4521242Y4628209D01*
X4523904Y4630872D01*
X4527036Y4632964D01*
X4529128Y4636096D01*
X4531791Y4638758D01*
X4533232Y4642237D01*
X4535324Y4645368D01*
X4536059Y4649062D01*
X4537500Y4652541D01*
Y4656307D01*
X4538235Y4660000D01*
Y4860000D01*
X4535324Y4874632D01*
X4527036Y4887036D01*
X4437036Y4977036D01*
X4424632Y4985324D01*
X4410000Y4988235D01*
D02*
G37*
G36*
X4332511Y4846866D02*
X4308125Y4842015D01*
X4287451Y4828201D01*
X4273637Y4807527D01*
X4268787Y4783141D01*
Y4673141D01*
X4273637Y4648755D01*
X4287451Y4628081D01*
X4308125Y4614267D01*
X4332511Y4609417D01*
X4356898Y4614267D01*
X4377571Y4628081D01*
X4391385Y4648755D01*
X4396236Y4673141D01*
Y4783141D01*
X4391385Y4807527D01*
X4377571Y4828201D01*
X4356898Y4842015D01*
X4332511Y4846866D01*
D02*
G37*
G36*
X3467489D02*
X3443103Y4842015D01*
X3422429Y4828201D01*
X3408615Y4807527D01*
X3403764Y4783141D01*
Y4673141D01*
X3408615Y4648755D01*
X3422429Y4628081D01*
X3443103Y4614267D01*
X3467489Y4609417D01*
X3491875Y4614267D01*
X3512549Y4628081D01*
X3526363Y4648755D01*
X3531213Y4673141D01*
Y4783141D01*
X3526363Y4807527D01*
X3512549Y4828201D01*
X3491875Y4842015D01*
X3467489Y4846866D01*
D02*
G37*
G36*
X3977459Y4587500D02*
X3962541D01*
X3948758Y4581791D01*
X3938209Y4571242D01*
X3932500Y4557459D01*
Y4542541D01*
X3938209Y4528758D01*
X3948758Y4518209D01*
X3962541Y4512500D01*
X3977459D01*
X3991242Y4518209D01*
X4001791Y4528758D01*
X4007500Y4542541D01*
Y4557459D01*
X4001791Y4571242D01*
X3991242Y4581791D01*
X3977459Y4587500D01*
D02*
G37*
G36*
X4227448Y4557500D02*
X4212530D01*
X4198747Y4551791D01*
X4188198Y4541242D01*
X4182489Y4527459D01*
Y4512541D01*
X4188198Y4498758D01*
X4198747Y4488209D01*
X4212530Y4482500D01*
X4227448D01*
X4241231Y4488209D01*
X4251780Y4498758D01*
X4257489Y4512541D01*
Y4527459D01*
X4251780Y4541242D01*
X4241231Y4551791D01*
X4227448Y4557500D01*
D02*
G37*
G36*
X3587472D02*
X3572554D01*
X3558771Y4551791D01*
X3548222Y4541242D01*
X3542513Y4527459D01*
Y4512541D01*
X3548222Y4498758D01*
X3558771Y4488209D01*
X3572554Y4482500D01*
X3587472D01*
X3601255Y4488209D01*
X3611804Y4498758D01*
X3617513Y4512541D01*
Y4527459D01*
X3611804Y4541242D01*
X3601255Y4551791D01*
X3587472Y4557500D01*
D02*
G37*
G36*
X3847459Y4537500D02*
X3832541D01*
X3818758Y4531791D01*
X3808209Y4521242D01*
X3802500Y4507459D01*
Y4492541D01*
X3808209Y4478758D01*
X3818758Y4468209D01*
X3832541Y4462500D01*
X3847459D01*
X3861242Y4468209D01*
X3871791Y4478758D01*
X3877500Y4492541D01*
Y4507459D01*
X3871791Y4521242D01*
X3861242Y4531791D01*
X3847459Y4537500D01*
D02*
G37*
G36*
X4227448Y4457500D02*
X4212530D01*
X4198747Y4451791D01*
X4188198Y4441242D01*
X4182489Y4427459D01*
Y4412541D01*
X4188198Y4398758D01*
X4198747Y4388209D01*
X4212530Y4382500D01*
X4227448D01*
X4241231Y4388209D01*
X4251780Y4398758D01*
X4257489Y4412541D01*
Y4427459D01*
X4251780Y4441242D01*
X4241231Y4451791D01*
X4227448Y4457500D01*
D02*
G37*
G36*
X3587472D02*
X3572554D01*
X3558771Y4451791D01*
X3548222Y4441242D01*
X3542513Y4427459D01*
Y4412541D01*
X3548222Y4398758D01*
X3558771Y4388209D01*
X3572554Y4382500D01*
X3587472D01*
X3601255Y4388209D01*
X3611804Y4398758D01*
X3617513Y4412541D01*
Y4427459D01*
X3611804Y4441242D01*
X3601255Y4451791D01*
X3587472Y4457500D01*
D02*
G37*
G36*
X7172102Y4545500D02*
X7135898D01*
X7100927Y4536130D01*
X7069573Y4518028D01*
X7043972Y4492427D01*
X7025870Y4461073D01*
X7016500Y4426102D01*
Y4389898D01*
X7025870Y4354927D01*
X7043972Y4323573D01*
X7069573Y4297973D01*
X7100927Y4279871D01*
X7135898Y4270500D01*
X7172102D01*
X7207073Y4279871D01*
X7238427Y4297973D01*
X7264027Y4323573D01*
X7282129Y4354927D01*
X7291500Y4389898D01*
Y4426102D01*
X7282129Y4461073D01*
X7264027Y4492427D01*
X7238427Y4518028D01*
X7207073Y4536130D01*
X7172102Y4545500D01*
D02*
G37*
G36*
X5172102D02*
X5135898D01*
X5100927Y4536130D01*
X5069573Y4518028D01*
X5043972Y4492427D01*
X5025870Y4461073D01*
X5016500Y4426102D01*
Y4389898D01*
X5025870Y4354927D01*
X5043972Y4323573D01*
X5069573Y4297973D01*
X5100927Y4279871D01*
X5135898Y4270500D01*
X5172102D01*
X5207073Y4279871D01*
X5238427Y4297973D01*
X5264027Y4323573D01*
X5282129Y4354927D01*
X5291500Y4389898D01*
Y4426102D01*
X5282129Y4461073D01*
X5264027Y4492427D01*
X5238427Y4518028D01*
X5207073Y4536130D01*
X5172102Y4545500D01*
D02*
G37*
G36*
X3172102D02*
X3135898D01*
X3100927Y4536130D01*
X3069573Y4518028D01*
X3043973Y4492427D01*
X3025871Y4461073D01*
X3016500Y4426102D01*
Y4389898D01*
X3025871Y4354927D01*
X3043973Y4323573D01*
X3069573Y4297973D01*
X3100927Y4279871D01*
X3135898Y4270500D01*
X3172102D01*
X3207073Y4279871D01*
X3238427Y4297973D01*
X3264028Y4323573D01*
X3282130Y4354927D01*
X3291500Y4389898D01*
Y4426102D01*
X3282130Y4461073D01*
X3264028Y4492427D01*
X3238427Y4518028D01*
X3207073Y4536130D01*
X3172102Y4545500D01*
D02*
G37*
G36*
X1172102D02*
X1135898D01*
X1100927Y4536130D01*
X1069573Y4518028D01*
X1043973Y4492427D01*
X1025870Y4461073D01*
X1016500Y4426102D01*
Y4389898D01*
X1025870Y4354927D01*
X1043973Y4323573D01*
X1069573Y4297973D01*
X1100927Y4279871D01*
X1135898Y4270500D01*
X1172102D01*
X1207073Y4279871D01*
X1238427Y4297973D01*
X1264027Y4323573D01*
X1282130Y4354927D01*
X1291500Y4389898D01*
Y4426102D01*
X1282130Y4461073D01*
X1264027Y4492427D01*
X1238427Y4518028D01*
X1207073Y4536130D01*
X1172102Y4545500D01*
D02*
G37*
G36*
X4137459Y4207500D02*
X4122541D01*
X4108758Y4201791D01*
X4098209Y4191242D01*
X4092500Y4177459D01*
Y4162541D01*
X4098209Y4148758D01*
X4108758Y4138209D01*
X4122541Y4132500D01*
X4137459D01*
X4151242Y4138209D01*
X4161791Y4148758D01*
X4167500Y4162541D01*
Y4177459D01*
X4161791Y4191242D01*
X4151242Y4201791D01*
X4137459Y4207500D01*
D02*
G37*
G36*
X6537102Y4291500D02*
X6500898D01*
X6465927Y4282130D01*
X6434573Y4264028D01*
X6408972Y4238427D01*
X6390870Y4207073D01*
X6381500Y4172102D01*
Y4135898D01*
X6390870Y4100927D01*
X6408972Y4069573D01*
X6434573Y4043973D01*
X6465927Y4025871D01*
X6500898Y4016500D01*
X6537102D01*
X6572073Y4025871D01*
X6603427Y4043973D01*
X6629027Y4069573D01*
X6647129Y4100927D01*
X6656500Y4135898D01*
Y4172102D01*
X6647129Y4207073D01*
X6629027Y4238427D01*
X6603427Y4264028D01*
X6572073Y4282130D01*
X6537102Y4291500D01*
D02*
G37*
G36*
X4537102D02*
X4500898D01*
X4465927Y4282130D01*
X4434573Y4264028D01*
X4408972Y4238427D01*
X4390870Y4207073D01*
X4381500Y4172102D01*
Y4135898D01*
X4390870Y4100927D01*
X4408972Y4069573D01*
X4434573Y4043973D01*
X4465927Y4025871D01*
X4500898Y4016500D01*
X4537102D01*
X4572073Y4025871D01*
X4603427Y4043973D01*
X4629027Y4069573D01*
X4647129Y4100927D01*
X4656500Y4135898D01*
Y4172102D01*
X4647129Y4207073D01*
X4629027Y4238427D01*
X4603427Y4264028D01*
X4572073Y4282130D01*
X4537102Y4291500D01*
D02*
G37*
G36*
X2537102D02*
X2500898D01*
X2465927Y4282130D01*
X2434573Y4264028D01*
X2408973Y4238427D01*
X2390871Y4207073D01*
X2381500Y4172102D01*
Y4135898D01*
X2390871Y4100927D01*
X2408973Y4069573D01*
X2434573Y4043973D01*
X2465927Y4025871D01*
X2500898Y4016500D01*
X2537102D01*
X2572073Y4025871D01*
X2603427Y4043973D01*
X2629028Y4069573D01*
X2647130Y4100927D01*
X2656500Y4135898D01*
Y4172102D01*
X2647130Y4207073D01*
X2629028Y4238427D01*
X2603427Y4264028D01*
X2572073Y4282130D01*
X2537102Y4291500D01*
D02*
G37*
G36*
X537102D02*
X500898D01*
X465927Y4282130D01*
X434573Y4264028D01*
X408973Y4238427D01*
X390870Y4207073D01*
X381500Y4172102D01*
Y4135898D01*
X390870Y4100927D01*
X408973Y4069573D01*
X434573Y4043973D01*
X465927Y4025871D01*
X500898Y4016500D01*
X537102D01*
X572073Y4025871D01*
X603427Y4043973D01*
X629027Y4069573D01*
X647130Y4100927D01*
X656500Y4135898D01*
Y4172102D01*
X647130Y4207073D01*
X629027Y4238427D01*
X603427Y4264028D01*
X572073Y4282130D01*
X537102Y4291500D01*
D02*
G37*
G36*
X3933278Y3927500D02*
X3918360D01*
X3904577Y3921791D01*
X3894569Y3911783D01*
X3884561Y3921791D01*
X3870778Y3927500D01*
X3855860D01*
X3842077Y3921791D01*
X3831528Y3911242D01*
X3825819Y3897460D01*
Y3882541D01*
X3831528Y3868758D01*
X3842077Y3858209D01*
X3855860Y3852500D01*
X3870778D01*
X3884561Y3858209D01*
X3894569Y3868217D01*
X3904577Y3858209D01*
X3918360Y3852500D01*
X3933278D01*
X3947061Y3858209D01*
X3957610Y3868758D01*
X3963319Y3882541D01*
Y3897460D01*
X3957610Y3911242D01*
X3947061Y3921791D01*
X3933278Y3927500D01*
D02*
G37*
G36*
X7420836Y3997500D02*
X7395164D01*
X7370366Y3990855D01*
X7348134Y3978019D01*
X7329981Y3959866D01*
X7317145Y3937634D01*
X7310500Y3912836D01*
Y3887164D01*
X7317145Y3862366D01*
X7329981Y3840134D01*
X7348134Y3821981D01*
X7370366Y3809145D01*
X7395164Y3802500D01*
X7420836D01*
X7445634Y3809145D01*
X7467866Y3821981D01*
X7486019Y3840134D01*
X7498855Y3862366D01*
X7505500Y3887164D01*
Y3912836D01*
X7498855Y3937634D01*
X7486019Y3959866D01*
X7467866Y3978019D01*
X7445634Y3990855D01*
X7420836Y3997500D01*
D02*
G37*
G36*
X6404836D02*
X6379164D01*
X6354366Y3990855D01*
X6332134Y3978019D01*
X6313981Y3959866D01*
X6301145Y3937634D01*
X6294500Y3912836D01*
Y3887164D01*
X6301145Y3862366D01*
X6313981Y3840134D01*
X6332134Y3821981D01*
X6354366Y3809145D01*
X6379164Y3802500D01*
X6404836D01*
X6429634Y3809145D01*
X6451866Y3821981D01*
X6470019Y3840134D01*
X6482855Y3862366D01*
X6489500Y3887164D01*
Y3912836D01*
X6482855Y3937634D01*
X6470019Y3959866D01*
X6451866Y3978019D01*
X6429634Y3990855D01*
X6404836Y3997500D01*
D02*
G37*
G36*
X5420836D02*
X5395164D01*
X5370366Y3990855D01*
X5348134Y3978019D01*
X5329980Y3959866D01*
X5317145Y3937634D01*
X5310500Y3912836D01*
Y3887164D01*
X5317145Y3862366D01*
X5329980Y3840134D01*
X5348134Y3821981D01*
X5370366Y3809145D01*
X5395164Y3802500D01*
X5420836D01*
X5445634Y3809145D01*
X5467866Y3821981D01*
X5486019Y3840134D01*
X5498855Y3862366D01*
X5505500Y3887164D01*
Y3912836D01*
X5498855Y3937634D01*
X5486019Y3959866D01*
X5467866Y3978019D01*
X5445634Y3990855D01*
X5420836Y3997500D01*
D02*
G37*
G36*
X4404836D02*
X4379164D01*
X4354366Y3990855D01*
X4332134Y3978019D01*
X4313980Y3959866D01*
X4301145Y3937634D01*
X4294500Y3912836D01*
Y3887164D01*
X4301145Y3862366D01*
X4313980Y3840134D01*
X4332134Y3821981D01*
X4354366Y3809145D01*
X4379164Y3802500D01*
X4404836D01*
X4429634Y3809145D01*
X4451866Y3821981D01*
X4470019Y3840134D01*
X4482855Y3862366D01*
X4489500Y3887164D01*
Y3912836D01*
X4482855Y3937634D01*
X4470019Y3959866D01*
X4451866Y3978019D01*
X4429634Y3990855D01*
X4404836Y3997500D01*
D02*
G37*
G36*
X3420836D02*
X3395164D01*
X3370366Y3990855D01*
X3348134Y3978019D01*
X3329981Y3959866D01*
X3317145Y3937634D01*
X3310500Y3912836D01*
Y3887164D01*
X3317145Y3862366D01*
X3329981Y3840134D01*
X3348134Y3821981D01*
X3370366Y3809145D01*
X3395164Y3802500D01*
X3420836D01*
X3445634Y3809145D01*
X3467866Y3821981D01*
X3486019Y3840134D01*
X3498855Y3862366D01*
X3505500Y3887164D01*
Y3912836D01*
X3498855Y3937634D01*
X3486019Y3959866D01*
X3467866Y3978019D01*
X3445634Y3990855D01*
X3420836Y3997500D01*
D02*
G37*
G36*
X2404836D02*
X2379164D01*
X2354366Y3990855D01*
X2332134Y3978019D01*
X2313981Y3959866D01*
X2301145Y3937634D01*
X2294500Y3912836D01*
Y3887164D01*
X2301145Y3862366D01*
X2313981Y3840134D01*
X2332134Y3821981D01*
X2354366Y3809145D01*
X2379164Y3802500D01*
X2404836D01*
X2429634Y3809145D01*
X2451866Y3821981D01*
X2470019Y3840134D01*
X2482855Y3862366D01*
X2489500Y3887164D01*
Y3912836D01*
X2482855Y3937634D01*
X2470019Y3959866D01*
X2451866Y3978019D01*
X2429634Y3990855D01*
X2404836Y3997500D01*
D02*
G37*
G36*
X1420836D02*
X1395164D01*
X1370366Y3990855D01*
X1348134Y3978019D01*
X1329981Y3959866D01*
X1317145Y3937634D01*
X1310500Y3912836D01*
Y3887164D01*
X1317145Y3862366D01*
X1329981Y3840134D01*
X1348134Y3821981D01*
X1370366Y3809145D01*
X1395164Y3802500D01*
X1420836D01*
X1445634Y3809145D01*
X1467866Y3821981D01*
X1486019Y3840134D01*
X1498855Y3862366D01*
X1505500Y3887164D01*
Y3912836D01*
X1498855Y3937634D01*
X1486019Y3959866D01*
X1467866Y3978019D01*
X1445634Y3990855D01*
X1420836Y3997500D01*
D02*
G37*
G36*
X404836D02*
X379164D01*
X354366Y3990855D01*
X332134Y3978019D01*
X313981Y3959866D01*
X301145Y3937634D01*
X294500Y3912836D01*
Y3887164D01*
X301145Y3862366D01*
X313981Y3840134D01*
X332134Y3821981D01*
X354366Y3809145D01*
X379164Y3802500D01*
X404836D01*
X429634Y3809145D01*
X451866Y3821981D01*
X470019Y3840134D01*
X482855Y3862366D01*
X489500Y3887164D01*
Y3912836D01*
X482855Y3937634D01*
X470019Y3959866D01*
X451866Y3978019D01*
X429634Y3990855D01*
X404836Y3997500D01*
D02*
G37*
G36*
X6920929Y4112500D02*
X6879071D01*
X6838016Y4104334D01*
X6799344Y4088315D01*
X6764539Y4065060D01*
X6734940Y4035461D01*
X6711685Y4000656D01*
X6695666Y3961984D01*
X6687500Y3920929D01*
Y3879071D01*
X6695666Y3838016D01*
X6711685Y3799344D01*
X6734940Y3764539D01*
X6764539Y3734940D01*
X6799344Y3711685D01*
X6838016Y3695666D01*
X6879071Y3687500D01*
X6920929D01*
X6961984Y3695666D01*
X7000656Y3711685D01*
X7035461Y3734940D01*
X7065060Y3764539D01*
X7088315Y3799344D01*
X7104334Y3838016D01*
X7112500Y3879071D01*
Y3920929D01*
X7104334Y3961984D01*
X7088315Y4000656D01*
X7065060Y4035461D01*
X7035461Y4065060D01*
X7000656Y4088315D01*
X6961984Y4104334D01*
X6920929Y4112500D01*
D02*
G37*
G36*
X5920929D02*
X5879071D01*
X5838016Y4104334D01*
X5799343Y4088315D01*
X5764539Y4065060D01*
X5734940Y4035461D01*
X5711685Y4000656D01*
X5695666Y3961984D01*
X5687500Y3920929D01*
Y3879071D01*
X5695666Y3838016D01*
X5711685Y3799344D01*
X5734940Y3764539D01*
X5764539Y3734940D01*
X5799343Y3711685D01*
X5838016Y3695666D01*
X5879071Y3687500D01*
X5920929D01*
X5961984Y3695666D01*
X6000656Y3711685D01*
X6035461Y3734940D01*
X6065059Y3764539D01*
X6088315Y3799344D01*
X6104333Y3838016D01*
X6112500Y3879071D01*
Y3920929D01*
X6104333Y3961984D01*
X6088315Y4000656D01*
X6065059Y4035461D01*
X6035461Y4065060D01*
X6000656Y4088315D01*
X5961984Y4104334D01*
X5920929Y4112500D01*
D02*
G37*
G36*
X4920929D02*
X4879071D01*
X4838016Y4104334D01*
X4799343Y4088315D01*
X4764539Y4065060D01*
X4734940Y4035461D01*
X4711685Y4000656D01*
X4695666Y3961984D01*
X4687500Y3920929D01*
Y3879071D01*
X4695666Y3838016D01*
X4711685Y3799344D01*
X4734940Y3764539D01*
X4764539Y3734940D01*
X4799343Y3711685D01*
X4838016Y3695666D01*
X4879071Y3687500D01*
X4920929D01*
X4961984Y3695666D01*
X5000656Y3711685D01*
X5035461Y3734940D01*
X5065059Y3764539D01*
X5088315Y3799344D01*
X5104333Y3838016D01*
X5112500Y3879071D01*
Y3920929D01*
X5104333Y3961984D01*
X5088315Y4000656D01*
X5065059Y4035461D01*
X5035461Y4065060D01*
X5000656Y4088315D01*
X4961984Y4104334D01*
X4920929Y4112500D01*
D02*
G37*
G36*
X2920929D02*
X2879071D01*
X2838016Y4104334D01*
X2799344Y4088315D01*
X2764539Y4065060D01*
X2734940Y4035461D01*
X2711685Y4000656D01*
X2695666Y3961984D01*
X2687500Y3920929D01*
Y3879071D01*
X2695666Y3838016D01*
X2711685Y3799344D01*
X2734940Y3764539D01*
X2764539Y3734940D01*
X2799344Y3711685D01*
X2838016Y3695666D01*
X2879071Y3687500D01*
X2920929D01*
X2961984Y3695666D01*
X3000656Y3711685D01*
X3035461Y3734940D01*
X3065060Y3764539D01*
X3088315Y3799344D01*
X3104334Y3838016D01*
X3112500Y3879071D01*
Y3920929D01*
X3104334Y3961984D01*
X3088315Y4000656D01*
X3065060Y4035461D01*
X3035461Y4065060D01*
X3000656Y4088315D01*
X2961984Y4104334D01*
X2920929Y4112500D01*
D02*
G37*
G36*
X1920929D02*
X1879071D01*
X1838016Y4104334D01*
X1799344Y4088315D01*
X1764539Y4065060D01*
X1734940Y4035461D01*
X1711685Y4000656D01*
X1695666Y3961984D01*
X1687500Y3920929D01*
Y3879071D01*
X1695666Y3838016D01*
X1711685Y3799344D01*
X1734940Y3764539D01*
X1764539Y3734940D01*
X1799344Y3711685D01*
X1838016Y3695666D01*
X1879071Y3687500D01*
X1920929D01*
X1961984Y3695666D01*
X2000656Y3711685D01*
X2035461Y3734940D01*
X2065060Y3764539D01*
X2088315Y3799344D01*
X2104334Y3838016D01*
X2112500Y3879071D01*
Y3920929D01*
X2104334Y3961984D01*
X2088315Y4000656D01*
X2065060Y4035461D01*
X2035461Y4065060D01*
X2000656Y4088315D01*
X1961984Y4104334D01*
X1920929Y4112500D01*
D02*
G37*
G36*
X920929D02*
X879071D01*
X838016Y4104334D01*
X799344Y4088315D01*
X764539Y4065060D01*
X734940Y4035461D01*
X711685Y4000656D01*
X695666Y3961984D01*
X687500Y3920929D01*
Y3879071D01*
X695666Y3838016D01*
X711685Y3799344D01*
X734940Y3764539D01*
X764539Y3734940D01*
X799344Y3711685D01*
X838016Y3695666D01*
X879071Y3687500D01*
X920929D01*
X961984Y3695666D01*
X1000656Y3711685D01*
X1035461Y3734940D01*
X1065060Y3764539D01*
X1088315Y3799344D01*
X1104334Y3838016D01*
X1112500Y3879071D01*
Y3920929D01*
X1104334Y3961984D01*
X1088315Y4000656D01*
X1065060Y4035461D01*
X1035461Y4065060D01*
X1000656Y4088315D01*
X961984Y4104334D01*
X920929Y4112500D01*
D02*
G37*
G36*
X4067459Y3647500D02*
X4052541D01*
X4038758Y3641791D01*
X4028209Y3631242D01*
X4022500Y3617459D01*
Y3602541D01*
X4028209Y3588758D01*
X4038758Y3578209D01*
X4052541Y3572500D01*
X4067459D01*
X4081242Y3578209D01*
X4091791Y3588758D01*
X4097500Y3602541D01*
Y3617459D01*
X4091791Y3631242D01*
X4081242Y3641791D01*
X4067459Y3647500D01*
D02*
G37*
G36*
X3747459D02*
X3732541D01*
X3718758Y3641791D01*
X3708209Y3631242D01*
X3702500Y3617459D01*
Y3602541D01*
X3708209Y3588758D01*
X3718758Y3578209D01*
X3732541Y3572500D01*
X3747459D01*
X3761242Y3578209D01*
X3771791Y3588758D01*
X3777500Y3602541D01*
Y3617459D01*
X3771791Y3631242D01*
X3761242Y3641791D01*
X3747459Y3647500D01*
D02*
G37*
G36*
X6907459Y3607500D02*
X6892541D01*
X6878758Y3601791D01*
X6868209Y3591242D01*
X6862500Y3577459D01*
Y3562541D01*
X6868209Y3548758D01*
X6878758Y3538209D01*
X6892541Y3532500D01*
X6907459D01*
X6921242Y3538209D01*
X6931791Y3548758D01*
X6937500Y3562541D01*
Y3577459D01*
X6931791Y3591242D01*
X6921242Y3601791D01*
X6907459Y3607500D01*
D02*
G37*
G36*
X4907459D02*
X4892541D01*
X4878758Y3601791D01*
X4868209Y3591242D01*
X4862500Y3577459D01*
Y3562541D01*
X4868209Y3548758D01*
X4878758Y3538209D01*
X4892541Y3532500D01*
X4907459D01*
X4921242Y3538209D01*
X4931791Y3548758D01*
X4937500Y3562541D01*
Y3577459D01*
X4931791Y3591242D01*
X4921242Y3601791D01*
X4907459Y3607500D01*
D02*
G37*
G36*
X2907459D02*
X2892541D01*
X2878758Y3601791D01*
X2868209Y3591242D01*
X2862500Y3577459D01*
Y3562541D01*
X2868209Y3548758D01*
X2878758Y3538209D01*
X2892541Y3532500D01*
X2907459D01*
X2921242Y3538209D01*
X2931791Y3548758D01*
X2937500Y3562541D01*
Y3577459D01*
X2931791Y3591242D01*
X2921242Y3601791D01*
X2907459Y3607500D01*
D02*
G37*
G36*
X907459D02*
X892541D01*
X878758Y3601791D01*
X868209Y3591242D01*
X862500Y3577459D01*
Y3562541D01*
X868209Y3548758D01*
X878758Y3538209D01*
X892541Y3532500D01*
X907459D01*
X921242Y3538209D01*
X931791Y3548758D01*
X937500Y3562541D01*
Y3577459D01*
X931791Y3591242D01*
X921242Y3601791D01*
X907459Y3607500D01*
D02*
G37*
G36*
X6757459Y3357500D02*
X6742541D01*
X6728758Y3351791D01*
X6718209Y3341242D01*
X6712500Y3327459D01*
Y3312541D01*
X6718209Y3298758D01*
X6728758Y3288209D01*
X6742541Y3282500D01*
X6757459D01*
X6771242Y3288209D01*
X6781791Y3298758D01*
X6787500Y3312541D01*
Y3327459D01*
X6781791Y3341242D01*
X6771242Y3351791D01*
X6757459Y3357500D01*
D02*
G37*
G36*
X4757459D02*
X4742541D01*
X4728758Y3351791D01*
X4718209Y3341242D01*
X4712500Y3327459D01*
Y3312541D01*
X4718209Y3298758D01*
X4728758Y3288209D01*
X4742541Y3282500D01*
X4757459D01*
X4771242Y3288209D01*
X4781791Y3298758D01*
X4787500Y3312541D01*
Y3327459D01*
X4781791Y3341242D01*
X4771242Y3351791D01*
X4757459Y3357500D01*
D02*
G37*
G36*
X2757459D02*
X2742541D01*
X2728758Y3351791D01*
X2718209Y3341242D01*
X2712500Y3327459D01*
Y3312541D01*
X2718209Y3298758D01*
X2728758Y3288209D01*
X2742541Y3282500D01*
X2757459D01*
X2771242Y3288209D01*
X2781791Y3298758D01*
X2787500Y3312541D01*
Y3327459D01*
X2781791Y3341242D01*
X2771242Y3351791D01*
X2757459Y3357500D01*
D02*
G37*
G36*
X757459D02*
X742541D01*
X728758Y3351791D01*
X718209Y3341242D01*
X712500Y3327459D01*
Y3312541D01*
X718209Y3298758D01*
X728758Y3288209D01*
X742541Y3282500D01*
X757459D01*
X771242Y3288209D01*
X781791Y3298758D01*
X787500Y3312541D01*
Y3327459D01*
X781791Y3341242D01*
X771242Y3351791D01*
X757459Y3357500D01*
D02*
G37*
G36*
X6507459Y2697500D02*
X6492541D01*
X6478758Y2691791D01*
X6468209Y2681242D01*
X6462500Y2667459D01*
Y2652541D01*
X6468209Y2638758D01*
X6478758Y2628209D01*
X6492541Y2622500D01*
X6507459D01*
X6521242Y2628209D01*
X6531791Y2638758D01*
X6537500Y2652541D01*
Y2667459D01*
X6531791Y2681242D01*
X6521242Y2691791D01*
X6507459Y2697500D01*
D02*
G37*
G36*
X4507459D02*
X4492540D01*
X4478758Y2691791D01*
X4468209Y2681242D01*
X4462500Y2667459D01*
Y2652541D01*
X4468209Y2638758D01*
X4478758Y2628209D01*
X4492540Y2622500D01*
X4507459D01*
X4521242Y2628209D01*
X4531791Y2638758D01*
X4537500Y2652541D01*
Y2667459D01*
X4531791Y2681242D01*
X4521242Y2691791D01*
X4507459Y2697500D01*
D02*
G37*
G36*
X2507459D02*
X2492541D01*
X2478758Y2691791D01*
X2468209Y2681242D01*
X2462500Y2667459D01*
Y2652541D01*
X2468209Y2638758D01*
X2478758Y2628209D01*
X2492541Y2622500D01*
X2507459D01*
X2521242Y2628209D01*
X2531791Y2638758D01*
X2537500Y2652541D01*
Y2667459D01*
X2531791Y2681242D01*
X2521242Y2691791D01*
X2507459Y2697500D01*
D02*
G37*
G36*
X507459D02*
X492541D01*
X478758Y2691791D01*
X468209Y2681242D01*
X462500Y2667459D01*
Y2652541D01*
X468209Y2638758D01*
X478758Y2628209D01*
X492541Y2622500D01*
X507459D01*
X521242Y2628209D01*
X531791Y2638758D01*
X537500Y2652541D01*
Y2667459D01*
X531791Y2681242D01*
X521242Y2691791D01*
X507459Y2697500D01*
D02*
G37*
G36*
X6707459Y2697500D02*
X6692541D01*
X6678758Y2691791D01*
X6668209Y2681242D01*
X6662500Y2667459D01*
Y2652541D01*
X6668209Y2638758D01*
X6678758Y2628209D01*
X6692541Y2622500D01*
X6707459D01*
X6721242Y2628209D01*
X6731791Y2638758D01*
X6737500Y2652541D01*
Y2667459D01*
X6731791Y2681242D01*
X6721242Y2691791D01*
X6707459Y2697500D01*
D02*
G37*
G36*
X4707459D02*
X4692541D01*
X4678758Y2691791D01*
X4668209Y2681242D01*
X4662500Y2667459D01*
Y2652541D01*
X4668209Y2638758D01*
X4678758Y2628209D01*
X4692541Y2622500D01*
X4707459D01*
X4721242Y2628209D01*
X4731791Y2638758D01*
X4737500Y2652541D01*
Y2667459D01*
X4731791Y2681242D01*
X4721242Y2691791D01*
X4707459Y2697500D01*
D02*
G37*
G36*
X2707459D02*
X2692541D01*
X2678758Y2691791D01*
X2668209Y2681242D01*
X2662500Y2667459D01*
Y2652541D01*
X2668209Y2638758D01*
X2678758Y2628209D01*
X2692541Y2622500D01*
X2707459D01*
X2721242Y2628209D01*
X2731791Y2638758D01*
X2737500Y2652541D01*
Y2667459D01*
X2731791Y2681242D01*
X2721242Y2691791D01*
X2707459Y2697500D01*
D02*
G37*
G36*
X707459D02*
X692541D01*
X678758Y2691791D01*
X668209Y2681242D01*
X662500Y2667459D01*
Y2652541D01*
X668209Y2638758D01*
X678758Y2628209D01*
X692541Y2622500D01*
X707459D01*
X721242Y2628209D01*
X731791Y2638758D01*
X737500Y2652541D01*
Y2667459D01*
X731791Y2681242D01*
X721242Y2691791D01*
X707459Y2697500D01*
D02*
G37*
G36*
X7172102Y2545500D02*
X7135898D01*
X7100927Y2536130D01*
X7069573Y2518027D01*
X7043972Y2492427D01*
X7025870Y2461073D01*
X7016500Y2426102D01*
Y2389898D01*
X7025870Y2354927D01*
X7043972Y2323573D01*
X7069573Y2297973D01*
X7100927Y2279870D01*
X7135898Y2270500D01*
X7172102D01*
X7207073Y2279870D01*
X7238427Y2297973D01*
X7264027Y2323573D01*
X7282129Y2354927D01*
X7291500Y2389898D01*
Y2426102D01*
X7282129Y2461073D01*
X7264027Y2492427D01*
X7238427Y2518027D01*
X7207073Y2536130D01*
X7172102Y2545500D01*
D02*
G37*
G36*
X5172102D02*
X5135898D01*
X5100927Y2536130D01*
X5069573Y2518027D01*
X5043972Y2492427D01*
X5025870Y2461073D01*
X5016500Y2426102D01*
Y2389898D01*
X5025870Y2354927D01*
X5043972Y2323573D01*
X5069573Y2297973D01*
X5100927Y2279870D01*
X5135898Y2270500D01*
X5172102D01*
X5207073Y2279870D01*
X5238427Y2297973D01*
X5264027Y2323573D01*
X5282129Y2354927D01*
X5291500Y2389898D01*
Y2426102D01*
X5282129Y2461073D01*
X5264027Y2492427D01*
X5238427Y2518027D01*
X5207073Y2536130D01*
X5172102Y2545500D01*
D02*
G37*
G36*
X3172102D02*
X3135898D01*
X3100927Y2536130D01*
X3069573Y2518027D01*
X3043973Y2492427D01*
X3025871Y2461073D01*
X3016500Y2426102D01*
Y2389898D01*
X3025871Y2354927D01*
X3043973Y2323573D01*
X3069573Y2297973D01*
X3100927Y2279870D01*
X3135898Y2270500D01*
X3172102D01*
X3207073Y2279870D01*
X3238427Y2297973D01*
X3264028Y2323573D01*
X3282130Y2354927D01*
X3291500Y2389898D01*
Y2426102D01*
X3282130Y2461073D01*
X3264028Y2492427D01*
X3238427Y2518027D01*
X3207073Y2536130D01*
X3172102Y2545500D01*
D02*
G37*
G36*
X1172102D02*
X1135898D01*
X1100927Y2536130D01*
X1069573Y2518027D01*
X1043973Y2492427D01*
X1025870Y2461073D01*
X1016500Y2426102D01*
Y2389898D01*
X1025870Y2354927D01*
X1043973Y2323573D01*
X1069573Y2297973D01*
X1100927Y2279870D01*
X1135898Y2270500D01*
X1172102D01*
X1207073Y2279870D01*
X1238427Y2297973D01*
X1264027Y2323573D01*
X1282130Y2354927D01*
X1291500Y2389898D01*
Y2426102D01*
X1282130Y2461073D01*
X1264027Y2492427D01*
X1238427Y2518027D01*
X1207073Y2536130D01*
X1172102Y2545500D01*
D02*
G37*
G36*
X6537102Y2291500D02*
X6500898D01*
X6465927Y2282130D01*
X6434573Y2264027D01*
X6408972Y2238427D01*
X6390870Y2207073D01*
X6381500Y2172102D01*
Y2135898D01*
X6390870Y2100927D01*
X6408972Y2069573D01*
X6434573Y2043973D01*
X6465927Y2025870D01*
X6500898Y2016500D01*
X6537102D01*
X6572073Y2025870D01*
X6603427Y2043973D01*
X6629027Y2069573D01*
X6647129Y2100927D01*
X6656500Y2135898D01*
Y2172102D01*
X6647129Y2207073D01*
X6629027Y2238427D01*
X6603427Y2264027D01*
X6572073Y2282130D01*
X6537102Y2291500D01*
D02*
G37*
G36*
X4537102D02*
X4500898D01*
X4465927Y2282130D01*
X4434573Y2264027D01*
X4408972Y2238427D01*
X4390870Y2207073D01*
X4381500Y2172102D01*
Y2135898D01*
X4390870Y2100927D01*
X4408972Y2069573D01*
X4434573Y2043973D01*
X4465927Y2025870D01*
X4500898Y2016500D01*
X4537102D01*
X4572073Y2025870D01*
X4603427Y2043973D01*
X4629027Y2069573D01*
X4647129Y2100927D01*
X4656500Y2135898D01*
Y2172102D01*
X4647129Y2207073D01*
X4629027Y2238427D01*
X4603427Y2264027D01*
X4572073Y2282130D01*
X4537102Y2291500D01*
D02*
G37*
G36*
X2537102D02*
X2500898D01*
X2465927Y2282130D01*
X2434573Y2264027D01*
X2408973Y2238427D01*
X2390871Y2207073D01*
X2381500Y2172102D01*
Y2135898D01*
X2390871Y2100927D01*
X2408973Y2069573D01*
X2434573Y2043973D01*
X2465927Y2025870D01*
X2500898Y2016500D01*
X2537102D01*
X2572073Y2025870D01*
X2603427Y2043973D01*
X2629028Y2069573D01*
X2647130Y2100927D01*
X2656500Y2135898D01*
Y2172102D01*
X2647130Y2207073D01*
X2629028Y2238427D01*
X2603427Y2264027D01*
X2572073Y2282130D01*
X2537102Y2291500D01*
D02*
G37*
G36*
X537102D02*
X500898D01*
X465927Y2282130D01*
X434573Y2264027D01*
X408973Y2238427D01*
X390870Y2207073D01*
X381500Y2172102D01*
Y2135898D01*
X390870Y2100927D01*
X408973Y2069573D01*
X434573Y2043973D01*
X465927Y2025870D01*
X500898Y2016500D01*
X537102D01*
X572073Y2025870D01*
X603427Y2043973D01*
X629027Y2069573D01*
X647130Y2100927D01*
X656500Y2135898D01*
Y2172102D01*
X647130Y2207073D01*
X629027Y2238427D01*
X603427Y2264027D01*
X572073Y2282130D01*
X537102Y2291500D01*
D02*
G37*
G36*
X7420836Y1997500D02*
X7395164D01*
X7370366Y1990855D01*
X7348134Y1978019D01*
X7329981Y1959866D01*
X7317145Y1937634D01*
X7310500Y1912836D01*
Y1887164D01*
X7317145Y1862366D01*
X7329981Y1840134D01*
X7348134Y1821981D01*
X7370366Y1809145D01*
X7395164Y1802500D01*
X7420836D01*
X7445634Y1809145D01*
X7467866Y1821981D01*
X7486019Y1840134D01*
X7498855Y1862366D01*
X7505500Y1887164D01*
Y1912836D01*
X7498855Y1937634D01*
X7486019Y1959866D01*
X7467866Y1978019D01*
X7445634Y1990855D01*
X7420836Y1997500D01*
D02*
G37*
G36*
X6404836D02*
X6379164D01*
X6354366Y1990855D01*
X6332134Y1978019D01*
X6313981Y1959866D01*
X6301145Y1937634D01*
X6294500Y1912836D01*
Y1887164D01*
X6301145Y1862366D01*
X6313981Y1840134D01*
X6332134Y1821981D01*
X6354366Y1809145D01*
X6379164Y1802500D01*
X6404836D01*
X6429634Y1809145D01*
X6451866Y1821981D01*
X6470019Y1840134D01*
X6482855Y1862366D01*
X6489500Y1887164D01*
Y1912836D01*
X6482855Y1937634D01*
X6470019Y1959866D01*
X6451866Y1978019D01*
X6429634Y1990855D01*
X6404836Y1997500D01*
D02*
G37*
G36*
X5420836D02*
X5395164D01*
X5370366Y1990855D01*
X5348134Y1978019D01*
X5329980Y1959866D01*
X5317145Y1937634D01*
X5310500Y1912836D01*
Y1887164D01*
X5317145Y1862366D01*
X5329980Y1840134D01*
X5348134Y1821981D01*
X5370366Y1809145D01*
X5395164Y1802500D01*
X5420836D01*
X5445634Y1809145D01*
X5467866Y1821981D01*
X5486019Y1840134D01*
X5498855Y1862366D01*
X5505500Y1887164D01*
Y1912836D01*
X5498855Y1937634D01*
X5486019Y1959866D01*
X5467866Y1978019D01*
X5445634Y1990855D01*
X5420836Y1997500D01*
D02*
G37*
G36*
X4404836D02*
X4379164D01*
X4354366Y1990855D01*
X4332134Y1978019D01*
X4313980Y1959866D01*
X4301145Y1937634D01*
X4294500Y1912836D01*
Y1887164D01*
X4301145Y1862366D01*
X4313980Y1840134D01*
X4332134Y1821981D01*
X4354366Y1809145D01*
X4379164Y1802500D01*
X4404836D01*
X4429634Y1809145D01*
X4451866Y1821981D01*
X4470019Y1840134D01*
X4482855Y1862366D01*
X4489500Y1887164D01*
Y1912836D01*
X4482855Y1937634D01*
X4470019Y1959866D01*
X4451866Y1978019D01*
X4429634Y1990855D01*
X4404836Y1997500D01*
D02*
G37*
G36*
X3420836D02*
X3395164D01*
X3370366Y1990855D01*
X3348134Y1978019D01*
X3329981Y1959866D01*
X3317145Y1937634D01*
X3310500Y1912836D01*
Y1887164D01*
X3317145Y1862366D01*
X3329981Y1840134D01*
X3348134Y1821981D01*
X3370366Y1809145D01*
X3395164Y1802500D01*
X3420836D01*
X3445634Y1809145D01*
X3467866Y1821981D01*
X3486019Y1840134D01*
X3498855Y1862366D01*
X3505500Y1887164D01*
Y1912836D01*
X3498855Y1937634D01*
X3486019Y1959866D01*
X3467866Y1978019D01*
X3445634Y1990855D01*
X3420836Y1997500D01*
D02*
G37*
G36*
X2404836D02*
X2379164D01*
X2354366Y1990855D01*
X2332134Y1978019D01*
X2313981Y1959866D01*
X2301145Y1937634D01*
X2294500Y1912836D01*
Y1887164D01*
X2301145Y1862366D01*
X2313981Y1840134D01*
X2332134Y1821981D01*
X2354366Y1809145D01*
X2379164Y1802500D01*
X2404836D01*
X2429634Y1809145D01*
X2451866Y1821981D01*
X2470019Y1840134D01*
X2482855Y1862366D01*
X2489500Y1887164D01*
Y1912836D01*
X2482855Y1937634D01*
X2470019Y1959866D01*
X2451866Y1978019D01*
X2429634Y1990855D01*
X2404836Y1997500D01*
D02*
G37*
G36*
X1420836D02*
X1395164D01*
X1370366Y1990855D01*
X1348134Y1978019D01*
X1329981Y1959866D01*
X1317145Y1937634D01*
X1310500Y1912836D01*
Y1887164D01*
X1317145Y1862366D01*
X1329981Y1840134D01*
X1348134Y1821981D01*
X1370366Y1809145D01*
X1395164Y1802500D01*
X1420836D01*
X1445634Y1809145D01*
X1467866Y1821981D01*
X1486019Y1840134D01*
X1498855Y1862366D01*
X1505500Y1887164D01*
Y1912836D01*
X1498855Y1937634D01*
X1486019Y1959866D01*
X1467866Y1978019D01*
X1445634Y1990855D01*
X1420836Y1997500D01*
D02*
G37*
G36*
X404836D02*
X379164D01*
X354366Y1990855D01*
X332134Y1978019D01*
X313981Y1959866D01*
X301145Y1937634D01*
X294500Y1912836D01*
Y1887164D01*
X301145Y1862366D01*
X313981Y1840134D01*
X332134Y1821981D01*
X354366Y1809145D01*
X379164Y1802500D01*
X404836D01*
X429634Y1809145D01*
X451866Y1821981D01*
X470019Y1840134D01*
X482855Y1862366D01*
X489500Y1887164D01*
Y1912836D01*
X482855Y1937634D01*
X470019Y1959866D01*
X451866Y1978019D01*
X429634Y1990855D01*
X404836Y1997500D01*
D02*
G37*
G36*
X6920929Y2112500D02*
X6879071D01*
X6838016Y2104334D01*
X6799344Y2088315D01*
X6764539Y2065060D01*
X6734940Y2035461D01*
X6711685Y2000656D01*
X6695666Y1961984D01*
X6687500Y1920929D01*
Y1879071D01*
X6695666Y1838016D01*
X6711685Y1799344D01*
X6734940Y1764539D01*
X6764539Y1734940D01*
X6799344Y1711685D01*
X6838016Y1695666D01*
X6879071Y1687500D01*
X6920929D01*
X6961984Y1695666D01*
X7000656Y1711685D01*
X7035461Y1734940D01*
X7065060Y1764539D01*
X7088315Y1799344D01*
X7104334Y1838016D01*
X7112500Y1879071D01*
Y1920929D01*
X7104334Y1961984D01*
X7088315Y2000656D01*
X7065060Y2035461D01*
X7035461Y2065060D01*
X7000656Y2088315D01*
X6961984Y2104334D01*
X6920929Y2112500D01*
D02*
G37*
G36*
X4920929D02*
X4879071D01*
X4838016Y2104334D01*
X4799343Y2088315D01*
X4764539Y2065060D01*
X4734940Y2035461D01*
X4711685Y2000656D01*
X4695666Y1961984D01*
X4687500Y1920929D01*
Y1879071D01*
X4695666Y1838016D01*
X4711685Y1799344D01*
X4734940Y1764539D01*
X4764539Y1734940D01*
X4799343Y1711685D01*
X4838016Y1695666D01*
X4879071Y1687500D01*
X4920929D01*
X4961984Y1695666D01*
X5000656Y1711685D01*
X5035461Y1734940D01*
X5065059Y1764539D01*
X5088315Y1799344D01*
X5104333Y1838016D01*
X5112500Y1879071D01*
Y1920929D01*
X5104333Y1961984D01*
X5088315Y2000656D01*
X5065059Y2035461D01*
X5035461Y2065060D01*
X5000656Y2088315D01*
X4961984Y2104334D01*
X4920929Y2112500D01*
D02*
G37*
G36*
X2920929D02*
X2879071D01*
X2838016Y2104334D01*
X2799344Y2088315D01*
X2764539Y2065060D01*
X2734940Y2035461D01*
X2711685Y2000656D01*
X2695666Y1961984D01*
X2687500Y1920929D01*
Y1879071D01*
X2695666Y1838016D01*
X2711685Y1799344D01*
X2734940Y1764539D01*
X2764539Y1734940D01*
X2799344Y1711685D01*
X2838016Y1695666D01*
X2879071Y1687500D01*
X2920929D01*
X2961984Y1695666D01*
X3000656Y1711685D01*
X3035461Y1734940D01*
X3065060Y1764539D01*
X3088315Y1799344D01*
X3104334Y1838016D01*
X3112500Y1879071D01*
Y1920929D01*
X3104334Y1961984D01*
X3088315Y2000656D01*
X3065060Y2035461D01*
X3035461Y2065060D01*
X3000656Y2088315D01*
X2961984Y2104334D01*
X2920929Y2112500D01*
D02*
G37*
G36*
X1920929D02*
X1879071D01*
X1838016Y2104334D01*
X1799344Y2088315D01*
X1764539Y2065060D01*
X1734940Y2035461D01*
X1711685Y2000656D01*
X1695666Y1961984D01*
X1687500Y1920929D01*
Y1879071D01*
X1695666Y1838016D01*
X1711685Y1799344D01*
X1734940Y1764539D01*
X1764539Y1734940D01*
X1799344Y1711685D01*
X1838016Y1695666D01*
X1879071Y1687500D01*
X1920929D01*
X1961984Y1695666D01*
X2000656Y1711685D01*
X2035461Y1734940D01*
X2065060Y1764539D01*
X2088315Y1799344D01*
X2104334Y1838016D01*
X2112500Y1879071D01*
Y1920929D01*
X2104334Y1961984D01*
X2088315Y2000656D01*
X2065060Y2035461D01*
X2035461Y2065060D01*
X2000656Y2088315D01*
X1961984Y2104334D01*
X1920929Y2112500D01*
D02*
G37*
G36*
X920929D02*
X879071D01*
X838016Y2104334D01*
X799344Y2088315D01*
X764539Y2065060D01*
X734940Y2035461D01*
X711685Y2000656D01*
X695666Y1961984D01*
X687500Y1920929D01*
Y1879071D01*
X695666Y1838016D01*
X711685Y1799344D01*
X734940Y1764539D01*
X764539Y1734940D01*
X799344Y1711685D01*
X838016Y1695666D01*
X879071Y1687500D01*
X920929D01*
X961984Y1695666D01*
X1000656Y1711685D01*
X1035461Y1734940D01*
X1065060Y1764539D01*
X1088315Y1799344D01*
X1104334Y1838016D01*
X1112500Y1879071D01*
Y1920929D01*
X1104334Y1961984D01*
X1088315Y2000656D01*
X1065060Y2035461D01*
X1035461Y2065060D01*
X1000656Y2088315D01*
X961984Y2104334D01*
X920929Y2112500D01*
D02*
G37*
G36*
X5920919Y2112495D02*
X5879060D01*
X5838005Y2104329D01*
X5799333Y2088311D01*
X5764528Y2065055D01*
X5734930Y2035456D01*
X5711674Y2000652D01*
X5695656Y1961979D01*
X5687489Y1920925D01*
Y1879066D01*
X5695656Y1838012D01*
X5711674Y1799339D01*
X5734930Y1764535D01*
X5764528Y1734936D01*
X5799333Y1711680D01*
X5838005Y1695662D01*
X5879060Y1687495D01*
X5920919D01*
X5961973Y1695662D01*
X6000646Y1711680D01*
X6035450Y1734936D01*
X6065049Y1764535D01*
X6088304Y1799339D01*
X6104323Y1838012D01*
X6112489Y1879066D01*
Y1920925D01*
X6104323Y1961979D01*
X6088304Y2000652D01*
X6065049Y2035456D01*
X6035450Y2065055D01*
X6000646Y2088311D01*
X5961973Y2104329D01*
X5920919Y2112495D01*
D02*
G37*
G36*
X7057459Y1537500D02*
X7042541D01*
X7028758Y1531791D01*
X7018209Y1521242D01*
X7012500Y1507459D01*
Y1492541D01*
X7018209Y1478758D01*
X7028758Y1468209D01*
X7042541Y1462500D01*
X7057459D01*
X7071242Y1468209D01*
X7081791Y1478758D01*
X7087500Y1492541D01*
Y1507459D01*
X7081791Y1521242D01*
X7071242Y1531791D01*
X7057459Y1537500D01*
D02*
G37*
G36*
X5057459D02*
X5042541D01*
X5028758Y1531791D01*
X5018209Y1521242D01*
X5012500Y1507459D01*
Y1492541D01*
X5018209Y1478758D01*
X5028758Y1468209D01*
X5042541Y1462500D01*
X5057459D01*
X5071242Y1468209D01*
X5081791Y1478758D01*
X5087500Y1492541D01*
Y1507459D01*
X5081791Y1521242D01*
X5071242Y1531791D01*
X5057459Y1537500D01*
D02*
G37*
G36*
X3057459D02*
X3042541D01*
X3028758Y1531791D01*
X3018209Y1521242D01*
X3012500Y1507459D01*
Y1492541D01*
X3018209Y1478758D01*
X3028758Y1468209D01*
X3042541Y1462500D01*
X3057459D01*
X3071242Y1468209D01*
X3081791Y1478758D01*
X3087500Y1492541D01*
Y1507459D01*
X3081791Y1521242D01*
X3071242Y1531791D01*
X3057459Y1537500D01*
D02*
G37*
G36*
X1057459D02*
X1042541D01*
X1028758Y1531791D01*
X1018209Y1521242D01*
X1012500Y1507459D01*
Y1492541D01*
X1018209Y1478758D01*
X1028758Y1468209D01*
X1042541Y1462500D01*
X1057459D01*
X1071242Y1468209D01*
X1081791Y1478758D01*
X1087500Y1492541D01*
Y1507459D01*
X1081791Y1521242D01*
X1071242Y1531791D01*
X1057459Y1537500D01*
D02*
G37*
G36*
X6907459Y1287500D02*
X6892541D01*
X6878758Y1281791D01*
X6868209Y1271242D01*
X6862500Y1257459D01*
Y1242541D01*
X6868209Y1228758D01*
X6878758Y1218209D01*
X6892541Y1212500D01*
X6907459D01*
X6921242Y1218209D01*
X6931791Y1228758D01*
X6937500Y1242541D01*
Y1257459D01*
X6931791Y1271242D01*
X6921242Y1281791D01*
X6907459Y1287500D01*
D02*
G37*
G36*
X4907459D02*
X4892541D01*
X4878758Y1281791D01*
X4868209Y1271242D01*
X4862500Y1257459D01*
Y1242541D01*
X4868209Y1228758D01*
X4878758Y1218209D01*
X4892541Y1212500D01*
X4907459D01*
X4921242Y1218209D01*
X4931791Y1228758D01*
X4937500Y1242541D01*
Y1257459D01*
X4931791Y1271242D01*
X4921242Y1281791D01*
X4907459Y1287500D01*
D02*
G37*
G36*
X2907459D02*
X2892541D01*
X2878758Y1281791D01*
X2868209Y1271242D01*
X2862500Y1257459D01*
Y1242541D01*
X2868209Y1228758D01*
X2878758Y1218209D01*
X2892541Y1212500D01*
X2907459D01*
X2921242Y1218209D01*
X2931791Y1228758D01*
X2937500Y1242541D01*
Y1257459D01*
X2931791Y1271242D01*
X2921242Y1281791D01*
X2907459Y1287500D01*
D02*
G37*
G36*
X907459D02*
X892541D01*
X878758Y1281791D01*
X868209Y1271242D01*
X862500Y1257459D01*
Y1242541D01*
X868209Y1228758D01*
X878758Y1218209D01*
X892541Y1212500D01*
X907459D01*
X921242Y1218209D01*
X931791Y1228758D01*
X937500Y1242541D01*
Y1257459D01*
X931791Y1271242D01*
X921242Y1281791D01*
X907459Y1287500D01*
D02*
G37*
G36*
X4057459Y1237500D02*
X4042541D01*
X4028758Y1231791D01*
X4018209Y1221242D01*
X4012500Y1207459D01*
Y1192541D01*
X4018209Y1178758D01*
X4028758Y1168209D01*
X4042541Y1162500D01*
X4057459D01*
X4071242Y1168209D01*
X4081791Y1178758D01*
X4087500Y1192541D01*
Y1207459D01*
X4081791Y1221242D01*
X4071242Y1231791D01*
X4057459Y1237500D01*
D02*
G37*
G36*
X3957459D02*
X3942541D01*
X3928758Y1231791D01*
X3918209Y1221242D01*
X3912500Y1207459D01*
Y1192541D01*
X3918209Y1178758D01*
X3928758Y1168209D01*
X3942541Y1162500D01*
X3957459D01*
X3971242Y1168209D01*
X3981791Y1178758D01*
X3987500Y1192541D01*
Y1207459D01*
X3981791Y1221242D01*
X3971242Y1231791D01*
X3957459Y1237500D01*
D02*
G37*
G36*
X2807459Y1037500D02*
X2792541D01*
X2778758Y1031791D01*
X2768209Y1021242D01*
X2762500Y1007459D01*
Y992541D01*
X2768209Y978758D01*
X2778758Y968209D01*
X2792541Y962500D01*
X2807459D01*
X2821242Y968209D01*
X2831791Y978758D01*
X2837500Y992541D01*
Y1007459D01*
X2831791Y1021242D01*
X2821242Y1031791D01*
X2807459Y1037500D01*
D02*
G37*
G36*
X2707459D02*
X2692541D01*
X2678758Y1031791D01*
X2668209Y1021242D01*
X2662500Y1007459D01*
Y992541D01*
X2668209Y978758D01*
X2678758Y968209D01*
X2692541Y962500D01*
X2707459D01*
X2721242Y968209D01*
X2731791Y978758D01*
X2737500Y992541D01*
Y1007459D01*
X2731791Y1021242D01*
X2721242Y1031791D01*
X2707459Y1037500D01*
D02*
G37*
G36*
X2607459D02*
X2592541D01*
X2578758Y1031791D01*
X2568209Y1021242D01*
X2562500Y1007459D01*
Y992541D01*
X2568209Y978758D01*
X2578758Y968209D01*
X2592541Y962500D01*
X2607459D01*
X2621242Y968209D01*
X2631791Y978758D01*
X2637500Y992541D01*
Y1007459D01*
X2631791Y1021242D01*
X2621242Y1031791D01*
X2607459Y1037500D01*
D02*
G37*
G36*
X2507459D02*
X2492541D01*
X2478758Y1031791D01*
X2468209Y1021242D01*
X2462500Y1007459D01*
Y992541D01*
X2468209Y978758D01*
X2478758Y968209D01*
X2492541Y962500D01*
X2507459D01*
X2521242Y968209D01*
X2531791Y978758D01*
X2537500Y992541D01*
Y1007459D01*
X2531791Y1021242D01*
X2521242Y1031791D01*
X2507459Y1037500D01*
D02*
G37*
G36*
X6684401Y956196D02*
X6669482D01*
X6655699Y950487D01*
X6645151Y939938D01*
X6639441Y926155D01*
Y911236D01*
X6645151Y897454D01*
X6655699Y886905D01*
X6669482Y881196D01*
X6684401D01*
X6698183Y886905D01*
X6708732Y897454D01*
X6714441Y911236D01*
Y926155D01*
X6708732Y939938D01*
X6698183Y950487D01*
X6684401Y956196D01*
D02*
G37*
G36*
X1781396Y300398D02*
X1693696D01*
Y212699D01*
X1781396D01*
Y300398D01*
D02*
G37*
G36*
X6981396D02*
X6893696D01*
Y212699D01*
X6981396D01*
Y300398D01*
D02*
G37*
G36*
X1668296D02*
X1580596D01*
Y212699D01*
X1668296D01*
Y300398D01*
D02*
G37*
G36*
X6868296D02*
X6780596D01*
Y212699D01*
X6868296D01*
Y300398D01*
D02*
G37*
G36*
X6384523Y287502D02*
X6361484D01*
X6339230Y281539D01*
X6319277Y270019D01*
X6302986Y253728D01*
X6291467Y233776D01*
X6285504Y211522D01*
Y188482D01*
X6291467Y166228D01*
X6302986Y146276D01*
X6319277Y129984D01*
X6339230Y118465D01*
X6361484Y112502D01*
X6384523D01*
X6406778Y118465D01*
X6426730Y129984D01*
X6443021Y146276D01*
X6454541Y166228D01*
X6460504Y188482D01*
Y211522D01*
X6454541Y233776D01*
X6443021Y253728D01*
X6426730Y270019D01*
X6406778Y281539D01*
X6384523Y287502D01*
D02*
G37*
G36*
X6130523D02*
X6107484D01*
X6085230Y281539D01*
X6065277Y270019D01*
X6048986Y253728D01*
X6037467Y233776D01*
X6031504Y211522D01*
Y188482D01*
X6037467Y166228D01*
X6048986Y146276D01*
X6065277Y129984D01*
X6085230Y118465D01*
X6107484Y112502D01*
X6130523D01*
X6152778Y118465D01*
X6172730Y129984D01*
X6189021Y146276D01*
X6200541Y166228D01*
X6206504Y188482D01*
Y211522D01*
X6200541Y233776D01*
X6189021Y253728D01*
X6172730Y270019D01*
X6152778Y281539D01*
X6130523Y287502D01*
D02*
G37*
G36*
X1184523D02*
X1161484D01*
X1139230Y281539D01*
X1119277Y270019D01*
X1102986Y253728D01*
X1091467Y233776D01*
X1085504Y211522D01*
Y188482D01*
X1091467Y166228D01*
X1102986Y146276D01*
X1119277Y129984D01*
X1139230Y118465D01*
X1161484Y112502D01*
X1184523D01*
X1206778Y118465D01*
X1226730Y129984D01*
X1243021Y146276D01*
X1254541Y166228D01*
X1260504Y188482D01*
Y211522D01*
X1254541Y233776D01*
X1243021Y253728D01*
X1226730Y270019D01*
X1206778Y281539D01*
X1184523Y287502D01*
D02*
G37*
G36*
X930523D02*
X907484D01*
X885230Y281539D01*
X865277Y270019D01*
X848986Y253728D01*
X837467Y233776D01*
X831504Y211522D01*
Y188482D01*
X837467Y166228D01*
X848986Y146276D01*
X865277Y129984D01*
X885230Y118465D01*
X907484Y112502D01*
X930523D01*
X952778Y118465D01*
X972730Y129984D01*
X989021Y146276D01*
X1000541Y166228D01*
X1006504Y188482D01*
Y211522D01*
X1000541Y233776D01*
X989021Y253728D01*
X972730Y270019D01*
X952778Y281539D01*
X930523Y287502D01*
D02*
G37*
G36*
X6638516Y287498D02*
X6615476D01*
X6593222Y281535D01*
X6573270Y270016D01*
X6556979Y253725D01*
X6545459Y233772D01*
X6539496Y211518D01*
Y188479D01*
X6545459Y166224D01*
X6556979Y146272D01*
X6573270Y129981D01*
X6593222Y118461D01*
X6615476Y112498D01*
X6638516D01*
X6660770Y118461D01*
X6680722Y129981D01*
X6697013Y146272D01*
X6708533Y166224D01*
X6714496Y188479D01*
Y211518D01*
X6708533Y233772D01*
X6697013Y253725D01*
X6680722Y270016D01*
X6660770Y281535D01*
X6638516Y287498D01*
D02*
G37*
G36*
X1438516D02*
X1415476D01*
X1393222Y281535D01*
X1373270Y270016D01*
X1356978Y253725D01*
X1345459Y233772D01*
X1339496Y211518D01*
Y188479D01*
X1345459Y166224D01*
X1356978Y146272D01*
X1373270Y129981D01*
X1393222Y118461D01*
X1415476Y112498D01*
X1438516D01*
X1460770Y118461D01*
X1480722Y129981D01*
X1497013Y146272D01*
X1508533Y166224D01*
X1514496Y188479D01*
Y211518D01*
X1508533Y233772D01*
X1497013Y253725D01*
X1480722Y270016D01*
X1460770Y281535D01*
X1438516Y287498D01*
D02*
G37*
G36*
X6981396Y187299D02*
X6893696D01*
Y99598D01*
X6981396D01*
Y187299D01*
D02*
G37*
G36*
X6868296D02*
X6780596D01*
Y99598D01*
X6868296D01*
Y187299D01*
D02*
G37*
G36*
X1781396D02*
X1693696D01*
Y99598D01*
X1781396D01*
Y187299D01*
D02*
G37*
G36*
X1668296D02*
X1580596D01*
Y99598D01*
X1668296D01*
Y187299D01*
D02*
G37*
G36*
X3697459Y1057500D02*
X3682541D01*
X3668758Y1051791D01*
X3658209Y1041242D01*
X3652500Y1027459D01*
Y1012541D01*
X3658209Y998758D01*
X3668758Y988209D01*
X3682541Y982500D01*
X3697459D01*
X3711242Y988209D01*
X3721791Y998758D01*
X3727500Y1012541D01*
Y1027459D01*
X3721791Y1041242D01*
X3711242Y1051791D01*
X3697459Y1057500D01*
D02*
G37*
G36*
X3617459Y997500D02*
X3602541D01*
X3588758Y991791D01*
X3578209Y981242D01*
X3572500Y967459D01*
Y952541D01*
X3578209Y938758D01*
X3588758Y928209D01*
X3602541Y922500D01*
X3617459D01*
X3631242Y928209D01*
X3641791Y938758D01*
X3647500Y952541D01*
Y967459D01*
X3641791Y981242D01*
X3631242Y991791D01*
X3617459Y997500D01*
D02*
G37*
G36*
X4037459Y737500D02*
X4022541D01*
X4008758Y731791D01*
X3998209Y721242D01*
X3992500Y707459D01*
Y692541D01*
X3998209Y678758D01*
X4008758Y668209D01*
X4022541Y662500D01*
X4037459D01*
X4051242Y668209D01*
X4061791Y678758D01*
X4067500Y692541D01*
Y707459D01*
X4061791Y721242D01*
X4051242Y731791D01*
X4037459Y737500D01*
D02*
G37*
G36*
X4508392Y300396D02*
X4420693D01*
Y212697D01*
X4508392D01*
Y300396D01*
D02*
G37*
G36*
X4395293D02*
X4307592D01*
Y212697D01*
X4395293D01*
Y300396D01*
D02*
G37*
G36*
X3911520Y287500D02*
X3888480D01*
X3866226Y281537D01*
X3846274Y270017D01*
X3829983Y253726D01*
X3818463Y233774D01*
X3812500Y211520D01*
Y188480D01*
X3818463Y166226D01*
X3829983Y146274D01*
X3846274Y129983D01*
X3866226Y118463D01*
X3888480Y112500D01*
X3911520D01*
X3933774Y118463D01*
X3953726Y129983D01*
X3970017Y146274D01*
X3981537Y166226D01*
X3987500Y188480D01*
Y211520D01*
X3981537Y233774D01*
X3970017Y253726D01*
X3953726Y270017D01*
X3933774Y281537D01*
X3911520Y287500D01*
D02*
G37*
G36*
X3657520D02*
X3634480D01*
X3612226Y281537D01*
X3592274Y270017D01*
X3575983Y253726D01*
X3564463Y233774D01*
X3558500Y211520D01*
Y188480D01*
X3564463Y166226D01*
X3575983Y146274D01*
X3592274Y129983D01*
X3612226Y118463D01*
X3634480Y112500D01*
X3657520D01*
X3679774Y118463D01*
X3699726Y129983D01*
X3716017Y146274D01*
X3727537Y166226D01*
X3733500Y188480D01*
Y211520D01*
X3727537Y233774D01*
X3716017Y253726D01*
X3699726Y270017D01*
X3679774Y281537D01*
X3657520Y287500D01*
D02*
G37*
G36*
X3403520D02*
X3380480D01*
X3358226Y281537D01*
X3338274Y270017D01*
X3321983Y253726D01*
X3310463Y233774D01*
X3304500Y211520D01*
Y188480D01*
X3310463Y166226D01*
X3321983Y146274D01*
X3338274Y129983D01*
X3358226Y118463D01*
X3380480Y112500D01*
X3403520D01*
X3425774Y118463D01*
X3445726Y129983D01*
X3462017Y146274D01*
X3473537Y166226D01*
X3479500Y188480D01*
Y211520D01*
X3473537Y233774D01*
X3462017Y253726D01*
X3445726Y270017D01*
X3425774Y281537D01*
X3403520Y287500D01*
D02*
G37*
G36*
X4165512Y287497D02*
X4142473D01*
X4120218Y281534D01*
X4100266Y270014D01*
X4083975Y253723D01*
X4072455Y233770D01*
X4066492Y211516D01*
Y188477D01*
X4072455Y166223D01*
X4083975Y146270D01*
X4100266Y129979D01*
X4120218Y118460D01*
X4142473Y112497D01*
X4165512D01*
X4187766Y118460D01*
X4207719Y129979D01*
X4224010Y146270D01*
X4235529Y166223D01*
X4241492Y188477D01*
Y211516D01*
X4235529Y233770D01*
X4224010Y253723D01*
X4207719Y270014D01*
X4187766Y281534D01*
X4165512Y287497D01*
D02*
G37*
G36*
X4508392Y187297D02*
X4420693D01*
Y99597D01*
X4508392D01*
Y187297D01*
D02*
G37*
G36*
X4395293D02*
X4307592D01*
Y99597D01*
X4395293D01*
Y187297D01*
D02*
G37*
%LPD*%
D20*
X4500000Y4660000D02*
Y4860000D01*
X3350000Y4950000D02*
X4410000D01*
X4500000Y4860000D01*
X2630000Y4790000D02*
X3190000D01*
X3350000Y4950000D01*
X2500000Y4660000D02*
X2630000Y4790000D01*
D25*
X3646000Y200000D02*
D03*
X3900000D02*
D03*
X4153992Y199997D02*
D03*
X3392000Y200000D02*
D03*
X6626996Y199998D02*
D03*
X6373004Y200002D02*
D03*
X6119004D02*
D03*
X1426996Y199998D02*
D03*
X1173004Y200002D02*
D03*
X919004D02*
D03*
D26*
X4407992Y199997D02*
D03*
X6880996Y199998D02*
D03*
X1680996D02*
D03*
D27*
X1154000Y2408000D02*
D03*
X519000Y2154000D02*
D03*
X1154000Y4408000D02*
D03*
X519000Y4154000D02*
D03*
X3154000Y4408000D02*
D03*
X2519000Y4154000D02*
D03*
X3154000Y2408000D02*
D03*
X2519000Y2154000D02*
D03*
X7154000Y2408000D02*
D03*
X6519000Y2154000D02*
D03*
X5154000Y2408000D02*
D03*
X4519000Y2154000D02*
D03*
X7154000Y4408000D02*
D03*
X6519000Y4154000D02*
D03*
X5154000Y4408000D02*
D03*
X4519000Y4154000D02*
D03*
D28*
X3610986Y4778131D02*
D03*
X4188989D02*
D03*
D29*
X3467489Y5148140D02*
D03*
X4332511D02*
D03*
D30*
X3467489Y4728141D02*
D03*
X4332511D02*
D03*
D31*
X1900000Y3900000D02*
D03*
X5900000D02*
D03*
X5899989Y1899995D02*
D03*
X1900000Y1900000D02*
D03*
D32*
X4219989Y4420000D02*
D03*
Y4520000D02*
D03*
X4140009Y4420000D02*
D03*
Y4520000D02*
D03*
X3580013Y4420000D02*
D03*
Y4520000D02*
D03*
X3660000D02*
D03*
Y4420000D02*
D03*
X2950000Y4900000D02*
D03*
X2650000D02*
D03*
X2350000D02*
D03*
X5450000Y4895000D02*
D03*
X5150000D02*
D03*
X4850000D02*
D03*
X5450000Y5105000D02*
D03*
X5150000D02*
D03*
X4850000D02*
D03*
X2350000D02*
D03*
X2650000D02*
D03*
X2950000D02*
D03*
X4500000Y2660000D02*
D03*
X4700000Y2660000D02*
D03*
X4500000Y460000D02*
D03*
X3260000Y400000D02*
D03*
X4120000Y870000D02*
D03*
X4030000Y700000D02*
D03*
X3950000Y650000D02*
D03*
X6676941Y918696D02*
D03*
X4050000Y1200000D02*
D03*
X3950000D02*
D03*
X3690000Y1020000D02*
D03*
X3610000Y960000D02*
D03*
X2500000Y1000000D02*
D03*
X2600000D02*
D03*
X2700000D02*
D03*
X2800000D02*
D03*
X3740000Y3610000D02*
D03*
X4060000D02*
D03*
X4130000Y4170000D02*
D03*
X3670000D02*
D03*
X3840000Y4500000D02*
D03*
X3970000Y4550000D02*
D03*
X3925819Y3890000D02*
D03*
X3863319D02*
D03*
X4750000Y1500000D02*
D03*
X4900000Y1250000D02*
D03*
X5050000Y1500000D02*
D03*
X2750000D02*
D03*
X2900000Y1250000D02*
D03*
X3050000Y1500000D02*
D03*
X750000D02*
D03*
X900000Y1250000D02*
D03*
X1050000Y1500000D02*
D03*
Y3320000D02*
D03*
X900000Y3570000D02*
D03*
X750000Y3320000D02*
D03*
X3050000D02*
D03*
X2900000Y3570000D02*
D03*
X2750000Y3320000D02*
D03*
X5050000D02*
D03*
X4900000Y3570000D02*
D03*
X4750000Y3320000D02*
D03*
X7050000D02*
D03*
X6900000Y3570000D02*
D03*
X6750000Y3320000D02*
D03*
X7050000Y1500000D02*
D03*
X6900000Y1250000D02*
D03*
X6750000Y1500000D02*
D03*
X500000Y2660000D02*
D03*
X700000Y2660000D02*
D03*
X2500000Y2660000D02*
D03*
X2700000Y2660000D02*
D03*
X6500000Y2660000D02*
D03*
X6700000Y2660000D02*
D03*
X6500000Y4660000D02*
D03*
X6700000Y4660000D02*
D03*
X4500000Y4660000D02*
D03*
X4700000Y4660000D02*
D03*
X2500000Y4660000D02*
D03*
X2700000Y4660000D02*
D03*
X700000D02*
D03*
X500000Y4660000D02*
D03*
%TF.MD5,ce0b48e765c0474e608541926284a1f9*%
M02*
