M48
;Layer_Color=9474304
;FILE_FORMAT=4:4
METRIC,LZ
;TYPE=PLATED
T1F00S00C0.3000
T3F00S00C1.0000
T4F00S00C1.6000
T5F00S00C1.7000
T6F00S00C2.3000
T7F00S00C4.0000
;TYPE=NON_PLATED
T8F00S00C0.6500
%
T01
X0009Y00125
X00075Y0015
X00105
X0007Y00266
X0005Y00266
X0025
Y001
X0026
X0027
X0028
X0029Y00125
X00275Y0015
X00305
X00361Y00096
X00369Y00102
X00395Y0012
X00405
X00412Y00087
X00403Y0007
X00395Y00065
X0045Y00046
X0049Y00125
X00475Y0015
X00505
X0047Y00266
X0045Y00266
X0027Y00266
X00326Y0004
X0065Y00266
X0067Y00266
X00675Y0015
X00705
X0069Y00125
X00667694Y0009187
X00675Y00332
X00705
X0069Y00357
X0067Y00466
X0065Y00466
X00545Y004895
Y005105
X00515
Y004895
X00485
Y005105
X0047Y00466
X0045Y00466
X00421999Y00452
X00414001
Y00442
X00421999
X00413Y00417
X00367
X00366Y00442
X00358001
Y00452
X00366
X00384Y0045
X00397Y00455
X00392582Y00389
X00386332
X00374Y00361
X00406
X0049Y00357
X00505Y00332
X00475
X00305
X00275
X0029Y00357
X0027Y00466
X00265Y0049
X00265Y005105
X00295
X00295Y0049
X00235
X00235Y005105
X0025Y00466
X0007Y00466
X0005Y00466
X0009Y00357
X00105Y00332
X00075
T03
X000919Y0002
X001173
X001427Y0002
X001681
X003392Y0002
X003646
X0039
X00415399Y0002
X00440799
X006119Y0002
X006373
X006627Y0002
X006881
T04
X000519Y002154
X001154Y002408
X002519Y002154
X003154Y002408
X004519Y002154
X005154Y002408
X006519Y002154
X007154Y002408
Y004408
X006519Y004154
X005154Y004408
X004519Y004154
X003154Y004408
X002519Y004154
X001154Y004408
X000519Y004154
T05
X000392Y0019
X001408
X002392
X003408
X004392
X005408
X006392
X007408
Y0039
X006392
X005408
X004392
X003408
X002392
X001408
X000392
T06
X0019Y0019
X00589999Y0019
X0059Y0039
X0019
T07
X0009Y0019
X0029
X0049
X0069
Y0039
X0049
X0029
X0009
T08
X00361099Y00477813
X00418899
M30
