%TF.GenerationSoftware,Altium Limited,Altium Designer,23.4.1 (23)*%
G04 Layer_Physical_Order=1*
G04 Layer_Color=255*
%FSLAX45Y45*%
%MOMM*%
%TF.SameCoordinates,4D4D268D-8FD5-4AED-B812-6AB8C36004BB*%
%TF.FilePolarity,Positive*%
%TF.FileFunction,Copper,L1,Top,Signal*%
%TF.Part,Single*%
G01*
G75*
%TA.AperFunction,SMDPad,CuDef*%
G04:AMPARAMS|DCode=10|XSize=0.9mm|YSize=1.4mm|CornerRadius=0.0675mm|HoleSize=0mm|Usage=FLASHONLY|Rotation=90.000|XOffset=0mm|YOffset=0mm|HoleType=Round|Shape=RoundedRectangle|*
%AMROUNDEDRECTD10*
21,1,0.90000,1.26500,0,0,90.0*
21,1,0.76500,1.40000,0,0,90.0*
1,1,0.13500,0.63250,0.38250*
1,1,0.13500,0.63250,-0.38250*
1,1,0.13500,-0.63250,-0.38250*
1,1,0.13500,-0.63250,0.38250*
%
%ADD10ROUNDEDRECTD10*%
%TA.AperFunction,ConnectorPad*%
%ADD11R,0.60000X1.15001*%
%ADD12R,0.30000X1.15001*%
%TA.AperFunction,SMDPad,CuDef*%
G04:AMPARAMS|DCode=13|XSize=0.6mm|YSize=1.1mm|CornerRadius=0.045mm|HoleSize=0mm|Usage=FLASHONLY|Rotation=270.000|XOffset=0mm|YOffset=0mm|HoleType=Round|Shape=RoundedRectangle|*
%AMROUNDEDRECTD13*
21,1,0.60000,1.01000,0,0,270.0*
21,1,0.51000,1.10000,0,0,270.0*
1,1,0.09000,-0.50500,-0.25500*
1,1,0.09000,-0.50500,0.25500*
1,1,0.09000,0.50500,0.25500*
1,1,0.09000,0.50500,-0.25500*
%
%ADD13ROUNDEDRECTD13*%
G04:AMPARAMS|DCode=14|XSize=0.9mm|YSize=0.8mm|CornerRadius=0.06mm|HoleSize=0mm|Usage=FLASHONLY|Rotation=90.000|XOffset=0mm|YOffset=0mm|HoleType=Round|Shape=RoundedRectangle|*
%AMROUNDEDRECTD14*
21,1,0.90000,0.68000,0,0,90.0*
21,1,0.78000,0.80000,0,0,90.0*
1,1,0.12000,0.34000,0.39000*
1,1,0.12000,0.34000,-0.39000*
1,1,0.12000,-0.34000,-0.39000*
1,1,0.12000,-0.34000,0.39000*
%
%ADD14ROUNDEDRECTD14*%
%ADD15R,0.70000X0.55000*%
%ADD16R,0.30000X0.70000*%
%ADD17R,0.22860X0.76200*%
%ADD18R,0.76200X0.22860*%
%ADD19R,0.86360X0.22860*%
%TA.AperFunction,Conductor*%
%ADD20C,0.50000*%
%ADD21C,0.20000*%
%ADD22C,0.30000*%
%ADD23C,0.25000*%
%ADD24C,0.18162*%
%TA.AperFunction,ComponentPad*%
%ADD25C,1.50000*%
%ADD26R,1.50000X1.50000*%
%ADD27C,2.50000*%
%ADD28C,0.64999*%
%ADD29O,1.00000X1.90000*%
%ADD30O,1.00000X2.10000*%
%ADD31C,4.00000*%
%TA.AperFunction,ViaPad*%
%ADD32C,0.50000*%
G36*
X7620089Y5290239D02*
X7666314Y5271092D01*
X7707915Y5243295D01*
X7743294Y5207915D01*
X7771092Y5166314D01*
X7790239Y5120089D01*
X7800000Y5071017D01*
Y5046000D01*
Y254000D01*
Y228983D01*
X7790239Y179911D01*
X7771092Y133686D01*
X7743294Y92084D01*
X7707915Y56705D01*
X7666314Y28908D01*
X7620089Y9761D01*
X7571017Y0D01*
X228983D01*
X179911Y9761D01*
X133686Y28908D01*
X92084Y56705D01*
X56705Y92084D01*
X28908Y133686D01*
X9761Y179911D01*
X0Y228983D01*
Y254000D01*
Y5046000D01*
Y5071017D01*
X9761Y5120089D01*
X28908Y5166314D01*
X56705Y5207915D01*
X92084Y5243295D01*
X133686Y5271092D01*
X179911Y5290239D01*
X228983Y5300000D01*
X7571017D01*
X7620089Y5290239D01*
D02*
G37*
%LPC*%
G36*
X3480189Y5267519D02*
Y5160840D01*
X3543540D01*
Y5193140D01*
X3540948Y5212824D01*
X3533351Y5231166D01*
X3521265Y5246916D01*
X3505514Y5259002D01*
X3487172Y5266600D01*
X3480189Y5267519D01*
D02*
G37*
G36*
X4345211D02*
Y5160840D01*
X4408562D01*
Y5193140D01*
X4405971Y5212824D01*
X4398373Y5231166D01*
X4386287Y5246916D01*
X4370537Y5259002D01*
X4352195Y5266600D01*
X4345211Y5267519D01*
D02*
G37*
G36*
X3454789D02*
X3447805Y5266600D01*
X3429464Y5259002D01*
X3413713Y5246916D01*
X3401627Y5231166D01*
X3394030Y5212824D01*
X3391438Y5193140D01*
Y5160840D01*
X3454789D01*
Y5267519D01*
D02*
G37*
G36*
X4319811D02*
X4312828Y5266600D01*
X4294486Y5259002D01*
X4278735Y5246916D01*
X4266650Y5231166D01*
X4259052Y5212824D01*
X4256461Y5193140D01*
Y5160840D01*
X4319811D01*
Y5267519D01*
D02*
G37*
G36*
X5663250Y5162877D02*
X5536750D01*
X5529239Y5161383D01*
X5522871Y5157128D01*
X5518617Y5150761D01*
X5517123Y5143250D01*
Y5143235D01*
X5382877D01*
Y5143250D01*
X5381383Y5150761D01*
X5377128Y5157128D01*
X5370761Y5161383D01*
X5363250Y5162877D01*
X5236750D01*
X5229239Y5161383D01*
X5222871Y5157128D01*
X5218617Y5150761D01*
X5217123Y5143250D01*
Y5143235D01*
X5082877D01*
Y5143250D01*
X5081383Y5150761D01*
X5077128Y5157128D01*
X5070760Y5161383D01*
X5063249Y5162877D01*
X4936750D01*
X4929239Y5161383D01*
X4922871Y5157128D01*
X4918617Y5150761D01*
X4917122Y5143250D01*
Y5143235D01*
X4782877D01*
Y5143250D01*
X4781383Y5150761D01*
X4777128Y5157128D01*
X4770761Y5161383D01*
X4763250Y5162877D01*
X4636750D01*
X4629239Y5161383D01*
X4622871Y5157128D01*
X4618617Y5150761D01*
X4617123Y5143250D01*
Y5066750D01*
X4618617Y5059239D01*
X4622871Y5052872D01*
X4629239Y5048617D01*
X4636750Y5047123D01*
X4763250D01*
X4770761Y5048617D01*
X4777128Y5052872D01*
X4781383Y5059239D01*
X4782877Y5066750D01*
Y5066765D01*
X4917122D01*
Y5066750D01*
X4918617Y5059239D01*
X4922871Y5052872D01*
X4929239Y5048617D01*
X4936750Y5047123D01*
X5063249D01*
X5070760Y5048617D01*
X5077128Y5052872D01*
X5081383Y5059239D01*
X5082877Y5066750D01*
Y5066765D01*
X5217123D01*
Y5066750D01*
X5218617Y5059239D01*
X5222871Y5052872D01*
X5229239Y5048617D01*
X5236750Y5047123D01*
X5363250D01*
X5370761Y5048617D01*
X5377128Y5052872D01*
X5381383Y5059239D01*
X5382877Y5066750D01*
Y5066765D01*
X5517123D01*
Y5066750D01*
X5518617Y5059239D01*
X5522871Y5052872D01*
X5529239Y5048617D01*
X5536750Y5047123D01*
X5663250D01*
X5670761Y5048617D01*
X5677128Y5052872D01*
X5681383Y5059239D01*
X5682877Y5066750D01*
Y5143250D01*
X5681383Y5150761D01*
X5677128Y5157128D01*
X5670761Y5161383D01*
X5663250Y5162877D01*
D02*
G37*
G36*
X3163249D02*
X3036750D01*
X3029239Y5161383D01*
X3022871Y5157128D01*
X3018617Y5150761D01*
X3017122Y5143250D01*
Y5143235D01*
X2882877D01*
Y5143250D01*
X2881383Y5150761D01*
X2877128Y5157128D01*
X2870761Y5161383D01*
X2863250Y5162877D01*
X2736750D01*
X2729239Y5161383D01*
X2722871Y5157128D01*
X2718617Y5150761D01*
X2717123Y5143250D01*
Y5143235D01*
X2582877D01*
Y5143250D01*
X2581383Y5150761D01*
X2577128Y5157128D01*
X2570761Y5161383D01*
X2563250Y5162877D01*
X2436750D01*
X2429239Y5161383D01*
X2422871Y5157128D01*
X2418617Y5150761D01*
X2417123Y5143250D01*
Y5143235D01*
X2282877D01*
Y5143250D01*
X2281383Y5150761D01*
X2277128Y5157128D01*
X2270761Y5161383D01*
X2263249Y5162877D01*
X2136750D01*
X2129239Y5161383D01*
X2122871Y5157128D01*
X2118617Y5150761D01*
X2117123Y5143250D01*
Y5066750D01*
X2118617Y5059239D01*
X2122871Y5052872D01*
X2129239Y5048617D01*
X2136750Y5047123D01*
X2263249D01*
X2270761Y5048617D01*
X2277128Y5052872D01*
X2281383Y5059239D01*
X2282877Y5066750D01*
Y5066765D01*
X2417123D01*
Y5066750D01*
X2418617Y5059239D01*
X2422871Y5052872D01*
X2429239Y5048617D01*
X2436750Y5047123D01*
X2563250D01*
X2570761Y5048617D01*
X2577128Y5052872D01*
X2581383Y5059239D01*
X2582877Y5066750D01*
Y5066765D01*
X2717123D01*
Y5066750D01*
X2718617Y5059239D01*
X2722871Y5052872D01*
X2729239Y5048617D01*
X2736750Y5047123D01*
X2863250D01*
X2870761Y5048617D01*
X2877128Y5052872D01*
X2881383Y5059239D01*
X2882877Y5066750D01*
Y5066765D01*
X3017122D01*
Y5066750D01*
X3018617Y5059239D01*
X3022871Y5052872D01*
X3029239Y5048617D01*
X3036750Y5047123D01*
X3163249D01*
X3170760Y5048617D01*
X3177128Y5052872D01*
X3181383Y5059239D01*
X3182877Y5066750D01*
Y5143250D01*
X3181383Y5150761D01*
X3177128Y5157128D01*
X3170760Y5161383D01*
X3163249Y5162877D01*
D02*
G37*
G36*
X4408562Y5135440D02*
X4345211D01*
Y5028762D01*
X4352195Y5029681D01*
X4370537Y5037279D01*
X4386287Y5049365D01*
X4398373Y5065115D01*
X4405971Y5083457D01*
X4408562Y5103140D01*
Y5135440D01*
D02*
G37*
G36*
X3543540D02*
X3480189D01*
Y5028762D01*
X3487172Y5029681D01*
X3505514Y5037279D01*
X3521265Y5049365D01*
X3533351Y5065115D01*
X3540948Y5083457D01*
X3543540Y5103140D01*
Y5135440D01*
D02*
G37*
G36*
X4319811D02*
X4256461D01*
Y5103140D01*
X4259052Y5083457D01*
X4266650Y5065115D01*
X4278735Y5049365D01*
X4294486Y5037279D01*
X4312828Y5029681D01*
X4319811Y5028762D01*
Y5135440D01*
D02*
G37*
G36*
X3454789D02*
X3391438D01*
Y5103140D01*
X3394030Y5083457D01*
X3401627Y5065115D01*
X3413713Y5049365D01*
X3429464Y5037279D01*
X3447805Y5029681D01*
X3454789Y5028762D01*
Y5135440D01*
D02*
G37*
G36*
X5063249Y4966030D02*
X5012699D01*
Y4907700D01*
X5096029D01*
Y4933250D01*
X5093534Y4945794D01*
X5086428Y4956429D01*
X5075794Y4963534D01*
X5063249Y4966030D01*
D02*
G37*
G36*
X4987299D02*
X4936750D01*
X4924206Y4963534D01*
X4913571Y4956429D01*
X4906465Y4945794D01*
X4903970Y4933250D01*
Y4907700D01*
X4987299D01*
Y4966030D01*
D02*
G37*
G36*
X5663250D02*
X5612699D01*
Y4907700D01*
X5696030D01*
Y4933250D01*
X5693534Y4945794D01*
X5686429Y4956429D01*
X5675794Y4963534D01*
X5663250Y4966030D01*
D02*
G37*
G36*
X5363250D02*
X5312700D01*
Y4907700D01*
X5396030D01*
Y4933250D01*
X5393534Y4945794D01*
X5386429Y4956429D01*
X5375794Y4963534D01*
X5363250Y4966030D01*
D02*
G37*
G36*
X3163249D02*
X3112699D01*
Y4907700D01*
X3196029D01*
Y4933250D01*
X3193534Y4945794D01*
X3186428Y4956429D01*
X3175794Y4963534D01*
X3163249Y4966030D01*
D02*
G37*
G36*
X2863250D02*
X2812699D01*
Y4907700D01*
X2896030D01*
Y4933250D01*
X2893534Y4945794D01*
X2886429Y4956429D01*
X2875794Y4963534D01*
X2863250Y4966030D01*
D02*
G37*
G36*
X2563250D02*
X2512700D01*
Y4907700D01*
X2596030D01*
Y4933250D01*
X2593534Y4945794D01*
X2586429Y4956429D01*
X2575794Y4963534D01*
X2563250Y4966030D01*
D02*
G37*
G36*
X2263249D02*
X2212699D01*
Y4907700D01*
X2296029D01*
Y4933250D01*
X2293534Y4945794D01*
X2286428Y4956429D01*
X2275794Y4963534D01*
X2263249Y4966030D01*
D02*
G37*
G36*
X2187299D02*
X2136750D01*
X2124206Y4963534D01*
X2113571Y4956429D01*
X2106465Y4945794D01*
X2103970Y4933250D01*
Y4907700D01*
X2187299D01*
Y4966030D01*
D02*
G37*
G36*
X5587299D02*
X5536750D01*
X5524206Y4963534D01*
X5513571Y4956429D01*
X5506465Y4945794D01*
X5503970Y4933250D01*
Y4907700D01*
X5587299D01*
Y4966030D01*
D02*
G37*
G36*
X5287300D02*
X5236750D01*
X5224206Y4963534D01*
X5213571Y4956429D01*
X5206465Y4945794D01*
X5203970Y4933250D01*
Y4907700D01*
X5287300D01*
Y4966030D01*
D02*
G37*
G36*
X3087299D02*
X3036750D01*
X3024206Y4963534D01*
X3013571Y4956429D01*
X3006465Y4945794D01*
X3003970Y4933250D01*
Y4907700D01*
X3087299D01*
Y4966030D01*
D02*
G37*
G36*
X2787299D02*
X2736750D01*
X2724206Y4963534D01*
X2713571Y4956429D01*
X2706465Y4945794D01*
X2703970Y4933250D01*
Y4907700D01*
X2787299D01*
Y4966030D01*
D02*
G37*
G36*
X2487300D02*
X2436750D01*
X2424206Y4963534D01*
X2413571Y4956429D01*
X2406465Y4945794D01*
X2403970Y4933250D01*
Y4907700D01*
X2487300D01*
Y4966030D01*
D02*
G37*
G36*
X4763250D02*
X4712700D01*
Y4907699D01*
X4796030D01*
Y4933250D01*
X4793534Y4945794D01*
X4786429Y4956429D01*
X4775794Y4963534D01*
X4763250Y4966030D01*
D02*
G37*
G36*
X4687300D02*
X4636750D01*
X4624206Y4963534D01*
X4613571Y4956429D01*
X4606465Y4945794D01*
X4603970Y4933250D01*
Y4907699D01*
X4687300D01*
Y4966030D01*
D02*
G37*
G36*
X5696030Y4882300D02*
X5612699D01*
Y4823970D01*
X5663250D01*
X5675794Y4826465D01*
X5686429Y4833571D01*
X5693534Y4844206D01*
X5696030Y4856750D01*
Y4882300D01*
D02*
G37*
G36*
X5587299D02*
X5503970D01*
Y4856750D01*
X5506465Y4844206D01*
X5513571Y4833571D01*
X5524206Y4826465D01*
X5536750Y4823970D01*
X5587299D01*
Y4882300D01*
D02*
G37*
G36*
X5396030D02*
X5312700D01*
Y4823970D01*
X5363250D01*
X5375794Y4826465D01*
X5386429Y4833571D01*
X5393534Y4844206D01*
X5396030Y4856750D01*
Y4882300D01*
D02*
G37*
G36*
X5287300D02*
X5203970D01*
Y4856750D01*
X5206465Y4844206D01*
X5213571Y4833571D01*
X5224206Y4826465D01*
X5236750Y4823970D01*
X5287300D01*
Y4882300D01*
D02*
G37*
G36*
X5096029Y4882300D02*
X5012699D01*
Y4823970D01*
X5063249D01*
X5075794Y4826465D01*
X5086428Y4833571D01*
X5093534Y4844206D01*
X5096029Y4856750D01*
Y4882300D01*
D02*
G37*
G36*
X4987299D02*
X4903970D01*
Y4856750D01*
X4906465Y4844206D01*
X4913571Y4833571D01*
X4924206Y4826465D01*
X4936750Y4823970D01*
X4987299D01*
Y4882300D01*
D02*
G37*
G36*
X4796030Y4882299D02*
X4712700D01*
Y4823970D01*
X4763250D01*
X4775794Y4826465D01*
X4786429Y4833571D01*
X4793534Y4844206D01*
X4796030Y4856750D01*
Y4882299D01*
D02*
G37*
G36*
X4687300D02*
X4603970D01*
Y4856750D01*
X4606465Y4844206D01*
X4613571Y4833571D01*
X4624206Y4826465D01*
X4636750Y4823970D01*
X4687300D01*
Y4882299D01*
D02*
G37*
G36*
X3196029Y4882300D02*
X3112699D01*
Y4823970D01*
X3163249D01*
X3175794Y4826465D01*
X3186428Y4833571D01*
X3193534Y4844206D01*
X3196029Y4856750D01*
Y4882300D01*
D02*
G37*
G36*
X3087299D02*
X3003970D01*
Y4856750D01*
X3006465Y4844206D01*
X3013571Y4833571D01*
X3024206Y4826465D01*
X3036750Y4823970D01*
X3087299D01*
Y4882300D01*
D02*
G37*
G36*
X2896030D02*
X2812699D01*
Y4823970D01*
X2863250D01*
X2875794Y4826465D01*
X2886429Y4833571D01*
X2893534Y4844206D01*
X2896030Y4856750D01*
Y4882300D01*
D02*
G37*
G36*
X2787299D02*
X2703970D01*
Y4856750D01*
X2706465Y4844206D01*
X2713571Y4833571D01*
X2724206Y4826465D01*
X2736750Y4823970D01*
X2787299D01*
Y4882300D01*
D02*
G37*
G36*
X2596030D02*
X2512700D01*
Y4823970D01*
X2563250D01*
X2575794Y4826465D01*
X2586429Y4833571D01*
X2593534Y4844206D01*
X2596030Y4856750D01*
Y4882300D01*
D02*
G37*
G36*
X2487300D02*
X2403970D01*
Y4856750D01*
X2406465Y4844206D01*
X2413571Y4833571D01*
X2424206Y4826465D01*
X2436750Y4823970D01*
X2487300D01*
Y4882300D01*
D02*
G37*
G36*
X2296029D02*
X2212699D01*
Y4823970D01*
X2263249D01*
X2275794Y4826465D01*
X2286428Y4833571D01*
X2293534Y4844206D01*
X2296029Y4856750D01*
Y4882300D01*
D02*
G37*
G36*
X2187299D02*
X2103970D01*
Y4856750D01*
X2106465Y4844206D01*
X2113571Y4833571D01*
X2124206Y4826465D01*
X2136750Y4823970D01*
X2187299D01*
Y4882300D01*
D02*
G37*
G36*
X4345211Y4857520D02*
Y4740841D01*
X4408562D01*
Y4783141D01*
X4405971Y4802825D01*
X4398373Y4821166D01*
X4386287Y4836917D01*
X4370537Y4849003D01*
X4352195Y4856600D01*
X4345211Y4857520D01*
D02*
G37*
G36*
X3454789D02*
X3447805Y4856600D01*
X3429464Y4849003D01*
X3413713Y4836917D01*
X3401627Y4821166D01*
X3394030Y4802825D01*
X3391438Y4783141D01*
Y4740841D01*
X3454789D01*
Y4857520D01*
D02*
G37*
G36*
X6380000Y4808039D02*
X4620000D01*
X4609270Y4805905D01*
X4600173Y4799827D01*
X4600173Y4799826D01*
X4497847Y4697500D01*
X4492541D01*
X4478758Y4691791D01*
X4468209Y4681242D01*
X4462500Y4667459D01*
Y4652541D01*
X4468209Y4638758D01*
X4478758Y4628209D01*
X4492541Y4622500D01*
X4507459D01*
X4521242Y4628209D01*
X4531791Y4638758D01*
X4537500Y4652541D01*
Y4657847D01*
X4631614Y4751961D01*
X6368386D01*
X6462500Y4657847D01*
Y4652541D01*
X6468209Y4638758D01*
X6478758Y4628209D01*
X6492541Y4622500D01*
X6507459D01*
X6521242Y4628209D01*
X6531791Y4638758D01*
X6537500Y4652541D01*
Y4667459D01*
X6531791Y4681242D01*
X6521242Y4691791D01*
X6507459Y4697500D01*
X6502153D01*
X6399826Y4799827D01*
X6390730Y4805905D01*
X6380000Y4808039D01*
D02*
G37*
G36*
X2430000Y4758039D02*
X570000D01*
X559270Y4755904D01*
X550173Y4749826D01*
X497847Y4697500D01*
X492541D01*
X478758Y4691791D01*
X468209Y4681242D01*
X462500Y4667459D01*
Y4652541D01*
X468209Y4638758D01*
X478758Y4628209D01*
X492541Y4622500D01*
X507459D01*
X521242Y4628209D01*
X531791Y4638758D01*
X537500Y4652541D01*
Y4657847D01*
X581614Y4701961D01*
X2418386D01*
X2462500Y4657847D01*
Y4652541D01*
X2468209Y4638758D01*
X2478758Y4628209D01*
X2492541Y4622500D01*
X2507459D01*
X2521242Y4628209D01*
X2531791Y4638758D01*
X2537500Y4652541D01*
Y4667459D01*
X2531791Y4681242D01*
X2521242Y4691791D01*
X2507459Y4697500D01*
X2502153D01*
X2449827Y4749826D01*
X2440730Y4755904D01*
X2430000Y4758039D01*
D02*
G37*
G36*
X4408562Y4715441D02*
X4345211D01*
Y4598762D01*
X4352195Y4599682D01*
X4370537Y4607280D01*
X4386287Y4619365D01*
X4398373Y4635116D01*
X4405971Y4653458D01*
X4408562Y4673141D01*
Y4715441D01*
D02*
G37*
G36*
X3480189Y4857520D02*
Y4728141D01*
Y4598762D01*
X3487172Y4599682D01*
X3505514Y4607280D01*
X3511913Y4612190D01*
X3524613Y4605927D01*
Y4568959D01*
X3567313D01*
Y4651859D01*
X3592713D01*
Y4568959D01*
X3621766D01*
Y4420003D01*
X3621765Y4420000D01*
X3622500Y4416307D01*
Y4412541D01*
X3623941Y4409062D01*
X3624676Y4405368D01*
X3626768Y4402237D01*
X3628209Y4398758D01*
X3630872Y4396096D01*
X3632964Y4392964D01*
X3636096Y4390872D01*
X3638758Y4388209D01*
X3642237Y4386768D01*
X3645368Y4384676D01*
X3649062Y4383941D01*
X3652541Y4382500D01*
X3656307D01*
X3660000Y4381765D01*
X3663694Y4382500D01*
X3667459D01*
X3670938Y4383941D01*
X3674632Y4384676D01*
X3677765Y4386769D01*
X3681242Y4388209D01*
X3683903Y4390871D01*
X3687037Y4392964D01*
X3689130Y4396097D01*
X3691791Y4398758D01*
X3692831Y4401269D01*
X3696280Y4402184D01*
X3705540Y4402029D01*
X3706906Y4401582D01*
X3708783Y4398774D01*
X3747059Y4360498D01*
Y4307833D01*
X3714500D01*
X3707867Y4306514D01*
X3702244Y4302756D01*
X3698486Y4297133D01*
X3697167Y4290500D01*
Y4282941D01*
X3640000D01*
X3631221Y4281195D01*
X3623778Y4276222D01*
X3573778Y4226221D01*
X3568805Y4218779D01*
X3567059Y4210000D01*
Y4030000D01*
X3568805Y4021221D01*
X3573778Y4013779D01*
X3687137Y3900419D01*
Y3836000D01*
X3688573Y3828782D01*
X3692662Y3822662D01*
X3698781Y3818574D01*
X3706477Y3810006D01*
Y3776015D01*
X3706000D01*
X3693748Y3773578D01*
X3683362Y3766638D01*
X3676422Y3756252D01*
X3673985Y3744000D01*
Y3717700D01*
X3740000D01*
X3806015D01*
Y3744000D01*
X3803578Y3756252D01*
X3796638Y3766638D01*
X3786252Y3773578D01*
X3774000Y3776015D01*
X3773538D01*
Y3810006D01*
X3781218Y3818574D01*
X3787338Y3822662D01*
X3791427Y3828782D01*
X3792862Y3836000D01*
Y3914000D01*
X3791427Y3921218D01*
X3787338Y3927338D01*
X3781218Y3931427D01*
X3774000Y3932863D01*
X3719581D01*
X3612941Y4039502D01*
Y4200498D01*
X3649502Y4237059D01*
X3697652D01*
X3698486Y4232867D01*
X3702244Y4227244D01*
X3706741Y4224239D01*
X3707350Y4217500D01*
X3706741Y4210761D01*
X3702244Y4207757D01*
X3693294Y4202904D01*
X3685909Y4204000D01*
X3677459Y4207500D01*
X3662541D01*
X3648758Y4201791D01*
X3638209Y4191242D01*
X3632500Y4177459D01*
Y4162541D01*
X3638209Y4148758D01*
X3648758Y4138209D01*
X3662541Y4132500D01*
X3677459D01*
X3685909Y4136000D01*
X3693294Y4137096D01*
X3702244Y4132244D01*
X3706741Y4129239D01*
X3707350Y4122500D01*
X3706741Y4115761D01*
X3702244Y4112756D01*
X3698486Y4107133D01*
X3697167Y4100500D01*
Y4049500D01*
X3698486Y4042867D01*
X3702244Y4037244D01*
X3707867Y4033486D01*
X3714500Y4032167D01*
X3815500D01*
X3822133Y4033486D01*
X3827756Y4037244D01*
X3831514Y4042867D01*
X3832833Y4049500D01*
Y4052996D01*
X3855023D01*
X3857134Y4050885D01*
Y3927500D01*
X3855860D01*
X3842077Y3921791D01*
X3831528Y3911242D01*
X3825819Y3897460D01*
Y3882541D01*
X3831528Y3868758D01*
X3842077Y3858209D01*
X3855860Y3852500D01*
X3870778D01*
X3884561Y3858209D01*
X3894569Y3868217D01*
X3904577Y3858209D01*
X3918360Y3852500D01*
X3933278D01*
X3947061Y3858209D01*
X3957610Y3868758D01*
X3963319Y3882541D01*
Y3897460D01*
X3957610Y3911242D01*
X3947061Y3921791D01*
X3933278Y3927500D01*
X3932004D01*
Y4050885D01*
X3934114Y4052996D01*
X3967167D01*
Y4049500D01*
X3968486Y4042867D01*
X3972244Y4037244D01*
X3977867Y4033486D01*
X3984500Y4032167D01*
X4085500D01*
X4092133Y4033486D01*
X4097756Y4037244D01*
X4101514Y4042867D01*
X4102833Y4049500D01*
Y4100500D01*
X4101514Y4107133D01*
X4098466Y4113586D01*
X4105677Y4122022D01*
X4107057Y4122943D01*
X4113665Y4132834D01*
X4115986Y4144500D01*
Y4157300D01*
X4035000D01*
X3954014D01*
Y4144500D01*
X3956335Y4132834D01*
X3962944Y4122943D01*
X3964323Y4122022D01*
X3971535Y4113586D01*
X3968486Y4107133D01*
X3967167Y4100500D01*
Y4097004D01*
X3932004D01*
Y4517002D01*
X3944704Y4522263D01*
X3948758Y4518209D01*
X3962541Y4512500D01*
X3977459D01*
X3989350Y4517426D01*
X3996947Y4514433D01*
X4002050Y4511057D01*
Y4395009D01*
X4003796Y4386230D01*
X4008769Y4378788D01*
X4017059Y4370498D01*
Y4307833D01*
X3984500D01*
X3977867Y4306514D01*
X3972244Y4302756D01*
X3968486Y4297133D01*
X3967167Y4290500D01*
Y4239500D01*
X3968486Y4232867D01*
X3971535Y4226414D01*
X3964323Y4217978D01*
X3962944Y4217057D01*
X3956335Y4207166D01*
X3954014Y4195500D01*
Y4182700D01*
X4035000D01*
X4115986D01*
Y4195500D01*
X4113665Y4207166D01*
X4107057Y4217057D01*
X4105677Y4217978D01*
X4099057Y4225722D01*
X4103418Y4237059D01*
X4150498D01*
X4187059Y4200498D01*
Y4039502D01*
X4080420Y3932863D01*
X4026000D01*
X4018782Y3931427D01*
X4012662Y3927338D01*
X4008573Y3921218D01*
X4007138Y3914000D01*
Y3836000D01*
X4008573Y3828782D01*
X4012662Y3822662D01*
X4018781Y3818574D01*
X4026464Y3809992D01*
Y3776015D01*
X4026000D01*
X4013748Y3773578D01*
X4003362Y3766638D01*
X3996422Y3756252D01*
X3993985Y3744000D01*
Y3717700D01*
X4060001D01*
X4126015D01*
Y3744000D01*
X4123578Y3756252D01*
X4116638Y3766638D01*
X4106252Y3773578D01*
X4094000Y3776015D01*
X4093524D01*
Y3809992D01*
X4101219Y3818574D01*
X4107338Y3822662D01*
X4111427Y3828782D01*
X4112862Y3836000D01*
Y3900420D01*
X4226221Y4013778D01*
X4231194Y4021221D01*
X4232941Y4030000D01*
Y4210000D01*
X4231194Y4218779D01*
X4226221Y4226222D01*
X4176221Y4276222D01*
X4168779Y4281195D01*
X4160000Y4282941D01*
X4102833D01*
Y4290500D01*
X4101514Y4297133D01*
X4097756Y4302756D01*
X4092133Y4306514D01*
X4085500Y4307833D01*
X4062941D01*
Y4380000D01*
X4061195Y4388779D01*
X4056222Y4396222D01*
X4047932Y4404511D01*
Y4581859D01*
X4101775D01*
Y4420003D01*
X4101775Y4420000D01*
X4102509Y4416307D01*
Y4412541D01*
X4103950Y4409062D01*
X4104685Y4405368D01*
X4106777Y4402237D01*
X4108218Y4398758D01*
X4110881Y4396096D01*
X4112973Y4392964D01*
X4116105Y4390872D01*
X4118767Y4388209D01*
X4122246Y4386768D01*
X4125378Y4384676D01*
X4129071Y4383941D01*
X4132550Y4382500D01*
X4136316D01*
X4140009Y4381765D01*
X4143703Y4382500D01*
X4147468D01*
X4150947Y4383941D01*
X4154641Y4384676D01*
X4157774Y4386769D01*
X4161251Y4388209D01*
X4163913Y4390871D01*
X4167046Y4392964D01*
X4169139Y4396097D01*
X4171800Y4398758D01*
X4173240Y4402235D01*
X4175334Y4405368D01*
X4176069Y4409064D01*
X4177509Y4412541D01*
Y4416304D01*
X4178244Y4420000D01*
Y4568959D01*
X4207289D01*
Y4651859D01*
X4232689D01*
Y4568959D01*
X4275389D01*
Y4605925D01*
X4288089Y4612188D01*
X4294486Y4607280D01*
X4312828Y4599682D01*
X4319811Y4598762D01*
Y4728141D01*
Y4857520D01*
X4312828Y4856600D01*
X4294486Y4849003D01*
X4278735Y4836917D01*
X4266650Y4821166D01*
X4259052Y4802825D01*
X4256461Y4783141D01*
Y4734760D01*
X4227218D01*
X4221957Y4747460D01*
X4227137Y4752641D01*
X4233988Y4769180D01*
Y4787082D01*
X4227137Y4803621D01*
X4214479Y4816280D01*
X4197940Y4823130D01*
X4180038D01*
X4163498Y4816280D01*
X4150840Y4803621D01*
X4143989Y4787082D01*
Y4769180D01*
X4150840Y4752641D01*
X4158530Y4744951D01*
X4164589Y4734760D01*
Y4721861D01*
X3946998D01*
Y4754366D01*
X3946998Y4754367D01*
X3945323Y4762788D01*
X3940553Y4769926D01*
X3940552Y4769927D01*
X3924920Y4785559D01*
X3917781Y4790329D01*
X3909361Y4792004D01*
X3860000D01*
X3851579Y4790329D01*
X3844441Y4785559D01*
X3844440Y4785559D01*
X3809435Y4750553D01*
X3804665Y4743415D01*
X3802990Y4734994D01*
Y4721861D01*
X3635413D01*
Y4734760D01*
X3641453Y4744959D01*
X3649135Y4752641D01*
X3655986Y4769180D01*
Y4787082D01*
X3649135Y4803621D01*
X3636476Y4816280D01*
X3619937Y4823130D01*
X3602035D01*
X3585496Y4816280D01*
X3572837Y4803621D01*
X3565987Y4787082D01*
Y4769180D01*
X3572837Y4752641D01*
X3578018Y4747460D01*
X3572757Y4734760D01*
X3543540D01*
Y4783141D01*
X3540948Y4802825D01*
X3533351Y4821166D01*
X3521265Y4836917D01*
X3505514Y4849003D01*
X3487172Y4856600D01*
X3480189Y4857520D01*
D02*
G37*
G36*
X3454789Y4715441D02*
X3391438D01*
Y4673141D01*
X3394030Y4653458D01*
X3401627Y4635116D01*
X3413713Y4619365D01*
X3429464Y4607280D01*
X3447805Y4599682D01*
X3454789Y4598762D01*
Y4715441D01*
D02*
G37*
G36*
X7168813Y4558400D02*
X7166700D01*
Y4420700D01*
X7304400D01*
Y4422813D01*
X7298620Y4451870D01*
X7287283Y4479241D01*
X7270823Y4503874D01*
X7249874Y4524823D01*
X7225241Y4541283D01*
X7197870Y4552620D01*
X7168813Y4558400D01*
D02*
G37*
G36*
X7141300D02*
X7139187D01*
X7110130Y4552620D01*
X7082759Y4541283D01*
X7058126Y4524823D01*
X7037177Y4503874D01*
X7020717Y4479241D01*
X7009380Y4451870D01*
X7003600Y4422813D01*
Y4420700D01*
X7141300D01*
Y4558400D01*
D02*
G37*
G36*
X5168813D02*
X5166700D01*
Y4420700D01*
X5304400D01*
Y4422813D01*
X5298620Y4451870D01*
X5287283Y4479241D01*
X5270823Y4503874D01*
X5249874Y4524823D01*
X5225241Y4541283D01*
X5197870Y4552620D01*
X5168813Y4558400D01*
D02*
G37*
G36*
X5141300D02*
X5139187D01*
X5110130Y4552620D01*
X5082759Y4541283D01*
X5058126Y4524823D01*
X5037177Y4503874D01*
X5020717Y4479241D01*
X5009380Y4451870D01*
X5003600Y4422813D01*
Y4420700D01*
X5141300D01*
Y4558400D01*
D02*
G37*
G36*
X3168813D02*
X3166700D01*
Y4420700D01*
X3304400D01*
Y4422813D01*
X3298620Y4451870D01*
X3287283Y4479241D01*
X3270823Y4503874D01*
X3249874Y4524823D01*
X3225241Y4541283D01*
X3197870Y4552620D01*
X3168813Y4558400D01*
D02*
G37*
G36*
X3141300D02*
X3139187D01*
X3110130Y4552620D01*
X3082759Y4541283D01*
X3058126Y4524823D01*
X3037177Y4503874D01*
X3020717Y4479241D01*
X3009380Y4451870D01*
X3003600Y4422813D01*
Y4420700D01*
X3141300D01*
Y4558400D01*
D02*
G37*
G36*
X1168813D02*
X1166700D01*
Y4420700D01*
X1304400D01*
Y4422813D01*
X1298620Y4451870D01*
X1287283Y4479241D01*
X1270823Y4503874D01*
X1249874Y4524823D01*
X1225241Y4541283D01*
X1197870Y4552620D01*
X1168813Y4558400D01*
D02*
G37*
G36*
X1141300D02*
X1139187D01*
X1110130Y4552620D01*
X1082759Y4541283D01*
X1058126Y4524823D01*
X1037177Y4503874D01*
X1020717Y4479241D01*
X1009380Y4451870D01*
X1003600Y4422813D01*
Y4420700D01*
X1141300D01*
Y4558400D01*
D02*
G37*
G36*
X7304400Y4395300D02*
X7166700D01*
Y4257600D01*
X7168813D01*
X7197870Y4263380D01*
X7225241Y4274717D01*
X7249874Y4291177D01*
X7270823Y4312126D01*
X7287283Y4336759D01*
X7298620Y4364130D01*
X7304400Y4393187D01*
Y4395300D01*
D02*
G37*
G36*
X7141300D02*
X7003600D01*
Y4393187D01*
X7009380Y4364130D01*
X7020717Y4336759D01*
X7037177Y4312126D01*
X7058126Y4291177D01*
X7082759Y4274717D01*
X7110130Y4263380D01*
X7139187Y4257600D01*
X7141300D01*
Y4395300D01*
D02*
G37*
G36*
X5304400D02*
X5166700D01*
Y4257600D01*
X5168813D01*
X5197870Y4263380D01*
X5225241Y4274717D01*
X5249874Y4291177D01*
X5270823Y4312126D01*
X5287283Y4336759D01*
X5298620Y4364130D01*
X5304400Y4393187D01*
Y4395300D01*
D02*
G37*
G36*
X5141300D02*
X5003600D01*
Y4393187D01*
X5009380Y4364130D01*
X5020717Y4336759D01*
X5037177Y4312126D01*
X5058126Y4291177D01*
X5082759Y4274717D01*
X5110130Y4263380D01*
X5139187Y4257600D01*
X5141300D01*
Y4395300D01*
D02*
G37*
G36*
X3304400D02*
X3166700D01*
Y4257600D01*
X3168813D01*
X3197870Y4263380D01*
X3225241Y4274717D01*
X3249874Y4291177D01*
X3270823Y4312126D01*
X3287283Y4336759D01*
X3298620Y4364130D01*
X3304400Y4393187D01*
Y4395300D01*
D02*
G37*
G36*
X3141300D02*
X3003600D01*
Y4393187D01*
X3009380Y4364130D01*
X3020717Y4336759D01*
X3037177Y4312126D01*
X3058126Y4291177D01*
X3082759Y4274717D01*
X3110130Y4263380D01*
X3139187Y4257600D01*
X3141300D01*
Y4395300D01*
D02*
G37*
G36*
X1304400D02*
X1166700D01*
Y4257600D01*
X1168813D01*
X1197870Y4263380D01*
X1225241Y4274717D01*
X1249874Y4291177D01*
X1270823Y4312126D01*
X1287283Y4336759D01*
X1298620Y4364130D01*
X1304400Y4393187D01*
Y4395300D01*
D02*
G37*
G36*
X1141300D02*
X1003600D01*
Y4393187D01*
X1009380Y4364130D01*
X1020717Y4336759D01*
X1037177Y4312126D01*
X1058126Y4291177D01*
X1082759Y4274717D01*
X1110130Y4263380D01*
X1139187Y4257600D01*
X1141300D01*
Y4395300D01*
D02*
G37*
G36*
X4537102Y4291500D02*
X4500898D01*
X4465927Y4282130D01*
X4434573Y4264028D01*
X4408972Y4238427D01*
X4390870Y4207073D01*
X4381500Y4172102D01*
Y4135898D01*
X4390870Y4100927D01*
X4408972Y4069573D01*
X4434573Y4043973D01*
X4465927Y4025871D01*
X4500898Y4016500D01*
X4537102D01*
X4572073Y4025871D01*
X4603427Y4043973D01*
X4629027Y4069573D01*
X4647129Y4100927D01*
X4656500Y4135898D01*
Y4172102D01*
X4647129Y4207073D01*
X4629027Y4238427D01*
X4603427Y4264028D01*
X4572073Y4282130D01*
X4537102Y4291500D01*
D02*
G37*
G36*
X2537102D02*
X2500898D01*
X2465927Y4282130D01*
X2434573Y4264028D01*
X2408973Y4238427D01*
X2390871Y4207073D01*
X2381500Y4172102D01*
Y4135898D01*
X2390871Y4100927D01*
X2408973Y4069573D01*
X2434573Y4043973D01*
X2465927Y4025871D01*
X2500898Y4016500D01*
X2537102D01*
X2572073Y4025871D01*
X2603427Y4043973D01*
X2629028Y4069573D01*
X2647130Y4100927D01*
X2656500Y4135898D01*
Y4172102D01*
X2647130Y4207073D01*
X2629028Y4238427D01*
X2603427Y4264028D01*
X2572073Y4282130D01*
X2537102Y4291500D01*
D02*
G37*
G36*
X537102D02*
X500898D01*
X465927Y4282130D01*
X434573Y4264028D01*
X408973Y4238427D01*
X390870Y4207073D01*
X381500Y4172102D01*
Y4135898D01*
X390870Y4100927D01*
X408973Y4069573D01*
X434573Y4043973D01*
X465927Y4025871D01*
X500898Y4016500D01*
X537102D01*
X572073Y4025871D01*
X603427Y4043973D01*
X629027Y4069573D01*
X647130Y4100927D01*
X656500Y4135898D01*
Y4172102D01*
X647130Y4207073D01*
X629027Y4238427D01*
X603427Y4264028D01*
X572073Y4282130D01*
X537102Y4291500D01*
D02*
G37*
G36*
X5922200Y4125400D02*
X5912700D01*
Y3912700D01*
X6125400D01*
Y3922200D01*
X6116738Y3965747D01*
X6099747Y4006767D01*
X6075080Y4043684D01*
X6043684Y4075080D01*
X6006767Y4099747D01*
X5965747Y4116738D01*
X5922200Y4125400D01*
D02*
G37*
G36*
X5887300D02*
X5877800D01*
X5834253Y4116738D01*
X5793233Y4099747D01*
X5756316Y4075080D01*
X5724920Y4043684D01*
X5700253Y4006767D01*
X5683262Y3965747D01*
X5674600Y3922200D01*
Y3912700D01*
X5887300D01*
Y4125400D01*
D02*
G37*
G36*
X1922200D02*
X1912700D01*
Y3912700D01*
X2125400D01*
Y3922200D01*
X2116738Y3965747D01*
X2099747Y4006767D01*
X2075080Y4043684D01*
X2043684Y4075080D01*
X2006767Y4099747D01*
X1965747Y4116738D01*
X1922200Y4125400D01*
D02*
G37*
G36*
X1887300D02*
X1877800D01*
X1834253Y4116738D01*
X1793233Y4099747D01*
X1756316Y4075080D01*
X1724920Y4043684D01*
X1700253Y4006767D01*
X1683262Y3965747D01*
X1674600Y3922200D01*
Y3912700D01*
X1887300D01*
Y4125400D01*
D02*
G37*
G36*
X7420836Y3997500D02*
X7395164D01*
X7370366Y3990855D01*
X7348134Y3978019D01*
X7329981Y3959866D01*
X7317145Y3937634D01*
X7310500Y3912836D01*
Y3887164D01*
X7317145Y3862366D01*
X7329981Y3840134D01*
X7348134Y3821981D01*
X7370366Y3809145D01*
X7395164Y3802500D01*
X7420836D01*
X7445634Y3809145D01*
X7467866Y3821981D01*
X7486019Y3840134D01*
X7498855Y3862366D01*
X7505500Y3887164D01*
Y3912836D01*
X7498855Y3937634D01*
X7486019Y3959866D01*
X7467866Y3978019D01*
X7445634Y3990855D01*
X7420836Y3997500D01*
D02*
G37*
G36*
X6404836D02*
X6379164D01*
X6354366Y3990855D01*
X6332134Y3978019D01*
X6313981Y3959866D01*
X6301145Y3937634D01*
X6294500Y3912836D01*
Y3887164D01*
X6301145Y3862366D01*
X6313981Y3840134D01*
X6332134Y3821981D01*
X6354366Y3809145D01*
X6379164Y3802500D01*
X6404836D01*
X6429634Y3809145D01*
X6451866Y3821981D01*
X6470019Y3840134D01*
X6482855Y3862366D01*
X6489500Y3887164D01*
Y3912836D01*
X6482855Y3937634D01*
X6470019Y3959866D01*
X6451866Y3978019D01*
X6429634Y3990855D01*
X6404836Y3997500D01*
D02*
G37*
G36*
X5420836D02*
X5395164D01*
X5370366Y3990855D01*
X5348134Y3978019D01*
X5329980Y3959866D01*
X5317145Y3937634D01*
X5310500Y3912836D01*
Y3887164D01*
X5317145Y3862366D01*
X5329980Y3840134D01*
X5348134Y3821981D01*
X5370366Y3809145D01*
X5395164Y3802500D01*
X5420836D01*
X5445634Y3809145D01*
X5467866Y3821981D01*
X5486019Y3840134D01*
X5498855Y3862366D01*
X5505500Y3887164D01*
Y3912836D01*
X5498855Y3937634D01*
X5486019Y3959866D01*
X5467866Y3978019D01*
X5445634Y3990855D01*
X5420836Y3997500D01*
D02*
G37*
G36*
X4404836D02*
X4379164D01*
X4354366Y3990855D01*
X4332134Y3978019D01*
X4313980Y3959866D01*
X4301145Y3937634D01*
X4294500Y3912836D01*
Y3887164D01*
X4301145Y3862366D01*
X4313980Y3840134D01*
X4332134Y3821981D01*
X4354366Y3809145D01*
X4379164Y3802500D01*
X4404836D01*
X4429634Y3809145D01*
X4451866Y3821981D01*
X4470019Y3840134D01*
X4482855Y3862366D01*
X4489500Y3887164D01*
Y3912836D01*
X4482855Y3937634D01*
X4470019Y3959866D01*
X4451866Y3978019D01*
X4429634Y3990855D01*
X4404836Y3997500D01*
D02*
G37*
G36*
X3420836D02*
X3395164D01*
X3370366Y3990855D01*
X3348134Y3978019D01*
X3329981Y3959866D01*
X3317145Y3937634D01*
X3310500Y3912836D01*
Y3887164D01*
X3317145Y3862366D01*
X3329981Y3840134D01*
X3348134Y3821981D01*
X3370366Y3809145D01*
X3395164Y3802500D01*
X3420836D01*
X3445634Y3809145D01*
X3467866Y3821981D01*
X3486019Y3840134D01*
X3498855Y3862366D01*
X3505500Y3887164D01*
Y3912836D01*
X3498855Y3937634D01*
X3486019Y3959866D01*
X3467866Y3978019D01*
X3445634Y3990855D01*
X3420836Y3997500D01*
D02*
G37*
G36*
X2404836D02*
X2379164D01*
X2354366Y3990855D01*
X2332134Y3978019D01*
X2313981Y3959866D01*
X2301145Y3937634D01*
X2294500Y3912836D01*
Y3887164D01*
X2301145Y3862366D01*
X2313981Y3840134D01*
X2332134Y3821981D01*
X2354366Y3809145D01*
X2379164Y3802500D01*
X2404836D01*
X2429634Y3809145D01*
X2451866Y3821981D01*
X2470019Y3840134D01*
X2482855Y3862366D01*
X2489500Y3887164D01*
Y3912836D01*
X2482855Y3937634D01*
X2470019Y3959866D01*
X2451866Y3978019D01*
X2429634Y3990855D01*
X2404836Y3997500D01*
D02*
G37*
G36*
X1420836D02*
X1395164D01*
X1370366Y3990855D01*
X1348134Y3978019D01*
X1329981Y3959866D01*
X1317145Y3937634D01*
X1310500Y3912836D01*
Y3887164D01*
X1317145Y3862366D01*
X1329981Y3840134D01*
X1348134Y3821981D01*
X1370366Y3809145D01*
X1395164Y3802500D01*
X1420836D01*
X1445634Y3809145D01*
X1467866Y3821981D01*
X1486019Y3840134D01*
X1498855Y3862366D01*
X1505500Y3887164D01*
Y3912836D01*
X1498855Y3937634D01*
X1486019Y3959866D01*
X1467866Y3978019D01*
X1445634Y3990855D01*
X1420836Y3997500D01*
D02*
G37*
G36*
X404836D02*
X379164D01*
X354366Y3990855D01*
X332134Y3978019D01*
X313981Y3959866D01*
X301145Y3937634D01*
X294500Y3912836D01*
Y3887164D01*
X301145Y3862366D01*
X313981Y3840134D01*
X332134Y3821981D01*
X354366Y3809145D01*
X379164Y3802500D01*
X404836D01*
X429634Y3809145D01*
X451866Y3821981D01*
X470019Y3840134D01*
X482855Y3862366D01*
X489500Y3887164D01*
Y3912836D01*
X482855Y3937634D01*
X470019Y3959866D01*
X451866Y3978019D01*
X429634Y3990855D01*
X404836Y3997500D01*
D02*
G37*
G36*
X6920929Y4112500D02*
X6879071D01*
X6838016Y4104334D01*
X6799344Y4088315D01*
X6764539Y4065060D01*
X6734940Y4035461D01*
X6711685Y4000656D01*
X6695666Y3961984D01*
X6687500Y3920929D01*
Y3879071D01*
X6695666Y3838016D01*
X6711685Y3799344D01*
X6734940Y3764539D01*
X6764539Y3734940D01*
X6799344Y3711685D01*
X6838016Y3695666D01*
X6879071Y3687500D01*
X6920929D01*
X6961984Y3695666D01*
X7000656Y3711685D01*
X7035461Y3734940D01*
X7065060Y3764539D01*
X7088315Y3799344D01*
X7104334Y3838016D01*
X7112500Y3879071D01*
Y3920929D01*
X7104334Y3961984D01*
X7088315Y4000656D01*
X7065060Y4035461D01*
X7035461Y4065060D01*
X7000656Y4088315D01*
X6961984Y4104334D01*
X6920929Y4112500D01*
D02*
G37*
G36*
X4920929D02*
X4879071D01*
X4838016Y4104334D01*
X4799343Y4088315D01*
X4764539Y4065060D01*
X4734940Y4035461D01*
X4711685Y4000656D01*
X4695666Y3961984D01*
X4687500Y3920929D01*
Y3879071D01*
X4695666Y3838016D01*
X4711685Y3799344D01*
X4734940Y3764539D01*
X4764539Y3734940D01*
X4799343Y3711685D01*
X4838016Y3695666D01*
X4879071Y3687500D01*
X4920929D01*
X4961984Y3695666D01*
X5000656Y3711685D01*
X5035461Y3734940D01*
X5065059Y3764539D01*
X5088315Y3799344D01*
X5104333Y3838016D01*
X5112500Y3879071D01*
Y3920929D01*
X5104333Y3961984D01*
X5088315Y4000656D01*
X5065059Y4035461D01*
X5035461Y4065060D01*
X5000656Y4088315D01*
X4961984Y4104334D01*
X4920929Y4112500D01*
D02*
G37*
G36*
X2920929D02*
X2879071D01*
X2838016Y4104334D01*
X2799344Y4088315D01*
X2764539Y4065060D01*
X2734940Y4035461D01*
X2711685Y4000656D01*
X2695666Y3961984D01*
X2687500Y3920929D01*
Y3879071D01*
X2695666Y3838016D01*
X2711685Y3799344D01*
X2734940Y3764539D01*
X2764539Y3734940D01*
X2799344Y3711685D01*
X2838016Y3695666D01*
X2879071Y3687500D01*
X2920929D01*
X2961984Y3695666D01*
X3000656Y3711685D01*
X3035461Y3734940D01*
X3065060Y3764539D01*
X3088315Y3799344D01*
X3104334Y3838016D01*
X3112500Y3879071D01*
Y3920929D01*
X3104334Y3961984D01*
X3088315Y4000656D01*
X3065060Y4035461D01*
X3035461Y4065060D01*
X3000656Y4088315D01*
X2961984Y4104334D01*
X2920929Y4112500D01*
D02*
G37*
G36*
X920929D02*
X879071D01*
X838016Y4104334D01*
X799344Y4088315D01*
X764539Y4065060D01*
X734940Y4035461D01*
X711685Y4000656D01*
X695666Y3961984D01*
X687500Y3920929D01*
Y3879071D01*
X695666Y3838016D01*
X711685Y3799344D01*
X734940Y3764539D01*
X764539Y3734940D01*
X799344Y3711685D01*
X838016Y3695666D01*
X879071Y3687500D01*
X920929D01*
X961984Y3695666D01*
X1000656Y3711685D01*
X1035461Y3734940D01*
X1065060Y3764539D01*
X1088315Y3799344D01*
X1104334Y3838016D01*
X1112500Y3879071D01*
Y3920929D01*
X1104334Y3961984D01*
X1088315Y4000656D01*
X1065060Y4035461D01*
X1035461Y4065060D01*
X1000656Y4088315D01*
X961984Y4104334D01*
X920929Y4112500D01*
D02*
G37*
G36*
X6125400Y3887300D02*
X5912700D01*
Y3674600D01*
X5922200D01*
X5965747Y3683262D01*
X6006767Y3700253D01*
X6043684Y3724920D01*
X6075080Y3756316D01*
X6099747Y3793233D01*
X6116738Y3834253D01*
X6125400Y3877800D01*
Y3887300D01*
D02*
G37*
G36*
X5887300D02*
X5674600D01*
Y3877800D01*
X5683262Y3834253D01*
X5700253Y3793233D01*
X5724920Y3756316D01*
X5756316Y3724920D01*
X5793233Y3700253D01*
X5834253Y3683262D01*
X5877800Y3674600D01*
X5887300D01*
Y3887300D01*
D02*
G37*
G36*
X2125400D02*
X1912700D01*
Y3674600D01*
X1922200D01*
X1965747Y3683262D01*
X2006767Y3700253D01*
X2043684Y3724920D01*
X2075080Y3756316D01*
X2099747Y3793233D01*
X2116738Y3834253D01*
X2125400Y3877800D01*
Y3887300D01*
D02*
G37*
G36*
X1887300D02*
X1674600D01*
Y3877800D01*
X1683262Y3834253D01*
X1700253Y3793233D01*
X1724920Y3756316D01*
X1756316Y3724920D01*
X1793233Y3700253D01*
X1834253Y3683262D01*
X1877800Y3674600D01*
X1887300D01*
Y3887300D01*
D02*
G37*
G36*
X4126015Y3692300D02*
X4072701D01*
Y3633985D01*
X4094000D01*
X4106252Y3636422D01*
X4116638Y3643362D01*
X4123578Y3653749D01*
X4126015Y3666000D01*
Y3692300D01*
D02*
G37*
G36*
X4047301D02*
X3993985D01*
Y3666000D01*
X3996422Y3653749D01*
X4003362Y3643362D01*
X4013748Y3636422D01*
X4026000Y3633985D01*
X4047301D01*
Y3692300D01*
D02*
G37*
G36*
X3806015Y3692300D02*
X3752700D01*
Y3633985D01*
X3774000D01*
X3786252Y3636422D01*
X3796638Y3643362D01*
X3803578Y3653749D01*
X3806015Y3666000D01*
Y3692300D01*
D02*
G37*
G36*
X3727300D02*
X3673985D01*
Y3666000D01*
X3676422Y3653749D01*
X3683362Y3643362D01*
X3693748Y3636422D01*
X3706000Y3633985D01*
X3727300D01*
Y3692300D01*
D02*
G37*
G36*
X6940400Y3549900D02*
X6912700D01*
Y3489499D01*
X6887300D01*
Y3549900D01*
X6859600D01*
Y3537000D01*
X6777500D01*
Y3522490D01*
X5022500D01*
Y3537000D01*
X4940400D01*
Y3549900D01*
X4912700D01*
Y3489499D01*
X4887300D01*
Y3549900D01*
X4859600D01*
Y3537000D01*
X4777500D01*
Y3522490D01*
X3022500D01*
Y3537000D01*
X2940400D01*
Y3549900D01*
X2912700D01*
Y3489500D01*
X2887300D01*
Y3549900D01*
X2859600D01*
Y3537000D01*
X2777500D01*
Y3522490D01*
X1022500D01*
Y3537000D01*
X940400D01*
Y3549900D01*
X912700D01*
Y3489500D01*
X887300D01*
Y3549900D01*
X859600D01*
Y3537000D01*
X777500D01*
Y3522490D01*
X381621D01*
X371867Y3520549D01*
X363597Y3515024D01*
X121976Y3273403D01*
X116451Y3265134D01*
X114510Y3255379D01*
Y1346561D01*
X116451Y1336806D01*
X121976Y1328537D01*
X1147514Y302999D01*
Y283759D01*
X1139230Y281539D01*
X1119277Y270019D01*
X1102986Y253728D01*
X1091467Y233776D01*
X1085504Y211522D01*
Y188482D01*
X1091467Y166228D01*
X1102986Y146276D01*
X1119277Y129984D01*
X1139230Y118465D01*
X1161484Y112502D01*
X1184523D01*
X1206778Y118465D01*
X1226730Y129984D01*
X1243021Y146276D01*
X1254541Y166228D01*
X1260504Y188482D01*
Y211522D01*
X1254541Y233776D01*
X1243021Y253728D01*
X1226730Y270019D01*
X1206778Y281539D01*
X1198493Y283759D01*
Y313557D01*
X1196553Y323312D01*
X1191028Y331581D01*
X165490Y1357119D01*
Y3244821D01*
X392179Y3471510D01*
X777500D01*
Y3457001D01*
X777499D01*
X777500Y3449999D01*
X777500D01*
Y3435490D01*
X470000D01*
X460245Y3433549D01*
X451976Y3428024D01*
X241976Y3218024D01*
X236451Y3209755D01*
X234510Y3200000D01*
Y1408383D01*
X236451Y1398628D01*
X241976Y1390359D01*
X1367794Y264540D01*
X1356978Y253725D01*
X1345459Y233772D01*
X1339496Y211518D01*
Y188479D01*
X1345459Y166224D01*
X1356978Y146272D01*
X1373270Y129981D01*
X1393222Y118461D01*
X1415476Y112498D01*
X1438516D01*
X1460770Y118461D01*
X1480722Y129981D01*
X1497013Y146272D01*
X1508533Y166224D01*
X1514496Y188479D01*
Y211518D01*
X1508533Y233772D01*
X1497013Y253725D01*
X1480722Y270016D01*
X1460770Y281535D01*
X1438516Y287498D01*
X1415476D01*
X1415088Y287394D01*
X1411165Y293266D01*
X285490Y1418941D01*
Y1871722D01*
X298190Y1873394D01*
X301145Y1862366D01*
X313981Y1840134D01*
X332134Y1821981D01*
X354366Y1809145D01*
X379164Y1802500D01*
X404836D01*
X429634Y1809145D01*
X451866Y1821981D01*
X470019Y1840134D01*
X482855Y1862366D01*
X489500Y1887164D01*
Y1912836D01*
X482855Y1937634D01*
X470019Y1959866D01*
X451866Y1978019D01*
X429634Y1990855D01*
X404836Y1997500D01*
X379164D01*
X354366Y1990855D01*
X332134Y1978019D01*
X313981Y1959866D01*
X301145Y1937634D01*
X298190Y1926606D01*
X285490Y1928278D01*
Y3189442D01*
X480558Y3384510D01*
X755467D01*
X764600Y3375900D01*
Y3335700D01*
X825000D01*
Y3323000D01*
X837700D01*
Y3270100D01*
X885400D01*
Y3283000D01*
X1022500D01*
X1022500Y3283000D01*
Y3283000D01*
X1035200Y3285541D01*
X1042541Y3282500D01*
X1057459D01*
X1071242Y3288209D01*
X1081791Y3298758D01*
X1087500Y3312541D01*
Y3327459D01*
X1081791Y3341242D01*
X1071242Y3351791D01*
X1057459Y3357500D01*
X1042541D01*
X1035200Y3354459D01*
X1032371Y3356168D01*
X1022501Y3363000D01*
Y3370000D01*
X1022500D01*
Y3384510D01*
X2755467D01*
X2764600Y3375900D01*
Y3335700D01*
X2825000D01*
Y3323000D01*
X2837700D01*
Y3270100D01*
X2885400D01*
Y3283000D01*
X3022500D01*
X3022500Y3283000D01*
Y3283000D01*
X3035200Y3285541D01*
X3042541Y3282500D01*
X3057459D01*
X3071242Y3288209D01*
X3081791Y3298758D01*
X3087500Y3312541D01*
Y3327459D01*
X3081791Y3341242D01*
X3071242Y3351791D01*
X3057459Y3357500D01*
X3042541D01*
X3035200Y3354459D01*
X3032371Y3356168D01*
X3022501Y3363000D01*
Y3370000D01*
X3022500D01*
Y3384510D01*
X4755466D01*
X4764600Y3375900D01*
Y3335700D01*
X4825000D01*
Y3323000D01*
X4837700D01*
Y3270100D01*
X4885400D01*
Y3283000D01*
X5022499D01*
X5022500Y3283000D01*
Y3283000D01*
X5035200Y3285541D01*
X5042541Y3282500D01*
X5057459D01*
X5071242Y3288209D01*
X5081791Y3298758D01*
X5087500Y3312541D01*
Y3327459D01*
X5081791Y3341242D01*
X5071242Y3351791D01*
X5057459Y3357500D01*
X5042541D01*
X5035200Y3354459D01*
X5032370Y3356168D01*
X5022500Y3363000D01*
Y3370000D01*
X5022500D01*
Y3384510D01*
X6755467D01*
X6764600Y3375900D01*
Y3335700D01*
X6825000D01*
Y3323000D01*
X6837700D01*
Y3270100D01*
X6885400D01*
Y3283000D01*
X7022500D01*
X7022500Y3283000D01*
Y3283000D01*
X7035200Y3285541D01*
X7042541Y3282500D01*
X7057459D01*
X7071242Y3288209D01*
X7081791Y3298758D01*
X7087500Y3312541D01*
Y3327459D01*
X7081791Y3341242D01*
X7071242Y3351791D01*
X7057459Y3357500D01*
X7042541D01*
X7035200Y3354459D01*
X7032370Y3356168D01*
X7022501Y3363000D01*
Y3370000D01*
X7022500D01*
Y3384510D01*
X7209442D01*
X7554510Y3039442D01*
Y1510558D01*
X7479442Y1435490D01*
X7044533D01*
X7035400Y1444100D01*
Y1484300D01*
X6975000D01*
Y1497000D01*
X6962300D01*
Y1549900D01*
X6914600D01*
Y1537000D01*
X6777500D01*
X6777500Y1537000D01*
Y1537000D01*
X6764800Y1534459D01*
X6757459Y1537500D01*
X6742541D01*
X6728758Y1531791D01*
X6718209Y1521242D01*
X6712500Y1507459D01*
Y1492541D01*
X6718209Y1478758D01*
X6728758Y1468209D01*
X6742541Y1462500D01*
X6757459D01*
X6764800Y1465541D01*
X6767629Y1463832D01*
X6777499Y1457000D01*
Y1450000D01*
X6777500D01*
Y1435490D01*
X5044533D01*
X5035400Y1444100D01*
Y1484300D01*
X4974999D01*
Y1497000D01*
X4962299D01*
Y1549900D01*
X4914600D01*
Y1537000D01*
X4777500D01*
X4777500Y1537000D01*
Y1537000D01*
X4764800Y1534459D01*
X4757459Y1537500D01*
X4742541D01*
X4728758Y1531791D01*
X4718209Y1521242D01*
X4712500Y1507459D01*
Y1492541D01*
X4718209Y1478758D01*
X4728758Y1468209D01*
X4742541Y1462500D01*
X4757459D01*
X4764799Y1465541D01*
X4767629Y1463832D01*
X4777499Y1457000D01*
Y1450000D01*
X4777500D01*
Y1435490D01*
X3044533D01*
X3035400Y1444100D01*
Y1484300D01*
X2974999D01*
Y1497000D01*
X2962299D01*
Y1549900D01*
X2914600D01*
Y1537000D01*
X2777500D01*
X2777500Y1537000D01*
Y1537000D01*
X2764800Y1534459D01*
X2757459Y1537500D01*
X2742541D01*
X2728758Y1531791D01*
X2718209Y1521242D01*
X2712500Y1507459D01*
Y1492541D01*
X2718209Y1478758D01*
X2728758Y1468209D01*
X2742541Y1462500D01*
X2757459D01*
X2764800Y1465541D01*
X2767629Y1463832D01*
X2777499Y1457000D01*
Y1450000D01*
X2777500D01*
Y1435490D01*
X1044533D01*
X1035400Y1444100D01*
Y1484300D01*
X975000D01*
Y1497000D01*
X962300D01*
Y1549900D01*
X914600D01*
Y1537000D01*
X777500D01*
X777500Y1537000D01*
Y1537000D01*
X764800Y1534459D01*
X757459Y1537500D01*
X742541D01*
X728758Y1531791D01*
X718209Y1521242D01*
X712500Y1507459D01*
Y1492541D01*
X718209Y1478758D01*
X728758Y1468209D01*
X742541Y1462500D01*
X757459D01*
X764800Y1465541D01*
X767629Y1463832D01*
X777499Y1457000D01*
Y1450000D01*
X777500D01*
Y1370001D01*
X777499D01*
Y1362999D01*
X777500D01*
Y1283000D01*
X859600D01*
Y1270100D01*
X887300D01*
Y1330500D01*
X912700D01*
Y1270100D01*
X940400D01*
Y1283000D01*
X1022500D01*
Y1297510D01*
X2777500D01*
Y1283000D01*
X2859600D01*
Y1270100D01*
X2887300D01*
Y1330500D01*
X2912700D01*
Y1270100D01*
X2940400D01*
Y1283000D01*
X3022500D01*
Y1297510D01*
X4777500D01*
Y1283000D01*
X4859600D01*
Y1270100D01*
X4887299D01*
Y1330500D01*
X4912699D01*
Y1270100D01*
X4940400D01*
Y1283000D01*
X5022500D01*
Y1297510D01*
X6777500D01*
Y1283000D01*
X6859600D01*
Y1270100D01*
X6887299D01*
Y1330500D01*
X6912699D01*
Y1270100D01*
X6940400D01*
Y1283000D01*
X7022500D01*
Y1297510D01*
X7523000D01*
X7532755Y1299451D01*
X7541024Y1304976D01*
X7678024Y1441976D01*
X7683549Y1450246D01*
X7685490Y1460000D01*
Y3080000D01*
X7683549Y3089755D01*
X7678024Y3098024D01*
X7261024Y3515024D01*
X7252755Y3520549D01*
X7243000Y3522490D01*
X7022500D01*
Y3537000D01*
X6940400D01*
Y3549900D01*
D02*
G37*
G36*
X6812300Y3310300D02*
X6764600D01*
Y3270100D01*
X6812300D01*
Y3310300D01*
D02*
G37*
G36*
X4812300D02*
X4764600D01*
Y3270100D01*
X4812300D01*
Y3310300D01*
D02*
G37*
G36*
X2812300D02*
X2764600D01*
Y3270100D01*
X2812300D01*
Y3310300D01*
D02*
G37*
G36*
X812300D02*
X764600D01*
Y3270100D01*
X812300D01*
Y3310300D01*
D02*
G37*
G36*
X6380000Y2808039D02*
X4620000D01*
X4609270Y2805904D01*
X4600173Y2799827D01*
X4600173Y2799826D01*
X4500000Y2699653D01*
X4399826Y2799827D01*
X4390730Y2805904D01*
X4380000Y2808039D01*
X2620000D01*
X2609270Y2805904D01*
X2600173Y2799827D01*
X2600173Y2799826D01*
X2500000Y2699653D01*
X2399827Y2799827D01*
X2390730Y2805904D01*
X2380000Y2808039D01*
X620000D01*
X609270Y2805904D01*
X600174Y2799827D01*
X600173Y2799826D01*
X497847Y2697500D01*
X492541D01*
X478758Y2691791D01*
X468209Y2681242D01*
X462500Y2667459D01*
Y2652541D01*
X468209Y2638758D01*
X478758Y2628209D01*
X492541Y2622500D01*
X507459D01*
X521242Y2628209D01*
X531791Y2638758D01*
X537500Y2652541D01*
Y2657847D01*
X631614Y2751961D01*
X2368386D01*
X2462500Y2657847D01*
Y2652541D01*
X2468209Y2638758D01*
X2478758Y2628209D01*
X2492541Y2622500D01*
X2507459D01*
X2521242Y2628209D01*
X2531791Y2638758D01*
X2537500Y2652541D01*
Y2657847D01*
X2631614Y2751961D01*
X4368386D01*
X4462500Y2657848D01*
Y2652541D01*
X4468209Y2638758D01*
X4478758Y2628209D01*
X4492540Y2622500D01*
X4507459D01*
X4521242Y2628209D01*
X4531791Y2638758D01*
X4537500Y2652541D01*
Y2657847D01*
X4631614Y2751961D01*
X6368386D01*
X6462500Y2657847D01*
Y2652541D01*
X6468209Y2638758D01*
X6478758Y2628209D01*
X6492541Y2622500D01*
X6507459D01*
X6521242Y2628209D01*
X6531791Y2638758D01*
X6537500Y2652541D01*
Y2667459D01*
X6531791Y2681242D01*
X6521242Y2691791D01*
X6507459Y2697500D01*
X6502153D01*
X6399826Y2799827D01*
X6390730Y2805904D01*
X6380000Y2808039D01*
D02*
G37*
G36*
X7168813Y2558400D02*
X7166700D01*
Y2420700D01*
X7304400D01*
Y2422813D01*
X7298620Y2451870D01*
X7287283Y2479241D01*
X7270823Y2503874D01*
X7249874Y2524823D01*
X7225241Y2541283D01*
X7197870Y2552620D01*
X7168813Y2558400D01*
D02*
G37*
G36*
X7141300D02*
X7139187D01*
X7110130Y2552620D01*
X7082759Y2541283D01*
X7058126Y2524823D01*
X7037177Y2503874D01*
X7020717Y2479241D01*
X7009380Y2451870D01*
X7003600Y2422813D01*
Y2420700D01*
X7141300D01*
Y2558400D01*
D02*
G37*
G36*
X5168813D02*
X5166700D01*
Y2420700D01*
X5304400D01*
Y2422813D01*
X5298620Y2451870D01*
X5287283Y2479241D01*
X5270823Y2503874D01*
X5249874Y2524823D01*
X5225241Y2541283D01*
X5197870Y2552620D01*
X5168813Y2558400D01*
D02*
G37*
G36*
X5141300D02*
X5139187D01*
X5110130Y2552620D01*
X5082759Y2541283D01*
X5058126Y2524823D01*
X5037177Y2503874D01*
X5020717Y2479241D01*
X5009380Y2451870D01*
X5003600Y2422813D01*
Y2420700D01*
X5141300D01*
Y2558400D01*
D02*
G37*
G36*
X3168813D02*
X3166700D01*
Y2420700D01*
X3304400D01*
Y2422813D01*
X3298620Y2451870D01*
X3287283Y2479241D01*
X3270823Y2503874D01*
X3249874Y2524823D01*
X3225241Y2541283D01*
X3197870Y2552620D01*
X3168813Y2558400D01*
D02*
G37*
G36*
X3141300D02*
X3139187D01*
X3110130Y2552620D01*
X3082759Y2541283D01*
X3058126Y2524823D01*
X3037177Y2503874D01*
X3020717Y2479241D01*
X3009380Y2451870D01*
X3003600Y2422813D01*
Y2420700D01*
X3141300D01*
Y2558400D01*
D02*
G37*
G36*
X1168813D02*
X1166700D01*
Y2420700D01*
X1304400D01*
Y2422813D01*
X1298620Y2451870D01*
X1287283Y2479241D01*
X1270823Y2503874D01*
X1249874Y2524823D01*
X1225241Y2541283D01*
X1197870Y2552620D01*
X1168813Y2558400D01*
D02*
G37*
G36*
X1141300D02*
X1139187D01*
X1110130Y2552620D01*
X1082759Y2541283D01*
X1058126Y2524823D01*
X1037177Y2503874D01*
X1020717Y2479241D01*
X1009380Y2451870D01*
X1003600Y2422813D01*
Y2420700D01*
X1141300D01*
Y2558400D01*
D02*
G37*
G36*
X7304400Y2395300D02*
X7166700D01*
Y2257600D01*
X7168813D01*
X7197870Y2263380D01*
X7225241Y2274717D01*
X7249874Y2291177D01*
X7270823Y2312126D01*
X7287283Y2336759D01*
X7298620Y2364130D01*
X7304400Y2393187D01*
Y2395300D01*
D02*
G37*
G36*
X7141300D02*
X7003600D01*
Y2393187D01*
X7009380Y2364130D01*
X7020717Y2336759D01*
X7037177Y2312126D01*
X7058126Y2291177D01*
X7082759Y2274717D01*
X7110130Y2263380D01*
X7139187Y2257600D01*
X7141300D01*
Y2395300D01*
D02*
G37*
G36*
X5304400D02*
X5166700D01*
Y2257600D01*
X5168813D01*
X5197870Y2263380D01*
X5225241Y2274717D01*
X5249874Y2291177D01*
X5270823Y2312126D01*
X5287283Y2336759D01*
X5298620Y2364130D01*
X5304400Y2393187D01*
Y2395300D01*
D02*
G37*
G36*
X5141300D02*
X5003600D01*
Y2393187D01*
X5009380Y2364130D01*
X5020717Y2336759D01*
X5037177Y2312126D01*
X5058126Y2291177D01*
X5082759Y2274717D01*
X5110130Y2263380D01*
X5139187Y2257600D01*
X5141300D01*
Y2395300D01*
D02*
G37*
G36*
X3304400D02*
X3166700D01*
Y2257600D01*
X3168813D01*
X3197870Y2263380D01*
X3225241Y2274717D01*
X3249874Y2291177D01*
X3270823Y2312126D01*
X3287283Y2336759D01*
X3298620Y2364130D01*
X3304400Y2393187D01*
Y2395300D01*
D02*
G37*
G36*
X3141300D02*
X3003600D01*
Y2393187D01*
X3009380Y2364130D01*
X3020717Y2336759D01*
X3037177Y2312126D01*
X3058126Y2291177D01*
X3082759Y2274717D01*
X3110130Y2263380D01*
X3139187Y2257600D01*
X3141300D01*
Y2395300D01*
D02*
G37*
G36*
X1304400D02*
X1166700D01*
Y2257600D01*
X1168813D01*
X1197870Y2263380D01*
X1225241Y2274717D01*
X1249874Y2291177D01*
X1270823Y2312126D01*
X1287283Y2336759D01*
X1298620Y2364130D01*
X1304400Y2393187D01*
Y2395300D01*
D02*
G37*
G36*
X1141300D02*
X1003600D01*
Y2393187D01*
X1009380Y2364130D01*
X1020717Y2336759D01*
X1037177Y2312126D01*
X1058126Y2291177D01*
X1082759Y2274717D01*
X1110130Y2263380D01*
X1139187Y2257600D01*
X1141300D01*
Y2395300D01*
D02*
G37*
G36*
X6537102Y2291500D02*
X6500898D01*
X6465927Y2282130D01*
X6434573Y2264027D01*
X6408972Y2238427D01*
X6390870Y2207073D01*
X6381500Y2172102D01*
Y2135898D01*
X6390870Y2100927D01*
X6408972Y2069573D01*
X6434573Y2043973D01*
X6465927Y2025870D01*
X6500898Y2016500D01*
X6537102D01*
X6572073Y2025870D01*
X6603427Y2043973D01*
X6629027Y2069573D01*
X6647129Y2100927D01*
X6656500Y2135898D01*
Y2172102D01*
X6647129Y2207073D01*
X6629027Y2238427D01*
X6603427Y2264027D01*
X6572073Y2282130D01*
X6537102Y2291500D01*
D02*
G37*
G36*
X4537102D02*
X4500898D01*
X4465927Y2282130D01*
X4434573Y2264027D01*
X4408972Y2238427D01*
X4390870Y2207073D01*
X4381500Y2172102D01*
Y2135898D01*
X4390870Y2100927D01*
X4408972Y2069573D01*
X4434573Y2043973D01*
X4465927Y2025870D01*
X4500898Y2016500D01*
X4537102D01*
X4572073Y2025870D01*
X4603427Y2043973D01*
X4629027Y2069573D01*
X4647129Y2100927D01*
X4656500Y2135898D01*
Y2172102D01*
X4647129Y2207073D01*
X4629027Y2238427D01*
X4603427Y2264027D01*
X4572073Y2282130D01*
X4537102Y2291500D01*
D02*
G37*
G36*
X2537102D02*
X2500898D01*
X2465927Y2282130D01*
X2434573Y2264027D01*
X2408973Y2238427D01*
X2390871Y2207073D01*
X2381500Y2172102D01*
Y2135898D01*
X2390871Y2100927D01*
X2408973Y2069573D01*
X2434573Y2043973D01*
X2465927Y2025870D01*
X2500898Y2016500D01*
X2537102D01*
X2572073Y2025870D01*
X2603427Y2043973D01*
X2629028Y2069573D01*
X2647130Y2100927D01*
X2656500Y2135898D01*
Y2172102D01*
X2647130Y2207073D01*
X2629028Y2238427D01*
X2603427Y2264027D01*
X2572073Y2282130D01*
X2537102Y2291500D01*
D02*
G37*
G36*
X537102D02*
X500898D01*
X465927Y2282130D01*
X434573Y2264027D01*
X408973Y2238427D01*
X390870Y2207073D01*
X381500Y2172102D01*
Y2135898D01*
X390870Y2100927D01*
X408973Y2069573D01*
X434573Y2043973D01*
X465927Y2025870D01*
X500898Y2016500D01*
X537102D01*
X572073Y2025870D01*
X603427Y2043973D01*
X629027Y2069573D01*
X647130Y2100927D01*
X656500Y2135898D01*
Y2172102D01*
X647130Y2207073D01*
X629027Y2238427D01*
X603427Y2264027D01*
X572073Y2282130D01*
X537102Y2291500D01*
D02*
G37*
G36*
X1922200Y2125400D02*
X1912700D01*
Y1912700D01*
X2125400D01*
Y1922200D01*
X2116738Y1965747D01*
X2099747Y2006767D01*
X2075080Y2043684D01*
X2043684Y2075080D01*
X2006767Y2099747D01*
X1965747Y2116738D01*
X1922200Y2125400D01*
D02*
G37*
G36*
X1887300D02*
X1877800D01*
X1834253Y2116738D01*
X1793233Y2099747D01*
X1756316Y2075080D01*
X1724920Y2043684D01*
X1700253Y2006767D01*
X1683262Y1965747D01*
X1674600Y1922200D01*
Y1912700D01*
X1887300D01*
Y2125400D01*
D02*
G37*
G36*
X5922189Y2125395D02*
X5912689D01*
Y1912695D01*
X6125389D01*
Y1922195D01*
X6116727Y1965742D01*
X6099736Y2006762D01*
X6075069Y2043679D01*
X6043673Y2075075D01*
X6006756Y2099742D01*
X5965736Y2116733D01*
X5922189Y2125395D01*
D02*
G37*
G36*
X5887289D02*
X5877789D01*
X5834243Y2116733D01*
X5793222Y2099742D01*
X5756305Y2075075D01*
X5724910Y2043679D01*
X5700242Y2006762D01*
X5683251Y1965742D01*
X5674589Y1922195D01*
Y1912695D01*
X5887289D01*
Y2125395D01*
D02*
G37*
G36*
X7420836Y1997500D02*
X7395164D01*
X7370366Y1990855D01*
X7348134Y1978019D01*
X7329981Y1959866D01*
X7317145Y1937634D01*
X7310500Y1912836D01*
Y1887164D01*
X7317145Y1862366D01*
X7329981Y1840134D01*
X7348134Y1821981D01*
X7370366Y1809145D01*
X7395164Y1802500D01*
X7420836D01*
X7445634Y1809145D01*
X7467866Y1821981D01*
X7486019Y1840134D01*
X7498855Y1862366D01*
X7505500Y1887164D01*
Y1912836D01*
X7498855Y1937634D01*
X7486019Y1959866D01*
X7467866Y1978019D01*
X7445634Y1990855D01*
X7420836Y1997500D01*
D02*
G37*
G36*
X6404836D02*
X6379164D01*
X6354366Y1990855D01*
X6332134Y1978019D01*
X6313981Y1959866D01*
X6301145Y1937634D01*
X6294500Y1912836D01*
Y1887164D01*
X6301145Y1862366D01*
X6313981Y1840134D01*
X6332134Y1821981D01*
X6354366Y1809145D01*
X6379164Y1802500D01*
X6404836D01*
X6429634Y1809145D01*
X6451866Y1821981D01*
X6470019Y1840134D01*
X6482855Y1862366D01*
X6489500Y1887164D01*
Y1912836D01*
X6482855Y1937634D01*
X6470019Y1959866D01*
X6451866Y1978019D01*
X6429634Y1990855D01*
X6404836Y1997500D01*
D02*
G37*
G36*
X5420836D02*
X5395164D01*
X5370366Y1990855D01*
X5348134Y1978019D01*
X5329980Y1959866D01*
X5317145Y1937634D01*
X5310500Y1912836D01*
Y1887164D01*
X5317145Y1862366D01*
X5329980Y1840134D01*
X5348134Y1821981D01*
X5370366Y1809145D01*
X5395164Y1802500D01*
X5420836D01*
X5445634Y1809145D01*
X5467866Y1821981D01*
X5486019Y1840134D01*
X5498855Y1862366D01*
X5505500Y1887164D01*
Y1912836D01*
X5498855Y1937634D01*
X5486019Y1959866D01*
X5467866Y1978019D01*
X5445634Y1990855D01*
X5420836Y1997500D01*
D02*
G37*
G36*
X4404836D02*
X4379164D01*
X4354366Y1990855D01*
X4332134Y1978019D01*
X4313980Y1959866D01*
X4301145Y1937634D01*
X4294500Y1912836D01*
Y1887164D01*
X4301145Y1862366D01*
X4313980Y1840134D01*
X4332134Y1821981D01*
X4354366Y1809145D01*
X4379164Y1802500D01*
X4404836D01*
X4429634Y1809145D01*
X4451866Y1821981D01*
X4470019Y1840134D01*
X4482855Y1862366D01*
X4489500Y1887164D01*
Y1912836D01*
X4482855Y1937634D01*
X4470019Y1959866D01*
X4451866Y1978019D01*
X4429634Y1990855D01*
X4404836Y1997500D01*
D02*
G37*
G36*
X3420836D02*
X3395164D01*
X3370366Y1990855D01*
X3348134Y1978019D01*
X3329981Y1959866D01*
X3317145Y1937634D01*
X3310500Y1912836D01*
Y1887164D01*
X3317145Y1862366D01*
X3329981Y1840134D01*
X3348134Y1821981D01*
X3370366Y1809145D01*
X3395164Y1802500D01*
X3420836D01*
X3445634Y1809145D01*
X3467866Y1821981D01*
X3486019Y1840134D01*
X3498855Y1862366D01*
X3505500Y1887164D01*
Y1912836D01*
X3498855Y1937634D01*
X3486019Y1959866D01*
X3467866Y1978019D01*
X3445634Y1990855D01*
X3420836Y1997500D01*
D02*
G37*
G36*
X2404836D02*
X2379164D01*
X2354366Y1990855D01*
X2332134Y1978019D01*
X2313981Y1959866D01*
X2301145Y1937634D01*
X2294500Y1912836D01*
Y1887164D01*
X2301145Y1862366D01*
X2313981Y1840134D01*
X2332134Y1821981D01*
X2354366Y1809145D01*
X2379164Y1802500D01*
X2404836D01*
X2429634Y1809145D01*
X2451866Y1821981D01*
X2470019Y1840134D01*
X2482855Y1862366D01*
X2489500Y1887164D01*
Y1912836D01*
X2482855Y1937634D01*
X2470019Y1959866D01*
X2451866Y1978019D01*
X2429634Y1990855D01*
X2404836Y1997500D01*
D02*
G37*
G36*
X1420836D02*
X1395164D01*
X1370366Y1990855D01*
X1348134Y1978019D01*
X1329981Y1959866D01*
X1317145Y1937634D01*
X1310500Y1912836D01*
Y1887164D01*
X1317145Y1862366D01*
X1329981Y1840134D01*
X1348134Y1821981D01*
X1370366Y1809145D01*
X1395164Y1802500D01*
X1420836D01*
X1445634Y1809145D01*
X1467866Y1821981D01*
X1486019Y1840134D01*
X1498855Y1862366D01*
X1505500Y1887164D01*
Y1912836D01*
X1498855Y1937634D01*
X1486019Y1959866D01*
X1467866Y1978019D01*
X1445634Y1990855D01*
X1420836Y1997500D01*
D02*
G37*
G36*
X6920929Y2112500D02*
X6879071D01*
X6838016Y2104334D01*
X6799344Y2088315D01*
X6764539Y2065060D01*
X6734940Y2035461D01*
X6711685Y2000656D01*
X6695666Y1961984D01*
X6687500Y1920929D01*
Y1879071D01*
X6695666Y1838016D01*
X6711685Y1799344D01*
X6734940Y1764539D01*
X6764539Y1734940D01*
X6799344Y1711685D01*
X6838016Y1695666D01*
X6879071Y1687500D01*
X6920929D01*
X6961984Y1695666D01*
X7000656Y1711685D01*
X7035461Y1734940D01*
X7065060Y1764539D01*
X7088315Y1799344D01*
X7104334Y1838016D01*
X7112500Y1879071D01*
Y1920929D01*
X7104334Y1961984D01*
X7088315Y2000656D01*
X7065060Y2035461D01*
X7035461Y2065060D01*
X7000656Y2088315D01*
X6961984Y2104334D01*
X6920929Y2112500D01*
D02*
G37*
G36*
X4920929D02*
X4879071D01*
X4838016Y2104334D01*
X4799343Y2088315D01*
X4764539Y2065060D01*
X4734940Y2035461D01*
X4711685Y2000656D01*
X4695666Y1961984D01*
X4687500Y1920929D01*
Y1879071D01*
X4695666Y1838016D01*
X4711685Y1799344D01*
X4734940Y1764539D01*
X4764539Y1734940D01*
X4799343Y1711685D01*
X4838016Y1695666D01*
X4879071Y1687500D01*
X4920929D01*
X4961984Y1695666D01*
X5000656Y1711685D01*
X5035461Y1734940D01*
X5065059Y1764539D01*
X5088315Y1799344D01*
X5104333Y1838016D01*
X5112500Y1879071D01*
Y1920929D01*
X5104333Y1961984D01*
X5088315Y2000656D01*
X5065059Y2035461D01*
X5035461Y2065060D01*
X5000656Y2088315D01*
X4961984Y2104334D01*
X4920929Y2112500D01*
D02*
G37*
G36*
X2920929D02*
X2879071D01*
X2838016Y2104334D01*
X2799344Y2088315D01*
X2764539Y2065060D01*
X2734940Y2035461D01*
X2711685Y2000656D01*
X2695666Y1961984D01*
X2687500Y1920929D01*
Y1879071D01*
X2695666Y1838016D01*
X2711685Y1799344D01*
X2734940Y1764539D01*
X2764539Y1734940D01*
X2799344Y1711685D01*
X2838016Y1695666D01*
X2879071Y1687500D01*
X2920929D01*
X2961984Y1695666D01*
X3000656Y1711685D01*
X3035461Y1734940D01*
X3065060Y1764539D01*
X3088315Y1799344D01*
X3104334Y1838016D01*
X3112500Y1879071D01*
Y1920929D01*
X3104334Y1961984D01*
X3088315Y2000656D01*
X3065060Y2035461D01*
X3035461Y2065060D01*
X3000656Y2088315D01*
X2961984Y2104334D01*
X2920929Y2112500D01*
D02*
G37*
G36*
X920929D02*
X879071D01*
X838016Y2104334D01*
X799344Y2088315D01*
X764539Y2065060D01*
X734940Y2035461D01*
X711685Y2000656D01*
X695666Y1961984D01*
X687500Y1920929D01*
Y1879071D01*
X695666Y1838016D01*
X711685Y1799344D01*
X734940Y1764539D01*
X764539Y1734940D01*
X799344Y1711685D01*
X838016Y1695666D01*
X879071Y1687500D01*
X920929D01*
X961984Y1695666D01*
X1000656Y1711685D01*
X1035461Y1734940D01*
X1065060Y1764539D01*
X1088315Y1799344D01*
X1104334Y1838016D01*
X1112500Y1879071D01*
Y1920929D01*
X1104334Y1961984D01*
X1088315Y2000656D01*
X1065060Y2035461D01*
X1035461Y2065060D01*
X1000656Y2088315D01*
X961984Y2104334D01*
X920929Y2112500D01*
D02*
G37*
G36*
X2125400Y1887300D02*
X1912700D01*
Y1674600D01*
X1922200D01*
X1965747Y1683262D01*
X2006767Y1700253D01*
X2043684Y1724920D01*
X2075080Y1756316D01*
X2099747Y1793233D01*
X2116738Y1834253D01*
X2125400Y1877800D01*
Y1887300D01*
D02*
G37*
G36*
X1887300D02*
X1674600D01*
Y1877800D01*
X1683262Y1834253D01*
X1700253Y1793233D01*
X1724920Y1756316D01*
X1756316Y1724920D01*
X1793233Y1700253D01*
X1834253Y1683262D01*
X1877800Y1674600D01*
X1887300D01*
Y1887300D01*
D02*
G37*
G36*
X6125389Y1887295D02*
X5912689D01*
Y1674596D01*
X5922189D01*
X5965736Y1683257D01*
X6006756Y1700249D01*
X6043673Y1724916D01*
X6075069Y1756311D01*
X6099736Y1793229D01*
X6116727Y1834249D01*
X6125389Y1877796D01*
Y1887295D01*
D02*
G37*
G36*
X5887289D02*
X5674589D01*
Y1877796D01*
X5683251Y1834249D01*
X5700242Y1793229D01*
X5724910Y1756311D01*
X5756305Y1724916D01*
X5793222Y1700249D01*
X5834243Y1683257D01*
X5877789Y1674596D01*
X5887289D01*
Y1887295D01*
D02*
G37*
G36*
X3035400Y1549900D02*
X2987699D01*
Y1509700D01*
X3035400D01*
Y1549900D01*
D02*
G37*
G36*
X7035400D02*
X6987700D01*
Y1509700D01*
X7035400D01*
Y1549900D01*
D02*
G37*
G36*
X5035400D02*
X4987699D01*
Y1509700D01*
X5035400D01*
Y1549900D01*
D02*
G37*
G36*
X1035400D02*
X987700D01*
Y1509700D01*
X1035400D01*
Y1549900D01*
D02*
G37*
G36*
X6537102Y4291500D02*
X6500898D01*
X6465927Y4282130D01*
X6434573Y4264028D01*
X6408972Y4238427D01*
X6390870Y4207073D01*
X6381500Y4172102D01*
Y4135898D01*
X6390870Y4100927D01*
X6408972Y4069573D01*
X6434573Y4043973D01*
X6465927Y4025871D01*
X6500898Y4016500D01*
X6537102D01*
X6572073Y4025871D01*
X6603427Y4043973D01*
X6629027Y4069573D01*
X6647129Y4100927D01*
X6655204Y4131059D01*
X7606498D01*
X7706060Y4031497D01*
Y1058503D01*
X7636693Y989136D01*
X4024906D01*
X4016127Y987390D01*
X4011608Y984371D01*
X3986520D01*
X3983930Y996804D01*
Y1075060D01*
X3982941D01*
Y1100498D01*
X4044943Y1162500D01*
X4057459D01*
X4071242Y1168209D01*
X4081791Y1178758D01*
X4087500Y1192541D01*
Y1207459D01*
X4081791Y1221242D01*
X4071242Y1231791D01*
X4057459Y1237500D01*
X4042541D01*
X4028758Y1231791D01*
X4018209Y1221242D01*
X4012500Y1207459D01*
Y1194943D01*
X3994987Y1177430D01*
X3984221Y1184625D01*
X3987500Y1192541D01*
Y1207459D01*
X3981791Y1221242D01*
X3971242Y1231791D01*
X3957459Y1237500D01*
X3942541D01*
X3928758Y1231791D01*
X3918209Y1221242D01*
X3912500Y1207459D01*
Y1192541D01*
X3914174Y1188499D01*
X3903779Y1178104D01*
X3899181Y1171223D01*
X3898619Y1170615D01*
X3885180Y1167262D01*
X3846221Y1206221D01*
X3838779Y1211194D01*
X3830000Y1212941D01*
X3540000D01*
X3531221Y1211194D01*
X3523778Y1206222D01*
X3340498Y1022941D01*
X2830092D01*
X2821242Y1031791D01*
X2807459Y1037500D01*
X2792541D01*
X2778758Y1031791D01*
X2768209Y1021242D01*
X2762500Y1007459D01*
Y992541D01*
X2765779Y984625D01*
X2755013Y977431D01*
X2737500Y994943D01*
Y1007459D01*
X2731791Y1021242D01*
X2721242Y1031791D01*
X2707459Y1037500D01*
X2692541D01*
X2678758Y1031791D01*
X2668209Y1021242D01*
X2662500Y1007459D01*
Y992541D01*
X2665779Y984624D01*
X2655012Y977430D01*
X2637500Y994943D01*
Y1007459D01*
X2631791Y1021242D01*
X2621242Y1031791D01*
X2607459Y1037500D01*
X2592541D01*
X2578758Y1031791D01*
X2568209Y1021242D01*
X2562500Y1007459D01*
Y992541D01*
X2565779Y984625D01*
X2555012Y977431D01*
X2537500Y994943D01*
Y1007459D01*
X2531791Y1021242D01*
X2521242Y1031791D01*
X2507459Y1037500D01*
X2492541D01*
X2478758Y1031791D01*
X2468209Y1021242D01*
X2462500Y1007459D01*
Y992541D01*
X2468209Y978758D01*
X2478758Y968209D01*
X2492541Y962500D01*
X2505057D01*
X2643779Y823778D01*
X2651221Y818806D01*
X2660000Y817059D01*
X3764310D01*
Y816070D01*
X3816070D01*
Y724940D01*
X3817059D01*
Y602693D01*
X3818806Y593914D01*
X3823779Y586472D01*
X3877059Y533191D01*
Y284440D01*
X3866226Y281537D01*
X3846274Y270017D01*
X3829983Y253726D01*
X3818463Y233774D01*
X3812500Y211520D01*
Y188480D01*
X3818463Y166226D01*
X3829983Y146274D01*
X3846274Y129983D01*
X3866226Y118463D01*
X3888480Y112500D01*
X3911520D01*
X3933774Y118463D01*
X3953726Y129983D01*
X3970017Y146274D01*
X3981537Y166226D01*
X3987500Y188480D01*
Y211520D01*
X3981537Y233774D01*
X3970017Y253726D01*
X3953726Y270017D01*
X3933774Y281537D01*
X3922941Y284440D01*
Y526656D01*
X3935641Y531916D01*
X4131051Y336506D01*
Y284436D01*
X4120218Y281534D01*
X4100266Y270014D01*
X4083975Y253723D01*
X4072455Y233770D01*
X4066492Y211516D01*
Y188477D01*
X4072455Y166223D01*
X4083975Y146270D01*
X4100266Y129979D01*
X4120218Y118460D01*
X4142473Y112497D01*
X4165512D01*
X4187766Y118460D01*
X4207719Y129979D01*
X4224010Y146270D01*
X4235529Y166223D01*
X4241492Y188477D01*
Y211516D01*
X4235529Y233770D01*
X4224010Y253723D01*
X4207719Y270014D01*
X4187766Y281534D01*
X4176933Y284436D01*
Y346008D01*
X4175187Y354787D01*
X4170214Y362229D01*
X3927431Y605012D01*
X3934625Y615779D01*
X3942541Y612500D01*
X3957459D01*
X3971242Y618209D01*
X3981791Y628758D01*
X3987500Y642541D01*
Y657459D01*
X3981791Y671242D01*
X3971242Y681791D01*
X3957459Y687500D01*
X3944943D01*
X3942941Y689502D01*
Y712040D01*
X3947300D01*
Y775540D01*
X3960000D01*
Y788240D01*
X3996830D01*
Y816070D01*
X4035690D01*
Y817059D01*
X4055219D01*
X4078087Y794191D01*
X4085530Y789218D01*
X4094309Y787472D01*
X4390085D01*
X4447137Y730419D01*
Y679581D01*
X4265359Y497802D01*
X4260386Y490360D01*
X4258640Y481581D01*
Y111103D01*
X4230478Y82941D01*
X3795502D01*
X3721930Y156514D01*
X3727537Y166226D01*
X3733500Y188480D01*
Y211520D01*
X3727537Y233774D01*
X3716017Y253726D01*
X3699726Y270017D01*
X3679774Y281537D01*
X3657520Y287500D01*
X3634480D01*
X3612226Y281537D01*
X3592274Y270017D01*
X3575983Y253726D01*
X3564463Y233774D01*
X3558500Y211520D01*
Y188480D01*
X3564463Y166226D01*
X3575983Y146274D01*
X3592274Y129983D01*
X3612226Y118463D01*
X3634480Y112500D01*
X3657520D01*
X3679774Y118463D01*
X3689486Y124071D01*
X3769779Y43778D01*
X3777221Y38806D01*
X3786000Y37059D01*
X4239980D01*
X4248759Y38806D01*
X4256202Y43779D01*
X4297802Y85379D01*
X4302775Y92821D01*
X4304521Y101601D01*
Y472079D01*
X4454731Y622288D01*
X4466465Y617428D01*
Y599990D01*
X4458781Y591427D01*
X4452662Y587338D01*
X4448573Y581218D01*
X4447137Y574000D01*
Y496000D01*
X4448573Y488782D01*
X4452662Y482662D01*
X4458781Y478573D01*
X4462500Y467459D01*
Y452541D01*
X4468209Y438758D01*
X4478758Y428209D01*
X4492541Y422500D01*
X4507459D01*
X4521242Y428209D01*
X4531791Y438758D01*
X4537500Y452541D01*
Y467459D01*
X4541219Y478573D01*
X4547338Y482662D01*
X4551427Y488782D01*
X4552862Y496000D01*
Y574000D01*
X4551427Y581218D01*
X4547338Y587338D01*
X4541219Y591427D01*
X4533525Y599990D01*
Y639989D01*
X4541219Y648573D01*
X4547338Y652662D01*
X4551427Y658782D01*
X4552862Y666000D01*
Y744000D01*
X4551427Y751218D01*
X4547338Y757338D01*
X4541218Y761426D01*
X4534000Y762862D01*
X4479580D01*
X4415809Y826634D01*
X4408366Y831607D01*
X4399587Y833353D01*
X4154347D01*
X4149086Y846053D01*
X4151791Y848758D01*
X4157500Y862541D01*
Y877459D01*
X4154912Y883707D01*
X4163220Y896407D01*
X6646197D01*
X6655699Y886905D01*
X6669482Y881196D01*
X6684401D01*
X6698183Y886905D01*
X6708732Y897454D01*
X6714441Y911236D01*
Y926155D01*
X6712619Y930555D01*
X6721105Y943255D01*
X7646196D01*
X7654975Y945001D01*
X7662417Y949974D01*
X7745223Y1032779D01*
X7750195Y1040222D01*
X7751942Y1049001D01*
Y4040999D01*
X7750195Y4049779D01*
X7745222Y4057221D01*
X7632221Y4170222D01*
X7624779Y4175195D01*
X7616000Y4176941D01*
X6655204D01*
X6647129Y4207073D01*
X6629027Y4238427D01*
X6603427Y4264028D01*
X6572073Y4282130D01*
X6537102Y4291500D01*
D02*
G37*
G36*
X3996830Y762840D02*
X3972700D01*
Y712040D01*
X3996830D01*
Y762840D01*
D02*
G37*
G36*
X3267459Y437500D02*
X3252541D01*
X3238758Y431791D01*
X3228209Y421242D01*
X3222500Y407459D01*
Y392541D01*
X3228209Y378758D01*
X3238758Y368209D01*
X3252541Y362500D01*
X3267459D01*
X3281242Y368209D01*
X3291791Y378758D01*
X3297500Y392541D01*
Y407459D01*
X3291791Y421242D01*
X3281242Y431791D01*
X3267459Y437500D01*
D02*
G37*
G36*
X932222Y300402D02*
X931704D01*
Y212701D01*
X1019404D01*
Y213220D01*
X1012562Y238755D01*
X999344Y261649D01*
X980651Y280342D01*
X957757Y293560D01*
X932222Y300402D01*
D02*
G37*
G36*
X6132222D02*
X6131703D01*
Y212701D01*
X6219404D01*
Y213220D01*
X6212562Y238755D01*
X6199344Y261649D01*
X6180651Y280342D01*
X6157757Y293560D01*
X6132222Y300402D01*
D02*
G37*
G36*
X6106303D02*
X6105786D01*
X6080251Y293560D01*
X6057357Y280342D01*
X6038664Y261649D01*
X6025446Y238755D01*
X6018604Y213220D01*
Y212701D01*
X6106303D01*
Y300402D01*
D02*
G37*
G36*
X906304D02*
X905786D01*
X880251Y293560D01*
X857357Y280342D01*
X838664Y261649D01*
X825446Y238755D01*
X818604Y213220D01*
Y212701D01*
X906304D01*
Y300402D01*
D02*
G37*
G36*
X3405218Y300400D02*
X3404700D01*
Y212701D01*
X3492400D01*
Y213218D01*
X3485558Y238753D01*
X3472340Y261647D01*
X3453647Y280340D01*
X3430753Y293558D01*
X3405218Y300400D01*
D02*
G37*
G36*
X3379300D02*
X3378782D01*
X3353247Y293558D01*
X3330353Y280340D01*
X3311660Y261647D01*
X3298442Y238753D01*
X3291600Y213218D01*
Y212701D01*
X3379300D01*
Y300400D01*
D02*
G37*
G36*
X6384523Y287502D02*
X6361484D01*
X6339230Y281539D01*
X6319277Y270019D01*
X6302986Y253728D01*
X6291467Y233776D01*
X6285504Y211522D01*
Y188482D01*
X6291467Y166228D01*
X6302986Y146276D01*
X6319277Y129984D01*
X6339230Y118465D01*
X6361484Y112502D01*
X6384523D01*
X6406778Y118465D01*
X6426730Y129984D01*
X6443021Y146276D01*
X6454541Y166228D01*
X6460504Y188482D01*
Y211522D01*
X6454541Y233776D01*
X6443021Y253728D01*
X6426730Y270019D01*
X6406778Y281539D01*
X6384523Y287502D01*
D02*
G37*
G36*
X6968496Y287498D02*
X6793496D01*
Y112498D01*
X6968496D01*
Y287498D01*
D02*
G37*
G36*
X6638516D02*
X6615476D01*
X6593222Y281535D01*
X6573270Y270016D01*
X6556979Y253725D01*
X6545459Y233772D01*
X6539496Y211518D01*
Y188479D01*
X6545459Y166224D01*
X6556979Y146272D01*
X6573270Y129981D01*
X6593222Y118461D01*
X6615476Y112498D01*
X6638516D01*
X6660770Y118461D01*
X6680722Y129981D01*
X6697013Y146272D01*
X6708533Y166224D01*
X6714496Y188479D01*
Y211518D01*
X6708533Y233772D01*
X6697013Y253725D01*
X6680722Y270016D01*
X6660770Y281535D01*
X6638516Y287498D01*
D02*
G37*
G36*
X1768496D02*
X1593496D01*
Y112498D01*
X1768496D01*
Y287498D01*
D02*
G37*
G36*
X4495492Y287497D02*
X4320492D01*
Y112497D01*
X4495492D01*
Y287497D01*
D02*
G37*
G36*
X6219404Y187301D02*
X6131703D01*
Y99602D01*
X6132222D01*
X6157757Y106444D01*
X6180651Y119662D01*
X6199344Y138355D01*
X6212562Y161249D01*
X6219404Y186784D01*
Y187301D01*
D02*
G37*
G36*
X6106303D02*
X6018604D01*
Y186784D01*
X6025446Y161249D01*
X6038664Y138355D01*
X6057357Y119662D01*
X6080251Y106444D01*
X6105786Y99602D01*
X6106303D01*
Y187301D01*
D02*
G37*
G36*
X1019404D02*
X931704D01*
Y99602D01*
X932222D01*
X957757Y106444D01*
X980651Y119662D01*
X999344Y138355D01*
X1012562Y161249D01*
X1019404Y186784D01*
Y187301D01*
D02*
G37*
G36*
X906304D02*
X818604D01*
Y186784D01*
X825446Y161249D01*
X838664Y138355D01*
X857357Y119662D01*
X880251Y106444D01*
X905786Y99602D01*
X906304D01*
Y187301D01*
D02*
G37*
G36*
X3492400Y187301D02*
X3404700D01*
Y99600D01*
X3405218D01*
X3430753Y106442D01*
X3453647Y119660D01*
X3472340Y138353D01*
X3485558Y161247D01*
X3492400Y186782D01*
Y187301D01*
D02*
G37*
G36*
X3379300D02*
X3291600D01*
Y186782D01*
X3298442Y161247D01*
X3311660Y138353D01*
X3330353Y119660D01*
X3353247Y106442D01*
X3378782Y99600D01*
X3379300D01*
Y187301D01*
D02*
G37*
%LPD*%
D10*
X5600000Y4895000D02*
D03*
Y5105000D02*
D03*
X5300000Y4895000D02*
D03*
Y5105000D02*
D03*
X5000000Y4895000D02*
D03*
Y5105000D02*
D03*
X4700000Y4895000D02*
D03*
Y5105000D02*
D03*
X3100000Y4895000D02*
D03*
Y5105000D02*
D03*
X2800000Y4895000D02*
D03*
Y5105000D02*
D03*
X2500000Y4895000D02*
D03*
Y5105000D02*
D03*
X2200000Y4895000D02*
D03*
Y5105000D02*
D03*
D11*
X3580013Y4651860D02*
D03*
X3660001D02*
D03*
X4140010D02*
D03*
X4219989D02*
D03*
D12*
X3775009D02*
D03*
X3824994D02*
D03*
X3875004D02*
D03*
X3924994D02*
D03*
X3975004D02*
D03*
X4024991D02*
D03*
X4075006D02*
D03*
X3725004D02*
D03*
D13*
X3765000Y4075000D02*
D03*
Y4170000D02*
D03*
Y4265000D02*
D03*
X4035000D02*
D03*
Y4170000D02*
D03*
Y4075000D02*
D03*
D14*
X3740000Y3875000D02*
D03*
Y3705000D02*
D03*
X4060000Y3875000D02*
D03*
Y3705000D02*
D03*
X4500000Y535000D02*
D03*
Y705000D02*
D03*
D15*
X6975000Y3410000D02*
D03*
Y3497000D02*
D03*
X6825000D02*
D03*
X6975000Y3323000D02*
D03*
X6825000D02*
D03*
Y3410000D02*
D03*
X4975000D02*
D03*
Y3497000D02*
D03*
X4825000D02*
D03*
X4975000Y3323000D02*
D03*
X4825000D02*
D03*
Y3410000D02*
D03*
X2975000D02*
D03*
Y3497000D02*
D03*
X2825000D02*
D03*
X2975000Y3323000D02*
D03*
X2825000D02*
D03*
Y3410000D02*
D03*
X975000D02*
D03*
Y3497000D02*
D03*
X825000D02*
D03*
X975000Y3323000D02*
D03*
X825000D02*
D03*
Y3410000D02*
D03*
X825000Y1410000D02*
D03*
Y1323000D02*
D03*
X975000D02*
D03*
X825000Y1497000D02*
D03*
X975000D02*
D03*
Y1410000D02*
D03*
X2825000D02*
D03*
Y1323000D02*
D03*
X2975000D02*
D03*
X2825000Y1497000D02*
D03*
X2975000D02*
D03*
Y1410000D02*
D03*
X4825000D02*
D03*
Y1323000D02*
D03*
X4975000D02*
D03*
X4825000Y1497000D02*
D03*
X4975000D02*
D03*
Y1410000D02*
D03*
X6825000D02*
D03*
Y1323000D02*
D03*
X6975000D02*
D03*
X6825000Y1497000D02*
D03*
X6975000D02*
D03*
Y1410000D02*
D03*
D16*
X6900000Y3489500D02*
D03*
Y3330500D02*
D03*
X4900000Y3489500D02*
D03*
Y3330500D02*
D03*
X2900000Y3489500D02*
D03*
Y3330500D02*
D03*
X900000Y3489500D02*
D03*
Y3330500D02*
D03*
Y1330500D02*
D03*
Y1489500D02*
D03*
X2900000Y1330500D02*
D03*
Y1489500D02*
D03*
X4900000Y1330500D02*
D03*
Y1489500D02*
D03*
X6900000Y1330500D02*
D03*
Y1489500D02*
D03*
D17*
X3960000Y775540D02*
D03*
X3920000D02*
D03*
X3880000D02*
D03*
X3840000D02*
D03*
Y1024460D02*
D03*
X3880000D02*
D03*
X3920000D02*
D03*
X3960000D02*
D03*
D18*
X3814910Y840000D02*
D03*
Y880000D02*
D03*
Y920000D02*
D03*
Y960000D02*
D03*
X3985090D02*
D03*
Y920000D02*
D03*
Y880000D02*
D03*
D19*
X3980010Y840000D02*
D03*
D20*
X2500000Y200000D02*
X3392000D01*
X4219989Y4420000D02*
Y4651860D01*
X4219989Y4420000D02*
X4219989D01*
X4140010D02*
Y4651860D01*
X4140009Y4420000D02*
X4140010D01*
X3580013D02*
Y4651860D01*
X3580013Y4420000D02*
X3580013D01*
X3660000D02*
X3660001D01*
Y4651860D01*
X2200000Y4900000D02*
X3100000D01*
X4700000Y4895000D02*
X5300000D01*
X5600000D01*
X4700000Y5105000D02*
X5300000D01*
X5600000D01*
X2800000D02*
X3100000D01*
X2500000D02*
X2800000D01*
X2200000D02*
X2500000D01*
D21*
X3725004Y4414996D02*
Y4651860D01*
Y4414996D02*
X3770000Y4370000D01*
X4500000Y460000D02*
Y535000D01*
X3900000Y200000D02*
Y542694D01*
X3840000Y602693D02*
Y775540D01*
Y602693D02*
X3900000Y542694D01*
X4239980Y60000D02*
X4281581Y101601D01*
X3786000Y60000D02*
X4239980D01*
X4281581Y101601D02*
Y481581D01*
X4500000Y700000D01*
X3980010Y840000D02*
X4064721D01*
X4094309Y810412D02*
X4399587D01*
X4064721Y840000D02*
X4094309Y810412D01*
X4399587D02*
X4500000Y710000D01*
X3985090Y880000D02*
X4101882D01*
X4111882Y870000D02*
X4120000D01*
X4101882Y880000D02*
X4111882Y870000D01*
X6676289Y919348D02*
X6676941Y918696D01*
X3985742Y919348D02*
X6676289D01*
X3985090Y920000D02*
X3985742Y919348D01*
X3960000Y748870D02*
Y775540D01*
Y748870D02*
X4008870Y700000D01*
X4030000D01*
X3920000Y775540D02*
Y780000D01*
Y680000D02*
Y775540D01*
Y680000D02*
X3950000Y650000D01*
X3646000Y200000D02*
X3786000Y60000D01*
X4500000Y700000D02*
Y705000D01*
X4153992Y199997D02*
Y346008D01*
X3880000Y620000D02*
X4153992Y346008D01*
X3880000Y620000D02*
Y775540D01*
X4500000Y705000D02*
Y710000D01*
X3985090Y960000D02*
X3986520Y961430D01*
X4020140D02*
X4024906Y966196D01*
X3986520Y961430D02*
X4020140D01*
X4024906Y966196D02*
X7646196D01*
X7729001Y1049001D01*
Y4040999D01*
X7616000Y4154000D02*
X7729001Y4040999D01*
X6519000Y4154000D02*
X7616000D01*
X3960000Y1024460D02*
Y1110000D01*
X4050000Y1200000D01*
X3920000Y1024460D02*
Y1161882D01*
X3950000Y1191882D01*
Y1200000D01*
X3690000Y1020000D02*
X3750000Y960000D01*
X3814910D01*
X3610000D02*
Y960000D01*
Y960000D02*
X3650000Y920000D01*
X3814910D01*
X3570684Y1130000D02*
X3810000D01*
X2770000Y930000D02*
X3370684D01*
X3570684Y1130000D01*
X2660000Y840000D02*
X3814910D01*
X2500000Y1000000D02*
X2660000Y840000D01*
X2800000Y1000000D02*
X3350000D01*
X3540000Y1190000D01*
X2700000Y1000000D02*
X2770000Y930000D01*
X2600000Y1000000D02*
X2720000Y880000D01*
X3814910D01*
X3830000Y1190000D02*
X3880000Y1140000D01*
X3540000Y1190000D02*
X3830000D01*
X3880000Y1024460D02*
Y1140000D01*
X3838570Y1025890D02*
Y1101430D01*
X3810000Y1130000D02*
X3838570Y1101430D01*
Y1025890D02*
X3840000Y1024460D01*
X4060000Y3880000D02*
X4210000Y4030000D01*
X4160000Y4260000D02*
X4210000Y4210000D01*
Y4030000D02*
Y4210000D01*
X4040000Y4260000D02*
X4160000D01*
X3765000Y4265000D02*
X3770000Y4270000D01*
X3760000Y4260000D02*
X3765000Y4265000D01*
X3640000Y4260000D02*
X3760000D01*
X3590000Y4030000D02*
Y4210000D01*
X3640000Y4260000D01*
X3740000Y3875000D02*
Y3880000D01*
X3590000Y4030000D02*
X3740000Y3880000D01*
X3770000Y4270000D02*
Y4370000D01*
X4035000Y4265000D02*
X4040000Y4270000D01*
Y4380000D01*
X4024991Y4395009D02*
Y4651860D01*
Y4395009D02*
X4040000Y4380000D01*
D22*
X6380000Y4780000D02*
X6500000Y4660000D01*
X4500000D02*
X4620000Y4780000D01*
X6380000D01*
X4620000Y2780000D02*
X6380000D01*
X4500000Y2660000D02*
X4620000Y2780000D01*
X6380000D02*
X6500000Y2660000D01*
X2620000Y2780000D02*
X4380000D01*
X2500000Y2660000D02*
X2620000Y2780000D01*
X4380000D02*
X4500000Y2660000D01*
X2380000Y2780000D02*
X2500000Y2660000D01*
X500000D02*
X620000Y2780000D01*
X2380000D01*
X500000Y4660000D02*
X570000Y4730000D01*
X2430000D01*
X2500000Y4660000D01*
D23*
X3740000Y3610000D02*
Y3705000D01*
X4060000Y3610000D02*
Y3705000D01*
X4035000Y4170000D02*
X4130000D01*
X3670000D02*
X3765000D01*
X260000Y1408383D02*
Y3200000D01*
X1426996Y199998D02*
Y233823D01*
X1393141Y267678D02*
X1426996Y233823D01*
X1393141Y267678D02*
Y275242D01*
X260000Y1408383D02*
X1393141Y275242D01*
X1173004Y200002D02*
Y313557D01*
X140000Y1346561D02*
Y3255379D01*
Y1346561D02*
X1173004Y313557D01*
X140000Y3255379D02*
X381621Y3497000D01*
X825000D01*
X260000Y3200000D02*
X470000Y3410000D01*
X825000D01*
X975000Y1323000D02*
X2825000D01*
X975000Y1410000D02*
X2825000D01*
X2975000Y1323000D02*
X4825000D01*
X2975000Y1410000D02*
X4825000D01*
X4975000Y1323000D02*
X6825000D01*
X4975000Y1410000D02*
X6825000D01*
X4828750Y1493250D02*
X4897500D01*
X4751500Y1498500D02*
X4823500D01*
X4900000Y1250000D02*
Y1330500D01*
X4975000Y1497000D02*
X5047000D01*
X5050000Y1500000D01*
X2828750Y1493250D02*
X2897500D01*
X2751500Y1498500D02*
X2823500D01*
X2900000Y1250000D02*
Y1330500D01*
X2975000Y1497000D02*
X3047000D01*
X3050000Y1500000D01*
X828750Y1493250D02*
X897500D01*
X751500Y1498500D02*
X823500D01*
X900000Y1250000D02*
Y1330500D01*
X975000Y1497000D02*
X1047000D01*
X1050000Y1500000D01*
X902500Y3326750D02*
X971250D01*
X976500Y3321500D02*
X1048500D01*
X900000Y3489500D02*
Y3570000D01*
X753000Y3323000D02*
X825000D01*
X750000Y3320000D02*
X753000Y3323000D01*
X2902500Y3326750D02*
X2971250D01*
X2976500Y3321500D02*
X3048500D01*
X2900000Y3489500D02*
Y3570000D01*
X2753000Y3323000D02*
X2825000D01*
X2750000Y3320000D02*
X2753000Y3323000D01*
X4902500Y3326750D02*
X4971250D01*
X4976500Y3321500D02*
X5048500D01*
X4900000Y3489500D02*
Y3570000D01*
X4753000Y3323000D02*
X4825000D01*
X4750000Y3320000D02*
X4753000Y3323000D01*
X6902500Y3326750D02*
X6971250D01*
X6976500Y3321500D02*
X7048500D01*
X6900000Y3489500D02*
Y3570000D01*
X6753000Y3323000D02*
X6825000D01*
X6750000Y3320000D02*
X6753000Y3323000D01*
X7047000Y1497000D02*
X7050000Y1500000D01*
X6975000Y1497000D02*
X7047000D01*
X6900000Y1250000D02*
Y1330500D01*
X6823500Y1498500D02*
X6825000Y1497000D01*
X6751500Y1498500D02*
X6823500D01*
X6750000Y1500000D02*
X6751500Y1498500D01*
X6900000Y1489500D02*
Y1490750D01*
X6897500Y1493250D02*
X6900000Y1490750D01*
X6828750Y1493250D02*
X6897500D01*
X6825000Y1497000D02*
X6828750Y1493250D01*
X6975000Y1323000D02*
X7523000D01*
X7660000Y1460000D02*
Y3080000D01*
X7523000Y1323000D02*
X7660000Y1460000D01*
X7490000Y1410000D02*
X7580000Y1500000D01*
Y3050000D01*
X6975000Y1410000D02*
X7490000D01*
X7243000Y3497000D02*
X7660000Y3080000D01*
X7220000Y3410000D02*
X7580000Y3050000D01*
X6975000Y3410000D02*
X7220000D01*
X6975000Y3497000D02*
X7243000D01*
X4975000Y3410000D02*
X6825000D01*
X4975000Y3497000D02*
X6825000D01*
X2975000Y3410000D02*
X4825000D01*
X2975000Y3497000D02*
X4825000D01*
X975000Y3410000D02*
X2825000D01*
X975000Y3497000D02*
X2825000D01*
D24*
X3879138Y4500000D02*
Y4647726D01*
Y4060000D02*
Y4500000D01*
X3840000D02*
X3879138D01*
X3910000Y4060000D02*
Y4582244D01*
X3924994Y4609359D02*
Y4651860D01*
X3911585Y4583829D02*
Y4595951D01*
X3875004Y4651860D02*
X3879138Y4647726D01*
X3910000Y4582244D02*
X3911585Y4583829D01*
Y4595951D02*
X3924994Y4609359D01*
Y4651860D02*
Y4754367D01*
X3970000Y4550000D02*
X3975004Y4555004D01*
Y4651860D01*
X3860000Y4770000D02*
X3909361D01*
X3924994Y4754367D01*
X3824994Y4734994D02*
X3860000Y4770000D01*
X3824994Y4651860D02*
Y4734994D01*
X3925000Y4075000D02*
X4035000D01*
X3910000Y4060000D02*
X3925000Y4075000D01*
X3765000Y4075000D02*
X3864138D01*
X3879138Y4060000D01*
X3910000Y3914434D02*
Y4060000D01*
X3879138Y3914434D02*
Y4060000D01*
X3910000Y3914434D02*
X3925819Y3898616D01*
Y3890000D02*
Y3898616D01*
X3863319D02*
X3879138Y3914434D01*
X3863319Y3890000D02*
Y3898616D01*
D25*
X3646000Y200000D02*
D03*
X3900000D02*
D03*
X4153992Y199997D02*
D03*
X3392000Y200000D02*
D03*
X6626996Y199998D02*
D03*
X6373004Y200002D02*
D03*
X6119004D02*
D03*
X1426996Y199998D02*
D03*
X1173004Y200002D02*
D03*
X919004D02*
D03*
D26*
X4407992Y199997D02*
D03*
X6880996Y199998D02*
D03*
X1680996D02*
D03*
D27*
X1154000Y2408000D02*
D03*
X519000Y2154000D02*
D03*
X1154000Y4408000D02*
D03*
X519000Y4154000D02*
D03*
X3154000Y4408000D02*
D03*
X2519000Y4154000D02*
D03*
X3154000Y2408000D02*
D03*
X2519000Y2154000D02*
D03*
X7154000Y2408000D02*
D03*
X6519000Y2154000D02*
D03*
X5154000Y2408000D02*
D03*
X4519000Y2154000D02*
D03*
X7154000Y4408000D02*
D03*
X6519000Y4154000D02*
D03*
X5154000Y4408000D02*
D03*
X4519000Y4154000D02*
D03*
D28*
X3610986Y4778131D02*
D03*
X4188989D02*
D03*
D29*
X3467489Y5148140D02*
D03*
X4332511D02*
D03*
D30*
X3467489Y4728141D02*
D03*
X4332511D02*
D03*
D31*
X1900000Y3900000D02*
D03*
X5900000D02*
D03*
X5899989Y1899995D02*
D03*
X1900000Y1900000D02*
D03*
D32*
X4219989Y4420000D02*
D03*
Y4520000D02*
D03*
X4140009Y4420000D02*
D03*
Y4520000D02*
D03*
X3580013Y4420000D02*
D03*
Y4520000D02*
D03*
X3660000D02*
D03*
Y4420000D02*
D03*
X2950000Y4900000D02*
D03*
X2650000D02*
D03*
X2350000D02*
D03*
X5450000Y4895000D02*
D03*
X5150000D02*
D03*
X4850000D02*
D03*
X5450000Y5105000D02*
D03*
X5150000D02*
D03*
X4850000D02*
D03*
X2350000D02*
D03*
X2650000D02*
D03*
X2950000D02*
D03*
X4500000Y2660000D02*
D03*
X4700000Y2660000D02*
D03*
X4500000Y460000D02*
D03*
X3260000Y400000D02*
D03*
X4120000Y870000D02*
D03*
X4030000Y700000D02*
D03*
X3950000Y650000D02*
D03*
X6676941Y918696D02*
D03*
X4050000Y1200000D02*
D03*
X3950000D02*
D03*
X3690000Y1020000D02*
D03*
X3610000Y960000D02*
D03*
X2500000Y1000000D02*
D03*
X2600000D02*
D03*
X2700000D02*
D03*
X2800000D02*
D03*
X3740000Y3610000D02*
D03*
X4060000D02*
D03*
X4130000Y4170000D02*
D03*
X3670000D02*
D03*
X3840000Y4500000D02*
D03*
X3970000Y4550000D02*
D03*
X3925819Y3890000D02*
D03*
X3863319D02*
D03*
X4750000Y1500000D02*
D03*
X4900000Y1250000D02*
D03*
X5050000Y1500000D02*
D03*
X2750000D02*
D03*
X2900000Y1250000D02*
D03*
X3050000Y1500000D02*
D03*
X750000D02*
D03*
X900000Y1250000D02*
D03*
X1050000Y1500000D02*
D03*
Y3320000D02*
D03*
X900000Y3570000D02*
D03*
X750000Y3320000D02*
D03*
X3050000D02*
D03*
X2900000Y3570000D02*
D03*
X2750000Y3320000D02*
D03*
X5050000D02*
D03*
X4900000Y3570000D02*
D03*
X4750000Y3320000D02*
D03*
X7050000D02*
D03*
X6900000Y3570000D02*
D03*
X6750000Y3320000D02*
D03*
X7050000Y1500000D02*
D03*
X6900000Y1250000D02*
D03*
X6750000Y1500000D02*
D03*
X500000Y2660000D02*
D03*
X700000Y2660000D02*
D03*
X2500000Y2660000D02*
D03*
X2700000Y2660000D02*
D03*
X6500000Y2660000D02*
D03*
X6700000Y2660000D02*
D03*
X6500000Y4660000D02*
D03*
X6700000Y4660000D02*
D03*
X4500000Y4660000D02*
D03*
X4700000Y4660000D02*
D03*
X2500000Y4660000D02*
D03*
X2700000Y4660000D02*
D03*
X700000D02*
D03*
X500000Y4660000D02*
D03*
%TF.MD5,972c0031393d3af89b19221e49a0191a*%
M02*
