%TF.GenerationSoftware,Altium Limited,Altium Designer,23.4.1 (23)*%
G04 Layer_Color=16711935*
%FSLAX45Y45*%
%MOMM*%
%TF.SameCoordinates,4D4D268D-8FD5-4AED-B812-6AB8C36004BB*%
%TF.FilePolarity,Negative*%
%TF.FileFunction,Soldermask,Bot*%
%TF.Part,Single*%
G01*
G75*
%TA.AperFunction,SMDPad,CuDef*%
G04:AMPARAMS|DCode=43|XSize=1.1032mm|YSize=1.0032mm|CornerRadius=0.1616mm|HoleSize=0mm|Usage=FLASHONLY|Rotation=90.000|XOffset=0mm|YOffset=0mm|HoleType=Round|Shape=RoundedRectangle|*
%AMROUNDEDRECTD43*
21,1,1.10320,0.68000,0,0,90.0*
21,1,0.78000,1.00320,0,0,90.0*
1,1,0.32320,0.34000,0.39000*
1,1,0.32320,0.34000,-0.39000*
1,1,0.32320,-0.34000,-0.39000*
1,1,0.32320,-0.34000,0.39000*
%
%ADD43ROUNDEDRECTD43*%
%TA.AperFunction,ComponentPad*%
%ADD46C,1.70320*%
%ADD47R,1.70320X1.70320*%
%ADD48C,2.70320*%
%ADD49C,0.20320*%
%ADD50C,0.85319*%
%ADD51O,1.20320X2.10320*%
%ADD52O,1.20320X2.30320*%
%ADD53C,4.20320*%
%TA.AperFunction,SMDPad,CuDef*%
%ADD54R,1.20320X1.10320*%
G36*
X3019984Y520000D02*
Y620000D01*
X2919984D01*
Y520000D01*
X3019984D01*
D02*
G37*
D43*
X3260000Y475000D02*
D03*
Y645000D02*
D03*
X4500000Y2585000D02*
D03*
Y2415000D02*
D03*
X2500000Y2585000D02*
D03*
Y2415000D02*
D03*
X500000Y4585000D02*
D03*
Y4415000D02*
D03*
X700000Y4585000D02*
D03*
Y4415000D02*
D03*
X2500000Y4585000D02*
D03*
Y4415000D02*
D03*
X2700000Y4585000D02*
D03*
Y4415000D02*
D03*
X4500000Y4585000D02*
D03*
Y4415000D02*
D03*
X6500000Y4585000D02*
D03*
Y4415000D02*
D03*
Y2585000D02*
D03*
Y2415000D02*
D03*
X6700000Y4585000D02*
D03*
Y4415000D02*
D03*
X4700000Y4585000D02*
D03*
Y4415000D02*
D03*
X6700000Y2585000D02*
D03*
Y2415000D02*
D03*
X4700000Y2585000D02*
D03*
Y2415000D02*
D03*
X2700000Y2585000D02*
D03*
Y2415000D02*
D03*
X500000Y2585000D02*
D03*
Y2415000D02*
D03*
X700000Y2585000D02*
D03*
Y2415000D02*
D03*
D46*
X3646000Y200000D02*
D03*
X3900000D02*
D03*
X4153992Y199997D02*
D03*
X3392000Y200000D02*
D03*
X6626996Y199998D02*
D03*
X6373004Y200002D02*
D03*
X6119004D02*
D03*
X1426996Y199998D02*
D03*
X1173004Y200002D02*
D03*
X919004D02*
D03*
D47*
X4407992Y199997D02*
D03*
X6880996Y199998D02*
D03*
X1680996D02*
D03*
D48*
X1154000Y2408000D02*
D03*
X519000Y2154000D02*
D03*
X1154000Y4408000D02*
D03*
X519000Y4154000D02*
D03*
X3154000Y4408000D02*
D03*
X2519000Y4154000D02*
D03*
X3154000Y2408000D02*
D03*
X2519000Y2154000D02*
D03*
X7154000Y2408000D02*
D03*
X6519000Y2154000D02*
D03*
X5154000Y2408000D02*
D03*
X4519000Y2154000D02*
D03*
X7154000Y4408000D02*
D03*
X6519000Y4154000D02*
D03*
X5154000Y4408000D02*
D03*
X4519000Y4154000D02*
D03*
D49*
X900000Y1900000D02*
D03*
X392000D02*
D03*
X1408000D02*
D03*
X900000Y3900000D02*
D03*
X392000D02*
D03*
X1408000D02*
D03*
X2900000D02*
D03*
X2392000D02*
D03*
X3408000D02*
D03*
X2900000Y1900000D02*
D03*
X2392000D02*
D03*
X3408000D02*
D03*
X6900000D02*
D03*
X6392000D02*
D03*
X7408000D02*
D03*
X4900000D02*
D03*
X4392000D02*
D03*
X5408000D02*
D03*
X6900000Y3900000D02*
D03*
X6392000D02*
D03*
X7408000D02*
D03*
X4900000D02*
D03*
X4392000D02*
D03*
X5408000D02*
D03*
D50*
X3610986Y4778131D02*
D03*
X4188989D02*
D03*
D51*
X3467489Y5148140D02*
D03*
X4332511D02*
D03*
D52*
X3467489Y4728141D02*
D03*
X4332511D02*
D03*
D53*
X1900000Y3900000D02*
D03*
X5900000D02*
D03*
X5899989Y1899995D02*
D03*
X1900000Y1900000D02*
D03*
D54*
X2969992Y485008D02*
D03*
Y655008D02*
D03*
%TF.MD5,8c9d48df857b26c47dbff76a22d29b15*%
M02*
