%TF.GenerationSoftware,Altium Limited,Altium Designer,23.4.1 (23)*%
G04 Layer_Color=8421504*
%FSLAX45Y45*%
%MOMM*%
%TF.SameCoordinates,4D4D268D-8FD5-4AED-B812-6AB8C36004BB*%
%TF.FilePolarity,Positive*%
%TF.FileFunction,Paste,Top*%
%TF.Part,Single*%
G01*
G75*
%TA.AperFunction,SMDPad,CuDef*%
G04:AMPARAMS|DCode=10|XSize=0.9mm|YSize=1.4mm|CornerRadius=0.0675mm|HoleSize=0mm|Usage=FLASHONLY|Rotation=90.000|XOffset=0mm|YOffset=0mm|HoleType=Round|Shape=RoundedRectangle|*
%AMROUNDEDRECTD10*
21,1,0.90000,1.26500,0,0,90.0*
21,1,0.76500,1.40000,0,0,90.0*
1,1,0.13500,0.63250,0.38250*
1,1,0.13500,0.63250,-0.38250*
1,1,0.13500,-0.63250,-0.38250*
1,1,0.13500,-0.63250,0.38250*
%
%ADD10ROUNDEDRECTD10*%
%TA.AperFunction,ConnectorPad*%
%ADD11R,0.60000X1.15001*%
%ADD12R,0.30000X1.15001*%
%TA.AperFunction,SMDPad,CuDef*%
G04:AMPARAMS|DCode=13|XSize=0.6mm|YSize=1.1mm|CornerRadius=0.045mm|HoleSize=0mm|Usage=FLASHONLY|Rotation=270.000|XOffset=0mm|YOffset=0mm|HoleType=Round|Shape=RoundedRectangle|*
%AMROUNDEDRECTD13*
21,1,0.60000,1.01000,0,0,270.0*
21,1,0.51000,1.10000,0,0,270.0*
1,1,0.09000,-0.50500,-0.25500*
1,1,0.09000,-0.50500,0.25500*
1,1,0.09000,0.50500,0.25500*
1,1,0.09000,0.50500,-0.25500*
%
%ADD13ROUNDEDRECTD13*%
G04:AMPARAMS|DCode=14|XSize=0.9mm|YSize=0.8mm|CornerRadius=0.06mm|HoleSize=0mm|Usage=FLASHONLY|Rotation=90.000|XOffset=0mm|YOffset=0mm|HoleType=Round|Shape=RoundedRectangle|*
%AMROUNDEDRECTD14*
21,1,0.90000,0.68000,0,0,90.0*
21,1,0.78000,0.80000,0,0,90.0*
1,1,0.12000,0.34000,0.39000*
1,1,0.12000,0.34000,-0.39000*
1,1,0.12000,-0.34000,-0.39000*
1,1,0.12000,-0.34000,0.39000*
%
%ADD14ROUNDEDRECTD14*%
%ADD15R,0.70000X0.55000*%
%ADD16R,0.30000X0.70000*%
%ADD17R,0.22860X0.76200*%
%ADD18R,0.76200X0.22860*%
%ADD19R,0.86360X0.22860*%
G36*
X3495824Y5235522D02*
X3509889Y5221456D01*
X3517501Y5203079D01*
Y5193134D01*
Y5103132D01*
Y5093186D01*
X3509889Y5074809D01*
X3495824Y5060743D01*
X3477447Y5053132D01*
X3457556D01*
X3439179Y5060743D01*
X3425114Y5074809D01*
X3417502Y5093186D01*
Y5103132D01*
Y5193134D01*
Y5203079D01*
X3425114Y5221456D01*
X3439179Y5235522D01*
X3457556Y5243134D01*
X3477447D01*
X3495824Y5235522D01*
D02*
G37*
G36*
Y4825533D02*
X3509889Y4811467D01*
X3517501Y4793090D01*
Y4783145D01*
Y4673143D01*
Y4663197D01*
X3509889Y4644820D01*
X3495824Y4630755D01*
X3477447Y4623143D01*
X3457556D01*
X3439179Y4630755D01*
X3425114Y4644820D01*
X3417502Y4663197D01*
Y4673143D01*
Y4783145D01*
Y4793090D01*
X3425114Y4811467D01*
X3439179Y4825533D01*
X3457556Y4833145D01*
X3477447D01*
X3495824Y4825533D01*
D02*
G37*
G36*
X3889992Y4594362D02*
X3859993D01*
Y4709363D01*
X3889992D01*
Y4594362D01*
D02*
G37*
G36*
X3839995D02*
X3809995D01*
Y4709363D01*
X3839995D01*
Y4594362D01*
D02*
G37*
G36*
X3789998D02*
X3759998D01*
Y4709363D01*
X3789998D01*
Y4594362D01*
D02*
G37*
G36*
X3740005D02*
X3710006D01*
Y4709363D01*
X3740005D01*
Y4594362D01*
D02*
G37*
G36*
X3690000D02*
X3630001D01*
Y4709363D01*
X3690000D01*
Y4594362D01*
D02*
G37*
G36*
X3610001D02*
X3550001D01*
Y4709363D01*
X3610001D01*
Y4594362D01*
D02*
G37*
G36*
X4360821Y5235522D02*
X4374886Y5221456D01*
X4382498Y5203079D01*
Y5193134D01*
Y5103132D01*
Y5093186D01*
X4374886Y5074809D01*
X4360821Y5060743D01*
X4342444Y5053132D01*
X4322553D01*
X4304176Y5060743D01*
X4290111Y5074809D01*
X4282499Y5093186D01*
Y5103132D01*
Y5193134D01*
Y5203079D01*
X4290111Y5221456D01*
X4304176Y5235522D01*
X4322553Y5243134D01*
X4342444D01*
X4360821Y5235522D01*
D02*
G37*
G36*
Y4825533D02*
X4374886Y4811467D01*
X4382498Y4793090D01*
Y4783145D01*
Y4673143D01*
Y4663197D01*
X4374886Y4644820D01*
X4360821Y4630755D01*
X4342444Y4623143D01*
X4322553D01*
X4304176Y4630755D01*
X4290111Y4644820D01*
X4282499Y4663197D01*
Y4673143D01*
Y4783145D01*
Y4793090D01*
X4290111Y4811467D01*
X4304176Y4825533D01*
X4322553Y4833145D01*
X4342444D01*
X4360821Y4825533D01*
D02*
G37*
G36*
X4249999Y4594362D02*
X4189999D01*
Y4709363D01*
X4249999D01*
Y4594362D01*
D02*
G37*
G36*
X4170000D02*
X4110000D01*
Y4709363D01*
X4170000D01*
Y4594362D01*
D02*
G37*
G36*
X4089992D02*
X4059992D01*
Y4709363D01*
X4089992D01*
Y4594362D01*
D02*
G37*
G36*
X4039992D02*
X4009992D01*
Y4709363D01*
X4039992D01*
Y4594362D01*
D02*
G37*
G36*
X3989990D02*
X3959990D01*
Y4709363D01*
X3989990D01*
Y4594362D01*
D02*
G37*
G36*
X3939992D02*
X3909992D01*
Y4709363D01*
X3939992D01*
Y4594362D01*
D02*
G37*
D10*
X5600000Y4895000D02*
D03*
Y5105000D02*
D03*
X5300000Y4895000D02*
D03*
Y5105000D02*
D03*
X5000000Y4895000D02*
D03*
Y5105000D02*
D03*
X4700000Y4895000D02*
D03*
Y5105000D02*
D03*
X3100000Y4895000D02*
D03*
Y5105000D02*
D03*
X2800000Y4895000D02*
D03*
Y5105000D02*
D03*
X2500000Y4895000D02*
D03*
Y5105000D02*
D03*
X2200000Y4895000D02*
D03*
Y5105000D02*
D03*
D11*
X3580013Y4651860D02*
D03*
X3660001D02*
D03*
X4140010D02*
D03*
X4219989D02*
D03*
D12*
X3775009D02*
D03*
X3824994D02*
D03*
X3875004D02*
D03*
X3924994D02*
D03*
X3975004D02*
D03*
X4024991D02*
D03*
X4075006D02*
D03*
X3725004D02*
D03*
D13*
X3765000Y4075000D02*
D03*
Y4170000D02*
D03*
Y4265000D02*
D03*
X4035000D02*
D03*
Y4170000D02*
D03*
Y4075000D02*
D03*
D14*
X3740000Y3875000D02*
D03*
Y3705000D02*
D03*
X4060000Y3875000D02*
D03*
Y3705000D02*
D03*
X4500000Y535000D02*
D03*
Y705000D02*
D03*
D15*
X6975000Y3410000D02*
D03*
Y3497000D02*
D03*
X6825000D02*
D03*
X6975000Y3323000D02*
D03*
X6825000D02*
D03*
Y3410000D02*
D03*
X4975000D02*
D03*
Y3497000D02*
D03*
X4825000D02*
D03*
X4975000Y3323000D02*
D03*
X4825000D02*
D03*
Y3410000D02*
D03*
X2975000D02*
D03*
Y3497000D02*
D03*
X2825000D02*
D03*
X2975000Y3323000D02*
D03*
X2825000D02*
D03*
Y3410000D02*
D03*
X975000D02*
D03*
Y3497000D02*
D03*
X825000D02*
D03*
X975000Y3323000D02*
D03*
X825000D02*
D03*
Y3410000D02*
D03*
X825000Y1410000D02*
D03*
Y1323000D02*
D03*
X975000D02*
D03*
X825000Y1497000D02*
D03*
X975000D02*
D03*
Y1410000D02*
D03*
X2825000D02*
D03*
Y1323000D02*
D03*
X2975000D02*
D03*
X2825000Y1497000D02*
D03*
X2975000D02*
D03*
Y1410000D02*
D03*
X4825000D02*
D03*
Y1323000D02*
D03*
X4975000D02*
D03*
X4825000Y1497000D02*
D03*
X4975000D02*
D03*
Y1410000D02*
D03*
X6825000D02*
D03*
Y1323000D02*
D03*
X6975000D02*
D03*
X6825000Y1497000D02*
D03*
X6975000D02*
D03*
Y1410000D02*
D03*
D16*
X6900000Y3489500D02*
D03*
Y3330500D02*
D03*
X4900000Y3489500D02*
D03*
Y3330500D02*
D03*
X2900000Y3489500D02*
D03*
Y3330500D02*
D03*
X900000Y3489500D02*
D03*
Y3330500D02*
D03*
Y1330500D02*
D03*
Y1489500D02*
D03*
X2900000Y1330500D02*
D03*
Y1489500D02*
D03*
X4900000Y1330500D02*
D03*
Y1489500D02*
D03*
X6900000Y1330500D02*
D03*
Y1489500D02*
D03*
D17*
X3960000Y775540D02*
D03*
X3920000D02*
D03*
X3880000D02*
D03*
X3840000D02*
D03*
Y1024460D02*
D03*
X3880000D02*
D03*
X3920000D02*
D03*
X3960000D02*
D03*
D18*
X3814910Y840000D02*
D03*
Y880000D02*
D03*
Y920000D02*
D03*
Y960000D02*
D03*
X3985090D02*
D03*
Y920000D02*
D03*
Y880000D02*
D03*
D19*
X3980010Y840000D02*
D03*
%TF.MD5,d786dd76ccd6fb90ad3375166ef13968*%
M02*
