%TF.GenerationSoftware,Altium Limited,Altium Designer,23.4.1 (23)*%
G04 Layer_Color=8388736*
%FSLAX45Y45*%
%MOMM*%
%TF.SameCoordinates,4D4D268D-8FD5-4AED-B812-6AB8C36004BB*%
%TF.FilePolarity,Negative*%
%TF.FileFunction,Soldermask,Top*%
%TF.Part,Single*%
G01*
G75*
%TA.AperFunction,SMDPad,CuDef*%
%ADD17R,0.22860X0.76200*%
%ADD18R,0.76200X0.22860*%
%ADD19R,0.86360X0.22860*%
G04:AMPARAMS|DCode=39|XSize=1.1032mm|YSize=1.6032mm|CornerRadius=0.1691mm|HoleSize=0mm|Usage=FLASHONLY|Rotation=90.000|XOffset=0mm|YOffset=0mm|HoleType=Round|Shape=RoundedRectangle|*
%AMROUNDEDRECTD39*
21,1,1.10320,1.26500,0,0,90.0*
21,1,0.76500,1.60320,0,0,90.0*
1,1,0.33820,0.63250,0.38250*
1,1,0.33820,0.63250,-0.38250*
1,1,0.33820,-0.63250,-0.38250*
1,1,0.33820,-0.63250,0.38250*
%
%ADD39ROUNDEDRECTD39*%
%TA.AperFunction,ConnectorPad*%
%ADD40R,0.76000X1.31001*%
%ADD41R,0.46000X1.31001*%
%TA.AperFunction,SMDPad,CuDef*%
G04:AMPARAMS|DCode=42|XSize=0.8032mm|YSize=1.3032mm|CornerRadius=0.1466mm|HoleSize=0mm|Usage=FLASHONLY|Rotation=270.000|XOffset=0mm|YOffset=0mm|HoleType=Round|Shape=RoundedRectangle|*
%AMROUNDEDRECTD42*
21,1,0.80320,1.01000,0,0,270.0*
21,1,0.51000,1.30320,0,0,270.0*
1,1,0.29320,-0.50500,-0.25500*
1,1,0.29320,-0.50500,0.25500*
1,1,0.29320,0.50500,0.25500*
1,1,0.29320,0.50500,-0.25500*
%
%ADD42ROUNDEDRECTD42*%
G04:AMPARAMS|DCode=43|XSize=1.1032mm|YSize=1.0032mm|CornerRadius=0.1616mm|HoleSize=0mm|Usage=FLASHONLY|Rotation=90.000|XOffset=0mm|YOffset=0mm|HoleType=Round|Shape=RoundedRectangle|*
%AMROUNDEDRECTD43*
21,1,1.10320,0.68000,0,0,90.0*
21,1,0.78000,1.00320,0,0,90.0*
1,1,0.32320,0.34000,0.39000*
1,1,0.32320,0.34000,-0.39000*
1,1,0.32320,-0.34000,-0.39000*
1,1,0.32320,-0.34000,0.39000*
%
%ADD43ROUNDEDRECTD43*%
%ADD44R,0.90320X0.75320*%
%ADD45R,0.50320X0.90320*%
%TA.AperFunction,ComponentPad*%
%ADD46C,1.70320*%
%ADD47R,1.70320X1.70320*%
%ADD48C,2.70320*%
%ADD49C,0.20320*%
%ADD50C,0.85319*%
%ADD51O,1.20320X2.10320*%
%ADD52O,1.20320X2.30320*%
%ADD53C,4.20320*%
D17*
X3960000Y775540D02*
D03*
X3920000D02*
D03*
X3880000D02*
D03*
X3840000D02*
D03*
Y1024460D02*
D03*
X3880000D02*
D03*
X3920000D02*
D03*
X3960000D02*
D03*
D18*
X3814910Y840000D02*
D03*
Y880000D02*
D03*
Y920000D02*
D03*
Y960000D02*
D03*
X3985090D02*
D03*
Y920000D02*
D03*
Y880000D02*
D03*
D19*
X3980010Y840000D02*
D03*
D39*
X5600000Y4895000D02*
D03*
Y5105000D02*
D03*
X5300000Y4895000D02*
D03*
Y5105000D02*
D03*
X5000000Y4895000D02*
D03*
Y5105000D02*
D03*
X4700000Y4895000D02*
D03*
Y5105000D02*
D03*
X3100000Y4895000D02*
D03*
Y5105000D02*
D03*
X2800000Y4895000D02*
D03*
Y5105000D02*
D03*
X2500000Y4895000D02*
D03*
Y5105000D02*
D03*
X2200000Y4895000D02*
D03*
Y5105000D02*
D03*
D40*
X3580013Y4651860D02*
D03*
X3660001D02*
D03*
X4140010D02*
D03*
X4219989D02*
D03*
D41*
X3775009D02*
D03*
X3824994D02*
D03*
X3875004D02*
D03*
X3924994D02*
D03*
X3975004D02*
D03*
X4024991D02*
D03*
X4075006D02*
D03*
X3725004D02*
D03*
D42*
X3765000Y4075000D02*
D03*
Y4170000D02*
D03*
Y4265000D02*
D03*
X4035000D02*
D03*
Y4170000D02*
D03*
Y4075000D02*
D03*
D43*
X3740000Y3875000D02*
D03*
Y3705000D02*
D03*
X4060000Y3875000D02*
D03*
Y3705000D02*
D03*
X4500000Y535000D02*
D03*
Y705000D02*
D03*
D44*
X6975000Y3410000D02*
D03*
Y3497000D02*
D03*
X6825000D02*
D03*
X6975000Y3323000D02*
D03*
X6825000D02*
D03*
Y3410000D02*
D03*
X4975000D02*
D03*
Y3497000D02*
D03*
X4825000D02*
D03*
X4975000Y3323000D02*
D03*
X4825000D02*
D03*
Y3410000D02*
D03*
X2975000D02*
D03*
Y3497000D02*
D03*
X2825000D02*
D03*
X2975000Y3323000D02*
D03*
X2825000D02*
D03*
Y3410000D02*
D03*
X975000D02*
D03*
Y3497000D02*
D03*
X825000D02*
D03*
X975000Y3323000D02*
D03*
X825000D02*
D03*
Y3410000D02*
D03*
X825000Y1410000D02*
D03*
Y1323000D02*
D03*
X975000D02*
D03*
X825000Y1497000D02*
D03*
X975000D02*
D03*
Y1410000D02*
D03*
X2825000D02*
D03*
Y1323000D02*
D03*
X2975000D02*
D03*
X2825000Y1497000D02*
D03*
X2975000D02*
D03*
Y1410000D02*
D03*
X4825000D02*
D03*
Y1323000D02*
D03*
X4975000D02*
D03*
X4825000Y1497000D02*
D03*
X4975000D02*
D03*
Y1410000D02*
D03*
X6825000D02*
D03*
Y1323000D02*
D03*
X6975000D02*
D03*
X6825000Y1497000D02*
D03*
X6975000D02*
D03*
Y1410000D02*
D03*
D45*
X6900000Y3489500D02*
D03*
Y3330500D02*
D03*
X4900000Y3489500D02*
D03*
Y3330500D02*
D03*
X2900000Y3489500D02*
D03*
Y3330500D02*
D03*
X900000Y3489500D02*
D03*
Y3330500D02*
D03*
Y1330500D02*
D03*
Y1489500D02*
D03*
X2900000Y1330500D02*
D03*
Y1489500D02*
D03*
X4900000Y1330500D02*
D03*
Y1489500D02*
D03*
X6900000Y1330500D02*
D03*
Y1489500D02*
D03*
D46*
X3646000Y200000D02*
D03*
X3900000D02*
D03*
X4153992Y199997D02*
D03*
X3392000Y200000D02*
D03*
X6626996Y199998D02*
D03*
X6373004Y200002D02*
D03*
X6119004D02*
D03*
X1426996Y199998D02*
D03*
X1173004Y200002D02*
D03*
X919004D02*
D03*
D47*
X4407992Y199997D02*
D03*
X6880996Y199998D02*
D03*
X1680996D02*
D03*
D48*
X1154000Y2408000D02*
D03*
X519000Y2154000D02*
D03*
X1154000Y4408000D02*
D03*
X519000Y4154000D02*
D03*
X3154000Y4408000D02*
D03*
X2519000Y4154000D02*
D03*
X3154000Y2408000D02*
D03*
X2519000Y2154000D02*
D03*
X7154000Y2408000D02*
D03*
X6519000Y2154000D02*
D03*
X5154000Y2408000D02*
D03*
X4519000Y2154000D02*
D03*
X7154000Y4408000D02*
D03*
X6519000Y4154000D02*
D03*
X5154000Y4408000D02*
D03*
X4519000Y4154000D02*
D03*
D49*
X900000Y1900000D02*
D03*
X392000D02*
D03*
X1408000D02*
D03*
X900000Y3900000D02*
D03*
X392000D02*
D03*
X1408000D02*
D03*
X2900000D02*
D03*
X2392000D02*
D03*
X3408000D02*
D03*
X2900000Y1900000D02*
D03*
X2392000D02*
D03*
X3408000D02*
D03*
X6900000D02*
D03*
X6392000D02*
D03*
X7408000D02*
D03*
X4900000D02*
D03*
X4392000D02*
D03*
X5408000D02*
D03*
X6900000Y3900000D02*
D03*
X6392000D02*
D03*
X7408000D02*
D03*
X4900000D02*
D03*
X4392000D02*
D03*
X5408000D02*
D03*
D50*
X3610986Y4778131D02*
D03*
X4188989D02*
D03*
D51*
X3467489Y5148140D02*
D03*
X4332511D02*
D03*
D52*
X3467489Y4728141D02*
D03*
X4332511D02*
D03*
D53*
X1900000Y3900000D02*
D03*
X5900000D02*
D03*
X5899989Y1899995D02*
D03*
X1900000Y1900000D02*
D03*
%TF.MD5,d1ffffb21aee96ce69f08ba7877aeb73*%
M02*
