%TF.GenerationSoftware,Altium Limited,Altium Designer,23.4.1 (23)*%
G04 Layer_Physical_Order=2*
G04 Layer_Color=36540*
%FSLAX45Y45*%
%MOMM*%
%TF.SameCoordinates,4D4D268D-8FD5-4AED-B812-6AB8C36004BB*%
%TF.FilePolarity,Positive*%
%TF.FileFunction,Copper,L2,Inr,Signal*%
%TF.Part,Single*%
G01*
G75*
%TA.AperFunction,ComponentPad*%
%ADD25C,1.50000*%
%ADD26R,1.50000X1.50000*%
%ADD27C,2.50000*%
%ADD28C,0.64999*%
%ADD29O,1.00000X1.90000*%
%ADD30O,1.00000X2.10000*%
%ADD31C,4.00000*%
%TA.AperFunction,ViaPad*%
%ADD32C,0.50000*%
G36*
X7620089Y5290239D02*
X7666314Y5271092D01*
X7707915Y5243295D01*
X7743294Y5207915D01*
X7771092Y5166314D01*
X7790239Y5120089D01*
X7800000Y5071017D01*
Y5046000D01*
Y254000D01*
Y228983D01*
X7790239Y179911D01*
X7771092Y133686D01*
X7743294Y92084D01*
X7707915Y56705D01*
X7666314Y28908D01*
X7620089Y9761D01*
X7571017Y0D01*
X228983D01*
X179911Y9761D01*
X133686Y28908D01*
X92084Y56705D01*
X56705Y92084D01*
X28908Y133686D01*
X9761Y179911D01*
X0Y228983D01*
Y254000D01*
Y5046000D01*
Y5071017D01*
X9761Y5120089D01*
X28908Y5166314D01*
X56705Y5207915D01*
X92084Y5243295D01*
X133686Y5271092D01*
X179911Y5290239D01*
X228983Y5300000D01*
X7571017D01*
X7620089Y5290239D01*
D02*
G37*
%LPC*%
G36*
X3480189Y5267519D02*
Y5160840D01*
X3543540D01*
Y5193140D01*
X3540948Y5212824D01*
X3533351Y5231166D01*
X3521265Y5246916D01*
X3505514Y5259002D01*
X3487172Y5266600D01*
X3480189Y5267519D01*
D02*
G37*
G36*
X4345211D02*
Y5160840D01*
X4408562D01*
Y5193140D01*
X4405971Y5212824D01*
X4398373Y5231166D01*
X4386287Y5246916D01*
X4370537Y5259002D01*
X4352195Y5266600D01*
X4345211Y5267519D01*
D02*
G37*
G36*
X3454789D02*
X3447805Y5266600D01*
X3429464Y5259002D01*
X3413713Y5246916D01*
X3401627Y5231166D01*
X3394030Y5212824D01*
X3391438Y5193140D01*
Y5160840D01*
X3454789D01*
Y5267519D01*
D02*
G37*
G36*
X4319811D02*
X4312828Y5266600D01*
X4294486Y5259002D01*
X4278735Y5246916D01*
X4266650Y5231166D01*
X4259052Y5212824D01*
X4256461Y5193140D01*
Y5160840D01*
X4319811D01*
Y5267519D01*
D02*
G37*
G36*
X5457459Y5142500D02*
X5442541D01*
X5428758Y5136791D01*
X5418209Y5126242D01*
X5412500Y5112459D01*
Y5097541D01*
X5418209Y5083758D01*
X5428758Y5073209D01*
X5442541Y5067500D01*
X5457459D01*
X5471242Y5073209D01*
X5481791Y5083758D01*
X5487500Y5097541D01*
Y5112459D01*
X5481791Y5126242D01*
X5471242Y5136791D01*
X5457459Y5142500D01*
D02*
G37*
G36*
X5157459D02*
X5142541D01*
X5128758Y5136791D01*
X5118209Y5126242D01*
X5112500Y5112459D01*
Y5097541D01*
X5118209Y5083758D01*
X5128758Y5073209D01*
X5142541Y5067500D01*
X5157459D01*
X5171242Y5073209D01*
X5181791Y5083758D01*
X5187500Y5097541D01*
Y5112459D01*
X5181791Y5126242D01*
X5171242Y5136791D01*
X5157459Y5142500D01*
D02*
G37*
G36*
X4857459D02*
X4842541D01*
X4828758Y5136791D01*
X4818209Y5126242D01*
X4812500Y5112459D01*
Y5097541D01*
X4818209Y5083758D01*
X4828758Y5073209D01*
X4842541Y5067500D01*
X4857459D01*
X4871242Y5073209D01*
X4881791Y5083758D01*
X4887500Y5097541D01*
Y5112459D01*
X4881791Y5126242D01*
X4871242Y5136791D01*
X4857459Y5142500D01*
D02*
G37*
G36*
X2957459D02*
X2942540D01*
X2928758Y5136791D01*
X2918209Y5126242D01*
X2912500Y5112459D01*
Y5097541D01*
X2918209Y5083758D01*
X2928758Y5073209D01*
X2942540Y5067500D01*
X2957459D01*
X2971242Y5073209D01*
X2981791Y5083758D01*
X2987500Y5097541D01*
Y5112459D01*
X2981791Y5126242D01*
X2971242Y5136791D01*
X2957459Y5142500D01*
D02*
G37*
G36*
X2657459D02*
X2642541D01*
X2628758Y5136791D01*
X2618209Y5126242D01*
X2612500Y5112459D01*
Y5097541D01*
X2618209Y5083758D01*
X2628758Y5073209D01*
X2642541Y5067500D01*
X2657459D01*
X2671242Y5073209D01*
X2681791Y5083758D01*
X2687500Y5097541D01*
Y5112459D01*
X2681791Y5126242D01*
X2671242Y5136791D01*
X2657459Y5142500D01*
D02*
G37*
G36*
X2357459D02*
X2342541D01*
X2328758Y5136791D01*
X2318209Y5126242D01*
X2312500Y5112459D01*
Y5097541D01*
X2318209Y5083758D01*
X2328758Y5073209D01*
X2342541Y5067500D01*
X2357459D01*
X2371242Y5073209D01*
X2381791Y5083758D01*
X2387500Y5097541D01*
Y5112459D01*
X2381791Y5126242D01*
X2371242Y5136791D01*
X2357459Y5142500D01*
D02*
G37*
G36*
X4408562Y5135440D02*
X4345211D01*
Y5028762D01*
X4352195Y5029681D01*
X4370537Y5037279D01*
X4386287Y5049365D01*
X4398373Y5065115D01*
X4405971Y5083457D01*
X4408562Y5103140D01*
Y5135440D01*
D02*
G37*
G36*
X3543540D02*
X3480189D01*
Y5028762D01*
X3487172Y5029681D01*
X3505514Y5037279D01*
X3521265Y5049365D01*
X3533351Y5065115D01*
X3540948Y5083457D01*
X3543540Y5103140D01*
Y5135440D01*
D02*
G37*
G36*
X4319811D02*
X4256461D01*
Y5103140D01*
X4259052Y5083457D01*
X4266650Y5065115D01*
X4278735Y5049365D01*
X4294486Y5037279D01*
X4312828Y5029681D01*
X4319811Y5028762D01*
Y5135440D01*
D02*
G37*
G36*
X3454789D02*
X3391438D01*
Y5103140D01*
X3394030Y5083457D01*
X3401627Y5065115D01*
X3413713Y5049365D01*
X3429464Y5037279D01*
X3447805Y5029681D01*
X3454789Y5028762D01*
Y5135440D01*
D02*
G37*
G36*
X3480189Y4857520D02*
Y4740841D01*
X3543540D01*
Y4783141D01*
X3540948Y4802825D01*
X3533351Y4821166D01*
X3521265Y4836917D01*
X3505514Y4849003D01*
X3487172Y4856600D01*
X3480189Y4857520D01*
D02*
G37*
G36*
X4345211D02*
Y4740841D01*
X4408562D01*
Y4783141D01*
X4405971Y4802825D01*
X4398373Y4821166D01*
X4386287Y4836917D01*
X4370537Y4849003D01*
X4352195Y4856600D01*
X4345211Y4857520D01*
D02*
G37*
G36*
X3454789D02*
X3447805Y4856600D01*
X3429464Y4849003D01*
X3413713Y4836917D01*
X3401627Y4821166D01*
X3394030Y4802825D01*
X3391438Y4783141D01*
Y4740841D01*
X3454789D01*
Y4857520D01*
D02*
G37*
G36*
X4319811D02*
X4312828Y4856600D01*
X4294486Y4849003D01*
X4278735Y4836917D01*
X4266650Y4821166D01*
X4259052Y4802825D01*
X4256461Y4783141D01*
Y4740841D01*
X4319811D01*
Y4857520D01*
D02*
G37*
G36*
X4197940Y4823130D02*
X4180038D01*
X4163498Y4816280D01*
X4150840Y4803621D01*
X4143989Y4787082D01*
Y4769180D01*
X4150840Y4752641D01*
X4163498Y4739982D01*
X4180038Y4733132D01*
X4197940D01*
X4214479Y4739982D01*
X4227137Y4752641D01*
X4233988Y4769180D01*
Y4787082D01*
X4227137Y4803621D01*
X4214479Y4816280D01*
X4197940Y4823130D01*
D02*
G37*
G36*
X3619937D02*
X3602035D01*
X3585496Y4816280D01*
X3572837Y4803621D01*
X3565987Y4787082D01*
Y4769180D01*
X3572837Y4752641D01*
X3585496Y4739982D01*
X3602035Y4733132D01*
X3619937D01*
X3636476Y4739982D01*
X3649135Y4752641D01*
X3655986Y4769180D01*
Y4787082D01*
X3649135Y4803621D01*
X3636476Y4816280D01*
X3619937Y4823130D01*
D02*
G37*
G36*
X6507459Y4697500D02*
X6492541D01*
X6478758Y4691791D01*
X6468209Y4681242D01*
X6462500Y4667459D01*
Y4652541D01*
X6468209Y4638758D01*
X6478758Y4628209D01*
X6492541Y4622500D01*
X6507459D01*
X6521242Y4628209D01*
X6531791Y4638758D01*
X6537500Y4652541D01*
Y4667459D01*
X6531791Y4681242D01*
X6521242Y4691791D01*
X6507459Y4697500D01*
D02*
G37*
G36*
X4507459D02*
X4492541D01*
X4478758Y4691791D01*
X4468209Y4681242D01*
X4462500Y4667459D01*
Y4652541D01*
X4468209Y4638758D01*
X4478758Y4628209D01*
X4492541Y4622500D01*
X4507459D01*
X4521242Y4628209D01*
X4531791Y4638758D01*
X4537500Y4652541D01*
Y4667459D01*
X4531791Y4681242D01*
X4521242Y4691791D01*
X4507459Y4697500D01*
D02*
G37*
G36*
X2507459D02*
X2492541D01*
X2478758Y4691791D01*
X2468209Y4681242D01*
X2462500Y4667459D01*
Y4652541D01*
X2468209Y4638758D01*
X2478758Y4628209D01*
X2492541Y4622500D01*
X2507459D01*
X2521242Y4628209D01*
X2531791Y4638758D01*
X2537500Y4652541D01*
Y4667459D01*
X2531791Y4681242D01*
X2521242Y4691791D01*
X2507459Y4697500D01*
D02*
G37*
G36*
X507459D02*
X492541D01*
X478758Y4691791D01*
X468209Y4681242D01*
X462500Y4667459D01*
Y4652541D01*
X468209Y4638758D01*
X478758Y4628209D01*
X492541Y4622500D01*
X507459D01*
X521242Y4628209D01*
X531791Y4638758D01*
X537500Y4652541D01*
Y4667459D01*
X531791Y4681242D01*
X521242Y4691791D01*
X507459Y4697500D01*
D02*
G37*
G36*
X4408562Y4715441D02*
X4345211D01*
Y4598762D01*
X4352195Y4599682D01*
X4370537Y4607280D01*
X4386287Y4619365D01*
X4398373Y4635116D01*
X4405971Y4653458D01*
X4408562Y4673141D01*
Y4715441D01*
D02*
G37*
G36*
X3543540D02*
X3480189D01*
Y4598762D01*
X3487172Y4599682D01*
X3505514Y4607280D01*
X3521265Y4619365D01*
X3533351Y4635116D01*
X3540948Y4653458D01*
X3543540Y4673141D01*
Y4715441D01*
D02*
G37*
G36*
X4319811D02*
X4256461D01*
Y4673141D01*
X4259052Y4653458D01*
X4266650Y4635116D01*
X4278735Y4619365D01*
X4294486Y4607280D01*
X4312828Y4599682D01*
X4319811Y4598762D01*
Y4715441D01*
D02*
G37*
G36*
X3454789D02*
X3391438D01*
Y4673141D01*
X3394030Y4653458D01*
X3401627Y4635116D01*
X3413713Y4619365D01*
X3429464Y4607280D01*
X3447805Y4599682D01*
X3454789Y4598762D01*
Y4715441D01*
D02*
G37*
G36*
X3977459Y4587500D02*
X3962541D01*
X3948758Y4581791D01*
X3938209Y4571242D01*
X3932500Y4557459D01*
Y4542541D01*
X3938209Y4528758D01*
X3948758Y4518209D01*
X3962541Y4512500D01*
X3977459D01*
X3991242Y4518209D01*
X4001791Y4528758D01*
X4007500Y4542541D01*
Y4557459D01*
X4001791Y4571242D01*
X3991242Y4581791D01*
X3977459Y4587500D01*
D02*
G37*
G36*
X4147468Y4557500D02*
X4132550D01*
X4118767Y4551791D01*
X4108218Y4541242D01*
X4102509Y4527459D01*
Y4512541D01*
X4108218Y4498758D01*
X4118767Y4488209D01*
X4132550Y4482500D01*
X4147468D01*
X4161251Y4488209D01*
X4171800Y4498758D01*
X4177509Y4512541D01*
Y4527459D01*
X4171800Y4541242D01*
X4161251Y4551791D01*
X4147468Y4557500D01*
D02*
G37*
G36*
X3667459D02*
X3652541D01*
X3638758Y4551791D01*
X3628209Y4541242D01*
X3622500Y4527459D01*
Y4512541D01*
X3628209Y4498758D01*
X3638758Y4488209D01*
X3652541Y4482500D01*
X3667459D01*
X3681242Y4488209D01*
X3691791Y4498758D01*
X3697500Y4512541D01*
Y4527459D01*
X3691791Y4541242D01*
X3681242Y4551791D01*
X3667459Y4557500D01*
D02*
G37*
G36*
X3847459Y4537500D02*
X3832541D01*
X3818758Y4531791D01*
X3808209Y4521242D01*
X3802500Y4507459D01*
Y4492541D01*
X3808209Y4478758D01*
X3818758Y4468209D01*
X3832541Y4462500D01*
X3847459D01*
X3861242Y4468209D01*
X3871791Y4478758D01*
X3877500Y4492541D01*
Y4507459D01*
X3871791Y4521242D01*
X3861242Y4531791D01*
X3847459Y4537500D01*
D02*
G37*
G36*
X7168813Y4558400D02*
X7166700D01*
Y4420700D01*
X7304400D01*
Y4422813D01*
X7298620Y4451870D01*
X7287283Y4479241D01*
X7270823Y4503874D01*
X7249874Y4524823D01*
X7225241Y4541283D01*
X7197870Y4552620D01*
X7168813Y4558400D01*
D02*
G37*
G36*
X7141300D02*
X7139187D01*
X7110130Y4552620D01*
X7082759Y4541283D01*
X7058126Y4524823D01*
X7037177Y4503874D01*
X7020717Y4479241D01*
X7009380Y4451870D01*
X7003600Y4422813D01*
Y4420700D01*
X7141300D01*
Y4558400D01*
D02*
G37*
G36*
X5168813D02*
X5166700D01*
Y4420700D01*
X5304400D01*
Y4422813D01*
X5298620Y4451870D01*
X5287283Y4479241D01*
X5270823Y4503874D01*
X5249874Y4524823D01*
X5225241Y4541283D01*
X5197870Y4552620D01*
X5168813Y4558400D01*
D02*
G37*
G36*
X5141300D02*
X5139187D01*
X5110130Y4552620D01*
X5082759Y4541283D01*
X5058126Y4524823D01*
X5037177Y4503874D01*
X5020717Y4479241D01*
X5009380Y4451870D01*
X5003600Y4422813D01*
Y4420700D01*
X5141300D01*
Y4558400D01*
D02*
G37*
G36*
X3168813D02*
X3166700D01*
Y4420700D01*
X3304400D01*
Y4422813D01*
X3298620Y4451870D01*
X3287283Y4479241D01*
X3270823Y4503874D01*
X3249874Y4524823D01*
X3225241Y4541283D01*
X3197870Y4552620D01*
X3168813Y4558400D01*
D02*
G37*
G36*
X3141300D02*
X3139187D01*
X3110130Y4552620D01*
X3082759Y4541283D01*
X3058126Y4524823D01*
X3037177Y4503874D01*
X3020717Y4479241D01*
X3009380Y4451870D01*
X3003600Y4422813D01*
Y4420700D01*
X3141300D01*
Y4558400D01*
D02*
G37*
G36*
X1168813D02*
X1166700D01*
Y4420700D01*
X1304400D01*
Y4422813D01*
X1298620Y4451870D01*
X1287283Y4479241D01*
X1270823Y4503874D01*
X1249874Y4524823D01*
X1225241Y4541283D01*
X1197870Y4552620D01*
X1168813Y4558400D01*
D02*
G37*
G36*
X1141300D02*
X1139187D01*
X1110130Y4552620D01*
X1082759Y4541283D01*
X1058126Y4524823D01*
X1037177Y4503874D01*
X1020717Y4479241D01*
X1009380Y4451870D01*
X1003600Y4422813D01*
Y4420700D01*
X1141300D01*
Y4558400D01*
D02*
G37*
G36*
X4147468Y4457500D02*
X4132550D01*
X4118767Y4451791D01*
X4108218Y4441242D01*
X4102509Y4427459D01*
Y4412541D01*
X4108218Y4398758D01*
X4118767Y4388209D01*
X4132550Y4382500D01*
X4147468D01*
X4161251Y4388209D01*
X4171800Y4398758D01*
X4177509Y4412541D01*
Y4427459D01*
X4171800Y4441242D01*
X4161251Y4451791D01*
X4147468Y4457500D01*
D02*
G37*
G36*
X3667459D02*
X3652541D01*
X3638758Y4451791D01*
X3628209Y4441242D01*
X3622500Y4427459D01*
Y4412541D01*
X3628209Y4398758D01*
X3638758Y4388209D01*
X3652541Y4382500D01*
X3667459D01*
X3681242Y4388209D01*
X3691791Y4398758D01*
X3697500Y4412541D01*
Y4427459D01*
X3691791Y4441242D01*
X3681242Y4451791D01*
X3667459Y4457500D01*
D02*
G37*
G36*
X7304400Y4395300D02*
X7166700D01*
Y4257600D01*
X7168813D01*
X7197870Y4263380D01*
X7225241Y4274717D01*
X7249874Y4291177D01*
X7270823Y4312126D01*
X7287283Y4336759D01*
X7298620Y4364130D01*
X7304400Y4393187D01*
Y4395300D01*
D02*
G37*
G36*
X7141300D02*
X7003600D01*
Y4393187D01*
X7009380Y4364130D01*
X7020717Y4336759D01*
X7037177Y4312126D01*
X7058126Y4291177D01*
X7082759Y4274717D01*
X7110130Y4263380D01*
X7139187Y4257600D01*
X7141300D01*
Y4395300D01*
D02*
G37*
G36*
X5304400D02*
X5166700D01*
Y4257600D01*
X5168813D01*
X5197870Y4263380D01*
X5225241Y4274717D01*
X5249874Y4291177D01*
X5270823Y4312126D01*
X5287283Y4336759D01*
X5298620Y4364130D01*
X5304400Y4393187D01*
Y4395300D01*
D02*
G37*
G36*
X5141300D02*
X5003600D01*
Y4393187D01*
X5009380Y4364130D01*
X5020717Y4336759D01*
X5037177Y4312126D01*
X5058126Y4291177D01*
X5082759Y4274717D01*
X5110130Y4263380D01*
X5139187Y4257600D01*
X5141300D01*
Y4395300D01*
D02*
G37*
G36*
X3304400D02*
X3166700D01*
Y4257600D01*
X3168813D01*
X3197870Y4263380D01*
X3225241Y4274717D01*
X3249874Y4291177D01*
X3270823Y4312126D01*
X3287283Y4336759D01*
X3298620Y4364130D01*
X3304400Y4393187D01*
Y4395300D01*
D02*
G37*
G36*
X3141300D02*
X3003600D01*
Y4393187D01*
X3009380Y4364130D01*
X3020717Y4336759D01*
X3037177Y4312126D01*
X3058126Y4291177D01*
X3082759Y4274717D01*
X3110130Y4263380D01*
X3139187Y4257600D01*
X3141300D01*
Y4395300D01*
D02*
G37*
G36*
X1304400D02*
X1166700D01*
Y4257600D01*
X1168813D01*
X1197870Y4263380D01*
X1225241Y4274717D01*
X1249874Y4291177D01*
X1270823Y4312126D01*
X1287283Y4336759D01*
X1298620Y4364130D01*
X1304400Y4393187D01*
Y4395300D01*
D02*
G37*
G36*
X1141300D02*
X1003600D01*
Y4393187D01*
X1009380Y4364130D01*
X1020717Y4336759D01*
X1037177Y4312126D01*
X1058126Y4291177D01*
X1082759Y4274717D01*
X1110130Y4263380D01*
X1139187Y4257600D01*
X1141300D01*
Y4395300D01*
D02*
G37*
G36*
X3677459Y4207500D02*
X3662541D01*
X3648758Y4201791D01*
X3638209Y4191242D01*
X3632500Y4177459D01*
Y4162541D01*
X3638209Y4148758D01*
X3648758Y4138209D01*
X3662541Y4132500D01*
X3677459D01*
X3691242Y4138209D01*
X3701791Y4148758D01*
X3707500Y4162541D01*
Y4177459D01*
X3701791Y4191242D01*
X3691242Y4201791D01*
X3677459Y4207500D01*
D02*
G37*
G36*
X6537102Y4291500D02*
X6500898D01*
X6465927Y4282130D01*
X6434573Y4264028D01*
X6408972Y4238427D01*
X6390870Y4207073D01*
X6381500Y4172102D01*
Y4135898D01*
X6390870Y4100927D01*
X6408972Y4069573D01*
X6434573Y4043973D01*
X6465927Y4025871D01*
X6500898Y4016500D01*
X6537102D01*
X6572073Y4025871D01*
X6603427Y4043973D01*
X6629027Y4069573D01*
X6647129Y4100927D01*
X6656500Y4135898D01*
Y4172102D01*
X6647129Y4207073D01*
X6629027Y4238427D01*
X6603427Y4264028D01*
X6572073Y4282130D01*
X6537102Y4291500D01*
D02*
G37*
G36*
X4537102D02*
X4500898D01*
X4465927Y4282130D01*
X4434573Y4264028D01*
X4408972Y4238427D01*
X4390870Y4207073D01*
X4381500Y4172102D01*
Y4135898D01*
X4390870Y4100927D01*
X4408972Y4069573D01*
X4434573Y4043973D01*
X4465927Y4025871D01*
X4500898Y4016500D01*
X4537102D01*
X4572073Y4025871D01*
X4603427Y4043973D01*
X4629027Y4069573D01*
X4647129Y4100927D01*
X4656500Y4135898D01*
Y4172102D01*
X4647129Y4207073D01*
X4629027Y4238427D01*
X4603427Y4264028D01*
X4572073Y4282130D01*
X4537102Y4291500D01*
D02*
G37*
G36*
X2537102D02*
X2500898D01*
X2465927Y4282130D01*
X2434573Y4264028D01*
X2408973Y4238427D01*
X2390871Y4207073D01*
X2381500Y4172102D01*
Y4135898D01*
X2390871Y4100927D01*
X2408973Y4069573D01*
X2434573Y4043973D01*
X2465927Y4025871D01*
X2500898Y4016500D01*
X2537102D01*
X2572073Y4025871D01*
X2603427Y4043973D01*
X2629028Y4069573D01*
X2647130Y4100927D01*
X2656500Y4135898D01*
Y4172102D01*
X2647130Y4207073D01*
X2629028Y4238427D01*
X2603427Y4264028D01*
X2572073Y4282130D01*
X2537102Y4291500D01*
D02*
G37*
G36*
X537102D02*
X500898D01*
X465927Y4282130D01*
X434573Y4264028D01*
X408973Y4238427D01*
X390870Y4207073D01*
X381500Y4172102D01*
Y4135898D01*
X390870Y4100927D01*
X408973Y4069573D01*
X434573Y4043973D01*
X465927Y4025871D01*
X500898Y4016500D01*
X537102D01*
X572073Y4025871D01*
X603427Y4043973D01*
X629027Y4069573D01*
X647130Y4100927D01*
X656500Y4135898D01*
Y4172102D01*
X647130Y4207073D01*
X629027Y4238427D01*
X603427Y4264028D01*
X572073Y4282130D01*
X537102Y4291500D01*
D02*
G37*
G36*
X5922200Y4125400D02*
X5912700D01*
Y3912700D01*
X6125400D01*
Y3922200D01*
X6116738Y3965747D01*
X6099747Y4006767D01*
X6075080Y4043684D01*
X6043684Y4075080D01*
X6006767Y4099747D01*
X5965747Y4116738D01*
X5922200Y4125400D01*
D02*
G37*
G36*
X5887300D02*
X5877800D01*
X5834253Y4116738D01*
X5793233Y4099747D01*
X5756316Y4075080D01*
X5724920Y4043684D01*
X5700253Y4006767D01*
X5683262Y3965747D01*
X5674600Y3922200D01*
Y3912700D01*
X5887300D01*
Y4125400D01*
D02*
G37*
G36*
X1922200D02*
X1912700D01*
Y3912700D01*
X2125400D01*
Y3922200D01*
X2116738Y3965747D01*
X2099747Y4006767D01*
X2075080Y4043684D01*
X2043684Y4075080D01*
X2006767Y4099747D01*
X1965747Y4116738D01*
X1922200Y4125400D01*
D02*
G37*
G36*
X1887300D02*
X1877800D01*
X1834253Y4116738D01*
X1793233Y4099747D01*
X1756316Y4075080D01*
X1724920Y4043684D01*
X1700253Y4006767D01*
X1683262Y3965747D01*
X1674600Y3922200D01*
Y3912700D01*
X1887300D01*
Y4125400D01*
D02*
G37*
G36*
X3933278Y3927500D02*
X3918360D01*
X3904577Y3921791D01*
X3894569Y3911783D01*
X3884561Y3921791D01*
X3870778Y3927500D01*
X3855860D01*
X3842077Y3921791D01*
X3831528Y3911242D01*
X3825819Y3897460D01*
Y3882541D01*
X3831528Y3868758D01*
X3842077Y3858209D01*
X3855860Y3852500D01*
X3870778D01*
X3884561Y3858209D01*
X3894569Y3868217D01*
X3904577Y3858209D01*
X3918360Y3852500D01*
X3933278D01*
X3947061Y3858209D01*
X3957610Y3868758D01*
X3963319Y3882541D01*
Y3897460D01*
X3957610Y3911242D01*
X3947061Y3921791D01*
X3933278Y3927500D01*
D02*
G37*
G36*
X7420836Y3997500D02*
X7395164D01*
X7370366Y3990855D01*
X7348134Y3978019D01*
X7329981Y3959866D01*
X7317145Y3937634D01*
X7310500Y3912836D01*
Y3887164D01*
X7317145Y3862366D01*
X7329981Y3840134D01*
X7348134Y3821981D01*
X7370366Y3809145D01*
X7395164Y3802500D01*
X7420836D01*
X7445634Y3809145D01*
X7467866Y3821981D01*
X7486019Y3840134D01*
X7498855Y3862366D01*
X7505500Y3887164D01*
Y3912836D01*
X7498855Y3937634D01*
X7486019Y3959866D01*
X7467866Y3978019D01*
X7445634Y3990855D01*
X7420836Y3997500D01*
D02*
G37*
G36*
X6404836D02*
X6379164D01*
X6354366Y3990855D01*
X6332134Y3978019D01*
X6313981Y3959866D01*
X6301145Y3937634D01*
X6294500Y3912836D01*
Y3887164D01*
X6301145Y3862366D01*
X6313981Y3840134D01*
X6332134Y3821981D01*
X6354366Y3809145D01*
X6379164Y3802500D01*
X6404836D01*
X6429634Y3809145D01*
X6451866Y3821981D01*
X6470019Y3840134D01*
X6482855Y3862366D01*
X6489500Y3887164D01*
Y3912836D01*
X6482855Y3937634D01*
X6470019Y3959866D01*
X6451866Y3978019D01*
X6429634Y3990855D01*
X6404836Y3997500D01*
D02*
G37*
G36*
X5420836D02*
X5395164D01*
X5370366Y3990855D01*
X5348134Y3978019D01*
X5329980Y3959866D01*
X5317145Y3937634D01*
X5310500Y3912836D01*
Y3887164D01*
X5317145Y3862366D01*
X5329980Y3840134D01*
X5348134Y3821981D01*
X5370366Y3809145D01*
X5395164Y3802500D01*
X5420836D01*
X5445634Y3809145D01*
X5467866Y3821981D01*
X5486019Y3840134D01*
X5498855Y3862366D01*
X5505500Y3887164D01*
Y3912836D01*
X5498855Y3937634D01*
X5486019Y3959866D01*
X5467866Y3978019D01*
X5445634Y3990855D01*
X5420836Y3997500D01*
D02*
G37*
G36*
X4404836D02*
X4379164D01*
X4354366Y3990855D01*
X4332134Y3978019D01*
X4313980Y3959866D01*
X4301145Y3937634D01*
X4294500Y3912836D01*
Y3887164D01*
X4301145Y3862366D01*
X4313980Y3840134D01*
X4332134Y3821981D01*
X4354366Y3809145D01*
X4379164Y3802500D01*
X4404836D01*
X4429634Y3809145D01*
X4451866Y3821981D01*
X4470019Y3840134D01*
X4482855Y3862366D01*
X4489500Y3887164D01*
Y3912836D01*
X4482855Y3937634D01*
X4470019Y3959866D01*
X4451866Y3978019D01*
X4429634Y3990855D01*
X4404836Y3997500D01*
D02*
G37*
G36*
X3420836D02*
X3395164D01*
X3370366Y3990855D01*
X3348134Y3978019D01*
X3329981Y3959866D01*
X3317145Y3937634D01*
X3310500Y3912836D01*
Y3887164D01*
X3317145Y3862366D01*
X3329981Y3840134D01*
X3348134Y3821981D01*
X3370366Y3809145D01*
X3395164Y3802500D01*
X3420836D01*
X3445634Y3809145D01*
X3467866Y3821981D01*
X3486019Y3840134D01*
X3498855Y3862366D01*
X3505500Y3887164D01*
Y3912836D01*
X3498855Y3937634D01*
X3486019Y3959866D01*
X3467866Y3978019D01*
X3445634Y3990855D01*
X3420836Y3997500D01*
D02*
G37*
G36*
X2404836D02*
X2379164D01*
X2354366Y3990855D01*
X2332134Y3978019D01*
X2313981Y3959866D01*
X2301145Y3937634D01*
X2294500Y3912836D01*
Y3887164D01*
X2301145Y3862366D01*
X2313981Y3840134D01*
X2332134Y3821981D01*
X2354366Y3809145D01*
X2379164Y3802500D01*
X2404836D01*
X2429634Y3809145D01*
X2451866Y3821981D01*
X2470019Y3840134D01*
X2482855Y3862366D01*
X2489500Y3887164D01*
Y3912836D01*
X2482855Y3937634D01*
X2470019Y3959866D01*
X2451866Y3978019D01*
X2429634Y3990855D01*
X2404836Y3997500D01*
D02*
G37*
G36*
X1420836D02*
X1395164D01*
X1370366Y3990855D01*
X1348134Y3978019D01*
X1329981Y3959866D01*
X1317145Y3937634D01*
X1310500Y3912836D01*
Y3887164D01*
X1317145Y3862366D01*
X1329981Y3840134D01*
X1348134Y3821981D01*
X1370366Y3809145D01*
X1395164Y3802500D01*
X1420836D01*
X1445634Y3809145D01*
X1467866Y3821981D01*
X1486019Y3840134D01*
X1498855Y3862366D01*
X1505500Y3887164D01*
Y3912836D01*
X1498855Y3937634D01*
X1486019Y3959866D01*
X1467866Y3978019D01*
X1445634Y3990855D01*
X1420836Y3997500D01*
D02*
G37*
G36*
X404836D02*
X379164D01*
X354366Y3990855D01*
X332134Y3978019D01*
X313981Y3959866D01*
X301145Y3937634D01*
X294500Y3912836D01*
Y3887164D01*
X301145Y3862366D01*
X313981Y3840134D01*
X332134Y3821981D01*
X354366Y3809145D01*
X379164Y3802500D01*
X404836D01*
X429634Y3809145D01*
X451866Y3821981D01*
X470019Y3840134D01*
X482855Y3862366D01*
X489500Y3887164D01*
Y3912836D01*
X482855Y3937634D01*
X470019Y3959866D01*
X451866Y3978019D01*
X429634Y3990855D01*
X404836Y3997500D01*
D02*
G37*
G36*
X6920929Y4112500D02*
X6879071D01*
X6838016Y4104334D01*
X6799344Y4088315D01*
X6764539Y4065060D01*
X6734940Y4035461D01*
X6711685Y4000656D01*
X6695666Y3961984D01*
X6687500Y3920929D01*
Y3879071D01*
X6695666Y3838016D01*
X6711685Y3799344D01*
X6734940Y3764539D01*
X6764539Y3734940D01*
X6799344Y3711685D01*
X6838016Y3695666D01*
X6879071Y3687500D01*
X6920929D01*
X6961984Y3695666D01*
X7000656Y3711685D01*
X7035461Y3734940D01*
X7065060Y3764539D01*
X7088315Y3799344D01*
X7104334Y3838016D01*
X7112500Y3879071D01*
Y3920929D01*
X7104334Y3961984D01*
X7088315Y4000656D01*
X7065060Y4035461D01*
X7035461Y4065060D01*
X7000656Y4088315D01*
X6961984Y4104334D01*
X6920929Y4112500D01*
D02*
G37*
G36*
X4920929D02*
X4879071D01*
X4838016Y4104334D01*
X4799343Y4088315D01*
X4764539Y4065060D01*
X4734940Y4035461D01*
X4711685Y4000656D01*
X4695666Y3961984D01*
X4687500Y3920929D01*
Y3879071D01*
X4695666Y3838016D01*
X4711685Y3799344D01*
X4734940Y3764539D01*
X4764539Y3734940D01*
X4799343Y3711685D01*
X4838016Y3695666D01*
X4879071Y3687500D01*
X4920929D01*
X4961984Y3695666D01*
X5000656Y3711685D01*
X5035461Y3734940D01*
X5065059Y3764539D01*
X5088315Y3799344D01*
X5104333Y3838016D01*
X5112500Y3879071D01*
Y3920929D01*
X5104333Y3961984D01*
X5088315Y4000656D01*
X5065059Y4035461D01*
X5035461Y4065060D01*
X5000656Y4088315D01*
X4961984Y4104334D01*
X4920929Y4112500D01*
D02*
G37*
G36*
X2920929D02*
X2879071D01*
X2838016Y4104334D01*
X2799344Y4088315D01*
X2764539Y4065060D01*
X2734940Y4035461D01*
X2711685Y4000656D01*
X2695666Y3961984D01*
X2687500Y3920929D01*
Y3879071D01*
X2695666Y3838016D01*
X2711685Y3799344D01*
X2734940Y3764539D01*
X2764539Y3734940D01*
X2799344Y3711685D01*
X2838016Y3695666D01*
X2879071Y3687500D01*
X2920929D01*
X2961984Y3695666D01*
X3000656Y3711685D01*
X3035461Y3734940D01*
X3065060Y3764539D01*
X3088315Y3799344D01*
X3104334Y3838016D01*
X3112500Y3879071D01*
Y3920929D01*
X3104334Y3961984D01*
X3088315Y4000656D01*
X3065060Y4035461D01*
X3035461Y4065060D01*
X3000656Y4088315D01*
X2961984Y4104334D01*
X2920929Y4112500D01*
D02*
G37*
G36*
X920929D02*
X879071D01*
X838016Y4104334D01*
X799344Y4088315D01*
X764539Y4065060D01*
X734940Y4035461D01*
X711685Y4000656D01*
X695666Y3961984D01*
X687500Y3920929D01*
Y3879071D01*
X695666Y3838016D01*
X711685Y3799344D01*
X734940Y3764539D01*
X764539Y3734940D01*
X799344Y3711685D01*
X838016Y3695666D01*
X879071Y3687500D01*
X920929D01*
X961984Y3695666D01*
X1000656Y3711685D01*
X1035461Y3734940D01*
X1065060Y3764539D01*
X1088315Y3799344D01*
X1104334Y3838016D01*
X1112500Y3879071D01*
Y3920929D01*
X1104334Y3961984D01*
X1088315Y4000656D01*
X1065060Y4035461D01*
X1035461Y4065060D01*
X1000656Y4088315D01*
X961984Y4104334D01*
X920929Y4112500D01*
D02*
G37*
G36*
X6125400Y3887300D02*
X5912700D01*
Y3674600D01*
X5922200D01*
X5965747Y3683262D01*
X6006767Y3700253D01*
X6043684Y3724920D01*
X6075080Y3756316D01*
X6099747Y3793233D01*
X6116738Y3834253D01*
X6125400Y3877800D01*
Y3887300D01*
D02*
G37*
G36*
X5887300D02*
X5674600D01*
Y3877800D01*
X5683262Y3834253D01*
X5700253Y3793233D01*
X5724920Y3756316D01*
X5756316Y3724920D01*
X5793233Y3700253D01*
X5834253Y3683262D01*
X5877800Y3674600D01*
X5887300D01*
Y3887300D01*
D02*
G37*
G36*
X2125400D02*
X1912700D01*
Y3674600D01*
X1922200D01*
X1965747Y3683262D01*
X2006767Y3700253D01*
X2043684Y3724920D01*
X2075080Y3756316D01*
X2099747Y3793233D01*
X2116738Y3834253D01*
X2125400Y3877800D01*
Y3887300D01*
D02*
G37*
G36*
X1887300D02*
X1674600D01*
Y3877800D01*
X1683262Y3834253D01*
X1700253Y3793233D01*
X1724920Y3756316D01*
X1756316Y3724920D01*
X1793233Y3700253D01*
X1834253Y3683262D01*
X1877800Y3674600D01*
X1887300D01*
Y3887300D01*
D02*
G37*
G36*
X7057459Y3357500D02*
X7042541D01*
X7028758Y3351791D01*
X7018209Y3341242D01*
X7012500Y3327459D01*
Y3312541D01*
X7018209Y3298758D01*
X7028758Y3288209D01*
X7042541Y3282500D01*
X7057459D01*
X7071242Y3288209D01*
X7081791Y3298758D01*
X7087500Y3312541D01*
Y3327459D01*
X7081791Y3341242D01*
X7071242Y3351791D01*
X7057459Y3357500D01*
D02*
G37*
G36*
X5057459D02*
X5042541D01*
X5028758Y3351791D01*
X5018209Y3341242D01*
X5012500Y3327459D01*
Y3312541D01*
X5018209Y3298758D01*
X5028758Y3288209D01*
X5042541Y3282500D01*
X5057459D01*
X5071242Y3288209D01*
X5081791Y3298758D01*
X5087500Y3312541D01*
Y3327459D01*
X5081791Y3341242D01*
X5071242Y3351791D01*
X5057459Y3357500D01*
D02*
G37*
G36*
X3057459D02*
X3042541D01*
X3028758Y3351791D01*
X3018209Y3341242D01*
X3012500Y3327459D01*
Y3312541D01*
X3018209Y3298758D01*
X3028758Y3288209D01*
X3042541Y3282500D01*
X3057459D01*
X3071242Y3288209D01*
X3081791Y3298758D01*
X3087500Y3312541D01*
Y3327459D01*
X3081791Y3341242D01*
X3071242Y3351791D01*
X3057459Y3357500D01*
D02*
G37*
G36*
X1057459D02*
X1042541D01*
X1028758Y3351791D01*
X1018209Y3341242D01*
X1012500Y3327459D01*
Y3312541D01*
X1018209Y3298758D01*
X1028758Y3288209D01*
X1042541Y3282500D01*
X1057459D01*
X1071242Y3288209D01*
X1081791Y3298758D01*
X1087500Y3312541D01*
Y3327459D01*
X1081791Y3341242D01*
X1071242Y3351791D01*
X1057459Y3357500D01*
D02*
G37*
G36*
X6507459Y2697500D02*
X6492541D01*
X6478758Y2691791D01*
X6468209Y2681242D01*
X6462500Y2667459D01*
Y2652541D01*
X6468209Y2638758D01*
X6478758Y2628209D01*
X6492541Y2622500D01*
X6507459D01*
X6521242Y2628209D01*
X6531791Y2638758D01*
X6537500Y2652541D01*
Y2667459D01*
X6531791Y2681242D01*
X6521242Y2691791D01*
X6507459Y2697500D01*
D02*
G37*
G36*
X4507459D02*
X4492540D01*
X4478758Y2691791D01*
X4468209Y2681242D01*
X4462500Y2667459D01*
Y2652541D01*
X4468209Y2638758D01*
X4478758Y2628209D01*
X4492540Y2622500D01*
X4507459D01*
X4521242Y2628209D01*
X4531791Y2638758D01*
X4537500Y2652541D01*
Y2667459D01*
X4531791Y2681242D01*
X4521242Y2691791D01*
X4507459Y2697500D01*
D02*
G37*
G36*
X2507459D02*
X2492541D01*
X2478758Y2691791D01*
X2468209Y2681242D01*
X2462500Y2667459D01*
Y2652541D01*
X2468209Y2638758D01*
X2478758Y2628209D01*
X2492541Y2622500D01*
X2507459D01*
X2521242Y2628209D01*
X2531791Y2638758D01*
X2537500Y2652541D01*
Y2667459D01*
X2531791Y2681242D01*
X2521242Y2691791D01*
X2507459Y2697500D01*
D02*
G37*
G36*
X507459D02*
X492541D01*
X478758Y2691791D01*
X468209Y2681242D01*
X462500Y2667459D01*
Y2652541D01*
X468209Y2638758D01*
X478758Y2628209D01*
X492541Y2622500D01*
X507459D01*
X521242Y2628209D01*
X531791Y2638758D01*
X537500Y2652541D01*
Y2667459D01*
X531791Y2681242D01*
X521242Y2691791D01*
X507459Y2697500D01*
D02*
G37*
G36*
X7168813Y2558400D02*
X7166700D01*
Y2420700D01*
X7304400D01*
Y2422813D01*
X7298620Y2451870D01*
X7287283Y2479241D01*
X7270823Y2503874D01*
X7249874Y2524823D01*
X7225241Y2541283D01*
X7197870Y2552620D01*
X7168813Y2558400D01*
D02*
G37*
G36*
X7141300D02*
X7139187D01*
X7110130Y2552620D01*
X7082759Y2541283D01*
X7058126Y2524823D01*
X7037177Y2503874D01*
X7020717Y2479241D01*
X7009380Y2451870D01*
X7003600Y2422813D01*
Y2420700D01*
X7141300D01*
Y2558400D01*
D02*
G37*
G36*
X5168813D02*
X5166700D01*
Y2420700D01*
X5304400D01*
Y2422813D01*
X5298620Y2451870D01*
X5287283Y2479241D01*
X5270823Y2503874D01*
X5249874Y2524823D01*
X5225241Y2541283D01*
X5197870Y2552620D01*
X5168813Y2558400D01*
D02*
G37*
G36*
X5141300D02*
X5139187D01*
X5110130Y2552620D01*
X5082759Y2541283D01*
X5058126Y2524823D01*
X5037177Y2503874D01*
X5020717Y2479241D01*
X5009380Y2451870D01*
X5003600Y2422813D01*
Y2420700D01*
X5141300D01*
Y2558400D01*
D02*
G37*
G36*
X3168813D02*
X3166700D01*
Y2420700D01*
X3304400D01*
Y2422813D01*
X3298620Y2451870D01*
X3287283Y2479241D01*
X3270823Y2503874D01*
X3249874Y2524823D01*
X3225241Y2541283D01*
X3197870Y2552620D01*
X3168813Y2558400D01*
D02*
G37*
G36*
X3141300D02*
X3139187D01*
X3110130Y2552620D01*
X3082759Y2541283D01*
X3058126Y2524823D01*
X3037177Y2503874D01*
X3020717Y2479241D01*
X3009380Y2451870D01*
X3003600Y2422813D01*
Y2420700D01*
X3141300D01*
Y2558400D01*
D02*
G37*
G36*
X1168813D02*
X1166700D01*
Y2420700D01*
X1304400D01*
Y2422813D01*
X1298620Y2451870D01*
X1287283Y2479241D01*
X1270823Y2503874D01*
X1249874Y2524823D01*
X1225241Y2541283D01*
X1197870Y2552620D01*
X1168813Y2558400D01*
D02*
G37*
G36*
X1141300D02*
X1139187D01*
X1110130Y2552620D01*
X1082759Y2541283D01*
X1058126Y2524823D01*
X1037177Y2503874D01*
X1020717Y2479241D01*
X1009380Y2451870D01*
X1003600Y2422813D01*
Y2420700D01*
X1141300D01*
Y2558400D01*
D02*
G37*
G36*
X7304400Y2395300D02*
X7166700D01*
Y2257600D01*
X7168813D01*
X7197870Y2263380D01*
X7225241Y2274717D01*
X7249874Y2291177D01*
X7270823Y2312126D01*
X7287283Y2336759D01*
X7298620Y2364130D01*
X7304400Y2393187D01*
Y2395300D01*
D02*
G37*
G36*
X7141300D02*
X7003600D01*
Y2393187D01*
X7009380Y2364130D01*
X7020717Y2336759D01*
X7037177Y2312126D01*
X7058126Y2291177D01*
X7082759Y2274717D01*
X7110130Y2263380D01*
X7139187Y2257600D01*
X7141300D01*
Y2395300D01*
D02*
G37*
G36*
X5304400D02*
X5166700D01*
Y2257600D01*
X5168813D01*
X5197870Y2263380D01*
X5225241Y2274717D01*
X5249874Y2291177D01*
X5270823Y2312126D01*
X5287283Y2336759D01*
X5298620Y2364130D01*
X5304400Y2393187D01*
Y2395300D01*
D02*
G37*
G36*
X5141300D02*
X5003600D01*
Y2393187D01*
X5009380Y2364130D01*
X5020717Y2336759D01*
X5037177Y2312126D01*
X5058126Y2291177D01*
X5082759Y2274717D01*
X5110130Y2263380D01*
X5139187Y2257600D01*
X5141300D01*
Y2395300D01*
D02*
G37*
G36*
X3304400D02*
X3166700D01*
Y2257600D01*
X3168813D01*
X3197870Y2263380D01*
X3225241Y2274717D01*
X3249874Y2291177D01*
X3270823Y2312126D01*
X3287283Y2336759D01*
X3298620Y2364130D01*
X3304400Y2393187D01*
Y2395300D01*
D02*
G37*
G36*
X3141300D02*
X3003600D01*
Y2393187D01*
X3009380Y2364130D01*
X3020717Y2336759D01*
X3037177Y2312126D01*
X3058126Y2291177D01*
X3082759Y2274717D01*
X3110130Y2263380D01*
X3139187Y2257600D01*
X3141300D01*
Y2395300D01*
D02*
G37*
G36*
X1304400D02*
X1166700D01*
Y2257600D01*
X1168813D01*
X1197870Y2263380D01*
X1225241Y2274717D01*
X1249874Y2291177D01*
X1270823Y2312126D01*
X1287283Y2336759D01*
X1298620Y2364130D01*
X1304400Y2393187D01*
Y2395300D01*
D02*
G37*
G36*
X1141300D02*
X1003600D01*
Y2393187D01*
X1009380Y2364130D01*
X1020717Y2336759D01*
X1037177Y2312126D01*
X1058126Y2291177D01*
X1082759Y2274717D01*
X1110130Y2263380D01*
X1139187Y2257600D01*
X1141300D01*
Y2395300D01*
D02*
G37*
G36*
X6537102Y2291500D02*
X6500898D01*
X6465927Y2282130D01*
X6434573Y2264027D01*
X6408972Y2238427D01*
X6390870Y2207073D01*
X6381500Y2172102D01*
Y2135898D01*
X6390870Y2100927D01*
X6408972Y2069573D01*
X6434573Y2043973D01*
X6465927Y2025870D01*
X6500898Y2016500D01*
X6537102D01*
X6572073Y2025870D01*
X6603427Y2043973D01*
X6629027Y2069573D01*
X6647129Y2100927D01*
X6656500Y2135898D01*
Y2172102D01*
X6647129Y2207073D01*
X6629027Y2238427D01*
X6603427Y2264027D01*
X6572073Y2282130D01*
X6537102Y2291500D01*
D02*
G37*
G36*
X4537102D02*
X4500898D01*
X4465927Y2282130D01*
X4434573Y2264027D01*
X4408972Y2238427D01*
X4390870Y2207073D01*
X4381500Y2172102D01*
Y2135898D01*
X4390870Y2100927D01*
X4408972Y2069573D01*
X4434573Y2043973D01*
X4465927Y2025870D01*
X4500898Y2016500D01*
X4537102D01*
X4572073Y2025870D01*
X4603427Y2043973D01*
X4629027Y2069573D01*
X4647129Y2100927D01*
X4656500Y2135898D01*
Y2172102D01*
X4647129Y2207073D01*
X4629027Y2238427D01*
X4603427Y2264027D01*
X4572073Y2282130D01*
X4537102Y2291500D01*
D02*
G37*
G36*
X2537102D02*
X2500898D01*
X2465927Y2282130D01*
X2434573Y2264027D01*
X2408973Y2238427D01*
X2390871Y2207073D01*
X2381500Y2172102D01*
Y2135898D01*
X2390871Y2100927D01*
X2408973Y2069573D01*
X2434573Y2043973D01*
X2465927Y2025870D01*
X2500898Y2016500D01*
X2537102D01*
X2572073Y2025870D01*
X2603427Y2043973D01*
X2629028Y2069573D01*
X2647130Y2100927D01*
X2656500Y2135898D01*
Y2172102D01*
X2647130Y2207073D01*
X2629028Y2238427D01*
X2603427Y2264027D01*
X2572073Y2282130D01*
X2537102Y2291500D01*
D02*
G37*
G36*
X537102D02*
X500898D01*
X465927Y2282130D01*
X434573Y2264027D01*
X408973Y2238427D01*
X390870Y2207073D01*
X381500Y2172102D01*
Y2135898D01*
X390870Y2100927D01*
X408973Y2069573D01*
X434573Y2043973D01*
X465927Y2025870D01*
X500898Y2016500D01*
X537102D01*
X572073Y2025870D01*
X603427Y2043973D01*
X629027Y2069573D01*
X647130Y2100927D01*
X656500Y2135898D01*
Y2172102D01*
X647130Y2207073D01*
X629027Y2238427D01*
X603427Y2264027D01*
X572073Y2282130D01*
X537102Y2291500D01*
D02*
G37*
G36*
X1922200Y2125400D02*
X1912700D01*
Y1912700D01*
X2125400D01*
Y1922200D01*
X2116738Y1965747D01*
X2099747Y2006767D01*
X2075080Y2043684D01*
X2043684Y2075080D01*
X2006767Y2099747D01*
X1965747Y2116738D01*
X1922200Y2125400D01*
D02*
G37*
G36*
X1887300D02*
X1877800D01*
X1834253Y2116738D01*
X1793233Y2099747D01*
X1756316Y2075080D01*
X1724920Y2043684D01*
X1700253Y2006767D01*
X1683262Y1965747D01*
X1674600Y1922200D01*
Y1912700D01*
X1887300D01*
Y2125400D01*
D02*
G37*
G36*
X5922189Y2125395D02*
X5912689D01*
Y1912695D01*
X6125389D01*
Y1922195D01*
X6116727Y1965742D01*
X6099736Y2006762D01*
X6075069Y2043679D01*
X6043673Y2075075D01*
X6006756Y2099742D01*
X5965736Y2116733D01*
X5922189Y2125395D01*
D02*
G37*
G36*
X5887289D02*
X5877789D01*
X5834243Y2116733D01*
X5793222Y2099742D01*
X5756305Y2075075D01*
X5724910Y2043679D01*
X5700242Y2006762D01*
X5683251Y1965742D01*
X5674589Y1922195D01*
Y1912695D01*
X5887289D01*
Y2125395D01*
D02*
G37*
G36*
X7420836Y1997500D02*
X7395164D01*
X7370366Y1990855D01*
X7348134Y1978019D01*
X7329981Y1959866D01*
X7317145Y1937634D01*
X7310500Y1912836D01*
Y1887164D01*
X7317145Y1862366D01*
X7329981Y1840134D01*
X7348134Y1821981D01*
X7370366Y1809145D01*
X7395164Y1802500D01*
X7420836D01*
X7445634Y1809145D01*
X7467866Y1821981D01*
X7486019Y1840134D01*
X7498855Y1862366D01*
X7505500Y1887164D01*
Y1912836D01*
X7498855Y1937634D01*
X7486019Y1959866D01*
X7467866Y1978019D01*
X7445634Y1990855D01*
X7420836Y1997500D01*
D02*
G37*
G36*
X6404836D02*
X6379164D01*
X6354366Y1990855D01*
X6332134Y1978019D01*
X6313981Y1959866D01*
X6301145Y1937634D01*
X6294500Y1912836D01*
Y1887164D01*
X6301145Y1862366D01*
X6313981Y1840134D01*
X6332134Y1821981D01*
X6354366Y1809145D01*
X6379164Y1802500D01*
X6404836D01*
X6429634Y1809145D01*
X6451866Y1821981D01*
X6470019Y1840134D01*
X6482855Y1862366D01*
X6489500Y1887164D01*
Y1912836D01*
X6482855Y1937634D01*
X6470019Y1959866D01*
X6451866Y1978019D01*
X6429634Y1990855D01*
X6404836Y1997500D01*
D02*
G37*
G36*
X5420836D02*
X5395164D01*
X5370366Y1990855D01*
X5348134Y1978019D01*
X5329980Y1959866D01*
X5317145Y1937634D01*
X5310500Y1912836D01*
Y1887164D01*
X5317145Y1862366D01*
X5329980Y1840134D01*
X5348134Y1821981D01*
X5370366Y1809145D01*
X5395164Y1802500D01*
X5420836D01*
X5445634Y1809145D01*
X5467866Y1821981D01*
X5486019Y1840134D01*
X5498855Y1862366D01*
X5505500Y1887164D01*
Y1912836D01*
X5498855Y1937634D01*
X5486019Y1959866D01*
X5467866Y1978019D01*
X5445634Y1990855D01*
X5420836Y1997500D01*
D02*
G37*
G36*
X4404836D02*
X4379164D01*
X4354366Y1990855D01*
X4332134Y1978019D01*
X4313980Y1959866D01*
X4301145Y1937634D01*
X4294500Y1912836D01*
Y1887164D01*
X4301145Y1862366D01*
X4313980Y1840134D01*
X4332134Y1821981D01*
X4354366Y1809145D01*
X4379164Y1802500D01*
X4404836D01*
X4429634Y1809145D01*
X4451866Y1821981D01*
X4470019Y1840134D01*
X4482855Y1862366D01*
X4489500Y1887164D01*
Y1912836D01*
X4482855Y1937634D01*
X4470019Y1959866D01*
X4451866Y1978019D01*
X4429634Y1990855D01*
X4404836Y1997500D01*
D02*
G37*
G36*
X3420836D02*
X3395164D01*
X3370366Y1990855D01*
X3348134Y1978019D01*
X3329981Y1959866D01*
X3317145Y1937634D01*
X3310500Y1912836D01*
Y1887164D01*
X3317145Y1862366D01*
X3329981Y1840134D01*
X3348134Y1821981D01*
X3370366Y1809145D01*
X3395164Y1802500D01*
X3420836D01*
X3445634Y1809145D01*
X3467866Y1821981D01*
X3486019Y1840134D01*
X3498855Y1862366D01*
X3505500Y1887164D01*
Y1912836D01*
X3498855Y1937634D01*
X3486019Y1959866D01*
X3467866Y1978019D01*
X3445634Y1990855D01*
X3420836Y1997500D01*
D02*
G37*
G36*
X2404836D02*
X2379164D01*
X2354366Y1990855D01*
X2332134Y1978019D01*
X2313981Y1959866D01*
X2301145Y1937634D01*
X2294500Y1912836D01*
Y1887164D01*
X2301145Y1862366D01*
X2313981Y1840134D01*
X2332134Y1821981D01*
X2354366Y1809145D01*
X2379164Y1802500D01*
X2404836D01*
X2429634Y1809145D01*
X2451866Y1821981D01*
X2470019Y1840134D01*
X2482855Y1862366D01*
X2489500Y1887164D01*
Y1912836D01*
X2482855Y1937634D01*
X2470019Y1959866D01*
X2451866Y1978019D01*
X2429634Y1990855D01*
X2404836Y1997500D01*
D02*
G37*
G36*
X1420836D02*
X1395164D01*
X1370366Y1990855D01*
X1348134Y1978019D01*
X1329981Y1959866D01*
X1317145Y1937634D01*
X1310500Y1912836D01*
Y1887164D01*
X1317145Y1862366D01*
X1329981Y1840134D01*
X1348134Y1821981D01*
X1370366Y1809145D01*
X1395164Y1802500D01*
X1420836D01*
X1445634Y1809145D01*
X1467866Y1821981D01*
X1486019Y1840134D01*
X1498855Y1862366D01*
X1505500Y1887164D01*
Y1912836D01*
X1498855Y1937634D01*
X1486019Y1959866D01*
X1467866Y1978019D01*
X1445634Y1990855D01*
X1420836Y1997500D01*
D02*
G37*
G36*
X404836D02*
X379164D01*
X354366Y1990855D01*
X332134Y1978019D01*
X313981Y1959866D01*
X301145Y1937634D01*
X294500Y1912836D01*
Y1887164D01*
X301145Y1862366D01*
X313981Y1840134D01*
X332134Y1821981D01*
X354366Y1809145D01*
X379164Y1802500D01*
X404836D01*
X429634Y1809145D01*
X451866Y1821981D01*
X470019Y1840134D01*
X482855Y1862366D01*
X489500Y1887164D01*
Y1912836D01*
X482855Y1937634D01*
X470019Y1959866D01*
X451866Y1978019D01*
X429634Y1990855D01*
X404836Y1997500D01*
D02*
G37*
G36*
X6920929Y2112500D02*
X6879071D01*
X6838016Y2104334D01*
X6799344Y2088315D01*
X6764539Y2065060D01*
X6734940Y2035461D01*
X6711685Y2000656D01*
X6695666Y1961984D01*
X6687500Y1920929D01*
Y1879071D01*
X6695666Y1838016D01*
X6711685Y1799344D01*
X6734940Y1764539D01*
X6764539Y1734940D01*
X6799344Y1711685D01*
X6838016Y1695666D01*
X6879071Y1687500D01*
X6920929D01*
X6961984Y1695666D01*
X7000656Y1711685D01*
X7035461Y1734940D01*
X7065060Y1764539D01*
X7088315Y1799344D01*
X7104334Y1838016D01*
X7112500Y1879071D01*
Y1920929D01*
X7104334Y1961984D01*
X7088315Y2000656D01*
X7065060Y2035461D01*
X7035461Y2065060D01*
X7000656Y2088315D01*
X6961984Y2104334D01*
X6920929Y2112500D01*
D02*
G37*
G36*
X4920929D02*
X4879071D01*
X4838016Y2104334D01*
X4799343Y2088315D01*
X4764539Y2065060D01*
X4734940Y2035461D01*
X4711685Y2000656D01*
X4695666Y1961984D01*
X4687500Y1920929D01*
Y1879071D01*
X4695666Y1838016D01*
X4711685Y1799344D01*
X4734940Y1764539D01*
X4764539Y1734940D01*
X4799343Y1711685D01*
X4838016Y1695666D01*
X4879071Y1687500D01*
X4920929D01*
X4961984Y1695666D01*
X5000656Y1711685D01*
X5035461Y1734940D01*
X5065059Y1764539D01*
X5088315Y1799344D01*
X5104333Y1838016D01*
X5112500Y1879071D01*
Y1920929D01*
X5104333Y1961984D01*
X5088315Y2000656D01*
X5065059Y2035461D01*
X5035461Y2065060D01*
X5000656Y2088315D01*
X4961984Y2104334D01*
X4920929Y2112500D01*
D02*
G37*
G36*
X2920929D02*
X2879071D01*
X2838016Y2104334D01*
X2799344Y2088315D01*
X2764539Y2065060D01*
X2734940Y2035461D01*
X2711685Y2000656D01*
X2695666Y1961984D01*
X2687500Y1920929D01*
Y1879071D01*
X2695666Y1838016D01*
X2711685Y1799344D01*
X2734940Y1764539D01*
X2764539Y1734940D01*
X2799344Y1711685D01*
X2838016Y1695666D01*
X2879071Y1687500D01*
X2920929D01*
X2961984Y1695666D01*
X3000656Y1711685D01*
X3035461Y1734940D01*
X3065060Y1764539D01*
X3088315Y1799344D01*
X3104334Y1838016D01*
X3112500Y1879071D01*
Y1920929D01*
X3104334Y1961984D01*
X3088315Y2000656D01*
X3065060Y2035461D01*
X3035461Y2065060D01*
X3000656Y2088315D01*
X2961984Y2104334D01*
X2920929Y2112500D01*
D02*
G37*
G36*
X920929D02*
X879071D01*
X838016Y2104334D01*
X799344Y2088315D01*
X764539Y2065060D01*
X734940Y2035461D01*
X711685Y2000656D01*
X695666Y1961984D01*
X687500Y1920929D01*
Y1879071D01*
X695666Y1838016D01*
X711685Y1799344D01*
X734940Y1764539D01*
X764539Y1734940D01*
X799344Y1711685D01*
X838016Y1695666D01*
X879071Y1687500D01*
X920929D01*
X961984Y1695666D01*
X1000656Y1711685D01*
X1035461Y1734940D01*
X1065060Y1764539D01*
X1088315Y1799344D01*
X1104334Y1838016D01*
X1112500Y1879071D01*
Y1920929D01*
X1104334Y1961984D01*
X1088315Y2000656D01*
X1065060Y2035461D01*
X1035461Y2065060D01*
X1000656Y2088315D01*
X961984Y2104334D01*
X920929Y2112500D01*
D02*
G37*
G36*
X2125400Y1887300D02*
X1912700D01*
Y1674600D01*
X1922200D01*
X1965747Y1683262D01*
X2006767Y1700253D01*
X2043684Y1724920D01*
X2075080Y1756316D01*
X2099747Y1793233D01*
X2116738Y1834253D01*
X2125400Y1877800D01*
Y1887300D01*
D02*
G37*
G36*
X1887300D02*
X1674600D01*
Y1877800D01*
X1683262Y1834253D01*
X1700253Y1793233D01*
X1724920Y1756316D01*
X1756316Y1724920D01*
X1793233Y1700253D01*
X1834253Y1683262D01*
X1877800Y1674600D01*
X1887300D01*
Y1887300D01*
D02*
G37*
G36*
X6125389Y1887295D02*
X5912689D01*
Y1674596D01*
X5922189D01*
X5965736Y1683257D01*
X6006756Y1700249D01*
X6043673Y1724916D01*
X6075069Y1756311D01*
X6099736Y1793229D01*
X6116727Y1834249D01*
X6125389Y1877796D01*
Y1887295D01*
D02*
G37*
G36*
X5887289D02*
X5674589D01*
Y1877796D01*
X5683251Y1834249D01*
X5700242Y1793229D01*
X5724910Y1756311D01*
X5756305Y1724916D01*
X5793222Y1700249D01*
X5834243Y1683257D01*
X5877789Y1674596D01*
X5887289D01*
Y1887295D01*
D02*
G37*
G36*
X6757459Y1537500D02*
X6742541D01*
X6728758Y1531791D01*
X6718209Y1521242D01*
X6712500Y1507459D01*
Y1492541D01*
X6718209Y1478758D01*
X6728758Y1468209D01*
X6742541Y1462500D01*
X6757459D01*
X6771242Y1468209D01*
X6781791Y1478758D01*
X6787500Y1492541D01*
Y1507459D01*
X6781791Y1521242D01*
X6771242Y1531791D01*
X6757459Y1537500D01*
D02*
G37*
G36*
X4757459D02*
X4742541D01*
X4728758Y1531791D01*
X4718209Y1521242D01*
X4712500Y1507459D01*
Y1492541D01*
X4718209Y1478758D01*
X4728758Y1468209D01*
X4742541Y1462500D01*
X4757459D01*
X4771242Y1468209D01*
X4781791Y1478758D01*
X4787500Y1492541D01*
Y1507459D01*
X4781791Y1521242D01*
X4771242Y1531791D01*
X4757459Y1537500D01*
D02*
G37*
G36*
X2757459D02*
X2742541D01*
X2728758Y1531791D01*
X2718209Y1521242D01*
X2712500Y1507459D01*
Y1492541D01*
X2718209Y1478758D01*
X2728758Y1468209D01*
X2742541Y1462500D01*
X2757459D01*
X2771242Y1468209D01*
X2781791Y1478758D01*
X2787500Y1492541D01*
Y1507459D01*
X2781791Y1521242D01*
X2771242Y1531791D01*
X2757459Y1537500D01*
D02*
G37*
G36*
X757459D02*
X742541D01*
X728758Y1531791D01*
X718209Y1521242D01*
X712500Y1507459D01*
Y1492541D01*
X718209Y1478758D01*
X728758Y1468209D01*
X742541Y1462500D01*
X757459D01*
X771242Y1468209D01*
X781791Y1478758D01*
X787500Y1492541D01*
Y1507459D01*
X781791Y1521242D01*
X771242Y1531791D01*
X757459Y1537500D01*
D02*
G37*
G36*
X4057459Y1237500D02*
X4042541D01*
X4028758Y1231791D01*
X4018209Y1221242D01*
X4012500Y1207459D01*
Y1192541D01*
X4018209Y1178758D01*
X4028758Y1168209D01*
X4042541Y1162500D01*
X4057459D01*
X4071242Y1168209D01*
X4081791Y1178758D01*
X4087500Y1192541D01*
Y1207459D01*
X4081791Y1221242D01*
X4071242Y1231791D01*
X4057459Y1237500D01*
D02*
G37*
G36*
X3957459D02*
X3942541D01*
X3928758Y1231791D01*
X3918209Y1221242D01*
X3912500Y1207459D01*
Y1192541D01*
X3918209Y1178758D01*
X3928758Y1168209D01*
X3942541Y1162500D01*
X3957459D01*
X3971242Y1168209D01*
X3981791Y1178758D01*
X3987500Y1192541D01*
Y1207459D01*
X3981791Y1221242D01*
X3971242Y1231791D01*
X3957459Y1237500D01*
D02*
G37*
G36*
X3697459Y1057500D02*
X3682541D01*
X3668758Y1051791D01*
X3658209Y1041242D01*
X3652500Y1027459D01*
Y1012541D01*
X3658209Y998758D01*
X3668758Y988209D01*
X3682541Y982500D01*
X3697459D01*
X3711242Y988209D01*
X3721791Y998758D01*
X3727500Y1012541D01*
Y1027459D01*
X3721791Y1041242D01*
X3711242Y1051791D01*
X3697459Y1057500D01*
D02*
G37*
G36*
X2807459Y1037500D02*
X2792541D01*
X2778758Y1031791D01*
X2768209Y1021242D01*
X2762500Y1007459D01*
Y992541D01*
X2768209Y978758D01*
X2778758Y968209D01*
X2792541Y962500D01*
X2807459D01*
X2821242Y968209D01*
X2831791Y978758D01*
X2837500Y992541D01*
Y1007459D01*
X2831791Y1021242D01*
X2821242Y1031791D01*
X2807459Y1037500D01*
D02*
G37*
G36*
X2707459D02*
X2692541D01*
X2678758Y1031791D01*
X2668209Y1021242D01*
X2662500Y1007459D01*
Y992541D01*
X2668209Y978758D01*
X2678758Y968209D01*
X2692541Y962500D01*
X2707459D01*
X2721242Y968209D01*
X2731791Y978758D01*
X2737500Y992541D01*
Y1007459D01*
X2731791Y1021242D01*
X2721242Y1031791D01*
X2707459Y1037500D01*
D02*
G37*
G36*
X2607459D02*
X2592541D01*
X2578758Y1031791D01*
X2568209Y1021242D01*
X2562500Y1007459D01*
Y992541D01*
X2568209Y978758D01*
X2578758Y968209D01*
X2592541Y962500D01*
X2607459D01*
X2621242Y968209D01*
X2631791Y978758D01*
X2637500Y992541D01*
Y1007459D01*
X2631791Y1021242D01*
X2621242Y1031791D01*
X2607459Y1037500D01*
D02*
G37*
G36*
X2507459D02*
X2492541D01*
X2478758Y1031791D01*
X2468209Y1021242D01*
X2462500Y1007459D01*
Y992541D01*
X2468209Y978758D01*
X2478758Y968209D01*
X2492541Y962500D01*
X2507459D01*
X2521242Y968209D01*
X2531791Y978758D01*
X2537500Y992541D01*
Y1007459D01*
X2531791Y1021242D01*
X2521242Y1031791D01*
X2507459Y1037500D01*
D02*
G37*
G36*
X3617459Y997500D02*
X3602541D01*
X3588758Y991791D01*
X3578209Y981242D01*
X3572500Y967459D01*
Y952541D01*
X3578209Y938758D01*
X3588758Y928209D01*
X3602541Y922500D01*
X3617459D01*
X3631242Y928209D01*
X3641791Y938758D01*
X3647500Y952541D01*
Y967459D01*
X3641791Y981242D01*
X3631242Y991791D01*
X3617459Y997500D01*
D02*
G37*
G36*
X6684401Y956196D02*
X6669482D01*
X6655699Y950487D01*
X6645151Y939938D01*
X6639441Y926155D01*
Y911236D01*
X6645151Y897454D01*
X6655699Y886905D01*
X6669482Y881196D01*
X6684401D01*
X6698183Y886905D01*
X6708732Y897454D01*
X6714441Y911236D01*
Y926155D01*
X6708732Y939938D01*
X6698183Y950487D01*
X6684401Y956196D01*
D02*
G37*
G36*
X4127459Y907500D02*
X4112541D01*
X4098758Y901791D01*
X4088209Y891242D01*
X4082500Y877459D01*
Y862541D01*
X4088209Y848758D01*
X4098758Y838209D01*
X4112541Y832500D01*
X4127459D01*
X4141242Y838209D01*
X4151791Y848758D01*
X4157500Y862541D01*
Y877459D01*
X4151791Y891242D01*
X4141242Y901791D01*
X4127459Y907500D01*
D02*
G37*
G36*
X3957459Y687500D02*
X3942541D01*
X3928758Y681791D01*
X3918209Y671242D01*
X3912500Y657459D01*
Y642541D01*
X3918209Y628758D01*
X3928758Y618209D01*
X3942541Y612500D01*
X3957459D01*
X3971242Y618209D01*
X3981791Y628758D01*
X3987500Y642541D01*
Y657459D01*
X3981791Y671242D01*
X3971242Y681791D01*
X3957459Y687500D01*
D02*
G37*
G36*
X4507459Y497500D02*
X4492541D01*
X4478758Y491791D01*
X4468209Y481242D01*
X4462500Y467459D01*
Y452541D01*
X4468209Y438758D01*
X4478758Y428209D01*
X4492541Y422500D01*
X4507459D01*
X4521242Y428209D01*
X4531791Y438758D01*
X4537500Y452541D01*
Y467459D01*
X4531791Y481242D01*
X4521242Y491791D01*
X4507459Y497500D01*
D02*
G37*
G36*
X3267459Y437500D02*
X3252541D01*
X3238758Y431791D01*
X3228209Y421242D01*
X3222500Y407459D01*
Y392541D01*
X3228209Y378758D01*
X3238758Y368209D01*
X3252541Y362500D01*
X3267459D01*
X3281242Y368209D01*
X3291791Y378758D01*
X3297500Y392541D01*
Y407459D01*
X3291791Y421242D01*
X3281242Y431791D01*
X3267459Y437500D01*
D02*
G37*
G36*
X932222Y300402D02*
X931704D01*
Y212701D01*
X1019404D01*
Y213220D01*
X1012562Y238755D01*
X999344Y261649D01*
X980651Y280342D01*
X957757Y293560D01*
X932222Y300402D01*
D02*
G37*
G36*
X6132222D02*
X6131703D01*
Y212701D01*
X6219404D01*
Y213220D01*
X6212562Y238755D01*
X6199344Y261649D01*
X6180651Y280342D01*
X6157757Y293560D01*
X6132222Y300402D01*
D02*
G37*
G36*
X6106303D02*
X6105786D01*
X6080251Y293560D01*
X6057357Y280342D01*
X6038664Y261649D01*
X6025446Y238755D01*
X6018604Y213220D01*
Y212701D01*
X6106303D01*
Y300402D01*
D02*
G37*
G36*
X906304D02*
X905786D01*
X880251Y293560D01*
X857357Y280342D01*
X838664Y261649D01*
X825446Y238755D01*
X818604Y213220D01*
Y212701D01*
X906304D01*
Y300402D01*
D02*
G37*
G36*
X3405218Y300400D02*
X3404700D01*
Y212701D01*
X3492400D01*
Y213218D01*
X3485558Y238753D01*
X3472340Y261647D01*
X3453647Y280340D01*
X3430753Y293558D01*
X3405218Y300400D01*
D02*
G37*
G36*
X3379300D02*
X3378782D01*
X3353247Y293558D01*
X3330353Y280340D01*
X3311660Y261647D01*
X3298442Y238753D01*
X3291600Y213218D01*
Y212701D01*
X3379300D01*
Y300400D01*
D02*
G37*
G36*
X6384523Y287502D02*
X6361484D01*
X6339230Y281539D01*
X6319277Y270019D01*
X6302986Y253728D01*
X6291467Y233776D01*
X6285504Y211522D01*
Y188482D01*
X6291467Y166228D01*
X6302986Y146276D01*
X6319277Y129984D01*
X6339230Y118465D01*
X6361484Y112502D01*
X6384523D01*
X6406778Y118465D01*
X6426730Y129984D01*
X6443021Y146276D01*
X6454541Y166228D01*
X6460504Y188482D01*
Y211522D01*
X6454541Y233776D01*
X6443021Y253728D01*
X6426730Y270019D01*
X6406778Y281539D01*
X6384523Y287502D01*
D02*
G37*
G36*
X1184523D02*
X1161484D01*
X1139230Y281539D01*
X1119277Y270019D01*
X1102986Y253728D01*
X1091467Y233776D01*
X1085504Y211522D01*
Y188482D01*
X1091467Y166228D01*
X1102986Y146276D01*
X1119277Y129984D01*
X1139230Y118465D01*
X1161484Y112502D01*
X1184523D01*
X1206778Y118465D01*
X1226730Y129984D01*
X1243021Y146276D01*
X1254541Y166228D01*
X1260504Y188482D01*
Y211522D01*
X1254541Y233776D01*
X1243021Y253728D01*
X1226730Y270019D01*
X1206778Y281539D01*
X1184523Y287502D01*
D02*
G37*
G36*
X3911520Y287500D02*
X3888480D01*
X3866226Y281537D01*
X3846274Y270017D01*
X3829983Y253726D01*
X3818463Y233774D01*
X3812500Y211520D01*
Y188480D01*
X3818463Y166226D01*
X3829983Y146274D01*
X3846274Y129983D01*
X3866226Y118463D01*
X3888480Y112500D01*
X3911520D01*
X3933774Y118463D01*
X3953726Y129983D01*
X3970017Y146274D01*
X3981537Y166226D01*
X3987500Y188480D01*
Y211520D01*
X3981537Y233774D01*
X3970017Y253726D01*
X3953726Y270017D01*
X3933774Y281537D01*
X3911520Y287500D01*
D02*
G37*
G36*
X3657520D02*
X3634480D01*
X3612226Y281537D01*
X3592274Y270017D01*
X3575983Y253726D01*
X3564463Y233774D01*
X3558500Y211520D01*
Y188480D01*
X3564463Y166226D01*
X3575983Y146274D01*
X3592274Y129983D01*
X3612226Y118463D01*
X3634480Y112500D01*
X3657520D01*
X3679774Y118463D01*
X3699726Y129983D01*
X3716017Y146274D01*
X3727537Y166226D01*
X3733500Y188480D01*
Y211520D01*
X3727537Y233774D01*
X3716017Y253726D01*
X3699726Y270017D01*
X3679774Y281537D01*
X3657520Y287500D01*
D02*
G37*
G36*
X6968496Y287498D02*
X6793496D01*
Y112498D01*
X6968496D01*
Y287498D01*
D02*
G37*
G36*
X6638516D02*
X6615476D01*
X6593222Y281535D01*
X6573270Y270016D01*
X6556979Y253725D01*
X6545459Y233772D01*
X6539496Y211518D01*
Y188479D01*
X6545459Y166224D01*
X6556979Y146272D01*
X6573270Y129981D01*
X6593222Y118461D01*
X6615476Y112498D01*
X6638516D01*
X6660770Y118461D01*
X6680722Y129981D01*
X6697013Y146272D01*
X6708533Y166224D01*
X6714496Y188479D01*
Y211518D01*
X6708533Y233772D01*
X6697013Y253725D01*
X6680722Y270016D01*
X6660770Y281535D01*
X6638516Y287498D01*
D02*
G37*
G36*
X1768496D02*
X1593496D01*
Y112498D01*
X1768496D01*
Y287498D01*
D02*
G37*
G36*
X1438516D02*
X1415476D01*
X1393222Y281535D01*
X1373270Y270016D01*
X1356978Y253725D01*
X1345459Y233772D01*
X1339496Y211518D01*
Y188479D01*
X1345459Y166224D01*
X1356978Y146272D01*
X1373270Y129981D01*
X1393222Y118461D01*
X1415476Y112498D01*
X1438516D01*
X1460770Y118461D01*
X1480722Y129981D01*
X1497013Y146272D01*
X1508533Y166224D01*
X1514496Y188479D01*
Y211518D01*
X1508533Y233772D01*
X1497013Y253725D01*
X1480722Y270016D01*
X1460770Y281535D01*
X1438516Y287498D01*
D02*
G37*
G36*
X4495492Y287497D02*
X4320492D01*
Y112497D01*
X4495492D01*
Y287497D01*
D02*
G37*
G36*
X4165512D02*
X4142473D01*
X4120218Y281534D01*
X4100266Y270014D01*
X4083975Y253723D01*
X4072455Y233770D01*
X4066492Y211516D01*
Y188477D01*
X4072455Y166223D01*
X4083975Y146270D01*
X4100266Y129979D01*
X4120218Y118460D01*
X4142473Y112497D01*
X4165512D01*
X4187766Y118460D01*
X4207719Y129979D01*
X4224010Y146270D01*
X4235529Y166223D01*
X4241492Y188477D01*
Y211516D01*
X4235529Y233770D01*
X4224010Y253723D01*
X4207719Y270014D01*
X4187766Y281534D01*
X4165512Y287497D01*
D02*
G37*
G36*
X6219404Y187301D02*
X6131703D01*
Y99602D01*
X6132222D01*
X6157757Y106444D01*
X6180651Y119662D01*
X6199344Y138355D01*
X6212562Y161249D01*
X6219404Y186784D01*
Y187301D01*
D02*
G37*
G36*
X6106303D02*
X6018604D01*
Y186784D01*
X6025446Y161249D01*
X6038664Y138355D01*
X6057357Y119662D01*
X6080251Y106444D01*
X6105786Y99602D01*
X6106303D01*
Y187301D01*
D02*
G37*
G36*
X1019404D02*
X931704D01*
Y99602D01*
X932222D01*
X957757Y106444D01*
X980651Y119662D01*
X999344Y138355D01*
X1012562Y161249D01*
X1019404Y186784D01*
Y187301D01*
D02*
G37*
G36*
X906304D02*
X818604D01*
Y186784D01*
X825446Y161249D01*
X838664Y138355D01*
X857357Y119662D01*
X880251Y106444D01*
X905786Y99602D01*
X906304D01*
Y187301D01*
D02*
G37*
G36*
X3492400Y187301D02*
X3404700D01*
Y99600D01*
X3405218D01*
X3430753Y106442D01*
X3453647Y119660D01*
X3472340Y138353D01*
X3485558Y161247D01*
X3492400Y186782D01*
Y187301D01*
D02*
G37*
G36*
X3379300D02*
X3291600D01*
Y186782D01*
X3298442Y161247D01*
X3311660Y138353D01*
X3330353Y119660D01*
X3353247Y106442D01*
X3378782Y99600D01*
X3379300D01*
Y187301D01*
D02*
G37*
%LPD*%
D25*
X3646000Y200000D02*
D03*
X3900000D02*
D03*
X4153992Y199997D02*
D03*
X3392000Y200000D02*
D03*
X6626996Y199998D02*
D03*
X6373004Y200002D02*
D03*
X6119004D02*
D03*
X1426996Y199998D02*
D03*
X1173004Y200002D02*
D03*
X919004D02*
D03*
D26*
X4407992Y199997D02*
D03*
X6880996Y199998D02*
D03*
X1680996D02*
D03*
D27*
X1154000Y2408000D02*
D03*
X519000Y2154000D02*
D03*
X1154000Y4408000D02*
D03*
X519000Y4154000D02*
D03*
X3154000Y4408000D02*
D03*
X2519000Y4154000D02*
D03*
X3154000Y2408000D02*
D03*
X2519000Y2154000D02*
D03*
X7154000Y2408000D02*
D03*
X6519000Y2154000D02*
D03*
X5154000Y2408000D02*
D03*
X4519000Y2154000D02*
D03*
X7154000Y4408000D02*
D03*
X6519000Y4154000D02*
D03*
X5154000Y4408000D02*
D03*
X4519000Y4154000D02*
D03*
D28*
X3610986Y4778131D02*
D03*
X4188989D02*
D03*
D29*
X3467489Y5148140D02*
D03*
X4332511D02*
D03*
D30*
X3467489Y4728141D02*
D03*
X4332511D02*
D03*
D31*
X1900000Y3900000D02*
D03*
X5900000D02*
D03*
X5899989Y1899995D02*
D03*
X1900000Y1900000D02*
D03*
D32*
X4219989Y4420000D02*
D03*
Y4520000D02*
D03*
X4140009Y4420000D02*
D03*
Y4520000D02*
D03*
X3580013Y4420000D02*
D03*
Y4520000D02*
D03*
X3660000D02*
D03*
Y4420000D02*
D03*
X2950000Y4900000D02*
D03*
X2650000D02*
D03*
X2350000D02*
D03*
X5450000Y4895000D02*
D03*
X5150000D02*
D03*
X4850000D02*
D03*
X5450000Y5105000D02*
D03*
X5150000D02*
D03*
X4850000D02*
D03*
X2350000D02*
D03*
X2650000D02*
D03*
X2950000D02*
D03*
X4500000Y2660000D02*
D03*
X4700000Y2660000D02*
D03*
X4500000Y460000D02*
D03*
X3260000Y400000D02*
D03*
X4120000Y870000D02*
D03*
X4030000Y700000D02*
D03*
X3950000Y650000D02*
D03*
X6676941Y918696D02*
D03*
X4050000Y1200000D02*
D03*
X3950000D02*
D03*
X3690000Y1020000D02*
D03*
X3610000Y960000D02*
D03*
X2500000Y1000000D02*
D03*
X2600000D02*
D03*
X2700000D02*
D03*
X2800000D02*
D03*
X3740000Y3610000D02*
D03*
X4060000D02*
D03*
X4130000Y4170000D02*
D03*
X3670000D02*
D03*
X3840000Y4500000D02*
D03*
X3970000Y4550000D02*
D03*
X3925819Y3890000D02*
D03*
X3863319D02*
D03*
X4750000Y1500000D02*
D03*
X4900000Y1250000D02*
D03*
X5050000Y1500000D02*
D03*
X2750000D02*
D03*
X2900000Y1250000D02*
D03*
X3050000Y1500000D02*
D03*
X750000D02*
D03*
X900000Y1250000D02*
D03*
X1050000Y1500000D02*
D03*
Y3320000D02*
D03*
X900000Y3570000D02*
D03*
X750000Y3320000D02*
D03*
X3050000D02*
D03*
X2900000Y3570000D02*
D03*
X2750000Y3320000D02*
D03*
X5050000D02*
D03*
X4900000Y3570000D02*
D03*
X4750000Y3320000D02*
D03*
X7050000D02*
D03*
X6900000Y3570000D02*
D03*
X6750000Y3320000D02*
D03*
X7050000Y1500000D02*
D03*
X6900000Y1250000D02*
D03*
X6750000Y1500000D02*
D03*
X500000Y2660000D02*
D03*
X700000Y2660000D02*
D03*
X2500000Y2660000D02*
D03*
X2700000Y2660000D02*
D03*
X6500000Y2660000D02*
D03*
X6700000Y2660000D02*
D03*
X6500000Y4660000D02*
D03*
X6700000Y4660000D02*
D03*
X4500000Y4660000D02*
D03*
X4700000Y4660000D02*
D03*
X2500000Y4660000D02*
D03*
X2700000Y4660000D02*
D03*
X700000D02*
D03*
X500000Y4660000D02*
D03*
%TF.MD5,cc0258b7ec76fd7ebe9e0e9ba1d63ab4*%
M02*
